<svg width="16" height="16" viewBox="0 0 16 16" fill="none" xmlns="http://www.w3.org/2000/svg">
<g clip-path="url(#clip0_3087_32965)">
<path d="M14.0147 5.16602C13.05 2.95852 10.8472 1.41602 8.28469 1.41602C5.72188 1.41602 3.51906 2.95852 2.55469 5.16602" stroke="#6F6F6F" stroke-width="1.25" stroke-linecap="round" stroke-linejoin="round"/>
<path d="M8.28516 4.54102C7.69065 5.12228 7.21848 5.81664 6.89647 6.5832C6.57445 7.34976 6.4091 8.17301 6.41016 9.00445C6.41016 9.1607 6.41579 9.3157 6.42735 9.46945C7.01675 10.0501 7.48458 10.7424 7.80355 11.5058C8.12253 12.2693 8.28625 13.0886 8.28516 13.916C8.28403 13.0886 8.44773 12.2692 8.76671 11.5057C9.08568 10.7422 9.55354 10.0499 10.143 9.46914C10.2119 8.56188 10.0813 7.65054 9.76031 6.79915C9.43936 5.94777 8.93585 5.177 8.28516 4.54102Z" stroke="#6F6F6F" stroke-width="1.25" stroke-linecap="round" stroke-linejoin="round"/>
<path d="M2.03516 7.66602C2.03516 11.1179 4.83328 13.916 8.28516 13.916C8.28628 13.0886 8.12258 12.2692 7.80361 11.5057C7.48464 10.7422 7.01678 10.0499 6.42734 9.46915C5.25868 8.31191 3.67983 7.66375 2.03516 7.66602Z" stroke="#6F6F6F" stroke-width="1.25" stroke-linecap="round" stroke-linejoin="round"/>
<path d="M14.5352 7.66602C14.5352 11.1179 11.737 13.916 8.28516 13.916C8.28403 13.0886 8.44773 12.2692 8.76671 11.5057C9.08568 10.7422 9.55354 10.0499 10.143 9.46915C11.3116 8.31191 12.8905 7.66375 14.5352 7.66602Z" stroke="#6F6F6F" stroke-width="1.25" stroke-linecap="round" stroke-linejoin="round"/>
</g>
<defs>
<clipPath id="clip0_3087_32965">
<rect width="15" height="15" fill="white" transform="translate(0.785156 0.166016)"/>
</clipPath>
</defs>
</svg>
