<svg width="16" height="16" viewBox="0 0 16 16" fill="none" xmlns="http://www.w3.org/2000/svg">
<g clip-path="url(#clip0_3087_32950)">
<path d="M13.9095 4.54102C14.0688 4.54119 14.222 4.60219 14.3378 4.71155C14.4537 4.8209 14.5234 4.97036 14.5327 5.12939C14.542 5.28841 14.4903 5.445 14.388 5.56716C14.2858 5.68932 14.1408 5.76783 13.9826 5.78664L13.9095 5.79102V12.041C14.0688 12.0412 14.222 12.1022 14.3378 12.2115C14.4537 12.3209 14.5234 12.4704 14.5327 12.6294C14.542 12.7884 14.4903 12.945 14.388 13.0672C14.2858 13.1893 14.1408 13.2678 13.9826 13.2866L13.9095 13.291H2.65946C2.50016 13.2908 2.34694 13.2298 2.23111 13.1205C2.11527 13.0111 2.04557 12.8617 2.03623 12.7026C2.0269 12.5436 2.07864 12.387 2.18088 12.2649C2.28312 12.1427 2.42815 12.0642 2.58634 12.0454L2.65946 12.041V5.79102C2.50016 5.79084 2.34694 5.72984 2.23111 5.62049C2.11527 5.51113 2.04557 5.36167 2.03623 5.20264C2.0269 5.04362 2.07864 4.88703 2.18088 4.76487C2.28312 4.64271 2.42815 4.56421 2.58634 4.54539L2.65946 4.54102H13.9095ZM12.6595 5.79102H3.90946V12.041H5.15946V7.66602C5.15946 7.50026 5.22531 7.34128 5.34252 7.22407C5.45973 7.10686 5.6187 7.04102 5.78446 7.04102C5.95022 7.04102 6.1092 7.10686 6.22641 7.22407C6.34362 7.34128 6.40946 7.50026 6.40946 7.66602V12.041H7.65946V7.66602C7.65946 7.50026 7.72531 7.34128 7.84252 7.22407C7.95973 7.10686 8.1187 7.04102 8.28446 7.04102C8.45022 7.04102 8.6092 7.10686 8.72641 7.22407C8.84362 7.34128 8.90946 7.50026 8.90946 7.66602V12.041H10.1595V7.66602C10.1595 7.50026 10.2253 7.34128 10.3425 7.22407C10.4597 7.10686 10.6187 7.04102 10.7845 7.04102C10.9502 7.04102 11.1092 7.10686 11.2264 7.22407C11.3436 7.34128 11.4095 7.50026 11.4095 7.66602V12.041H12.6595V5.79102ZM12.0345 2.66602C12.2002 2.66602 12.3592 2.73186 12.4764 2.84907C12.5936 2.96628 12.6595 3.12526 12.6595 3.29102C12.6595 3.45678 12.5936 3.61575 12.4764 3.73296C12.3592 3.85017 12.2002 3.91602 12.0345 3.91602H4.53446C4.3687 3.91602 4.20973 3.85017 4.09252 3.73296C3.97531 3.61575 3.90946 3.45678 3.90946 3.29102C3.90946 3.12526 3.97531 2.96628 4.09252 2.84907C4.20973 2.73186 4.3687 2.66602 4.53446 2.66602H12.0345Z" fill="#6F6F6F"/>
</g>
<defs>
<clipPath id="clip0_3087_32950">
<rect width="15" height="15" fill="white" transform="translate(0.785156 0.166016)"/>
</clipPath>
</defs>
</svg>
