<svg width="32" height="31" viewBox="0 0 32 31" fill="none" xmlns="http://www.w3.org/2000/svg">
<rect x="0.501953" y="0.288574" width="31.1333" height="30" rx="4" fill="#FFE8F6"/>
<path d="M12.5996 22.0573C12.1496 22.0448 11.7214 21.9293 11.3149 21.7108C10.9084 21.4923 10.5241 21.1703 10.1621 20.7448C9.66211 20.1448 9.27136 19.4293 8.98986 18.5983C8.70836 17.7673 8.56786 16.9141 8.56836 16.0386C8.56836 15.0011 8.76536 14.0261 9.15936 13.1136C9.55336 12.2011 10.0876 11.4073 10.7621 10.7323C11.4371 10.0573 12.2309 9.52307 13.1434 9.12957C14.0559 8.73607 15.0309 8.53907 16.0684 8.53857C17.1059 8.53857 18.0809 8.73857 18.9934 9.13857C19.9059 9.53857 20.6996 10.0823 21.3746 10.7698C22.0496 11.4573 22.5841 12.2636 22.9781 13.1886C23.3721 14.1136 23.5689 15.1073 23.5684 16.1698C23.5684 17.1323 23.4121 18.0323 23.0996 18.8698C22.7871 19.7073 22.3434 20.4136 21.7684 20.9886C21.4184 21.3386 21.0496 21.6043 20.6621 21.7858C20.2746 21.9673 19.8809 22.0578 19.4809 22.0573C19.2559 22.0573 19.0309 22.0293 18.8059 21.9733C18.5809 21.9173 18.3559 21.8328 18.1309 21.7198L17.0809 21.1948C16.9309 21.1198 16.7714 21.0636 16.6024 21.0261C16.4334 20.9886 16.2554 20.9698 16.0684 20.9698C15.8809 20.9698 15.7026 20.9886 15.5336 21.0261C15.3646 21.0636 15.2054 21.1198 15.0559 21.1948L14.0059 21.7198C13.7684 21.8448 13.5339 21.9356 13.3024 21.9921C13.0709 22.0486 12.8366 22.0703 12.5996 22.0573ZM12.6371 20.5573C12.7496 20.5573 12.8654 20.5448 12.9844 20.5198C13.1034 20.4948 13.2189 20.4511 13.3309 20.3886L14.3809 19.8636C14.6434 19.7261 14.9154 19.6261 15.1969 19.5636C15.4784 19.5011 15.7626 19.4698 16.0496 19.4698C16.3371 19.4698 16.6246 19.5011 16.9121 19.5636C17.1996 19.6261 17.4746 19.7261 17.7371 19.8636L18.8059 20.3886C18.9184 20.4511 19.0309 20.4948 19.1434 20.5198C19.2559 20.5448 19.3684 20.5573 19.4809 20.5573C19.7184 20.5573 19.9434 20.4948 20.1559 20.3698C20.3684 20.2448 20.5809 20.0573 20.7934 19.8073C21.1934 19.3323 21.5059 18.7636 21.7309 18.1011C21.9559 17.4386 22.0684 16.7573 22.0684 16.0573C22.0684 14.3823 21.4871 12.9606 20.3246 11.7921C19.1621 10.6236 17.7434 10.0391 16.0684 10.0386C14.3934 10.0386 12.9746 10.6261 11.8121 11.8011C10.6496 12.9761 10.0684 14.4011 10.0684 16.0761C10.0684 16.7886 10.1839 17.4823 10.4149 18.1573C10.6459 18.8323 10.9679 19.4011 11.3809 19.8636C11.5934 20.1136 11.7996 20.2918 11.9996 20.3983C12.1996 20.5048 12.4121 20.5578 12.6371 20.5573ZM16.0684 17.5386C16.4809 17.5386 16.8341 17.3918 17.1281 17.0983C17.4221 16.8048 17.5689 16.4516 17.5684 16.0386C17.5684 15.9386 17.5589 15.8386 17.5399 15.7386C17.5209 15.6386 17.4929 15.5386 17.4559 15.4386L18.3934 14.1823C18.5184 14.3448 18.6279 14.5166 18.7219 14.6976C18.8159 14.8786 18.8939 15.0756 18.9559 15.2886H20.4934C20.3059 14.1886 19.7966 13.2886 18.9656 12.5886C18.1346 11.8886 17.1689 11.5386 16.0684 11.5386C14.9684 11.5386 13.9996 11.8918 13.1621 12.5983C12.3246 13.3048 11.8184 14.2016 11.6434 15.2886H13.1809C13.3559 14.6136 13.7121 14.0698 14.2496 13.6573C14.7871 13.2448 15.3934 13.0386 16.0684 13.0386C16.2809 13.0386 16.4809 13.0573 16.6684 13.0948C16.8559 13.1323 17.0371 13.1886 17.2121 13.2636L16.2559 14.5573C16.2309 14.5573 16.1996 14.5541 16.1621 14.5476C16.1246 14.5411 16.0934 14.5381 16.0684 14.5386C15.6559 14.5386 15.3029 14.6856 15.0094 14.9796C14.7159 15.2736 14.5689 15.6266 14.5684 16.0386C14.5684 16.4511 14.7154 16.8043 15.0094 17.0983C15.3034 17.3923 15.6564 17.5391 16.0684 17.5386Z" fill="#FF0BA3"/>
</svg>
