<svg width="468" height="469" viewBox="0 0 468 469" fill="none" xmlns="http://www.w3.org/2000/svg">
<path d="M396.984 69.3203H162.965C157.367 69.3203 152.828 73.8588 152.828 79.4572V202.373C152.828 207.971 157.367 212.51 162.965 212.51H396.984C402.582 212.51 407.121 207.971 407.121 202.373V79.4572C407.121 73.8588 402.582 69.3203 396.984 69.3203Z" fill="#F5F5F5"/>
<path d="M396.986 213.444H162.986C160.052 213.447 157.236 212.285 155.157 210.215C153.078 208.144 151.904 205.334 151.895 202.399V79.4558C151.897 76.5198 153.064 73.7048 155.14 71.6288C157.216 69.5528 160.031 68.3854 162.967 68.3829H396.967C398.426 68.378 399.87 68.6606 401.219 69.2146C402.568 69.7687 403.794 70.5832 404.828 71.6117C405.862 72.6401 406.682 73.8623 407.243 75.2083C407.804 76.5543 408.094 77.9976 408.096 79.4558V202.399C408.084 205.336 406.907 208.148 404.825 210.219C402.742 212.289 399.923 213.449 396.986 213.444ZM162.986 70.2362C160.547 70.2386 158.208 71.2088 156.483 72.9338C154.758 74.6587 153.788 76.9976 153.785 79.437V202.399C153.788 204.839 154.758 207.178 156.483 208.903C158.208 210.628 160.547 211.598 162.986 211.6H396.986C398.197 211.604 399.397 211.369 400.517 210.908C401.637 210.447 402.656 209.771 403.514 208.916C404.372 208.061 405.053 207.046 405.518 205.928C405.983 204.809 406.223 203.61 406.224 202.399V79.4558C406.222 77.0163 405.252 74.6775 403.527 72.9525C401.802 71.2275 399.463 70.2574 397.024 70.2549L162.986 70.2362Z" fill="#E0E0E0"/>
<path d="M152.203 157.173H192.451V178.065H229.124V202.569H353.612V163.725H379.305V113.125H406.505V198.301C406.505 202.01 405.032 205.567 402.409 208.189C399.787 210.812 396.23 212.285 392.521 212.285H167.432C165.432 212.286 163.451 211.893 161.603 211.128C159.754 210.363 158.075 209.242 156.661 207.827C155.246 206.413 154.125 204.734 153.36 202.885C152.595 201.037 152.202 199.056 152.203 197.056V157.173Z" fill="#E0E0E0"/>
<path d="M166.607 232.651C166.607 234.093 166.28 258.494 165.737 299.847V299.922H165.671H45.5077H45.4141V216H45.5077H112.338H112.394V216.066C112.614 218.381 113.43 220.599 114.762 222.505C116.014 224.33 117.584 225.915 119.395 227.185C122.77 229.412 126.614 230.828 130.627 231.322C134.116 231.783 137.63 232.024 141.148 232.043L150.031 232.258L166.57 232.67L150.04 232.352L141.176 232.155C137.655 232.142 134.138 231.908 130.646 231.453C126.606 230.968 122.735 229.548 119.339 227.307C117.511 226.041 115.925 224.456 114.659 222.627C113.307 220.687 112.482 218.429 112.263 216.075L112.338 216.14H45.5077L45.6013 216.047V299.809L45.5077 299.706L165.671 299.744L165.596 299.819C166.224 258.494 166.607 234.093 166.607 232.651Z" fill="#EBEBEB"/>
<path d="M242.712 410.558C242.712 410.558 242.712 410.109 242.712 409.257C242.712 408.405 242.712 407.141 242.712 405.513C242.712 402.209 242.712 397.36 242.712 391.136C242.712 378.706 242.656 360.781 242.609 338.785L242.796 338.973L120.274 339.029L120.517 338.785C120.517 364.198 120.517 388.478 120.517 410.577L120.293 410.352L208.436 410.455L233.708 410.52H240.456H242.197H242.796H242.225H240.512H233.811L208.539 410.577L120.246 410.689H120.012V410.464C120.012 388.365 120.012 364.085 120.012 338.673V338.43H120.264L242.787 338.486H242.983V338.673C242.983 360.716 242.899 378.678 242.88 391.145C242.88 397.351 242.88 402.181 242.834 405.475C242.834 407.104 242.834 408.349 242.834 409.219C242.834 410.09 242.712 410.558 242.712 410.558Z" fill="#E0E0E0"/>
<path d="M237.266 343.109C237.266 343.184 236.695 343.202 236.33 343.886C236.218 344.069 236.147 344.275 236.125 344.489C236.102 344.702 236.128 344.919 236.199 345.121C236.32 345.339 236.5 345.519 236.718 345.641C236.936 345.762 237.183 345.82 237.432 345.809C237.681 345.797 237.922 345.716 238.128 345.575C238.333 345.433 238.495 345.237 238.595 345.009C238.645 344.8 238.648 344.583 238.604 344.372C238.56 344.162 238.471 343.964 238.343 343.792C238.075 343.462 237.712 343.223 237.304 343.109C237.304 343.109 237.435 343.025 237.687 343.053C238.052 343.109 238.385 343.295 238.623 343.577C238.811 343.784 238.947 344.033 239.018 344.304C239.09 344.574 239.096 344.857 239.035 345.131C238.921 345.461 238.71 345.75 238.429 345.96C238.149 346.169 237.812 346.29 237.462 346.306C237.112 346.322 236.766 346.233 236.467 346.05C236.169 345.867 235.932 345.599 235.787 345.28C235.702 345.015 235.681 344.733 235.727 344.458C235.772 344.182 235.883 343.922 236.049 343.698C236.258 343.399 236.567 343.183 236.92 343.09C237.126 343.034 237.266 343.081 237.266 343.109Z" fill="#E0E0E0"/>
<path d="M125.423 343.109C125.423 343.184 124.852 343.202 124.487 343.886C124.374 344.069 124.304 344.275 124.281 344.489C124.258 344.702 124.284 344.919 124.355 345.121C124.463 345.351 124.641 345.542 124.862 345.666C125.084 345.79 125.339 345.842 125.591 345.814C125.845 345.82 126.094 345.745 126.303 345.601C126.511 345.456 126.668 345.249 126.752 345.009C126.804 344.8 126.808 344.582 126.764 344.372C126.72 344.161 126.63 343.963 126.499 343.792C126.233 343.46 125.87 343.221 125.46 343.109C125.46 343.109 125.591 343.025 125.844 343.053C126.209 343.109 126.541 343.295 126.78 343.577C126.968 343.784 127.105 344.032 127.178 344.303C127.252 344.573 127.259 344.857 127.201 345.131C127.084 345.461 126.872 345.748 126.591 345.957C126.309 346.166 125.972 346.286 125.623 346.302C125.273 346.318 124.926 346.229 124.627 346.047C124.328 345.865 124.09 345.598 123.944 345.28C123.858 345.015 123.837 344.733 123.883 344.458C123.929 344.182 124.039 343.922 124.206 343.698C124.416 343.396 124.728 343.18 125.086 343.09C125.282 343.034 125.423 343.081 125.423 343.109Z" fill="#E0E0E0"/>
<path d="M237.407 403.921C237.407 404.005 236.836 404.024 236.471 404.707C236.358 404.89 236.288 405.096 236.265 405.31C236.243 405.524 236.268 405.74 236.34 405.942C236.448 406.172 236.625 406.363 236.846 406.487C237.068 406.611 237.323 406.663 237.575 406.635C237.828 406.636 238.075 406.559 238.282 406.415C238.49 406.271 238.648 406.067 238.736 405.83C238.786 405.621 238.789 405.404 238.746 405.193C238.702 404.983 238.612 404.785 238.483 404.613C238.015 403.967 237.426 404.005 237.444 403.921C237.463 403.836 237.575 403.836 237.828 403.864C238.193 403.927 238.524 404.116 238.764 404.398C238.951 404.604 239.086 404.851 239.158 405.12C239.229 405.389 239.236 405.671 239.176 405.942C239.062 406.274 238.852 406.563 238.572 406.774C238.292 406.984 237.956 407.106 237.606 407.123C237.256 407.14 236.909 407.052 236.61 406.87C236.311 406.688 236.073 406.42 235.928 406.102C235.843 405.836 235.822 405.554 235.867 405.279C235.913 405.004 236.024 404.743 236.19 404.52C236.399 404.219 236.707 404 237.061 403.902C237.267 403.855 237.407 403.902 237.407 403.921Z" fill="#E0E0E0"/>
<path d="M253.57 343.109C253.57 343.184 252.999 343.202 252.634 343.886C252.523 344.069 252.452 344.275 252.428 344.488C252.404 344.701 252.426 344.917 252.494 345.121C252.614 345.342 252.794 345.524 253.013 345.647C253.232 345.771 253.481 345.83 253.732 345.818C253.983 345.806 254.225 345.724 254.432 345.581C254.638 345.438 254.8 345.24 254.899 345.009C254.949 344.8 254.952 344.583 254.908 344.372C254.864 344.162 254.775 343.964 254.647 343.792C254.378 343.459 254.011 343.22 253.598 343.109C253.598 343.109 253.729 343.025 253.991 343.053C254.355 343.113 254.686 343.298 254.927 343.577C255.113 343.785 255.247 344.035 255.319 344.304C255.39 344.574 255.397 344.857 255.339 345.131C255.225 345.461 255.013 345.75 254.733 345.96C254.453 346.169 254.116 346.29 253.766 346.306C253.416 346.322 253.07 346.233 252.771 346.05C252.473 345.867 252.236 345.599 252.091 345.28C252.003 345.015 251.981 344.733 252.027 344.457C252.073 344.181 252.185 343.921 252.353 343.698C252.558 343.395 252.868 343.178 253.224 343.09C253.439 343.034 253.57 343.081 253.57 343.109Z" fill="#E0E0E0"/>
<path d="M253.713 403.921C253.713 404.005 253.142 404.024 252.777 404.707C252.669 404.892 252.601 405.098 252.579 405.311C252.556 405.524 252.579 405.739 252.646 405.942C252.754 406.172 252.931 406.363 253.152 406.487C253.374 406.611 253.629 406.663 253.881 406.635C254.135 406.637 254.384 406.561 254.593 406.417C254.803 406.273 254.963 406.068 255.051 405.83C255.101 405.621 255.104 405.404 255.061 405.193C255.017 404.983 254.927 404.785 254.798 404.613C254.33 403.967 253.741 404.005 253.75 403.921C253.76 403.836 253.881 403.836 254.134 403.864C254.5 403.925 254.832 404.114 255.07 404.398C255.259 404.603 255.395 404.85 255.469 405.119C255.542 405.388 255.55 405.67 255.491 405.942C255.375 406.273 255.164 406.561 254.883 406.771C254.603 406.981 254.266 407.102 253.916 407.119C253.566 407.136 253.219 407.048 252.92 406.867C252.62 406.686 252.381 406.419 252.234 406.102C252.15 405.835 252.13 405.553 252.178 405.278C252.225 405.002 252.337 404.743 252.505 404.52C252.713 404.217 253.021 403.998 253.376 403.902C253.572 403.855 253.713 403.902 253.713 403.921Z" fill="#E0E0E0"/>
<path d="M294.548 343.109C294.548 343.184 293.977 343.202 293.612 343.886C293.5 344.069 293.429 344.275 293.405 344.488C293.381 344.701 293.403 344.917 293.471 345.121C293.591 345.342 293.771 345.524 293.99 345.647C294.209 345.771 294.458 345.83 294.709 345.818C294.96 345.806 295.203 345.724 295.409 345.581C295.616 345.438 295.778 345.24 295.877 345.009C295.926 344.8 295.929 344.583 295.885 344.372C295.842 344.162 295.752 343.964 295.624 343.792C295.356 343.459 294.989 343.22 294.576 343.109C294.576 343.109 294.707 343.025 294.969 343.053C295.333 343.111 295.665 343.296 295.905 343.577C296.091 343.785 296.225 344.035 296.296 344.304C296.368 344.574 296.375 344.857 296.317 345.131C296.202 345.461 295.991 345.75 295.71 345.96C295.43 346.169 295.093 346.29 294.743 346.306C294.394 346.322 294.047 346.233 293.749 346.05C293.45 345.867 293.213 345.599 293.069 345.28C292.983 345.015 292.962 344.733 293.008 344.458C293.054 344.182 293.164 343.922 293.331 343.698C293.536 343.395 293.846 343.178 294.201 343.09C294.417 343.034 294.557 343.081 294.548 343.109Z" fill="#E0E0E0"/>
<path d="M294.69 403.919C294.69 404.003 294.119 404.022 293.754 404.705C293.642 404.889 293.572 405.094 293.547 405.308C293.523 405.521 293.546 405.737 293.613 405.941C293.734 406.161 293.913 406.344 294.132 406.467C294.351 406.59 294.6 406.649 294.851 406.638C295.102 406.626 295.345 406.544 295.551 406.401C295.758 406.258 295.92 406.059 296.019 405.828C296.076 405.615 296.084 405.391 296.042 405.173C296 404.956 295.909 404.751 295.776 404.574C295.308 403.928 294.718 403.966 294.727 403.882C294.737 403.797 294.858 403.797 295.12 403.825C295.484 403.89 295.815 404.079 296.056 404.359C296.241 404.566 296.375 404.814 296.447 405.082C296.518 405.35 296.526 405.632 296.468 405.903C296.355 406.235 296.144 406.524 295.864 406.735C295.584 406.945 295.248 407.067 294.898 407.084C294.548 407.101 294.202 407.013 293.902 406.831C293.603 406.649 293.366 406.381 293.22 406.062C293.132 405.797 293.11 405.515 293.156 405.239C293.202 404.964 293.314 404.703 293.482 404.481C293.69 404.178 293.998 403.959 294.353 403.863C294.559 403.853 294.69 403.9 294.69 403.919Z" fill="#E0E0E0"/>
<path d="M125.284 403.919C125.284 404.003 124.713 404.022 124.348 404.705C124.236 404.888 124.166 405.094 124.143 405.308C124.12 405.522 124.146 405.738 124.217 405.941C124.338 406.159 124.518 406.339 124.736 406.46C124.954 406.582 125.201 406.64 125.45 406.628C125.699 406.616 125.94 406.535 126.146 406.394C126.351 406.253 126.513 406.057 126.613 405.828C126.672 405.614 126.68 405.389 126.636 405.171C126.592 404.953 126.498 404.749 126.361 404.574C125.893 403.928 125.303 403.966 125.312 403.882C125.322 403.797 125.443 403.797 125.696 403.825C126.062 403.886 126.394 404.075 126.632 404.359C126.821 404.564 126.958 404.811 127.031 405.08C127.104 405.349 127.112 405.631 127.053 405.903C126.938 406.234 126.726 406.522 126.445 406.732C126.165 406.941 125.828 407.063 125.478 407.08C125.129 407.097 124.782 407.009 124.482 406.828C124.182 406.647 123.943 406.38 123.796 406.062C123.713 405.797 123.693 405.515 123.739 405.24C123.784 404.966 123.894 404.705 124.058 404.481C124.271 404.179 124.582 403.96 124.938 403.863C125.144 403.853 125.284 403.9 125.284 403.919Z" fill="#E0E0E0"/>
<path d="M282.089 410.556C282.089 410.556 282.089 410.425 282.089 410.191C282.089 409.957 282.089 409.601 282.089 409.161C282.089 408.225 282.089 406.896 282.089 405.174C282.089 401.692 282.089 396.637 282.024 390.282C282.024 377.571 281.958 359.656 281.921 338.802L282.145 339.026H247.392L247.635 338.783C247.635 366.545 247.588 391.826 247.57 410.574L247.392 410.396L272.757 410.49L279.703 410.537H281.518H282.145H281.556H279.768L272.87 410.584L247.392 410.677H247.214V410.499C247.214 391.779 247.167 366.507 247.148 338.708V338.465H282.379V338.699C282.333 359.656 282.295 377.618 282.267 390.375C282.267 396.703 282.22 401.738 282.202 405.211C282.202 406.915 282.202 408.234 282.202 409.152C282.202 409.582 282.202 409.91 282.202 410.153C282.177 410.29 282.139 410.425 282.089 410.556Z" fill="#E0E0E0"/>
<path d="M281.296 373.427C281.296 373.567 273.911 373.67 264.823 373.67C255.734 373.67 248.34 373.567 248.34 373.427C248.34 373.287 255.716 373.184 264.823 373.184C273.93 373.184 281.296 373.296 281.296 373.427Z" fill="#E0E0E0"/>
<path d="M388.673 410.555C388.673 410.555 388.673 410.097 388.673 409.236C388.673 408.375 388.673 407.092 388.673 405.426C388.673 402.085 388.673 397.199 388.626 390.946C388.626 378.46 388.561 360.536 388.523 338.764L388.72 338.961L287.819 339.008L288.063 338.764C288.063 364.467 288.063 388.859 288.063 410.555L287.838 410.331L360.584 410.443L381.316 410.499H386.829H388.252H388.748H388.28H386.885H381.41L360.734 410.565L287.838 410.677H287.613V410.453C287.613 388.756 287.613 364.364 287.613 338.661V338.418H287.866L388.767 338.465H388.963V338.661C388.963 360.479 388.879 378.451 388.86 390.974C388.86 397.199 388.86 402.075 388.804 405.408C388.804 407.055 388.804 408.309 388.804 409.151C388.804 409.994 388.673 410.555 388.673 410.555Z" fill="#E0E0E0"/>
<path d="M48.2578 86.925V197.195H130.317V86.9062C130.317 86.9062 48.2578 87.8142 48.2578 86.925Z" fill="#E0E0E0"/>
<path d="M48.2578 87.1598V104.307L130.345 104.813V86.9258L48.2578 87.1598Z" fill="#EBEBEB"/>
<path d="M77.9492 94.8164V98.1767H104.232V95.2657C104.232 95.2657 78.6231 94.8164 77.9492 94.8164Z" fill="white"/>
<path d="M78.5291 112.207H52.8359V139.763H78.5291V112.207Z" fill="#FAFAFA"/>
<path d="M74.9453 168.621H76.0779H79.3352H91.2785L91.2036 168.696C91.2036 160.496 91.2036 149.657 91.2036 137.808V130.806H91.2972H114.922L114.847 130.881C114.931 125.771 114.997 121.605 115.044 118.713C115.044 117.3 115.044 116.186 115.109 115.381C115.175 114.576 115.109 114.211 115.109 114.211C115.109 114.211 115.109 114.613 115.109 115.381C115.109 116.148 115.109 117.253 115.109 118.713C115.109 121.643 115.034 125.808 114.978 130.881V130.956H114.903H91.2785L91.3815 130.853V137.761C91.3815 149.629 91.3815 160.468 91.3815 168.649V168.705H91.3066H79.3632H76.106L74.9453 168.621Z" fill="#FAFAFA"/>
<path d="M123.319 176.782H121.372H115.868H96.2123H96.128V176.698C96.128 168.779 96.128 159.438 96.128 149.47V136.749H112.424L112.349 136.834C112.349 129.214 112.349 122.878 112.349 118.413C112.349 116.223 112.349 114.491 112.349 113.265C112.349 112.039 112.349 111.449 112.349 111.449C112.349 111.449 112.349 112.086 112.349 113.265C112.349 114.444 112.349 116.223 112.349 118.413C112.349 122.878 112.349 129.214 112.349 136.834V136.918H96.0625L96.1561 136.824C96.1561 140.886 96.1561 145.155 96.1561 149.535C96.1561 159.503 96.1561 168.845 96.1561 176.763L96.0719 176.679H115.728H121.232L123.319 176.782Z" fill="#EBEBEB"/>
<path d="M53.0039 145.78V148.364H73.7925V145.266L53.0039 145.78Z" fill="#FAFAFA"/>
<path d="M52.8359 150.284V152.877H73.6245V149.77L52.8359 150.284Z" fill="#FAFAFA"/>
<path d="M420.263 299.847C420.263 298.452 420.263 274.575 420.188 233.98L420.263 234.055H276.877L276.98 233.962C276.98 257.118 276.98 279.404 276.98 299.828L276.887 299.734L420.282 299.828L276.887 299.922H276.793V233.887H276.896H420.282H420.347V233.962C420.319 274.537 420.263 298.452 420.263 299.847Z" fill="#EBEBEB"/>
<path d="M421.089 418.708C421.089 418.839 337.317 418.952 234.011 418.952C130.705 418.952 46.9141 418.839 46.9141 418.708C46.9141 418.577 130.667 418.465 234.011 418.465C337.355 418.465 421.089 418.615 421.089 418.708Z" fill="#263238"/>
<path d="M111.664 318.789H103.68V418.698H111.664V318.789Z" fill="#263238"/>
<path d="M361.64 318.789H353.656V418.707H361.64V318.789Z" fill="#263238"/>
<path d="M368.511 307.164H100.759C97.6884 307.164 95.1992 309.653 95.1992 312.724V314.25C95.1992 317.32 97.6884 319.809 100.759 319.809H368.511C371.582 319.809 374.071 317.32 374.071 314.25V312.724C374.071 309.653 371.582 307.164 368.511 307.164Z" fill="#455A64"/>
<path d="M296.386 95.2279L264.702 83.8555L233.337 95.0875C229.331 96.9595 225.849 98.1107 225.849 101.836V120.406C225.78 133.447 229.345 146.25 236.145 157.378C242.939 168.624 253.012 177.521 265.011 182.875C277.834 178.71 287.409 167.599 293.259 158.108C300.075 146.985 303.657 134.182 303.602 121.136V104.429C303.602 99.1029 300.775 96.5102 296.386 95.2279Z" fill="#1900C0"/>
<g opacity="0.3">
<path d="M265.009 172.092C255.504 167.799 247.536 160.707 242.171 151.762C236.785 142.956 233.956 132.825 234 122.503V109.474C234 106.525 235.778 103.755 239.316 102.107L264.71 92.6164V83.8555L233.344 95.0875C230.05 96.5195 225.856 98.1107 225.856 101.836V120.406C225.788 133.447 229.353 146.25 236.152 157.378C242.947 168.624 253.02 177.521 265.019 182.875L265.009 172.092Z" fill="black"/>
</g>
<g opacity="0.4">
<path d="M265.008 182.875C267.157 182.171 269.24 181.278 271.233 180.207C276.119 177.436 280.559 173.943 284.402 169.846C287.894 166.088 290.967 161.961 293.565 157.537C300.472 146.337 303.959 133.364 303.599 120.21V104.869C303.599 97.2309 299.659 96.6693 296.364 95.2279L264.699 83.8555V92.6164L290.402 102.248C293.94 103.905 295.718 106.666 295.718 109.624V122.653C295.762 132.973 292.929 143.102 287.538 151.903C282.296 160.798 274.425 167.848 265.008 172.083V182.875Z" fill="black"/>
</g>
<path opacity="0.5" d="M273.107 121.669V119.161C273.035 117.028 272.137 115.007 270.603 113.523C269.069 112.04 267.018 111.211 264.884 111.211C262.75 111.211 260.7 112.04 259.166 113.523C257.631 115.007 256.734 117.028 256.662 119.161V121.716C255.57 121.878 254.573 122.426 253.851 123.261C253.13 124.096 252.732 125.162 252.73 126.265V141.054C252.733 142.274 253.219 143.443 254.083 144.304C254.946 145.166 256.116 145.65 257.336 145.65H272.686C273.29 145.651 273.889 145.533 274.448 145.303C275.006 145.072 275.514 144.734 275.942 144.307C276.369 143.88 276.709 143.373 276.94 142.815C277.172 142.257 277.291 141.658 277.291 141.054V126.265C277.294 125.115 276.866 124.006 276.091 123.155C275.317 122.305 274.253 121.775 273.107 121.669ZM267.117 137.357H263.101L263.728 134.465C263.285 134.179 262.946 133.757 262.763 133.262C262.579 132.768 262.56 132.227 262.71 131.721C262.859 131.215 263.167 130.771 263.59 130.455C264.012 130.139 264.525 129.969 265.053 129.969C265.58 129.969 266.094 130.139 266.516 130.455C266.938 130.771 267.247 131.215 267.396 131.721C267.545 132.227 267.527 132.768 267.343 133.262C267.159 133.757 266.821 134.179 266.377 134.465L267.117 137.357ZM271.338 121.651H258.431V119.161C258.494 117.492 259.202 115.912 260.405 114.754C261.609 113.595 263.214 112.948 264.884 112.948C266.555 112.948 268.16 113.595 269.363 114.754C270.567 115.912 271.275 117.492 271.338 119.161V121.651Z" fill="white"/>
<path d="M239.127 121.492C238.86 120.658 238.703 119.793 238.659 118.918C238.417 116.824 238.329 114.716 238.397 112.609C238.397 111.374 238.519 110.204 238.631 109.137C238.674 108.163 238.913 107.208 239.333 106.329C239.638 105.731 240.122 105.243 240.719 104.934C241.149 104.728 241.421 104.738 241.421 104.775C240.657 105.129 240.043 105.743 239.689 106.507C239.344 107.355 239.157 108.259 239.137 109.174C239.052 110.232 238.987 111.393 238.949 112.619C238.884 115.062 238.949 117.299 239.043 118.871C239.146 119.741 239.174 120.618 239.127 121.492Z" fill="white"/>
<path d="M239.616 129.578C239.466 129.578 239.325 128.82 239.307 127.875C239.288 126.929 239.4 126.162 239.55 126.152C239.7 126.143 239.84 126.92 239.859 127.865C239.878 128.811 239.747 129.578 239.616 129.578Z" fill="white"/>
<path d="M307.139 85.83C307.995 86.0347 308.834 86.307 309.647 86.6443C310.641 87.0412 311.584 87.5566 312.455 88.1794C313.686 89.0199 314.705 90.135 315.432 91.4366C316.307 93.0903 316.776 94.9289 316.798 96.7999C316.798 98.8404 316.798 101.049 316.798 103.436C316.798 108.2 316.845 113.648 316.798 119.723C316.711 126.398 315.85 133.041 314.233 139.519C312.335 147.062 309.403 154.307 305.519 161.047C301.174 168.592 295.789 175.49 289.523 181.536C282.971 187.798 274.884 193.339 265.44 196.278H265.356H265.271C261.964 194.865 258.736 193.271 255.602 191.504C252.399 189.648 249.313 187.594 246.364 185.355C240.278 180.699 234.861 175.228 230.265 169.097C220.322 155.992 214.406 140.277 213.239 123.869C212.94 119.985 213.024 116.147 213.014 112.375V101.208C213.014 99.3365 213.014 97.5768 213.014 95.789C212.985 94.8863 213.017 93.9826 213.108 93.084C213.245 92.1702 213.619 91.3083 214.194 90.5849C215.372 89.2544 216.834 88.2053 218.471 87.5148C220.034 86.7754 221.607 86.1295 223.151 85.4462L264.888 71.4062H264.934H264.991L295.953 81.9924L304.218 84.8004L306.343 85.5398L307.064 85.8113C307.064 85.8113 306.811 85.7458 306.334 85.5866L304.19 84.8846L295.897 82.0766L264.962 71.6777H265.065L223.367 85.8394C221.832 86.5226 220.25 87.1685 218.687 87.9079C217.107 88.5738 215.697 89.5844 214.559 90.8657C214.03 91.5318 213.688 92.3264 213.567 93.1682C213.481 94.0422 213.453 94.9208 213.482 95.7984V101.218C213.482 104.859 213.482 108.575 213.482 112.338C213.482 116.1 213.417 119.938 213.716 123.794C214.882 140.112 220.768 155.738 230.658 168.769C235.231 174.865 240.62 180.304 246.673 184.934C249.603 187.161 252.669 189.203 255.855 191.046C258.984 192.823 262.209 194.426 265.515 195.847H265.356C274.716 192.946 282.718 187.423 289.27 181.227C295.515 175.217 300.887 168.361 305.229 160.86C309.094 154.167 312.025 146.978 313.943 139.491C315.57 133.043 316.446 126.428 316.555 119.779C316.555 113.713 316.555 108.257 316.611 103.492C316.611 101.106 316.611 98.8872 316.611 96.8654C316.608 95.0208 316.162 93.2037 315.31 91.5677C314.604 90.283 313.615 89.1757 312.418 88.3291C311.543 87.7068 310.601 87.1856 309.61 86.7754C308.998 86.5187 308.373 86.2938 307.738 86.1014L307.139 85.83Z" fill="#1900C0"/>
<path d="M208.539 233.67L210.87 277.662L269.426 279L265.092 244.818L269.566 209.886C266.627 193.525 243.686 192.392 243.686 192.392L225.687 192.102C219.523 191.657 213.365 193.023 207.968 196.033C207.968 196.033 189.697 205.983 189.857 231.264" fill="#455A64"/>
<path d="M243.864 191.887C243.463 193.124 242.932 194.317 242.282 195.444C241.407 196.728 240.229 197.778 238.854 198.501C237.478 199.224 235.946 199.598 234.391 199.59C232.835 199.62 231.297 199.262 229.914 198.548C228.531 197.834 227.349 196.786 226.473 195.5C225.971 194.693 225.593 193.816 225.35 192.898C225.282 192.551 225.179 192.212 225.041 191.887C225.013 192.245 225.045 192.606 225.134 192.954C225.309 193.92 225.651 194.848 226.145 195.696C226.89 196.972 227.959 198.028 229.243 198.757C230.802 199.679 232.581 200.161 234.391 200.152C236.201 200.157 237.976 199.662 239.521 198.72C240.785 197.964 241.848 196.914 242.619 195.659C243.122 194.816 243.492 193.901 243.714 192.944C243.828 192.604 243.879 192.245 243.864 191.887Z" fill="#263238"/>
<path d="M257.626 206.609C254.836 208.835 252.556 211.634 250.941 214.816C249.326 217.999 248.414 221.492 248.266 225.058C247.817 236.234 247.124 251.753 246.712 252.53C245.43 254.926 211.556 252.885 207.99 252.633L203.685 251.303C203.685 251.303 195.766 244.452 194.325 246.511C192.883 248.57 198.48 249.89 199.566 253.934C200.652 257.977 189.401 254.813 188.671 254.317L185.77 253.494C185.77 253.494 187.492 259.016 188.961 260.766C193.641 266.382 204.396 269.19 204.396 269.19C204.396 269.19 248.266 283.446 265.985 271.68C271.779 267.833 272.761 230.122 270.571 215.52C270.151 212.734 268.736 210.195 266.589 208.371C264.442 206.547 261.707 205.563 258.89 205.599L257.626 206.609Z" fill="#FFBE9D"/>
<path d="M192.543 259.72C191.689 259.191 190.797 258.724 189.875 258.325C189.008 257.821 188.108 257.377 187.18 256.996C187.938 257.669 188.797 258.218 189.726 258.625C190.603 259.132 191.553 259.501 192.543 259.72Z" fill="#EB996E"/>
<path d="M264.887 201.343C270.288 206.51 275.52 216.881 273.583 237.632L244.801 236.443L245.54 208.045C245.582 206.622 245.94 205.227 246.587 203.959C247.235 202.692 248.156 201.584 249.284 200.716C251.533 198.945 254.341 198.035 257.201 198.15C260.062 198.265 262.787 199.398 264.887 201.343Z" fill="#455A64"/>
<path d="M207.53 412.999L206.763 402.113L227.139 400.531L228.441 416.443L227.186 416.621C221.57 417.37 198.657 420.037 194.81 419.186C190.523 418.24 207.53 412.999 207.53 412.999Z" fill="#FF725E"/>
<g opacity="0.3">
<path d="M221.035 416.855C221.204 415.111 222.011 413.491 223.3 412.306C224.568 411.114 226.24 410.445 227.98 410.434L228.43 416.124L221.035 416.855Z" fill="white"/>
</g>
<g opacity="0.3">
<path d="M199.248 415.864C199.248 415.864 193.314 418.083 194.147 419.028C194.98 419.973 218.249 418.148 228.442 416.445L228.376 415.995L201.232 418.345C201.232 418.345 200.436 415.808 199.248 415.864Z" fill="white"/>
</g>
<path d="M228.693 415.957L228.347 416.023L227.345 416.163L223.648 416.612C220.531 416.968 216.216 417.398 211.48 417.782C206.744 418.166 202.363 418.4 199.228 418.54L195.484 418.671H194.473C194.355 418.688 194.235 418.688 194.117 418.671H194.473L195.484 418.606L199.228 418.391C202.363 418.213 206.716 417.941 211.471 417.558C216.226 417.174 220.559 416.771 223.639 416.462L227.383 416.088L228.384 415.994C228.485 415.971 228.589 415.958 228.693 415.957Z" fill="#263238"/>
<path d="M201.239 418.662C200.895 417.418 200.114 416.341 199.039 415.629C199.689 415.812 200.249 416.229 200.612 416.799C201.046 417.32 201.27 417.984 201.239 418.662Z" fill="#263238"/>
<path d="M207.052 415.144C206.996 415.144 206.687 414.854 206.35 414.414C206.013 413.974 205.788 413.572 205.845 413.534C205.901 413.497 206.219 413.815 206.547 414.264C206.874 414.714 207.108 415.097 207.052 415.144Z" fill="#263238"/>
<path d="M208.636 414.14C208.636 414.196 208.261 414 207.887 413.719C207.513 413.438 207.232 413.148 207.279 413.092C207.325 413.035 207.662 413.232 208.037 413.522C208.411 413.812 208.729 414.084 208.636 414.14Z" fill="#263238"/>
<path d="M209.533 412.139C209.199 412.284 208.839 412.358 208.475 412.355C208.121 412.436 207.753 412.436 207.398 412.355C207.73 412.205 208.092 412.131 208.456 412.139C208.81 412.053 209.179 412.053 209.533 412.139Z" fill="#263238"/>
<path d="M209.784 410.754C209.449 411.009 209.045 411.159 208.624 411.184C208.212 411.291 207.777 411.268 207.379 411.119C207.776 411.026 208.18 410.967 208.586 410.941C208.979 410.843 209.38 410.78 209.784 410.754Z" fill="#263238"/>
<path d="M206.23 413.421C205.801 413.525 205.358 413.556 204.919 413.515C204.439 413.494 203.963 413.425 203.496 413.309C203.212 413.256 202.935 413.168 202.673 413.047C202.51 412.968 202.383 412.831 202.317 412.663C202.29 412.569 202.29 412.468 202.318 412.373C202.347 412.279 202.401 412.194 202.476 412.13C202.956 411.845 203.52 411.736 204.072 411.821C204.623 411.907 205.128 412.181 205.5 412.598C205.722 412.841 205.891 413.128 205.996 413.44C206.039 413.55 206.061 413.668 206.061 413.787C205.894 413.395 205.663 413.035 205.378 412.719C205.055 412.398 204.645 412.177 204.198 412.083C203.938 412.014 203.666 411.999 203.399 412.038C203.132 412.076 202.875 412.168 202.645 412.308C202.448 412.476 202.551 412.719 202.794 412.832C203.038 412.944 203.292 413.032 203.553 413.094C204.004 413.211 204.464 413.292 204.929 413.337C205.724 413.412 206.22 413.375 206.23 413.421Z" fill="#263238"/>
<path d="M205.919 413.505C205.725 413.234 205.644 412.898 205.694 412.569C205.71 412.221 205.806 411.882 205.975 411.577C206.071 411.375 206.216 411.2 206.398 411.069C206.58 410.938 206.791 410.855 207.014 410.828C207.081 410.835 207.146 410.855 207.206 410.888C207.265 410.921 207.317 410.965 207.359 411.018C207.401 411.072 207.432 411.133 207.45 411.198C207.468 411.264 207.472 411.332 207.463 411.399C207.452 411.609 207.394 411.813 207.295 411.998C207.145 412.302 206.956 412.586 206.733 412.841C206.358 413.28 206.04 413.458 206.022 413.43C206.003 413.402 206.265 413.177 206.593 412.738C206.787 412.478 206.953 412.199 207.089 411.905C207.238 411.614 207.323 411.109 206.995 411.071C206.667 411.034 206.359 411.418 206.171 411.699C206.01 411.967 205.908 412.267 205.872 412.578C205.855 412.888 205.87 413.199 205.919 413.505Z" fill="#263238"/>
<path d="M227.84 410.405C227.84 410.405 227.25 410.405 226.342 410.583C225.149 410.808 224.045 411.367 223.158 412.196C222.271 413.024 221.639 414.088 221.335 415.263C221.091 416.199 221.11 416.752 221.063 416.752C221.036 416.616 221.036 416.476 221.063 416.34C221.071 415.961 221.118 415.585 221.204 415.217C221.474 413.99 222.11 412.875 223.027 412.017C223.945 411.16 225.101 410.601 226.342 410.415C226.714 410.359 227.09 410.34 227.465 410.359C227.592 410.36 227.717 410.375 227.84 410.405Z" fill="#263238"/>
<path d="M225.062 402.094C225.32 403.473 225.489 404.867 225.568 406.268C225.737 407.66 225.825 409.06 225.83 410.462C225.573 409.082 225.404 407.688 225.325 406.287C225.155 404.896 225.068 403.495 225.062 402.094Z" fill="#263238"/>
<path d="M218.32 415.068C216.384 415.602 214.367 415.78 212.367 415.592C212.367 415.517 213.706 415.498 215.344 415.348C216.982 415.199 218.301 415.002 218.32 415.068Z" fill="#263238"/>
<path d="M222.31 414.751C222.366 414.797 222.226 415.041 222.113 415.359C222.001 415.677 221.954 415.958 221.879 415.958C221.805 415.958 221.748 415.64 221.879 415.275C222.01 414.91 222.263 414.713 222.31 414.751Z" fill="#263238"/>
<path d="M223.705 412.766C223.752 412.766 223.64 413.028 223.443 413.262C223.247 413.496 223.05 413.637 223.003 413.599C222.957 413.562 223.06 413.328 223.256 413.103C223.453 412.878 223.621 412.719 223.705 412.766Z" fill="#263238"/>
<path d="M225.764 411.734C225.764 411.809 225.483 411.828 225.193 411.959C224.903 412.09 224.697 412.259 224.641 412.221C224.585 412.184 224.725 411.884 225.09 411.725C225.455 411.566 225.773 411.669 225.764 411.734Z" fill="#263238"/>
<path d="M227.262 411.212C227.262 411.278 227.187 411.39 227.019 411.465C226.85 411.54 226.701 411.558 226.673 411.465C226.644 411.371 226.747 411.287 226.916 411.212C227.084 411.137 227.234 411.128 227.262 411.212Z" fill="#263238"/>
<path d="M144.893 413.514L145.164 402.609L165.607 402.993L165.373 418.952L164.1 419.017C158.484 419.223 135.383 419.663 131.63 418.456C127.455 417.099 144.893 413.514 144.893 413.514Z" fill="#FF725E"/>
<g opacity="0.3">
<path d="M157.961 418.614C158.302 416.898 159.261 415.366 160.657 414.309C162.026 413.258 163.739 412.76 165.458 412.914L165.355 418.624L157.961 418.614Z" fill="white"/>
</g>
<g opacity="0.3">
<path d="M136.366 415.574C136.366 415.574 130.244 417.212 130.984 418.232C131.723 419.253 155.058 419.674 165.372 418.953V418.504L138.154 418.232C138.154 418.232 137.592 415.64 136.366 415.574Z" fill="white"/>
</g>
<path d="M165.67 418.494H165.314L164.304 418.541L160.56 418.635C157.415 418.691 153.072 418.709 148.289 418.635C143.506 418.56 139.163 418.382 136.027 418.213L132.283 417.989L131.281 417.914C131.163 417.928 131.044 417.928 130.926 417.914C131.044 417.904 131.163 417.904 131.281 417.914H132.292L136.036 418.054C139.172 418.176 143.524 418.316 148.298 418.401C153.072 418.485 157.415 418.494 160.56 418.485H165.286C165.414 418.471 165.543 418.475 165.67 418.494Z" fill="#263238"/>
<path d="M138.124 418.549C137.97 417.934 137.748 417.337 137.46 416.771C137.104 416.24 136.686 415.753 136.215 415.32C136.817 415.606 137.318 416.068 137.652 416.644C137.986 417.221 138.138 417.885 138.087 418.549H138.124Z" fill="#263238"/>
<path d="M144.211 415.603C144.154 415.603 143.874 415.285 143.583 414.807C143.293 414.33 143.106 413.918 143.162 413.871C143.218 413.824 143.499 414.199 143.789 414.667C144.08 415.135 144.267 415.565 144.211 415.603Z" fill="#263238"/>
<path d="M145.877 414.758C145.877 414.805 145.512 414.59 145.166 414.262C144.82 413.935 144.576 413.635 144.623 413.588C144.67 413.542 144.988 413.757 145.334 414.084C145.681 414.412 145.924 414.712 145.877 414.758Z" fill="#263238"/>
<path d="M146.95 412.851C146.608 412.969 146.243 413.007 145.883 412.964C145.522 413.007 145.156 412.962 144.816 412.833C145.519 412.67 146.248 412.67 146.95 412.833V412.851Z" fill="#263238"/>
<path d="M147.346 411.493C146.99 411.724 146.572 411.838 146.148 411.821C145.73 411.883 145.303 411.818 144.922 411.634C145.325 411.575 145.732 411.553 146.139 411.568C146.539 411.511 146.942 411.486 147.346 411.493Z" fill="#263238"/>
<path d="M143.546 413.806C143.112 413.883 142.669 413.883 142.235 413.806C141.761 413.739 141.294 413.626 140.841 413.469C140.563 413.384 140.296 413.268 140.045 413.123C139.892 413.029 139.779 412.883 139.727 412.711C139.709 412.614 139.72 412.513 139.759 412.422C139.797 412.331 139.86 412.252 139.942 412.196C140.447 411.956 141.021 411.901 141.563 412.039C142.104 412.178 142.581 412.502 142.909 412.954C143.103 413.218 143.243 413.517 143.321 413.834C143.346 413.951 143.346 414.073 143.321 414.19C143.19 413.783 142.994 413.401 142.741 413.057C142.449 412.706 142.063 412.446 141.627 412.309C141.116 412.127 140.555 412.154 140.064 412.383C139.848 412.543 139.933 412.786 140.157 412.926C140.39 413.058 140.634 413.168 140.887 413.254C141.326 413.413 141.777 413.538 142.235 413.628C143.05 413.759 143.546 413.769 143.546 413.806Z" fill="#263238"/>
<path d="M143.21 413.869C143.05 413.585 143 413.252 143.069 412.933C143.122 412.596 143.253 412.275 143.453 411.997C143.566 411.804 143.727 411.643 143.92 411.529C144.114 411.416 144.333 411.355 144.557 411.352C144.689 411.383 144.803 411.464 144.876 411.577C144.949 411.69 144.976 411.827 144.951 411.96C144.915 412.171 144.835 412.372 144.717 412.55C144.535 412.832 144.321 413.093 144.08 413.327C143.868 413.554 143.609 413.733 143.322 413.851C143.322 413.851 143.584 413.617 143.958 413.205C144.172 412.966 144.36 412.705 144.52 412.428C144.707 412.157 144.838 411.66 144.52 411.595C144.202 411.529 143.846 411.876 143.64 412.138C143.455 412.389 143.324 412.676 143.256 412.98C143.214 413.275 143.198 413.572 143.21 413.869Z" fill="#263238"/>
<path d="M165.353 412.896C165.353 412.943 164.764 412.83 163.846 412.896C162.638 413.007 161.486 413.458 160.524 414.197C159.561 414.935 158.828 415.932 158.408 417.07C158.081 417.941 158.043 418.531 157.996 418.521C157.97 418.385 157.97 418.245 157.996 418.109C158.038 417.737 158.12 417.37 158.24 417.014C158.628 415.813 159.373 414.758 160.377 413.992C161.381 413.226 162.594 412.785 163.856 412.727C164.229 412.685 164.606 412.685 164.979 412.727C165.115 412.755 165.243 412.813 165.353 412.896Z" fill="#263238"/>
<path d="M163.388 404.352C163.501 405.749 163.536 407.152 163.491 408.554C163.525 409.954 163.475 411.354 163.341 412.747C163.227 411.35 163.193 409.947 163.238 408.545C163.21 407.145 163.26 405.745 163.388 404.352Z" fill="#263238"/>
<path d="M155.43 416.614C153.45 416.954 151.424 416.938 149.449 416.567C149.449 416.492 150.797 416.567 152.435 416.614C154.073 416.661 155.421 416.548 155.43 416.614Z" fill="#263238"/>
<path d="M159.439 416.686C159.439 416.732 159.318 416.966 159.177 417.266C159.037 417.565 158.962 417.837 158.887 417.837C158.812 417.837 158.784 417.509 158.953 417.163C159.121 416.817 159.393 416.629 159.439 416.686Z" fill="#263238"/>
<path d="M160.993 414.871C161.049 414.917 160.909 415.133 160.693 415.339C160.478 415.545 160.263 415.685 160.216 415.629C160.169 415.573 160.31 415.376 160.525 415.161C160.74 414.945 160.927 414.786 160.993 414.871Z" fill="#263238"/>
<path d="M163.153 414.009C163.153 414.084 162.862 414.075 162.563 414.178C162.263 414.281 162.039 414.431 161.992 414.384C161.945 414.337 162.114 414.056 162.488 413.934C162.862 413.813 163.171 413.934 163.153 414.009Z" fill="#263238"/>
<path d="M164.737 413.635C164.737 413.7 164.643 413.803 164.475 413.869C164.306 413.934 164.138 413.925 164.119 413.869C164.101 413.812 164.213 413.709 164.381 413.644C164.55 413.578 164.671 413.569 164.737 413.635Z" fill="#263238"/>
<path d="M162.865 276.407L232.962 275.527L218.314 308.484L173.48 308.662L169.165 409.628H141.777L144.389 297.009C144.508 291.936 146.437 287.072 149.827 283.296C153.216 279.52 157.844 277.08 162.875 276.417L162.865 276.407Z" fill="#263238"/>
<path d="M170.072 401.853C170.072 401.704 163.717 401.582 155.873 401.582C148.03 401.582 141.684 401.704 141.684 401.853C141.684 402.003 148.039 402.134 155.873 402.134C163.708 402.134 170.072 402.003 170.072 401.853Z" fill="#455A64"/>
<path d="M229.487 311.171L231.462 408.132L199.778 409.685C199.778 409.685 194.733 314.691 197.251 287.734C198.973 269.285 269.379 277.213 269.379 277.213C270.399 313.951 229.487 311.171 229.487 311.171Z" fill="#263238"/>
<path d="M231.464 400.486C231.062 400.421 230.653 400.405 230.247 400.44L226.924 400.515C224.116 400.608 220.25 400.777 215.982 400.992C211.714 401.207 207.839 401.432 205.04 401.619L201.736 401.881C201.325 401.886 200.916 401.942 200.52 402.05C200.925 402.108 201.336 402.124 201.746 402.096L205.068 402.012C207.876 401.928 211.742 401.759 216.01 401.544C220.278 401.329 224.154 401.104 226.952 400.908L230.256 400.655C230.664 400.646 231.069 400.59 231.464 400.486Z" fill="#455A64"/>
<path d="M229.89 303.027C229.531 304.562 229.349 306.132 229.347 307.707C229.166 309.262 229.166 310.833 229.347 312.387C229.706 310.853 229.888 309.283 229.89 307.707C230.07 306.153 230.07 304.582 229.89 303.027Z" fill="#455A64"/>
<path d="M231.117 275.718C230.919 275.693 230.717 275.693 230.518 275.718H228.806C227.317 275.764 225.155 275.839 222.497 275.989C219.839 276.139 216.666 276.373 213.137 276.925C209.3 277.444 205.616 278.768 202.326 280.809C201.474 281.381 200.697 282.057 200.014 282.822C199.342 283.581 198.827 284.465 198.498 285.424C197.934 287.198 197.56 289.027 197.384 290.881C197.093 293.992 196.962 297.116 196.991 300.241V306.549C196.991 307.242 196.991 307.804 196.991 308.262C196.967 308.461 196.967 308.662 196.991 308.861C197.042 308.666 197.071 308.465 197.075 308.262C197.075 307.878 197.159 307.326 197.197 306.549C197.281 305.061 197.328 302.908 197.375 300.25C197.421 297.592 197.478 294.419 197.88 290.937C198.071 289.122 198.447 287.331 199.003 285.592C199.712 283.795 200.987 282.277 202.635 281.268C205.854 279.27 209.452 277.963 213.202 277.43C216.666 276.888 219.829 276.616 222.478 276.41L228.768 275.97L230.472 275.83C230.691 275.82 230.908 275.782 231.117 275.718Z" fill="#455A64"/>
<path d="M234.12 200.115C232.864 200.109 231.621 199.855 230.464 199.367C229.307 198.879 228.257 198.167 227.376 197.272C226.495 196.377 225.799 195.316 225.329 194.151C224.859 192.986 224.625 191.74 224.638 190.484C224.638 187.18 224.732 184.316 224.732 184.316C224.732 184.316 217.085 183.604 216.523 176.032C215.961 168.46 216.205 150.985 216.205 150.985C220.397 148.87 225.078 147.912 229.764 148.209C234.45 148.507 238.971 150.05 242.862 152.679L244.041 153.474L243.676 190.69C243.654 193.205 242.636 195.61 240.845 197.376C239.054 199.143 236.636 200.128 234.12 200.115Z" fill="#FFBE9D"/>
<path d="M224.508 171.372C223.941 171.522 223.351 171.57 222.767 171.512C222.612 171.539 222.454 171.539 222.299 171.512C222.191 171.487 222.091 171.438 222.005 171.368C221.919 171.299 221.85 171.21 221.803 171.11C221.699 170.731 221.729 170.328 221.887 169.968L222.533 167.778C223.469 164.689 224.405 162.227 224.536 162.274C224.667 162.321 224.049 164.867 223.095 167.956C222.851 168.704 222.627 169.416 222.402 170.127C222.28 170.373 222.228 170.649 222.252 170.923C222.252 171.072 222.505 171.119 222.776 171.129C223.363 171.111 223.949 171.193 224.508 171.372Z" fill="#263238"/>
<path d="M224.641 184.213C228.143 184.063 231.522 182.873 234.347 180.797C234.347 180.797 232.344 186.413 224.744 186.17L224.641 184.213Z" fill="#EB996E"/>
<path d="M242.048 161.852C242.189 161.795 246.841 161.187 246.401 166.681C245.961 172.176 240.551 169.92 240.551 169.761C240.551 169.602 242.048 161.852 242.048 161.852Z" fill="#FFBE9D"/>
<path d="M242.426 167.964C242.426 167.964 242.51 168.039 242.669 168.123C242.887 168.241 243.143 168.268 243.38 168.198C243.752 168.002 244.066 167.711 244.288 167.354C244.51 166.997 244.633 166.587 244.644 166.167C244.699 165.696 244.645 165.219 244.485 164.772C244.45 164.596 244.372 164.431 244.258 164.292C244.143 164.153 243.996 164.045 243.83 163.977C243.722 163.937 243.604 163.937 243.496 163.977C243.388 164.016 243.297 164.092 243.24 164.192C243.156 164.342 243.184 164.454 243.156 164.464C243.128 164.473 243.044 164.361 243.1 164.136C243.147 164.003 243.235 163.888 243.352 163.808C243.512 163.71 243.703 163.676 243.886 163.715C244.108 163.779 244.311 163.898 244.475 164.062C244.639 164.226 244.758 164.428 244.822 164.651C245.016 165.147 245.087 165.684 245.028 166.214C245.018 166.704 244.862 167.181 244.58 167.583C244.299 167.984 243.904 168.293 243.446 168.47C243.294 168.503 243.137 168.501 242.986 168.464C242.835 168.426 242.694 168.355 242.576 168.254C242.426 168.095 242.426 167.974 242.426 167.964Z" fill="#EB996E"/>
<path d="M216.76 151.444C215.834 151.168 215.025 150.594 214.461 149.809C213.897 149.025 213.61 148.075 213.643 147.11C213.711 146.145 214.039 145.217 214.593 144.424C215.147 143.631 215.906 143.003 216.788 142.608C217.679 142.229 218.639 142.042 219.606 142.058C220.574 142.074 221.527 142.293 222.404 142.701C222.672 141.288 223.435 140.015 224.556 139.113C225.676 138.21 227.082 137.736 228.52 137.776C229.958 137.815 231.336 138.365 232.405 139.328C233.475 140.291 234.167 141.603 234.357 143.029C234.544 141.569 236.229 140.754 237.67 140.661C238.404 140.586 239.146 140.68 239.838 140.934C240.531 141.189 241.156 141.598 241.667 142.13C242.16 142.677 242.433 143.388 242.433 144.124C242.433 144.861 242.16 145.571 241.667 146.118C243.312 145.904 244.978 146.304 246.347 147.241C247.024 147.72 247.571 148.36 247.937 149.104C248.303 149.848 248.477 150.671 248.444 151.5C248.381 152.325 248.061 153.109 247.528 153.742C246.996 154.375 246.278 154.825 245.477 155.028C244.924 155.15 244.784 154.776 244.485 155.253C244.327 155.768 244.255 156.306 244.269 156.844C244.377 158.579 244.273 160.32 243.96 162.03C243.453 161.852 242.897 161.876 242.406 162.095C241.916 162.314 241.527 162.713 241.321 163.209C240.944 164.222 240.841 165.316 241.021 166.382C240.878 166.531 240.703 166.646 240.509 166.719C240.316 166.792 240.109 166.821 239.903 166.804C239.697 166.787 239.497 166.724 239.318 166.62C239.139 166.517 238.986 166.375 238.868 166.204C238.435 165.474 238.242 164.626 238.316 163.78L238.204 155.019C237.772 155.258 237.286 155.383 236.793 155.382C236.299 155.382 235.814 155.256 235.383 155.016C234.951 154.777 234.588 154.431 234.327 154.013C234.065 153.594 233.915 153.116 233.889 152.623C233.27 153.218 232.526 153.667 231.712 153.939C230.897 154.211 230.033 154.298 229.18 154.194C228.328 154.09 227.51 153.798 226.785 153.338C226.059 152.879 225.445 152.263 224.988 151.537C224.109 152.275 223.144 152.904 222.114 153.409C221.066 153.923 219.865 154.026 218.744 153.699C218.189 153.527 217.701 153.187 217.348 152.726C216.994 152.265 216.792 151.706 216.77 151.125L217.153 150.798" fill="#263238"/>
<path d="M243.867 276.857H169.044L156.707 229.074H219.138L229.022 273.74L243.867 274.096V276.857Z" fill="#1900C0"/>
<path d="M221.402 162.488C221.477 162.591 220.785 163.134 219.755 163.153C218.725 163.172 218.005 162.675 218.08 162.572C218.154 162.47 218.847 162.694 219.746 162.666C220.644 162.638 221.337 162.367 221.402 162.488Z" fill="#263238"/>
<path d="M218.707 162.992C218.707 163.249 218.809 163.496 218.991 163.677C219.172 163.859 219.419 163.961 219.676 163.961C219.933 163.961 220.179 163.859 220.361 163.677C220.542 163.496 220.645 163.249 220.645 162.992" fill="#263238"/>
<path d="M231.93 162.555C232.014 162.658 231.321 163.2 230.282 163.219C229.243 163.238 228.532 162.742 228.607 162.639C228.682 162.536 229.384 162.761 230.273 162.732C231.162 162.704 231.864 162.433 231.93 162.555Z" fill="#263238"/>
<path d="M229.246 163.086C229.246 163.342 229.348 163.587 229.528 163.768C229.709 163.948 229.954 164.05 230.21 164.05C230.466 164.05 230.711 163.948 230.892 163.768C231.073 163.587 231.174 163.342 231.174 163.086" fill="#263238"/>
<path d="M232.614 160.091C232.539 160.493 231.453 160.643 230.171 160.662C228.889 160.68 227.793 160.549 227.719 160.147C227.644 159.744 228.72 159.211 230.152 159.211C231.584 159.211 232.679 159.698 232.614 160.091Z" fill="#263238"/>
<path d="M221.747 160.7C221.682 161.103 220.596 161.262 219.314 161.28C218.032 161.299 216.936 161.159 216.852 160.756C216.768 160.354 217.863 159.82 219.295 159.82C220.727 159.82 221.832 160.279 221.747 160.7Z" fill="#263238"/>
<path d="M249.097 164.687C249.097 166.055 248.553 167.367 247.586 168.334C246.619 169.301 245.307 169.844 243.939 169.844C241.131 169.844 240.102 167.542 240.102 164.687C240.102 161.832 241.094 159.539 243.939 159.539C245.305 159.539 246.616 160.081 247.583 161.046C248.55 162.011 249.094 163.321 249.097 164.687Z" fill="#455A64"/>
<path d="M243.502 160.758C243.502 160.758 247.489 141.626 234.385 142.375L233.758 141.177C233.758 141.177 241.695 139.305 244.597 145.482C246.862 150.293 245.392 160.552 245.392 160.552L243.502 160.758Z" fill="#455A64"/>
<path d="M244.594 169.845C243.96 169.87 243.342 169.644 242.872 169.218C241.658 168.286 240.859 166.915 240.644 165.399C240.467 163.891 240.797 162.366 241.58 161.066C242.245 160.064 243.078 159.933 243.069 159.999C242.579 160.316 242.169 160.742 241.87 161.243C241.241 162.509 240.991 163.929 241.15 165.334C241.356 166.731 242.048 168.011 243.106 168.947C243.567 169.301 244.066 169.603 244.594 169.845Z" fill="#263238"/>
<path d="M224.837 173.385C224.912 173.497 224.772 173.731 224.472 173.816C224.172 173.9 223.92 173.816 223.938 173.638C223.957 173.46 224.135 173.404 224.341 173.348C224.547 173.292 224.762 173.235 224.837 173.385Z" fill="#263238"/>
<path d="M204.582 176.546C205.807 176.546 206.8 175.553 206.8 174.328C206.8 173.103 205.807 172.109 204.582 172.109C203.356 172.109 202.363 173.103 202.363 174.328C202.363 175.553 203.356 176.546 204.582 176.546Z" fill="#263238"/>
<path d="M206.48 173.589C205.3 172.324 204.327 170.88 203.597 169.311C202.733 167.826 201.977 166.281 201.332 164.688C202.404 166.041 203.315 167.514 204.046 169.077C205.347 171.586 206.583 173.505 206.48 173.589Z" fill="#263238"/>
<path d="M205.415 162.245C205.537 162.291 205.06 163.443 203.815 164.238C203.471 164.513 203.074 164.712 202.648 164.822C202.222 164.932 201.777 164.95 201.344 164.875C201.344 164.734 202.439 164.566 203.553 163.836C204.667 163.106 205.294 162.151 205.415 162.245Z" fill="#263238"/>
<path d="M206.38 164.331C206.501 164.331 206.08 165.529 204.816 166.203C204.467 166.45 204.062 166.606 203.638 166.66C203.214 166.714 202.783 166.663 202.383 166.512C203.133 166.332 203.865 166.088 204.573 165.782C205.696 165.193 206.248 164.266 206.38 164.331Z" fill="#263238"/>
<path d="M193.079 173.037C192.91 173.258 192.679 173.423 192.416 173.512C192.152 173.6 191.869 173.609 191.6 173.537C191.332 173.464 191.091 173.314 190.909 173.104C190.726 172.895 190.609 172.636 190.574 172.36C190.539 172.085 190.586 171.805 190.709 171.556C190.833 171.307 191.028 171.101 191.269 170.963C191.511 170.825 191.787 170.761 192.065 170.781C192.342 170.8 192.607 170.901 192.827 171.072C193.12 171.299 193.312 171.634 193.359 172.002C193.406 172.371 193.306 172.743 193.079 173.037Z" fill="#263238"/>
<path d="M193.199 172.54C193.015 171.452 193.056 170.337 193.321 169.264C193.442 168.178 193.69 167.11 194.06 166.082C194.163 167.174 194.078 168.276 193.807 169.339C193.697 170.422 193.493 171.493 193.199 172.54Z" fill="#263238"/>
<path d="M198.32 167.684C197.642 167.935 196.907 167.991 196.199 167.845C195.491 167.7 194.838 167.358 194.314 166.86C193.996 166.514 193.94 166.196 193.996 166.177C194.052 166.158 194.211 166.373 194.548 166.607C194.984 166.919 195.472 167.151 195.989 167.291C197.225 167.637 198.301 167.534 198.32 167.684Z" fill="#263238"/>
<path d="M197.336 174.648C197.167 174.868 196.936 175.032 196.674 175.121C196.411 175.21 196.128 175.219 195.86 175.147C195.592 175.075 195.352 174.925 195.169 174.717C194.986 174.508 194.869 174.25 194.833 173.975C194.796 173.701 194.842 173.421 194.964 173.172C195.086 172.923 195.279 172.716 195.519 172.577C195.759 172.437 196.034 172.372 196.311 172.389C196.588 172.407 196.853 172.505 197.074 172.673C197.221 172.785 197.345 172.925 197.438 173.085C197.531 173.246 197.592 173.422 197.616 173.606C197.64 173.79 197.628 173.976 197.58 174.155C197.532 174.334 197.449 174.501 197.336 174.648Z" fill="#263238"/>
<path d="M197.496 174.151C197.306 173.063 197.348 171.947 197.618 170.875C197.734 169.785 197.982 168.714 198.357 167.684C198.46 168.779 198.371 169.885 198.095 170.95C197.99 172.033 197.789 173.104 197.496 174.151Z" fill="#263238"/>
<path d="M198.196 168.637C197.85 168.831 197.467 168.95 197.072 168.986C196.676 169.021 196.278 168.972 195.903 168.843C194.602 168.534 193.844 167.71 193.937 167.626C194.031 167.542 194.873 168.094 196.015 168.365C197.157 168.637 198.168 168.496 198.196 168.637Z" fill="#263238"/>
<path d="M273.547 237.631C273.379 237.645 273.21 237.645 273.042 237.631H271.61L266.322 237.434C261.857 237.247 255.698 236.957 248.893 236.601L245.402 236.423H245.168V236.199C245.168 230.246 245.224 224.967 245.243 221.111C245.243 219.239 245.299 217.75 245.318 216.636C245.318 216.15 245.318 215.757 245.318 215.429C245.32 215.287 245.336 215.146 245.365 215.008C245.405 215.144 245.421 215.287 245.411 215.429C245.411 215.757 245.411 216.15 245.458 216.636C245.458 217.75 245.458 219.257 245.524 221.111C245.524 224.976 245.58 230.246 245.608 236.199L245.383 235.955L248.865 236.133C255.67 236.489 261.838 236.835 266.293 237.069L271.573 237.425L273.005 237.547C273.189 237.544 273.373 237.572 273.547 237.631Z" fill="#263238"/>
<path d="M260.207 196.783C259.093 196.644 257.968 196.61 256.847 196.68C254.157 196.974 251.648 198.176 249.733 200.087C247.861 202.047 246.591 204.503 246.074 207.164C245.662 209.204 245.746 210.524 245.652 210.514C245.572 210.209 245.537 209.894 245.549 209.578C245.495 205.918 246.872 202.382 249.387 199.722C251.371 197.724 254.01 196.51 256.819 196.306C257.659 196.25 258.502 196.307 259.327 196.474C259.636 196.526 259.934 196.63 260.207 196.783Z" fill="#263238"/>
<path d="M208.521 211.309C208.662 212.209 208.718 213.121 208.69 214.032C208.69 215.717 208.746 218.085 208.69 220.678C208.634 223.13 208.587 225.358 208.54 227.174C208.54 228.213 208.54 228.962 208.54 229.701C208.54 228.859 208.54 228.016 208.54 226.837C208.54 224.965 208.447 222.793 208.4 220.285C208.353 217.776 208.4 215.605 208.4 213.929C208.36 213.054 208.401 212.177 208.521 211.309Z" fill="#263238"/>
<path d="M194.097 252.942C194.099 253.781 193.852 254.601 193.387 255.3C192.923 255.998 192.261 256.543 191.486 256.866C190.712 257.188 189.859 257.273 189.036 257.111C188.213 256.948 187.456 256.545 186.862 255.953C186.268 255.36 185.864 254.604 185.699 253.782C185.535 252.959 185.618 252.106 185.939 251.331C186.26 250.555 186.803 249.892 187.501 249.426C188.198 248.96 189.018 248.711 189.857 248.711C190.98 248.711 192.057 249.156 192.852 249.95C193.647 250.743 194.095 251.819 194.097 252.942Z" fill="#F5F5F5"/>
</svg>
