<svg width="15" height="16" viewBox="0 0 15 16" fill="none" xmlns="http://www.w3.org/2000/svg">
<path d="M13.1565 12.33L8.16341 3.05752C7.8095 2.4001 6.86673 2.4001 6.51253 3.05752L1.51975 12.33C1.44291 12.4727 1.40439 12.6329 1.40794 12.795C1.41149 12.957 1.457 13.1154 1.54002 13.2546C1.62305 13.3938 1.74074 13.5091 1.88163 13.5893C2.02252 13.6694 2.18178 13.7117 2.34388 13.7119H12.3309C12.4931 13.7119 12.6526 13.6699 12.7936 13.5898C12.9347 13.5098 13.0526 13.3945 13.1358 13.2552C13.219 13.116 13.2647 12.9575 13.2683 12.7953C13.2719 12.6332 13.2334 12.4728 13.1565 12.33ZM7.33811 12.2764C7.22223 12.2764 7.10894 12.242 7.01258 12.1776C6.91623 12.1132 6.84113 12.0217 6.79678 11.9147C6.75243 11.8076 6.74083 11.6898 6.76344 11.5761C6.78604 11.4625 6.84185 11.3581 6.92379 11.2761C7.00574 11.1942 7.11014 11.1384 7.2238 11.1158C7.33746 11.0931 7.45528 11.1047 7.56234 11.1491C7.66941 11.1934 7.76092 11.2685 7.8253 11.3649C7.88969 11.4613 7.92405 11.5745 7.92405 11.6904C7.92405 11.8458 7.86232 11.9949 7.75243 12.1048C7.64255 12.2146 7.49351 12.2764 7.33811 12.2764ZM7.97444 6.3833L7.80628 9.95752C7.80628 10.0818 7.75689 10.2011 7.66898 10.289C7.58108 10.3769 7.46185 10.4263 7.33753 10.4263C7.21321 10.4263 7.09398 10.3769 7.00607 10.289C6.91816 10.2011 6.86878 10.0818 6.86878 9.95752L6.70061 6.38477C6.69684 6.29939 6.71028 6.21413 6.74016 6.13406C6.77003 6.054 6.81572 5.98077 6.8745 5.91873C6.93328 5.8567 7.00394 5.80714 7.08229 5.773C7.16063 5.73886 7.24504 5.72084 7.3305 5.72002H7.33665C7.42269 5.71998 7.50784 5.73736 7.58697 5.77113C7.6661 5.8049 7.73757 5.85435 7.79707 5.9165C7.85656 5.97865 7.90285 6.05221 7.93313 6.13275C7.96342 6.21328 7.97707 6.29911 7.97327 6.38506L7.97444 6.3833Z" fill="#F7BF21"/>
</svg>
