<svg width="82" height="81" viewBox="0 0 82 81" fill="none" xmlns="http://www.w3.org/2000/svg">
<g opacity="0.8" clip-path="url(#clip0_3087_71879)">
<path d="M52.0509 18.6579H29.9671C29.4638 18.6585 28.9814 18.8587 28.6255 19.2146C28.2697 19.5704 28.0695 20.0529 28.0689 20.5561V69.6376L27.8158 69.7148L22.3983 71.3738C22.1415 71.4521 21.8642 71.4253 21.6272 71.2993C21.3902 71.1733 21.2128 70.9584 21.1341 70.7018L5.01952 18.0644C4.94109 17.8077 4.96782 17.5303 5.09383 17.2932C5.21983 17.0562 5.4348 16.8788 5.69149 16.8002L14.0399 14.2439L38.2421 6.83585L46.5904 4.27959C46.7174 4.24049 46.8509 4.22683 46.9832 4.23938C47.1156 4.25194 47.2441 4.29047 47.3616 4.35277C47.479 4.41506 47.583 4.4999 47.6676 4.60244C47.7522 4.70497 47.8157 4.82317 47.8546 4.95029L51.9737 18.4048L52.0509 18.6579Z" fill="#F2F2F2"/>
<path d="M56.8699 18.4046L51.9055 2.18881C51.8229 1.91863 51.6878 1.66737 51.5081 1.44938C51.3284 1.2314 51.1074 1.05098 50.8579 0.918412C50.6084 0.785848 50.3353 0.703745 50.054 0.676797C49.7728 0.649849 49.489 0.678584 49.2189 0.761357L37.4816 4.35404L13.2807 11.7634L1.5434 15.3573C0.998146 15.5248 0.541599 15.9017 0.273968 16.4054C0.00633807 16.9091 -0.0505103 17.4984 0.115904 18.0439L17.0834 73.4629C17.2186 73.9033 17.4914 74.2887 17.8617 74.5627C18.232 74.8367 18.6804 74.9848 19.1411 74.9853C19.3543 74.9854 19.5663 74.9534 19.77 74.8903L27.8159 72.4277L28.069 72.3493V72.0848L27.8159 72.162L19.6954 74.6486C19.2141 74.7953 18.6942 74.7452 18.2499 74.5091C17.8056 74.2731 17.473 73.8704 17.3251 73.3895L0.358927 17.9693C0.285667 17.731 0.260134 17.4806 0.283789 17.2324C0.307444 16.9842 0.37982 16.7431 0.496778 16.523C0.613736 16.3028 0.772977 16.1079 0.96538 15.9493C1.15778 15.7908 1.37957 15.6718 1.61804 15.5991L13.3553 12.0051L37.5563 4.59701L49.2936 1.00307C49.4744 0.947865 49.6625 0.91972 49.8516 0.919544C50.2575 0.920455 50.6524 1.0513 50.9785 1.29291C51.3046 1.53453 51.5447 1.87421 51.6638 2.26221L56.6054 18.4046L56.6839 18.6577H56.9471L56.8699 18.4046Z" fill="#3F3D56"/>
<path d="M15.5465 16.8415C15.3026 16.8413 15.0652 16.763 14.869 16.618C14.6729 16.473 14.5284 16.2689 14.4568 16.0358L12.8268 10.7117C12.783 10.5687 12.7678 10.4185 12.7821 10.2696C12.7963 10.1207 12.8398 9.97608 12.91 9.84399C12.9801 9.7119 13.0756 9.59493 13.191 9.49975C13.3064 9.40458 13.4394 9.33307 13.5824 9.2893L35.8471 2.47298C36.1359 2.38484 36.4479 2.4149 36.7146 2.55656C36.9813 2.69822 37.1809 2.9399 37.2695 3.22856L38.8995 8.5527C38.9876 8.84152 38.9575 9.1535 38.8159 9.42017C38.6742 9.68685 38.4326 9.88645 38.1439 9.97518L15.8792 16.7915C15.7714 16.8246 15.6593 16.8414 15.5465 16.8415Z" fill="#C8C0FF"/>
<path d="M24.0849 6.35487C25.4827 6.35487 26.6159 5.22172 26.6159 3.82392C26.6159 2.42611 25.4827 1.29297 24.0849 1.29297C22.6871 1.29297 21.554 2.42611 21.554 3.82392C21.554 5.22172 22.6871 6.35487 24.0849 6.35487Z" fill="#C8C0FF"/>
<path d="M24.0849 5.42654C24.97 5.42654 25.6875 4.709 25.6875 3.82387C25.6875 2.93873 24.97 2.22119 24.0849 2.22119C23.1997 2.22119 22.4822 2.93873 22.4822 3.82387C22.4822 4.709 23.1997 5.42654 24.0849 5.42654Z" fill="white"/>
<path d="M76.2835 74.3386H33.5105C33.2253 74.3382 32.9519 74.2248 32.7502 74.0232C32.5486 73.8215 32.4351 73.5481 32.4348 73.2629V22.0112C32.4351 21.726 32.5486 21.4526 32.7502 21.251C32.9519 21.0493 33.2253 20.9359 33.5105 20.9355H76.2835C76.5687 20.9359 76.8421 21.0493 77.0437 21.251C77.2454 21.4526 77.3588 21.726 77.3592 22.0112V73.2629C77.3588 73.5481 77.2454 73.8215 77.0437 74.0232C76.8421 74.2248 76.5687 74.3382 76.2835 74.3386Z" fill="#E6E6E6"/>
<path d="M56.6055 18.4048H29.9672C29.3969 18.4056 28.8502 18.6325 28.4469 19.0358C28.0436 19.4391 27.8167 19.9858 27.8159 20.5561V72.1622L28.069 72.085V20.5561C28.0696 20.0528 28.2698 19.5704 28.6257 19.2145C28.9815 18.8587 29.464 18.6585 29.9672 18.6579H56.6839L56.6055 18.4048ZM79.8269 18.4048H29.9672C29.3969 18.4056 28.8502 18.6325 28.4469 19.0358C28.0436 19.4391 27.8167 19.9858 27.8159 20.5561V78.5148C27.8167 79.0852 28.0436 79.6319 28.4469 80.0352C28.8502 80.4384 29.3969 80.6653 29.9672 80.6661H79.8269C80.3972 80.6653 80.944 80.4384 81.3472 80.0352C81.7505 79.6319 81.9774 79.0852 81.9782 78.5148V20.5561C81.9774 19.9858 81.7505 19.4391 81.3472 19.0358C80.944 18.6325 80.3972 18.4056 79.8269 18.4048ZM81.7251 78.5148C81.7245 79.0181 81.5243 79.5006 81.1685 79.8564C80.8126 80.2123 80.3302 80.4124 79.8269 80.4131H29.9672C29.464 80.4124 28.9815 80.2123 28.6257 79.8564C28.2698 79.5006 28.0696 79.0181 28.069 78.5148V20.5561C28.0696 20.0528 28.2698 19.5704 28.6257 19.2145C28.9815 18.8587 29.464 18.6585 29.9672 18.6579H79.8269C80.3302 18.6585 80.8126 18.8587 81.1685 19.2145C81.5243 19.5704 81.7245 20.0528 81.7251 20.5561V78.5148Z" fill="#3F3D56"/>
<path d="M66.5394 23.9729H43.2546C42.9527 23.9726 42.6632 23.8525 42.4497 23.6389C42.2362 23.4254 42.1161 23.1359 42.1157 22.834V17.2659C42.1161 16.9639 42.2362 16.6744 42.4497 16.4609C42.6632 16.2474 42.9527 16.1273 43.2546 16.127H66.5394C66.8413 16.1273 67.1308 16.2474 67.3443 16.4609C67.5579 16.6744 67.678 16.9639 67.6783 17.2659V22.834C67.678 23.1359 67.5579 23.4254 67.3444 23.6389C67.1308 23.8525 66.8413 23.9726 66.5394 23.9729Z" fill="#C8C0FF"/>
<path d="M54.8972 16.5062C56.295 16.5062 57.4281 15.3731 57.4281 13.9753C57.4281 12.5775 56.295 11.4443 54.8972 11.4443C53.4994 11.4443 52.3662 12.5775 52.3662 13.9753C52.3662 15.3731 53.4994 16.5062 54.8972 16.5062Z" fill="#C8C0FF"/>
<path d="M54.8971 15.5173C55.7484 15.5173 56.4386 14.8271 56.4386 13.9757C56.4386 13.1243 55.7484 12.4341 54.8971 12.4341C54.0457 12.4341 53.3555 13.1243 53.3555 13.9757C53.3555 14.8271 54.0457 15.5173 54.8971 15.5173Z" fill="white"/>
</g>
<defs>
<clipPath id="clip0_3087_71879">
<rect width="81.9567" height="80" fill="white" transform="translate(0.0214844 0.666016)"/>
</clipPath>
</defs>
</svg>
