<svg width="25" height="25" viewBox="0 0 25 25" fill="none" xmlns="http://www.w3.org/2000/svg">
<circle cx="12.5" cy="12.5" r="12.5" fill="#EEEEEE"/>
<path d="M18.1243 9.375C18.2836 9.37518 18.4368 9.43617 18.5527 9.54553C18.6685 9.65489 18.7382 9.80435 18.7475 9.96337C18.7569 10.1224 18.7051 10.279 18.6029 10.4011C18.5006 10.5233 18.3556 10.6018 18.1974 10.6206L18.1243 10.625V16.875C18.2836 16.8752 18.4368 16.9362 18.5527 17.0455C18.6685 17.1549 18.7382 17.3043 18.7475 17.4634C18.7569 17.6224 18.7051 17.779 18.6029 17.9011C18.5006 18.0233 18.3556 18.1018 18.1974 18.1206L18.1243 18.125H6.87431C6.71501 18.1248 6.56179 18.0638 6.44595 17.9545C6.33012 17.8451 6.26041 17.6957 6.25108 17.5366C6.24174 17.3776 6.29348 17.221 6.39572 17.0989C6.49797 16.9767 6.643 16.8982 6.80118 16.8794L6.87431 16.875V10.625C6.71501 10.6248 6.56179 10.5638 6.44595 10.4545C6.33012 10.3451 6.26041 10.1957 6.25108 10.0366C6.24174 9.8776 6.29348 9.72101 6.39572 9.59885C6.49797 9.4767 6.643 9.39819 6.80118 9.37937L6.87431 9.375H18.1243ZM16.8743 10.625H8.12431V16.875H9.37431V12.5C9.37431 12.3342 9.44016 12.1753 9.55737 12.0581C9.67458 11.9408 9.83355 11.875 9.99931 11.875C10.1651 11.875 10.324 11.9408 10.4412 12.0581C10.5585 12.1753 10.6243 12.3342 10.6243 12.5V16.875H11.8743V12.5C11.8743 12.3342 11.9402 12.1753 12.0574 12.0581C12.1746 11.9408 12.3335 11.875 12.4993 11.875C12.6651 11.875 12.824 11.9408 12.9412 12.0581C13.0585 12.1753 13.1243 12.3342 13.1243 12.5V16.875H14.3743V12.5C14.3743 12.3342 14.4402 12.1753 14.5574 12.0581C14.6746 11.9408 14.8335 11.875 14.9993 11.875C15.1651 11.875 15.324 11.9408 15.4412 12.0581C15.5585 12.1753 15.6243 12.3342 15.6243 12.5V16.875H16.8743V10.625ZM16.2493 7.5C16.4151 7.5 16.574 7.56585 16.6912 7.68306C16.8085 7.80027 16.8743 7.95924 16.8743 8.125C16.8743 8.29076 16.8085 8.44973 16.6912 8.56694C16.574 8.68415 16.4151 8.75 16.2493 8.75H8.74931C8.58355 8.75 8.42458 8.68415 8.30737 8.56694C8.19016 8.44973 8.12431 8.29076 8.12431 8.125C8.12431 7.95924 8.19016 7.80027 8.30737 7.68306C8.42458 7.56585 8.58355 7.5 8.74931 7.5H16.2493Z" fill="#6F6F6F"/>
</svg>
