<svg width="26" height="25" viewBox="0 0 26 25" fill="none" xmlns="http://www.w3.org/2000/svg">
<circle cx="13" cy="12.5" r="12.5" fill="#EEEEEE"/>
<path d="M18.7295 10C17.7648 7.7925 15.562 6.25 12.9995 6.25C10.4367 6.25 8.23391 7.7925 7.26953 10" stroke="#6F6F6F" stroke-width="1.25" stroke-linecap="round" stroke-linejoin="round"/>
<path d="M13 9.375C12.4055 9.95626 11.9333 10.6506 11.6113 11.4172C11.2893 12.1837 11.1239 13.007 11.125 13.8384C11.125 13.9947 11.1306 14.1497 11.1422 14.3034C11.7316 14.8841 12.1994 15.5764 12.5184 16.3398C12.8374 17.1033 13.0011 17.9226 13 18.75C12.9989 17.9226 13.1626 17.1032 13.4816 16.3397C13.8005 15.5762 14.2684 14.8839 14.8578 14.3031C14.9267 13.3959 14.7961 12.4845 14.4752 11.6331C14.1542 10.7818 13.6507 10.011 13 9.375Z" stroke="#6F6F6F" stroke-width="1.25" stroke-linecap="round" stroke-linejoin="round"/>
<path d="M6.75 12.5C6.75 15.9519 9.54813 18.75 13 18.75C13.0011 17.9226 12.8374 17.1032 12.5185 16.3397C12.1995 15.5762 11.7316 14.8839 11.1422 14.3031C9.97353 13.1459 8.39467 12.4977 6.75 12.5Z" stroke="#6F6F6F" stroke-width="1.25" stroke-linecap="round" stroke-linejoin="round"/>
<path d="M19.25 12.5C19.25 15.9519 16.4519 18.75 13 18.75C12.9989 17.9226 13.1626 17.1032 13.4816 16.3397C13.8005 15.5762 14.2684 14.8839 14.8578 14.3031C16.0265 13.1459 17.6053 12.4977 19.25 12.5Z" stroke="#6F6F6F" stroke-width="1.25" stroke-linecap="round" stroke-linejoin="round"/>
</svg>
