<svg width="25" height="25" viewBox="0 0 25 25" fill="none" xmlns="http://www.w3.org/2000/svg">
<circle cx="12.5" cy="12.5" r="12.5" fill="#EEEEEE"/>
<path d="M12.875 12.875C13.538 12.875 14.1739 12.6116 14.6428 12.1428C15.1116 11.6739 15.375 11.038 15.375 10.375C15.375 9.71196 15.1116 9.07607 14.6428 8.60723C14.1739 8.13839 13.538 7.875 12.875 7.875C12.212 7.875 11.5761 8.13839 11.1072 8.60723C10.6384 9.07607 10.375 9.71196 10.375 10.375C10.375 11.038 10.6384 11.6739 11.1072 12.1428C11.5761 12.6116 12.212 12.875 12.875 12.875ZM12.875 12.875C11.8804 12.875 10.9266 13.2701 10.2233 13.9733C9.52009 14.6766 9.125 15.6304 9.125 16.625V18.5M12.875 12.875C13.8696 12.875 14.8234 13.2701 15.5267 13.9733C16.2299 14.6766 16.625 15.6304 16.625 16.625V18.5M13.5 7.875C13.7525 6.835 14.7594 6 16 6C17.3575 6 18.4875 7.11875 18.5 8.5C18.4875 9.88125 17.3575 11 16 11M16 11H15.375M16 11C18.055 11 19.75 12.6788 19.75 14.75V16M12.25 7.875C11.9975 6.835 10.9906 6 9.75 6C8.3925 6 7.2625 7.11875 7.25 8.5C7.2625 9.88125 8.3925 11 9.75 11M9.75 11H10.375M9.75 11C7.695 11 6 12.6788 6 14.75V16" stroke="#6F6F6F" stroke-width="1.25"/>
</svg>
