<svg width="201" height="151" viewBox="0 0 201 151" fill="none" xmlns="http://www.w3.org/2000/svg">
<rect x="1.15234" y="0.714844" width="199" height="148.902" rx="9.5" fill="#1900C0" stroke="#EEEEEE"/>
<rect x="35.7773" y="38.8398" width="21.8235" height="25" rx="1" stroke="white" stroke-width="2"/>
<line x1="38.9531" y1="59.0938" x2="51.2472" y2="59.0938" stroke="white" stroke-width="2" stroke-linecap="round"/>
<line x1="38.9588" y1="54.3143" x2="49.9842" y2="54.3768" stroke="white" stroke-width="2" stroke-linecap="round"/>
<line x1="38.9531" y1="49.5469" x2="43.3061" y2="49.5469" stroke="white" stroke-width="2" stroke-linecap="round"/>
<path d="M174.654 121.003C179.256 121.003 182.987 117.272 182.987 112.669C182.987 108.067 179.256 104.336 174.654 104.336C170.051 104.336 166.32 108.067 166.32 112.669C166.32 117.272 170.051 121.003 174.654 121.003Z" stroke="white" stroke-width="1.66667"/>
<path d="M173.402 109.336L176.736 112.669L173.402 116.003" stroke="white" stroke-width="1.66667" stroke-linecap="round" stroke-linejoin="round"/>
<path d="M31.6683 116.264C31.0283 116.264 30.4363 116.16 29.8923 115.952C29.3563 115.736 28.8883 115.436 28.4883 115.052C28.0963 114.66 27.7883 114.204 27.5643 113.684C27.3403 113.164 27.2283 112.592 27.2283 111.968C27.2283 111.344 27.3403 110.772 27.5643 110.252C27.7883 109.732 28.1003 109.28 28.5003 108.896C28.9003 108.504 29.3683 108.204 29.9043 107.996C30.4483 107.78 31.0403 107.672 31.6803 107.672C32.3283 107.672 32.9243 107.784 33.4683 108.008C34.0203 108.224 34.4883 108.548 34.8723 108.98L34.0923 109.736C33.7723 109.4 33.4123 109.152 33.0123 108.992C32.6123 108.824 32.1843 108.74 31.7283 108.74C31.2563 108.74 30.8163 108.82 30.4083 108.98C30.0083 109.14 29.6603 109.364 29.3643 109.652C29.0683 109.94 28.8363 110.284 28.6683 110.684C28.5083 111.076 28.4283 111.504 28.4283 111.968C28.4283 112.432 28.5083 112.864 28.6683 113.264C28.8363 113.656 29.0683 113.996 29.3643 114.284C29.6603 114.572 30.0083 114.796 30.4083 114.956C30.8163 115.116 31.2563 115.196 31.7283 115.196C32.1843 115.196 32.6123 115.116 33.0123 114.956C33.4123 114.788 33.7723 114.532 34.0923 114.188L34.8723 114.944C34.4883 115.376 34.0203 115.704 33.4683 115.928C32.9243 116.152 32.3243 116.264 31.6683 116.264ZM36.4162 116.168V107.264H37.5682V116.168H36.4162ZM39.7678 116.168V109.808H40.9198V116.168H39.7678ZM40.3438 108.584C40.1198 108.584 39.9318 108.512 39.7798 108.368C39.6358 108.224 39.5638 108.048 39.5638 107.84C39.5638 107.624 39.6358 107.444 39.7798 107.3C39.9318 107.156 40.1198 107.084 40.3438 107.084C40.5678 107.084 40.7518 107.156 40.8958 107.3C41.0478 107.436 41.1238 107.608 41.1238 107.816C41.1238 108.032 41.0518 108.216 40.9078 108.368C40.7638 108.512 40.5758 108.584 40.3438 108.584ZM45.9513 116.24C45.2713 116.24 44.6713 116.1 44.1513 115.82C43.6393 115.54 43.2393 115.156 42.9513 114.668C42.6713 114.18 42.5313 113.62 42.5313 112.988C42.5313 112.356 42.6673 111.796 42.9393 111.308C43.2193 110.82 43.5993 110.44 44.0793 110.168C44.5673 109.888 45.1153 109.748 45.7233 109.748C46.3393 109.748 46.8833 109.884 47.3553 110.156C47.8273 110.428 48.1953 110.812 48.4593 111.308C48.7313 111.796 48.8673 112.368 48.8673 113.024C48.8673 113.072 48.8633 113.128 48.8553 113.192C48.8553 113.256 48.8513 113.316 48.8433 113.372H43.4313V112.544H48.2433L47.7753 112.832C47.7833 112.424 47.6993 112.06 47.5233 111.74C47.3473 111.42 47.1033 111.172 46.7913 110.996C46.4873 110.812 46.1313 110.72 45.7233 110.72C45.3233 110.72 44.9673 110.812 44.6553 110.996C44.3433 111.172 44.0993 111.424 43.9233 111.752C43.7473 112.072 43.6593 112.44 43.6593 112.856V113.048C43.6593 113.472 43.7553 113.852 43.9473 114.188C44.1473 114.516 44.4233 114.772 44.7753 114.956C45.1273 115.14 45.5313 115.232 45.9873 115.232C46.3633 115.232 46.7033 115.168 47.0073 115.04C47.3193 114.912 47.5913 114.72 47.8233 114.464L48.4593 115.208C48.1713 115.544 47.8113 115.8 47.3793 115.976C46.9553 116.152 46.4793 116.24 45.9513 116.24ZM53.863 109.748C54.383 109.748 54.839 109.848 55.231 110.048C55.631 110.248 55.943 110.552 56.167 110.96C56.391 111.368 56.503 111.884 56.503 112.508V116.168H55.351V112.64C55.351 112.024 55.199 111.56 54.895 111.248C54.599 110.936 54.179 110.78 53.635 110.78C53.227 110.78 52.871 110.86 52.567 111.02C52.263 111.18 52.027 111.416 51.859 111.728C51.699 112.04 51.619 112.428 51.619 112.892V116.168H50.467V109.808H51.571V111.524L51.391 111.068C51.599 110.652 51.919 110.328 52.351 110.096C52.783 109.864 53.287 109.748 53.863 109.748ZM60.819 116.24C60.179 116.24 59.683 116.068 59.331 115.724C58.979 115.38 58.803 114.888 58.803 114.248V108.416H59.955V114.2C59.955 114.544 60.039 114.808 60.207 114.992C60.383 115.176 60.631 115.268 60.951 115.268C61.311 115.268 61.611 115.168 61.851 114.968L62.211 115.796C62.035 115.948 61.823 116.06 61.575 116.132C61.335 116.204 61.083 116.24 60.819 116.24ZM57.723 110.756V109.808H61.779V110.756H57.723ZM66.9944 116.168V107.768H68.1944V115.124H72.7424V116.168H66.9944ZM73.9514 116.168V109.808H75.1034V116.168H73.9514ZM74.5274 108.584C74.3034 108.584 74.1154 108.512 73.9634 108.368C73.8194 108.224 73.7474 108.048 73.7474 107.84C73.7474 107.624 73.8194 107.444 73.9634 107.3C74.1154 107.156 74.3034 107.084 74.5274 107.084C74.7514 107.084 74.9354 107.156 75.0794 107.3C75.2314 107.436 75.3074 107.608 75.3074 107.816C75.3074 108.032 75.2354 108.216 75.0914 108.368C74.9474 108.512 74.7594 108.584 74.5274 108.584ZM79.1269 116.24C78.5989 116.24 78.0949 116.168 77.6149 116.024C77.1429 115.88 76.7709 115.704 76.4989 115.496L76.9789 114.584C77.2509 114.768 77.5869 114.924 77.9869 115.052C78.3869 115.18 78.7949 115.244 79.2109 115.244C79.7469 115.244 80.1309 115.168 80.3629 115.016C80.6029 114.864 80.7229 114.652 80.7229 114.38C80.7229 114.18 80.6509 114.024 80.5069 113.912C80.3629 113.8 80.1709 113.716 79.9309 113.66C79.6989 113.604 79.4389 113.556 79.1509 113.516C78.8629 113.468 78.5749 113.412 78.2869 113.348C77.9989 113.276 77.7349 113.18 77.4949 113.06C77.2549 112.932 77.0629 112.76 76.9189 112.544C76.7749 112.32 76.7029 112.024 76.7029 111.656C76.7029 111.272 76.8109 110.936 77.0269 110.648C77.2429 110.36 77.5469 110.14 77.9389 109.988C78.3389 109.828 78.8109 109.748 79.3549 109.748C79.7709 109.748 80.1909 109.8 80.6149 109.904C81.0469 110 81.3989 110.14 81.6709 110.324L81.1789 111.236C80.8909 111.044 80.5909 110.912 80.2789 110.84C79.9669 110.768 79.6549 110.732 79.3429 110.732C78.8389 110.732 78.4629 110.816 78.2149 110.984C77.9669 111.144 77.8429 111.352 77.8429 111.608C77.8429 111.824 77.9149 111.992 78.0589 112.112C78.2109 112.224 78.4029 112.312 78.6349 112.376C78.8749 112.44 79.1389 112.496 79.4269 112.544C79.7149 112.584 80.0029 112.64 80.2909 112.712C80.5789 112.776 80.8389 112.868 81.0709 112.988C81.3109 113.108 81.5029 113.276 81.6469 113.492C81.7989 113.708 81.8749 113.996 81.8749 114.356C81.8749 114.74 81.7629 115.072 81.5389 115.352C81.3149 115.632 80.9989 115.852 80.5909 116.012C80.1829 116.164 79.6949 116.24 79.1269 116.24ZM85.4987 116.24C84.8587 116.24 84.3627 116.068 84.0107 115.724C83.6587 115.38 83.4827 114.888 83.4827 114.248V108.416H84.6347V114.2C84.6347 114.544 84.7187 114.808 84.8867 114.992C85.0627 115.176 85.3107 115.268 85.6307 115.268C85.9907 115.268 86.2907 115.168 86.5307 114.968L86.8907 115.796C86.7147 115.948 86.5027 116.06 86.2547 116.132C86.0147 116.204 85.7627 116.24 85.4987 116.24ZM82.4027 110.756V109.808H86.4587V110.756H82.4027ZM88.2834 116.168V109.808H89.4354V116.168H88.2834ZM88.8594 108.584C88.6354 108.584 88.4474 108.512 88.2954 108.368C88.1514 108.224 88.0794 108.048 88.0794 107.84C88.0794 107.624 88.1514 107.444 88.2954 107.3C88.4474 107.156 88.6354 107.084 88.8594 107.084C89.0834 107.084 89.2674 107.156 89.4114 107.3C89.5634 107.436 89.6394 107.608 89.6394 107.816C89.6394 108.032 89.5674 108.216 89.4234 108.368C89.2794 108.512 89.0914 108.584 88.8594 108.584ZM95.031 109.748C95.551 109.748 96.007 109.848 96.399 110.048C96.799 110.248 97.111 110.552 97.335 110.96C97.559 111.368 97.671 111.884 97.671 112.508V116.168H96.519V112.64C96.519 112.024 96.367 111.56 96.063 111.248C95.767 110.936 95.347 110.78 94.803 110.78C94.395 110.78 94.039 110.86 93.735 111.02C93.431 111.18 93.195 111.416 93.027 111.728C92.867 112.04 92.787 112.428 92.787 112.892V116.168H91.635V109.808H92.739V111.524L92.559 111.068C92.767 110.652 93.087 110.328 93.519 110.096C93.951 109.864 94.455 109.748 95.031 109.748ZM102.587 118.568C102.003 118.568 101.435 118.484 100.883 118.316C100.339 118.156 99.8949 117.924 99.5509 117.62L100.103 116.732C100.399 116.988 100.763 117.188 101.195 117.332C101.627 117.484 102.079 117.56 102.551 117.56C103.303 117.56 103.855 117.384 104.207 117.032C104.559 116.68 104.735 116.144 104.735 115.424V114.08L104.855 112.82L104.795 111.548V109.808H105.887V115.304C105.887 116.424 105.607 117.248 105.047 117.776C104.487 118.304 103.667 118.568 102.587 118.568ZM102.443 115.904C101.827 115.904 101.275 115.776 100.787 115.52C100.307 115.256 99.9229 114.892 99.6349 114.428C99.3549 113.964 99.2149 113.428 99.2149 112.82C99.2149 112.204 99.3549 111.668 99.6349 111.212C99.9229 110.748 100.307 110.388 100.787 110.132C101.275 109.876 101.827 109.748 102.443 109.748C102.987 109.748 103.483 109.86 103.931 110.084C104.379 110.3 104.735 110.636 104.999 111.092C105.271 111.548 105.407 112.124 105.407 112.82C105.407 113.508 105.271 114.08 104.999 114.536C104.735 114.992 104.379 115.336 103.931 115.568C103.483 115.792 102.987 115.904 102.443 115.904ZM102.575 114.896C102.999 114.896 103.375 114.808 103.703 114.632C104.031 114.456 104.287 114.212 104.471 113.9C104.663 113.588 104.759 113.228 104.759 112.82C104.759 112.412 104.663 112.052 104.471 111.74C104.287 111.428 104.031 111.188 103.703 111.02C103.375 110.844 102.999 110.756 102.575 110.756C102.151 110.756 101.771 110.844 101.435 111.02C101.107 111.188 100.847 111.428 100.655 111.74C100.471 112.052 100.379 112.412 100.379 112.82C100.379 113.228 100.471 113.588 100.655 113.9C100.847 114.212 101.107 114.456 101.435 114.632C101.771 114.808 102.151 114.896 102.575 114.896Z" fill="white"/>
<line x1="27.1211" y1="82.168" x2="172.184" y2="82.168" stroke="#EEEEEE"/>
</svg>
