<svg width="201" height="151" viewBox="0 0 201 151" fill="none" xmlns="http://www.w3.org/2000/svg">
<rect x="0.804688" y="0.714844" width="199" height="148.902" rx="9.5" fill="white" stroke="#EEEEEE"/>
<rect x="35.4297" y="38.8398" width="21.8235" height="25" rx="1" stroke="#1900C0" stroke-width="2"/>
<line x1="38.6055" y1="59.0938" x2="50.8996" y2="59.0938" stroke="#1900C0" stroke-width="2" stroke-linecap="round"/>
<line x1="38.6111" y1="54.3143" x2="49.6365" y2="54.3768" stroke="#1900C0" stroke-width="2" stroke-linecap="round"/>
<line x1="38.6055" y1="49.5469" x2="42.9584" y2="49.5469" stroke="#1900C0" stroke-width="2" stroke-linecap="round"/>
<path d="M174.306 121.003C178.908 121.003 182.639 117.272 182.639 112.669C182.639 108.067 178.908 104.336 174.306 104.336C169.704 104.336 165.973 108.067 165.973 112.669C165.973 117.272 169.704 121.003 174.306 121.003Z" stroke="#1900C0" stroke-width="1.66667"/>
<path d="M173.055 109.336L176.388 112.669L173.055 116.003" stroke="#1900C0" stroke-width="1.66667" stroke-linecap="round" stroke-linejoin="round"/>
<path d="M31.3207 116.264C30.4807 116.264 29.7207 116.08 29.0407 115.712C28.3687 115.336 27.8407 114.824 27.4567 114.176C27.0727 113.52 26.8807 112.784 26.8807 111.968C26.8807 111.152 27.0727 110.42 27.4567 109.772C27.8407 109.116 28.3727 108.604 29.0527 108.236C29.7327 107.86 30.4927 107.672 31.3327 107.672C31.9887 107.672 32.5887 107.784 33.1327 108.008C33.6767 108.224 34.1407 108.548 34.5247 108.98L33.7447 109.736C33.1127 109.072 32.3247 108.74 31.3807 108.74C30.7567 108.74 30.1927 108.88 29.6887 109.16C29.1847 109.44 28.7887 109.828 28.5007 110.324C28.2207 110.812 28.0807 111.36 28.0807 111.968C28.0807 112.576 28.2207 113.128 28.5007 113.624C28.7887 114.112 29.1847 114.496 29.6887 114.776C30.1927 115.056 30.7567 115.196 31.3807 115.196C32.3167 115.196 33.1047 114.86 33.7447 114.188L34.5247 114.944C34.1407 115.376 33.6727 115.704 33.1207 115.928C32.5767 116.152 31.9767 116.264 31.3207 116.264ZM36.0686 107.264H37.2206V116.168H36.0686V107.264ZM39.4201 109.808H40.5721V116.168H39.4201V109.808ZM39.9961 108.584C39.7721 108.584 39.5841 108.512 39.4321 108.368C39.2881 108.224 39.2161 108.048 39.2161 107.84C39.2161 107.632 39.2881 107.456 39.4321 107.312C39.5841 107.16 39.7721 107.084 39.9961 107.084C40.2201 107.084 40.4041 107.156 40.5481 107.3C40.7001 107.436 40.7761 107.608 40.7761 107.816C40.7761 108.032 40.7001 108.216 40.5481 108.368C40.4041 108.512 40.2201 108.584 39.9961 108.584ZM48.5197 113.024C48.5197 113.112 48.5117 113.228 48.4957 113.372H43.3357C43.4077 113.932 43.6517 114.384 44.0677 114.728C44.4917 115.064 45.0157 115.232 45.6397 115.232C46.3997 115.232 47.0117 114.976 47.4757 114.464L48.1117 115.208C47.8237 115.544 47.4637 115.8 47.0317 115.976C46.6077 116.152 46.1317 116.24 45.6037 116.24C44.9317 116.24 44.3357 116.104 43.8157 115.832C43.2957 115.552 42.8917 115.164 42.6037 114.668C42.3237 114.172 42.1837 113.612 42.1837 112.988C42.1837 112.372 42.3197 111.816 42.5917 111.32C42.8717 110.824 43.2517 110.44 43.7317 110.168C44.2197 109.888 44.7677 109.748 45.3757 109.748C45.9837 109.748 46.5237 109.888 46.9957 110.168C47.4757 110.44 47.8477 110.824 48.1117 111.32C48.3837 111.816 48.5197 112.384 48.5197 113.024ZM45.3757 110.72C44.8237 110.72 44.3597 110.888 43.9837 111.224C43.6157 111.56 43.3997 112 43.3357 112.544H47.4157C47.3517 112.008 47.1317 111.572 46.7557 111.236C46.3877 110.892 45.9277 110.72 45.3757 110.72ZM53.5153 109.748C54.3233 109.748 54.9633 109.984 55.4353 110.456C55.9153 110.92 56.1553 111.604 56.1553 112.508V116.168H55.0033V112.64C55.0033 112.024 54.8553 111.56 54.5593 111.248C54.2633 110.936 53.8393 110.78 53.2873 110.78C52.6633 110.78 52.1713 110.964 51.8113 111.332C51.4513 111.692 51.2713 112.212 51.2713 112.892V116.168H50.1193V109.808H51.2233V110.768C51.4553 110.44 51.7673 110.188 52.1593 110.012C52.5593 109.836 53.0113 109.748 53.5153 109.748ZM61.8633 115.796C61.6953 115.94 61.4873 116.052 61.2393 116.132C60.9913 116.204 60.7353 116.24 60.4713 116.24C59.8313 116.24 59.3353 116.068 58.9833 115.724C58.6313 115.38 58.4553 114.888 58.4553 114.248V110.756H57.3753V109.808H58.4553V108.416H59.6073V109.808H61.4313V110.756H59.6073V114.2C59.6073 114.544 59.6913 114.808 59.8593 114.992C60.0353 115.176 60.2833 115.268 60.6033 115.268C60.9553 115.268 61.2553 115.168 61.5033 114.968L61.8633 115.796ZM66.6467 107.768H67.8467V115.124H72.3947V116.168H66.6467V107.768ZM73.6037 109.808H74.7557V116.168H73.6037V109.808ZM74.1797 108.584C73.9557 108.584 73.7677 108.512 73.6157 108.368C73.4717 108.224 73.3997 108.048 73.3997 107.84C73.3997 107.632 73.4717 107.456 73.6157 107.312C73.7677 107.16 73.9557 107.084 74.1797 107.084C74.4037 107.084 74.5877 107.156 74.7317 107.3C74.8837 107.436 74.9597 107.608 74.9597 107.816C74.9597 108.032 74.8837 108.216 74.7317 108.368C74.5877 108.512 74.4037 108.584 74.1797 108.584ZM78.7793 116.24C78.2593 116.24 77.7593 116.172 77.2793 116.036C76.7993 115.892 76.4233 115.712 76.1513 115.496L76.6313 114.584C76.9113 114.784 77.2513 114.944 77.6513 115.064C78.0513 115.184 78.4553 115.244 78.8633 115.244C79.8713 115.244 80.3753 114.956 80.3753 114.38C80.3753 114.188 80.3073 114.036 80.1713 113.924C80.0353 113.812 79.8633 113.732 79.6553 113.684C79.4553 113.628 79.1673 113.568 78.7913 113.504C78.2793 113.424 77.8593 113.332 77.5313 113.228C77.2113 113.124 76.9353 112.948 76.7033 112.7C76.4713 112.452 76.3553 112.104 76.3553 111.656C76.3553 111.08 76.5953 110.62 77.0753 110.276C77.5553 109.924 78.1993 109.748 79.0073 109.748C79.4313 109.748 79.8553 109.8 80.2793 109.904C80.7033 110.008 81.0513 110.148 81.3233 110.324L80.8313 111.236C80.3113 110.9 79.6993 110.732 78.9953 110.732C78.5073 110.732 78.1353 110.812 77.8793 110.972C77.6233 111.132 77.4953 111.344 77.4953 111.608C77.4953 111.816 77.5673 111.98 77.7113 112.1C77.8553 112.22 78.0313 112.308 78.2393 112.364C78.4553 112.42 78.7553 112.484 79.1393 112.556C79.6513 112.644 80.0633 112.74 80.3753 112.844C80.6953 112.94 80.9673 113.108 81.1913 113.348C81.4153 113.588 81.5273 113.924 81.5273 114.356C81.5273 114.932 81.2793 115.392 80.7833 115.736C80.2953 116.072 79.6273 116.24 78.7793 116.24ZM86.543 115.796C86.375 115.94 86.167 116.052 85.919 116.132C85.671 116.204 85.415 116.24 85.151 116.24C84.511 116.24 84.015 116.068 83.663 115.724C83.311 115.38 83.135 114.888 83.135 114.248V110.756H82.055V109.808H83.135V108.416H84.287V109.808H86.111V110.756H84.287V114.2C84.287 114.544 84.371 114.808 84.539 114.992C84.715 115.176 84.963 115.268 85.283 115.268C85.635 115.268 85.935 115.168 86.183 114.968L86.543 115.796ZM87.9358 109.808H89.0878V116.168H87.9358V109.808ZM88.5118 108.584C88.2878 108.584 88.0998 108.512 87.9478 108.368C87.8038 108.224 87.7318 108.048 87.7318 107.84C87.7318 107.632 87.8038 107.456 87.9478 107.312C88.0998 107.16 88.2878 107.084 88.5118 107.084C88.7358 107.084 88.9198 107.156 89.0638 107.3C89.2158 107.436 89.2918 107.608 89.2918 107.816C89.2918 108.032 89.2158 108.216 89.0638 108.368C88.9198 108.512 88.7358 108.584 88.5118 108.584ZM94.6833 109.748C95.4913 109.748 96.1313 109.984 96.6033 110.456C97.0833 110.92 97.3233 111.604 97.3233 112.508V116.168H96.1713V112.64C96.1713 112.024 96.0233 111.56 95.7273 111.248C95.4313 110.936 95.0073 110.78 94.4553 110.78C93.8313 110.78 93.3393 110.964 92.9793 111.332C92.6193 111.692 92.4393 112.212 92.4393 112.892V116.168H91.2873V109.808H92.3913V110.768C92.6233 110.44 92.9353 110.188 93.3273 110.012C93.7273 109.836 94.1793 109.748 94.6833 109.748ZM105.574 109.808V115.304C105.574 116.416 105.298 117.236 104.746 117.764C104.194 118.3 103.37 118.568 102.274 118.568C101.674 118.568 101.102 118.484 100.558 118.316C100.014 118.156 99.5744 117.924 99.2384 117.62L99.7904 116.732C100.086 116.988 100.45 117.188 100.882 117.332C101.322 117.484 101.774 117.56 102.238 117.56C102.982 117.56 103.53 117.384 103.882 117.032C104.242 116.68 104.422 116.144 104.422 115.424V114.92C104.15 115.248 103.814 115.496 103.414 115.664C103.022 115.824 102.594 115.904 102.13 115.904C101.522 115.904 100.97 115.776 100.474 115.52C99.9864 115.256 99.6024 114.892 99.3224 114.428C99.0424 113.956 98.9024 113.42 98.9024 112.82C98.9024 112.22 99.0424 111.688 99.3224 111.224C99.6024 110.752 99.9864 110.388 100.474 110.132C100.97 109.876 101.522 109.748 102.13 109.748C102.61 109.748 103.054 109.836 103.462 110.012C103.878 110.188 104.218 110.448 104.482 110.792V109.808H105.574ZM102.262 114.896C102.678 114.896 103.05 114.808 103.378 114.632C103.714 114.456 103.974 114.212 104.158 113.9C104.35 113.58 104.446 113.22 104.446 112.82C104.446 112.204 104.242 111.708 103.834 111.332C103.426 110.948 102.902 110.756 102.262 110.756C101.614 110.756 101.086 110.948 100.678 111.332C100.27 111.708 100.066 112.204 100.066 112.82C100.066 113.22 100.158 113.58 100.342 113.9C100.534 114.212 100.794 114.456 101.122 114.632C101.458 114.808 101.838 114.896 102.262 114.896Z" fill="#6F6F6F"/>
<line x1="26.7734" y1="82.168" x2="171.836" y2="82.168" stroke="#EEEEEE"/>
</svg>
