<svg width="201" height="151" viewBox="0 0 201 151" fill="none" xmlns="http://www.w3.org/2000/svg">
<rect x="1.15234" y="0.730469" width="199" height="148.902" rx="9.5" fill="#1900C0" stroke="#EEEEEE"/>
<g clip-path="url(#clip0_15294_6860)">
<path d="M51.3672 50.4336C52.293 50.4336 53.166 50.6094 53.9863 50.9609C54.8066 51.3125 55.5215 51.793 56.1309 52.4023C56.7402 53.0117 57.2266 53.7324 57.5898 54.5645C57.9531 55.3965 58.1289 56.2695 58.1172 57.1836C58.1172 58.1211 57.9414 58.9941 57.5898 59.8027C57.2383 60.6113 56.7578 61.3262 56.1484 61.9473C55.5391 62.5684 54.8184 63.0547 53.9863 63.4062C53.1543 63.7578 52.2812 63.9336 51.3672 63.9336C50.6641 63.9336 49.9785 63.8281 49.3105 63.6172C48.6426 63.4062 48.0273 63.0957 47.4648 62.6855L39.7832 70.3496C39.5605 70.5723 39.2969 70.6836 38.9922 70.6836C38.6875 70.6836 38.4238 70.5723 38.2012 70.3496C37.9785 70.127 37.8672 69.8633 37.8672 69.5586C37.8672 69.2539 37.9785 68.9902 38.2012 68.7676L45.8652 61.0859C45.4551 60.5234 45.1445 59.9082 44.9336 59.2402C44.7227 58.5723 44.6172 57.8867 44.6172 57.1836C44.6172 56.2578 44.793 55.3848 45.1445 54.5645C45.4961 53.7441 45.9766 53.0293 46.5859 52.4199C47.1953 51.8105 47.9102 51.3242 48.7305 50.9609C49.5508 50.5977 50.4297 50.4219 51.3672 50.4336ZM51.3672 61.6836C51.9883 61.6836 52.5684 61.5664 53.1074 61.332C53.6465 61.0977 54.127 60.7754 54.5488 60.3652C54.9707 59.9551 55.293 59.4805 55.5156 58.9414C55.7383 58.4023 55.8555 57.8164 55.8672 57.1836C55.8672 56.5625 55.75 55.9824 55.5156 55.4434C55.2813 54.9043 54.959 54.4238 54.5488 54.002C54.1387 53.5801 53.6641 53.2578 53.125 53.0352C52.5859 52.8125 52 52.6953 51.3672 52.6836C50.7461 52.6836 50.166 52.8008 49.627 53.0352C49.0879 53.2695 48.6074 53.5918 48.1855 54.002C47.7637 54.4121 47.4414 54.8867 47.2188 55.4258C46.9961 55.9648 46.8789 56.5508 46.8672 57.1836C46.8672 57.8047 46.9844 58.3848 47.2188 58.9238C47.4531 59.4629 47.7754 59.9434 48.1855 60.3652C48.5957 60.7871 49.0703 61.1094 49.6094 61.332C50.1484 61.5547 50.7344 61.6719 51.3672 61.6836ZM28.8672 62.8086C28.8672 62.9844 28.9141 63.1426 29.0078 63.2832C29.1016 63.4238 29.2129 63.5586 29.3418 63.6875C29.6816 64.0273 30.1094 64.3262 30.625 64.584C31.1406 64.8418 31.6973 65.0586 32.2949 65.2344C32.8926 65.4102 33.4785 65.5625 34.0527 65.6914C34.627 65.8203 35.1484 65.9141 35.6172 65.9727V68.2227H35.4766C35.4062 68.2227 35.3594 68.2168 35.3359 68.2051C34.8789 68.1465 34.3516 68.0586 33.7539 67.9414C33.1562 67.8242 32.5293 67.666 31.873 67.4668C31.2168 67.2676 30.584 67.0332 29.9746 66.7637C29.3652 66.4941 28.8086 66.166 28.3047 65.7793C27.8008 65.3926 27.4023 64.959 27.1094 64.4785C26.8164 63.998 26.6641 63.4414 26.6523 62.8086V42.5586C26.6523 41.9961 26.7812 41.4922 27.0391 41.0469C27.2969 40.6016 27.6367 40.1914 28.0586 39.8164C28.4805 39.4414 28.9668 39.125 29.5176 38.8672C30.0684 38.6094 30.6309 38.3691 31.2051 38.1465C31.7793 37.9238 32.3359 37.7539 32.875 37.6367C33.4141 37.5195 33.9062 37.4141 34.3516 37.3203C35.125 37.1914 35.8984 37.0977 36.6719 37.0391C37.4453 36.9805 38.2188 36.9453 38.9922 36.9336C39.7773 36.9336 40.5566 36.9629 41.3301 37.0215C42.1035 37.0801 42.877 37.1855 43.6504 37.3379C44.0723 37.4082 44.5586 37.5078 45.1094 37.6367C45.6602 37.7656 46.2168 37.9355 46.7793 38.1465C47.3418 38.3574 47.9043 38.5918 48.4668 38.8496C49.0293 39.1074 49.5156 39.4297 49.9258 39.8164C50.3359 40.2031 50.6816 40.6074 50.9629 41.0293C51.2441 41.4512 51.3789 41.9609 51.3672 42.5586V48.1836H49.1172V45.8809C48.4375 46.3145 47.6758 46.6777 46.832 46.9707C45.9883 47.2637 45.1211 47.498 44.2305 47.6738C43.3398 47.8496 42.4434 47.9785 41.541 48.0605C40.6387 48.1426 39.7891 48.1836 38.9922 48.1836C38.1953 48.1836 37.3516 48.1484 36.4609 48.0781C35.5703 48.0078 34.6738 47.8789 33.7715 47.6914C32.8691 47.5039 31.9961 47.2637 31.1523 46.9707C30.3086 46.6777 29.5469 46.3145 28.8672 45.8809V62.8086ZM38.9922 39.1836C38.3242 39.1836 37.5625 39.2188 36.707 39.2891C35.8516 39.3594 34.9844 39.4766 34.1055 39.6406C33.2266 39.8047 32.3887 40.0391 31.5918 40.3438C30.7949 40.6484 30.1211 41.0176 29.5703 41.4512C29.4063 41.5801 29.248 41.7383 29.0957 41.9258C28.9434 42.1133 28.8672 42.3242 28.8672 42.5586C28.8672 42.7813 28.9434 42.9863 29.0957 43.1738C29.248 43.3613 29.4063 43.5254 29.5703 43.666C30.1094 44.1113 30.7773 44.4805 31.5742 44.7734C32.3711 45.0664 33.209 45.2949 34.0879 45.459C34.9668 45.623 35.834 45.7461 36.6895 45.8281C37.5449 45.9102 38.3125 45.9453 38.9922 45.9336C39.6602 45.9336 40.4219 45.8984 41.2773 45.8281C42.1328 45.7578 43 45.6406 43.8789 45.4766C44.7578 45.3125 45.5957 45.0781 46.3926 44.7734C47.1895 44.4687 47.8574 44.0996 48.3965 43.666C48.5605 43.5371 48.7187 43.3789 48.8711 43.1914C49.0234 43.0039 49.1055 42.793 49.1172 42.5586C49.1172 42.3359 49.041 42.1309 48.8887 41.9434C48.7363 41.7559 48.5723 41.5918 48.3965 41.4512C47.8574 41.0059 47.1895 40.6367 46.3926 40.3438C45.5957 40.0508 44.7637 39.8223 43.8965 39.6582C43.0293 39.4941 42.1621 39.3711 41.2949 39.2891C40.4277 39.207 39.6602 39.1719 38.9922 39.1836Z" fill="white"/>
</g>
<path d="M174.654 121.018C179.256 121.018 182.987 117.287 182.987 112.685C182.987 108.083 179.256 104.352 174.654 104.352C170.051 104.352 166.32 108.083 166.32 112.685C166.32 117.287 170.051 121.018 174.654 121.018Z" stroke="white" stroke-width="1.66667"/>
<path d="M173.402 109.352L176.736 112.685L173.402 116.018" stroke="white" stroke-width="1.66667" stroke-linecap="round" stroke-linejoin="round"/>
<path d="M27.9123 116.184V107.784H31.4523C32.3483 107.784 33.1363 107.96 33.8163 108.312C34.5043 108.664 35.0363 109.156 35.4123 109.788C35.7963 110.42 35.9883 111.152 35.9883 111.984C35.9883 112.816 35.7963 113.548 35.4123 114.18C35.0363 114.812 34.5043 115.304 33.8163 115.656C33.1363 116.008 32.3483 116.184 31.4523 116.184H27.9123ZM29.1123 115.14H31.3803C32.0763 115.14 32.6763 115.008 33.1803 114.744C33.6923 114.48 34.0883 114.112 34.3683 113.64C34.6483 113.16 34.7883 112.608 34.7883 111.984C34.7883 111.352 34.6483 110.8 34.3683 110.328C34.0883 109.856 33.6923 109.488 33.1803 109.224C32.6763 108.96 32.0763 108.828 31.3803 108.828H29.1123V115.14ZM41.6064 116.184V114.84L41.5464 114.588V112.296C41.5464 111.808 41.4024 111.432 41.1144 111.168C40.8344 110.896 40.4104 110.76 39.8424 110.76C39.4664 110.76 39.0984 110.824 38.7384 110.952C38.3784 111.072 38.0744 111.236 37.8264 111.444L37.3464 110.58C37.6744 110.316 38.0664 110.116 38.5224 109.98C38.9864 109.836 39.4704 109.764 39.9744 109.764C40.8464 109.764 41.5184 109.976 41.9904 110.4C42.4624 110.824 42.6984 111.472 42.6984 112.344V116.184H41.6064ZM39.5184 116.256C39.0464 116.256 38.6304 116.176 38.2704 116.016C37.9184 115.856 37.6464 115.636 37.4544 115.356C37.2624 115.068 37.1664 114.744 37.1664 114.384C37.1664 114.04 37.2464 113.728 37.4064 113.448C37.5744 113.168 37.8424 112.944 38.2104 112.776C38.5864 112.608 39.0904 112.524 39.7224 112.524H41.7384V113.352H39.7704C39.1944 113.352 38.8064 113.448 38.6064 113.64C38.4064 113.832 38.3064 114.064 38.3064 114.336C38.3064 114.648 38.4304 114.9 38.6784 115.092C38.9264 115.276 39.2704 115.368 39.7104 115.368C40.1424 115.368 40.5184 115.272 40.8384 115.08C41.1664 114.888 41.4024 114.608 41.5464 114.24L41.7744 115.032C41.6224 115.408 41.3544 115.708 40.9704 115.932C40.5864 116.148 40.1024 116.256 39.5184 116.256ZM47.0143 116.256C46.3743 116.256 45.8783 116.084 45.5263 115.74C45.1743 115.396 44.9983 114.904 44.9983 114.264V108.432H46.1503V114.216C46.1503 114.56 46.2343 114.824 46.4023 115.008C46.5783 115.192 46.8263 115.284 47.1463 115.284C47.5063 115.284 47.8063 115.184 48.0463 114.984L48.4063 115.812C48.2303 115.964 48.0183 116.076 47.7703 116.148C47.5303 116.22 47.2783 116.256 47.0143 116.256ZM43.9183 110.772V109.824H47.9743V110.772H43.9183ZM53.747 116.184V114.84L53.687 114.588V112.296C53.687 111.808 53.543 111.432 53.255 111.168C52.975 110.896 52.551 110.76 51.983 110.76C51.607 110.76 51.239 110.824 50.879 110.952C50.519 111.072 50.215 111.236 49.967 111.444L49.487 110.58C49.815 110.316 50.207 110.116 50.663 109.98C51.127 109.836 51.611 109.764 52.115 109.764C52.987 109.764 53.659 109.976 54.131 110.4C54.603 110.824 54.839 111.472 54.839 112.344V116.184H53.747ZM51.659 116.256C51.187 116.256 50.771 116.176 50.411 116.016C50.059 115.856 49.787 115.636 49.595 115.356C49.403 115.068 49.307 114.744 49.307 114.384C49.307 114.04 49.387 113.728 49.547 113.448C49.715 113.168 49.983 112.944 50.351 112.776C50.727 112.608 51.231 112.524 51.863 112.524H53.879V113.352H51.911C51.335 113.352 50.947 113.448 50.747 113.64C50.547 113.832 50.447 114.064 50.447 114.336C50.447 114.648 50.571 114.9 50.819 115.092C51.067 115.276 51.411 115.368 51.851 115.368C52.283 115.368 52.659 115.272 52.979 115.08C53.307 114.888 53.543 114.608 53.687 114.24L53.915 115.032C53.763 115.408 53.495 115.708 53.111 115.932C52.727 116.148 52.243 116.256 51.659 116.256ZM60.3616 116.184V107.784H63.9016C64.7976 107.784 65.5856 107.96 66.2656 108.312C66.9536 108.664 67.4856 109.156 67.8616 109.788C68.2456 110.42 68.4376 111.152 68.4376 111.984C68.4376 112.816 68.2456 113.548 67.8616 114.18C67.4856 114.812 66.9536 115.304 66.2656 115.656C65.5856 116.008 64.7976 116.184 63.9016 116.184H60.3616ZM61.5616 115.14H63.8296C64.5256 115.14 65.1256 115.008 65.6296 114.744C66.1416 114.48 66.5376 114.112 66.8176 113.64C67.0976 113.16 67.2376 112.608 67.2376 111.984C67.2376 111.352 67.0976 110.8 66.8176 110.328C66.5376 109.856 66.1416 109.488 65.6296 109.224C65.1256 108.96 64.5256 108.828 63.8296 108.828H61.5616V115.14ZM70.1076 116.184V109.824H71.2596V116.184H70.1076ZM70.6836 108.6C70.4596 108.6 70.2716 108.528 70.1196 108.384C69.9756 108.24 69.9036 108.064 69.9036 107.856C69.9036 107.64 69.9756 107.46 70.1196 107.316C70.2716 107.172 70.4596 107.1 70.6836 107.1C70.9076 107.1 71.0916 107.172 71.2356 107.316C71.3876 107.452 71.4636 107.624 71.4636 107.832C71.4636 108.048 71.3916 108.232 71.2476 108.384C71.1036 108.528 70.9156 108.6 70.6836 108.6ZM76.2312 116.256C75.5832 116.256 75.0032 116.116 74.4912 115.836C73.9872 115.556 73.5912 115.172 73.3032 114.684C73.0152 114.196 72.8712 113.636 72.8712 113.004C72.8712 112.372 73.0152 111.812 73.3032 111.324C73.5912 110.836 73.9872 110.456 74.4912 110.184C75.0032 109.904 75.5832 109.764 76.2312 109.764C76.8072 109.764 77.3192 109.88 77.7672 110.112C78.2232 110.336 78.5752 110.672 78.8232 111.12L77.9472 111.684C77.7392 111.372 77.4832 111.144 77.1792 111C76.8832 110.848 76.5632 110.772 76.2192 110.772C75.8032 110.772 75.4312 110.864 75.1032 111.048C74.7752 111.232 74.5152 111.492 74.3232 111.828C74.1312 112.156 74.0352 112.548 74.0352 113.004C74.0352 113.46 74.1312 113.856 74.3232 114.192C74.5152 114.528 74.7752 114.788 75.1032 114.972C75.4312 115.156 75.8032 115.248 76.2192 115.248C76.5632 115.248 76.8832 115.176 77.1792 115.032C77.4832 114.88 77.7392 114.648 77.9472 114.336L78.8232 114.888C78.5752 115.328 78.2232 115.668 77.7672 115.908C77.3192 116.14 76.8072 116.256 76.2312 116.256ZM82.5807 116.256C81.9407 116.256 81.4447 116.084 81.0927 115.74C80.7407 115.396 80.5647 114.904 80.5647 114.264V108.432H81.7167V114.216C81.7167 114.56 81.8007 114.824 81.9687 115.008C82.1447 115.192 82.3927 115.284 82.7127 115.284C83.0727 115.284 83.3727 115.184 83.6127 114.984L83.9727 115.812C83.7967 115.964 83.5847 116.076 83.3367 116.148C83.0967 116.22 82.8447 116.256 82.5807 116.256ZM79.4847 110.772V109.824H83.5407V110.772H79.4847ZM85.3654 116.184V109.824H86.5174V116.184H85.3654ZM85.9414 108.6C85.7174 108.6 85.5294 108.528 85.3774 108.384C85.2334 108.24 85.1614 108.064 85.1614 107.856C85.1614 107.64 85.2334 107.46 85.3774 107.316C85.5294 107.172 85.7174 107.1 85.9414 107.1C86.1654 107.1 86.3494 107.172 86.4934 107.316C86.6454 107.452 86.7214 107.624 86.7214 107.832C86.7214 108.048 86.6494 108.232 86.5054 108.384C86.3614 108.528 86.1734 108.6 85.9414 108.6ZM91.441 116.256C90.801 116.256 90.233 116.116 89.737 115.836C89.241 115.556 88.849 115.172 88.561 114.684C88.273 114.188 88.129 113.628 88.129 113.004C88.129 112.372 88.273 111.812 88.561 111.324C88.849 110.836 89.241 110.456 89.737 110.184C90.233 109.904 90.801 109.764 91.441 109.764C92.073 109.764 92.637 109.904 93.133 110.184C93.637 110.456 94.029 110.836 94.309 111.324C94.597 111.804 94.741 112.364 94.741 113.004C94.741 113.636 94.597 114.196 94.309 114.684C94.029 115.172 93.637 115.556 93.133 115.836C92.637 116.116 92.073 116.256 91.441 116.256ZM91.441 115.248C91.849 115.248 92.213 115.156 92.533 114.972C92.861 114.788 93.117 114.528 93.301 114.192C93.485 113.848 93.577 113.452 93.577 113.004C93.577 112.548 93.485 112.156 93.301 111.828C93.117 111.492 92.861 111.232 92.533 111.048C92.213 110.864 91.849 110.772 91.441 110.772C91.033 110.772 90.669 110.864 90.349 111.048C90.029 111.232 89.773 111.492 89.581 111.828C89.389 112.156 89.293 112.548 89.293 113.004C89.293 113.452 89.389 113.848 89.581 114.192C89.773 114.528 90.029 114.788 90.349 114.972C90.669 115.156 91.033 115.248 91.441 115.248ZM99.7302 109.764C100.25 109.764 100.706 109.864 101.098 110.064C101.498 110.264 101.81 110.568 102.034 110.976C102.258 111.384 102.37 111.9 102.37 112.524V116.184H101.218V112.656C101.218 112.04 101.066 111.576 100.762 111.264C100.466 110.952 100.046 110.796 99.5022 110.796C99.0942 110.796 98.7382 110.876 98.4342 111.036C98.1302 111.196 97.8942 111.432 97.7262 111.744C97.5662 112.056 97.4862 112.444 97.4862 112.908V116.184H96.3342V109.824H97.4382V111.54L97.2582 111.084C97.4662 110.668 97.7862 110.344 98.2182 110.112C98.6502 109.88 99.1542 109.764 99.7302 109.764ZM108.45 116.184V114.84L108.39 114.588V112.296C108.39 111.808 108.246 111.432 107.958 111.168C107.678 110.896 107.254 110.76 106.686 110.76C106.31 110.76 105.942 110.824 105.582 110.952C105.222 111.072 104.918 111.236 104.67 111.444L104.19 110.58C104.518 110.316 104.91 110.116 105.366 109.98C105.83 109.836 106.314 109.764 106.818 109.764C107.69 109.764 108.362 109.976 108.834 110.4C109.306 110.824 109.542 111.472 109.542 112.344V116.184H108.45ZM106.362 116.256C105.89 116.256 105.474 116.176 105.114 116.016C104.762 115.856 104.49 115.636 104.298 115.356C104.106 115.068 104.01 114.744 104.01 114.384C104.01 114.04 104.09 113.728 104.25 113.448C104.418 113.168 104.686 112.944 105.054 112.776C105.43 112.608 105.934 112.524 106.566 112.524H108.582V113.352H106.614C106.038 113.352 105.65 113.448 105.45 113.64C105.25 113.832 105.15 114.064 105.15 114.336C105.15 114.648 105.274 114.9 105.522 115.092C105.77 115.276 106.114 115.368 106.554 115.368C106.986 115.368 107.362 115.272 107.682 115.08C108.01 114.888 108.246 114.608 108.39 114.24L108.618 115.032C108.466 115.408 108.198 115.708 107.814 115.932C107.43 116.148 106.946 116.256 106.362 116.256ZM111.674 116.184V109.824H112.778V111.552L112.67 111.12C112.846 110.68 113.142 110.344 113.558 110.112C113.974 109.88 114.486 109.764 115.094 109.764V110.88C115.046 110.872 114.998 110.868 114.95 110.868C114.91 110.868 114.87 110.868 114.83 110.868C114.214 110.868 113.726 111.052 113.366 111.42C113.006 111.788 112.826 112.32 112.826 113.016V116.184H111.674ZM117.048 118.584C116.744 118.584 116.448 118.532 116.16 118.428C115.872 118.332 115.624 118.188 115.416 117.996L115.908 117.132C116.068 117.284 116.244 117.4 116.436 117.48C116.628 117.56 116.832 117.6 117.048 117.6C117.328 117.6 117.56 117.528 117.744 117.384C117.928 117.24 118.1 116.984 118.26 116.616L118.656 115.74L118.776 115.596L121.272 109.824H122.4L119.316 116.82C119.132 117.268 118.924 117.62 118.692 117.876C118.468 118.132 118.22 118.312 117.948 118.416C117.676 118.528 117.376 118.584 117.048 118.584ZM118.56 116.388L115.656 109.824H116.856L119.328 115.488L118.56 116.388Z" fill="white"/>
<line x1="27.1211" y1="82.1836" x2="172.184" y2="82.1836" stroke="#EEEEEE"/>
<defs>
<clipPath id="clip0_15294_6860">
<rect width="36" height="36" fill="white" transform="translate(23.6016 34.6836)"/>
</clipPath>
</defs>
</svg>
