<svg width="201" height="151" viewBox="0 0 201 151" fill="none" xmlns="http://www.w3.org/2000/svg">
<rect x="1.15234" y="0.714844" width="199" height="148.902" rx="9.5" fill="white" stroke="#EEEEEE"/>
<path d="M66.4992 53.3266C66.2792 53.4962 66.0083 53.5865 65.7305 53.5828C65.5316 53.5828 65.3354 53.5365 65.1575 53.4476C64.9796 53.3586 64.8248 53.2295 64.7055 53.0703C63.9332 52.0323 62.928 51.1901 61.7708 50.6115C60.6136 50.0329 59.3368 49.7341 58.043 49.7391C57.7032 49.7391 57.3773 49.6041 57.137 49.3638C56.8967 49.1235 56.7617 48.7976 56.7617 48.4578C56.7617 48.118 56.8967 47.7921 57.137 47.5519C57.3773 47.3116 57.7032 47.1766 58.043 47.1766C58.7722 47.1758 59.4861 46.9676 60.1014 46.5763C60.7168 46.185 61.2081 45.6268 61.5181 44.9667C61.828 44.3067 61.9438 43.5721 61.852 42.8487C61.7602 42.1253 61.4644 41.443 60.9994 40.8813C60.5343 40.3197 59.919 39.9019 59.2255 39.6768C58.5319 39.4517 57.7886 39.4285 57.0823 39.61C56.376 39.7915 55.736 40.1701 55.2368 40.7017C54.7377 41.2333 54.4 41.8959 54.2633 42.6121C54.2384 42.7834 54.1791 42.9479 54.0889 43.0956C53.9988 43.2433 53.8796 43.3712 53.7386 43.4717C53.5977 43.5721 53.4378 43.6429 53.2687 43.6798C53.0997 43.7167 52.9248 43.719 52.7549 43.6865C52.5849 43.6541 52.4232 43.5875 52.2797 43.4908C52.1361 43.3941 52.0136 43.2694 51.9196 43.1241C51.8256 42.9788 51.762 42.8159 51.7326 42.6453C51.7033 42.4748 51.7088 42.3 51.7488 42.1317C51.9389 41.1352 52.3629 40.1981 52.9859 39.3976C53.6089 38.597 54.4132 37.9558 55.3324 37.5268C56.2516 37.0978 57.2596 36.8933 58.2734 36.93C59.2871 36.9667 60.2777 37.2436 61.1635 37.7379C62.0493 38.2323 62.8051 38.9299 63.3686 39.7734C63.9321 40.617 64.2872 41.5822 64.4047 42.5898C64.5223 43.5974 64.3988 44.6185 64.0446 45.5691C63.6904 46.5196 63.1155 47.3725 62.3672 48.0574C64.1086 48.8125 65.6216 50.0108 66.7555 51.5328C66.8564 51.6674 66.9299 51.8206 66.9716 51.9836C67.0134 52.1466 67.0226 52.3162 66.9988 52.4828C66.9751 52.6493 66.9187 52.8096 66.833 52.9544C66.7472 53.0992 66.6338 53.2256 66.4992 53.3266ZM57.5305 63.9129C57.6751 64.2194 57.694 64.5702 57.5833 64.8905C57.4726 65.2107 57.2409 65.4749 56.9379 65.6266C56.7611 65.7053 56.5707 65.7488 56.3773 65.7547C56.1373 65.7531 55.9024 65.6848 55.6988 65.5576C55.4952 65.4303 55.3309 65.2491 55.2242 65.034C54.4854 63.5227 53.3371 62.2491 51.9101 61.3583C50.4831 60.4675 48.8346 59.9952 47.1523 59.9952C45.4701 59.9952 43.8216 60.4675 42.3946 61.3583C40.9676 62.2491 39.8193 63.5227 39.0805 65.034C39.007 65.1855 38.9043 65.3211 38.7783 65.4329C38.6524 65.5447 38.5056 65.6305 38.3465 65.6856C38.1873 65.7406 38.0189 65.7637 37.8508 65.7536C37.6827 65.7435 37.5182 65.7003 37.3668 65.6266C37.0638 65.4749 36.8321 65.2107 36.7214 64.8905C36.6107 64.5702 36.6296 64.2194 36.7742 63.9129C37.965 61.4611 39.9846 59.5095 42.4758 58.4035C41.2007 57.4262 40.2638 56.0739 39.7968 54.5367C39.3298 52.9994 39.3561 51.3545 39.8722 49.833C40.3882 48.3115 41.3679 46.9899 42.6737 46.054C43.9795 45.118 45.5457 44.6146 47.1523 44.6146C48.759 44.6146 50.3252 45.118 51.631 46.054C52.9368 46.9899 53.9165 48.3115 54.4325 49.833C54.9486 51.3545 54.9749 52.9994 54.5079 54.5367C54.0409 56.0739 53.104 57.4262 51.8289 58.4035C54.3201 59.5095 56.3397 61.4611 57.5305 63.9129ZM47.1523 57.4266C48.166 57.4266 49.1568 57.126 49.9996 56.5629C50.8424 55.9997 51.4993 55.1993 51.8872 54.2628C52.2751 53.3264 52.3766 52.2959 52.1789 51.3017C51.9811 50.3076 51.493 49.3944 50.7763 48.6777C50.0595 47.9609 49.1463 47.4728 48.1522 47.2751C47.158 47.0773 46.1276 47.1788 45.1911 47.5667C44.2546 47.9546 43.4542 48.6115 42.8911 49.4543C42.3279 50.2971 42.0273 51.288 42.0273 52.3016C42.0316 53.6595 42.5729 54.9606 43.5331 55.9208C44.4933 56.8811 45.7944 57.4224 47.1523 57.4266ZM37.543 48.4578C37.543 48.118 37.408 47.7921 37.1677 47.5519C36.9274 47.3116 36.6015 47.1766 36.2617 47.1766C35.5325 47.1758 34.8186 46.9676 34.2033 46.5763C33.5879 46.185 33.0966 45.6268 32.7866 44.9667C32.4767 44.3067 32.3608 43.5721 32.4527 42.8487C32.5445 42.1253 32.8403 41.443 33.3053 40.8813C33.7704 40.3197 34.3857 39.9019 35.0792 39.6768C35.7728 39.4517 36.5161 39.4285 37.2224 39.61C37.9286 39.7915 38.5687 40.1701 39.0679 40.7017C39.567 41.2333 39.9047 41.8959 40.0414 42.6121C40.0663 42.7834 40.1256 42.9479 40.2157 43.0956C40.3059 43.2433 40.4251 43.3712 40.5661 43.4717C40.707 43.5721 40.8669 43.6429 41.036 43.6798C41.205 43.7167 41.3799 43.719 41.5498 43.6865C41.7198 43.6541 41.8815 43.5875 42.025 43.4908C42.1686 43.3941 42.2911 43.2694 42.3851 43.1241C42.4791 42.9788 42.5427 42.8159 42.5721 42.6453C42.6014 42.4748 42.5959 42.3 42.5559 42.1317C42.3658 41.1352 41.9418 40.1981 41.3188 39.3976C40.6958 38.597 39.8915 37.9558 38.9723 37.5268C38.053 37.0978 37.0451 36.8933 36.0313 36.93C35.0176 36.9667 34.027 37.2436 33.1412 37.7379C32.2554 38.2323 31.4996 38.9299 30.9361 39.7734C30.3726 40.617 30.0175 41.5822 29.9 42.5898C29.7824 43.5974 29.9059 44.6185 30.2601 45.5691C30.6143 46.5196 31.1892 47.3725 31.9375 48.0574C30.1961 48.8125 28.6831 50.0108 27.5492 51.5328C27.3453 51.8047 27.2578 52.1464 27.3059 52.4828C27.3539 52.8192 27.5336 53.1227 27.8055 53.3266C28.0255 53.4962 28.2964 53.5865 28.5742 53.5828C28.7731 53.5828 28.9693 53.5365 29.1472 53.4476C29.3251 53.3586 29.4799 53.2295 29.5992 53.0703C30.3715 52.0323 31.3767 51.1901 32.5339 50.6115C33.6911 50.0329 34.9679 49.7341 36.2617 49.7391C36.6015 49.7391 36.9274 49.6041 37.1677 49.3638C37.408 49.1235 37.543 48.7976 37.543 48.4578Z" fill="#1900C0"/>
<path d="M174.654 121.003C179.256 121.003 182.987 117.272 182.987 112.669C182.987 108.067 179.256 104.336 174.654 104.336C170.051 104.336 166.32 108.067 166.32 112.669C166.32 117.272 170.051 121.003 174.654 121.003Z" stroke="#1900C0" stroke-width="1.66667"/>
<path d="M173.402 109.336L176.736 112.669L173.402 116.003" stroke="#1900C0" stroke-width="1.66667" stroke-linecap="round" stroke-linejoin="round"/>
<path d="M34.0083 115.124V116.168H27.9123V107.768H33.8403V108.812H29.1123V111.392H33.3243V112.412H29.1123V115.124H34.0083ZM39.1794 109.748C39.9874 109.748 40.6274 109.984 41.0994 110.456C41.5794 110.92 41.8194 111.604 41.8194 112.508V116.168H40.6674V112.64C40.6674 112.024 40.5194 111.56 40.2234 111.248C39.9274 110.936 39.5034 110.78 38.9514 110.78C38.3274 110.78 37.8354 110.964 37.4754 111.332C37.1154 111.692 36.9354 112.212 36.9354 112.892V116.168H35.7834V109.808H36.8874V110.768C37.1194 110.44 37.4314 110.188 37.8234 110.012C38.2234 109.836 38.6754 109.748 39.1794 109.748ZM47.5274 115.796C47.3594 115.94 47.1514 116.052 46.9034 116.132C46.6554 116.204 46.3994 116.24 46.1354 116.24C45.4954 116.24 44.9994 116.068 44.6474 115.724C44.2954 115.38 44.1194 114.888 44.1194 114.248V110.756H43.0394V109.808H44.1194V108.416H45.2714V109.808H47.0954V110.756H45.2714V114.2C45.2714 114.544 45.3554 114.808 45.5234 114.992C45.6994 115.176 45.9474 115.268 46.2674 115.268C46.6194 115.268 46.9194 115.168 47.1674 114.968L47.5274 115.796ZM48.9201 109.808H50.0721V116.168H48.9201V109.808ZM49.4961 108.584C49.2721 108.584 49.0841 108.512 48.9321 108.368C48.7881 108.224 48.7161 108.048 48.7161 107.84C48.7161 107.632 48.7881 107.456 48.9321 107.312C49.0841 107.16 49.2721 107.084 49.4961 107.084C49.7201 107.084 49.9041 107.156 50.0481 107.3C50.2001 107.436 50.2761 107.608 50.2761 107.816C50.2761 108.032 50.2001 108.216 50.0481 108.368C49.9041 108.512 49.7201 108.584 49.4961 108.584ZM55.8477 115.796C55.6797 115.94 55.4717 116.052 55.2237 116.132C54.9757 116.204 54.7197 116.24 54.4557 116.24C53.8157 116.24 53.3197 116.068 52.9677 115.724C52.6157 115.38 52.4397 114.888 52.4397 114.248V110.756H51.3597V109.808H52.4397V108.416H53.5917V109.808H55.4157V110.756H53.5917V114.2C53.5917 114.544 53.6757 114.808 53.8437 114.992C54.0197 115.176 54.2677 115.268 54.5877 115.268C54.9397 115.268 55.2397 115.168 55.4877 114.968L55.8477 115.796ZM62.7513 109.808L59.6673 116.804C59.3953 117.452 59.0753 117.908 58.7073 118.172C58.3473 118.436 57.9113 118.568 57.3993 118.568C57.0873 118.568 56.7833 118.516 56.4873 118.412C56.1993 118.316 55.9592 118.172 55.7672 117.98L56.2593 117.116C56.5873 117.428 56.9673 117.584 57.3993 117.584C57.6793 117.584 57.9113 117.508 58.0953 117.356C58.2873 117.212 58.4593 116.96 58.6113 116.6L58.8153 116.156L56.0072 109.808H57.2073L59.4273 114.896L61.6233 109.808H62.7513ZM75.005 116.168L74.993 110.048L71.957 115.148H71.405L68.369 110.084V116.168H67.217V107.768H68.201L71.705 113.672L75.161 107.768H76.145L76.157 116.168H75.005ZM80.826 109.748C81.706 109.748 82.378 109.964 82.842 110.396C83.314 110.828 83.55 111.472 83.55 112.328V116.168H82.458V115.328C82.266 115.624 81.99 115.852 81.63 116.012C81.278 116.164 80.858 116.24 80.37 116.24C79.658 116.24 79.086 116.068 78.654 115.724C78.23 115.38 78.018 114.928 78.018 114.368C78.018 113.808 78.222 113.36 78.63 113.024C79.038 112.68 79.686 112.508 80.574 112.508H82.398V112.28C82.398 111.784 82.254 111.404 81.966 111.14C81.678 110.876 81.254 110.744 80.694 110.744C80.318 110.744 79.95 110.808 79.59 110.936C79.23 111.056 78.926 111.22 78.678 111.428L78.198 110.564C78.526 110.3 78.918 110.1 79.374 109.964C79.83 109.82 80.314 109.748 80.826 109.748ZM80.562 115.352C81.002 115.352 81.382 115.256 81.702 115.064C82.022 114.864 82.254 114.584 82.398 114.224V113.336H80.622C79.646 113.336 79.158 113.664 79.158 114.32C79.158 114.64 79.282 114.892 79.53 115.076C79.778 115.26 80.122 115.352 80.562 115.352ZM89.2578 115.796C89.0898 115.94 88.8818 116.052 88.6338 116.132C88.3858 116.204 88.1298 116.24 87.8658 116.24C87.2258 116.24 86.7298 116.068 86.3778 115.724C86.0258 115.38 85.8498 114.888 85.8498 114.248V110.756H84.7698V109.808H85.8498V108.416H87.0018V109.808H88.8258V110.756H87.0018V114.2C87.0018 114.544 87.0858 114.808 87.2538 114.992C87.4298 115.176 87.6778 115.268 87.9978 115.268C88.3498 115.268 88.6498 115.168 88.8978 114.968L89.2578 115.796ZM96.1877 113.024C96.1877 113.112 96.1797 113.228 96.1637 113.372H91.0037C91.0757 113.932 91.3197 114.384 91.7357 114.728C92.1597 115.064 92.6837 115.232 93.3077 115.232C94.0677 115.232 94.6797 114.976 95.1437 114.464L95.7797 115.208C95.4917 115.544 95.1317 115.8 94.6997 115.976C94.2757 116.152 93.7997 116.24 93.2717 116.24C92.5997 116.24 92.0037 116.104 91.4837 115.832C90.9637 115.552 90.5597 115.164 90.2717 114.668C89.9917 114.172 89.8517 113.612 89.8517 112.988C89.8517 112.372 89.9877 111.816 90.2597 111.32C90.5397 110.824 90.9197 110.44 91.3997 110.168C91.8877 109.888 92.4357 109.748 93.0437 109.748C93.6517 109.748 94.1917 109.888 94.6637 110.168C95.1437 110.44 95.5157 110.824 95.7797 111.32C96.0517 111.816 96.1877 112.384 96.1877 113.024ZM93.0437 110.72C92.4917 110.72 92.0277 110.888 91.6517 111.224C91.2837 111.56 91.0677 112 91.0037 112.544H95.0837C95.0197 112.008 94.7997 111.572 94.4237 111.236C94.0557 110.892 93.5957 110.72 93.0437 110.72ZM98.8913 110.876C99.0913 110.508 99.3873 110.228 99.7793 110.036C100.171 109.844 100.647 109.748 101.207 109.748V110.864C101.143 110.856 101.055 110.852 100.943 110.852C100.319 110.852 99.8273 111.04 99.4673 111.416C99.1153 111.784 98.9393 112.312 98.9393 113V116.168H97.7873V109.808H98.8913V110.876Z" fill="#6F6F6F"/>
<line x1="27.1211" y1="82.168" x2="172.184" y2="82.168" stroke="#EEEEEE"/>
</svg>
