<svg width="28" height="27" viewBox="0 0 28 27" fill="none" xmlns="http://www.w3.org/2000/svg">
<path d="M12.7876 13.6091V6.82805C12.7876 6.67849 12.847 6.53505 12.9528 6.4293C13.0585 6.32355 13.2019 6.26413 13.3515 6.26413C13.5011 6.26413 13.6445 6.32355 13.7502 6.4293C13.856 6.53505 13.9154 6.67849 13.9154 6.82805V13.2708L19.4981 16.4851C19.5622 16.5228 19.6182 16.5729 19.6628 16.6324C19.7074 16.6919 19.7398 16.7596 19.7582 16.8317C19.7765 16.9037 19.7804 16.9787 19.7697 17.0523C19.7589 17.1259 19.7337 17.1966 19.6955 17.2604C19.6479 17.3458 19.5784 17.4169 19.4941 17.4665C19.4099 17.516 19.3139 17.5422 19.2162 17.5424C19.1181 17.5405 19.0217 17.5164 18.9342 17.4719L13.0695 14.0884H13.0554L12.9991 14.0461L12.9709 14.0179L12.9286 13.9756L12.8863 13.9333C12.8863 13.9192 12.8722 13.9052 12.8581 13.8911C12.844 13.877 12.844 13.8629 12.844 13.8488L12.8158 13.7924C12.8158 13.7783 12.8017 13.7501 12.8017 13.736V13.6937C12.7873 13.668 12.7823 13.6381 12.7876 13.6091ZM27.407 9.87318L27.4352 9.81678C27.4349 9.79708 27.4398 9.77764 27.4493 9.76039V9.7181C27.4493 9.67581 27.4634 9.64761 27.4634 9.60532V3.96619C27.4634 3.81663 27.404 3.6732 27.2982 3.56744C27.1925 3.46169 27.0491 3.40228 26.8995 3.40228C26.7499 3.40228 26.6065 3.46169 26.5008 3.56744C26.395 3.6732 26.3356 3.81663 26.3356 3.96619V8.25193L22.5292 4.41732C20.7146 2.60528 18.4035 1.37183 15.8881 0.872875C13.3726 0.373917 10.7658 0.631842 8.39687 1.61405C6.02798 2.59626 4.00344 4.25867 2.57909 6.39117C1.15474 8.52368 0.394531 11.0306 0.394531 13.595C0.394531 16.1594 1.15474 18.6663 2.57909 20.7988C4.00344 22.9313 6.02798 24.5937 8.39687 25.576C10.7658 26.5582 13.3726 26.8161 15.8881 26.3171C18.4035 25.8182 20.7146 24.5847 22.5292 22.7727C22.6302 22.6633 22.6864 22.5198 22.6864 22.3709C22.6864 22.222 22.6302 22.0785 22.5292 21.9691C22.4767 21.9158 22.4142 21.8735 22.3452 21.8446C22.2762 21.8158 22.2022 21.8009 22.1274 21.8009C22.0526 21.8009 21.9786 21.8158 21.9096 21.8446C21.8406 21.8735 21.7781 21.9158 21.7256 21.9691C20.0694 23.6251 17.9593 24.7529 15.6622 25.2097C13.3651 25.6665 10.9841 25.432 8.82027 24.5356C6.65647 23.6393 4.80705 22.1214 3.50587 20.174C2.20469 18.2266 1.51019 15.9371 1.51019 13.595C1.51019 11.2529 2.20469 8.96338 3.50587 7.01597C4.80705 5.06856 6.65647 3.55072 8.82027 2.65438C10.9841 1.75804 13.3651 1.52345 15.6622 1.98029C17.9593 2.43712 20.0694 3.56486 21.7256 5.2209L25.5461 9.0414H21.2745C21.1249 9.0414 20.9815 9.10082 20.8757 9.20657C20.77 9.31233 20.7106 9.45576 20.7106 9.60532C20.7106 9.75488 20.77 9.89831 20.8757 10.0041C20.9815 10.1098 21.1249 10.1692 21.2745 10.1692H27.1251L27.1815 10.141L27.2238 10.1128L27.3083 10.0564L27.3788 9.97186L27.407 9.87318Z" fill="#1900C0"/>
</svg>
