<svg width="28" height="27" viewBox="0 0 28 27" fill="none" xmlns="http://www.w3.org/2000/svg">
<path d="M15.5171 13.6091V6.82805C15.5171 6.67849 15.4577 6.53505 15.3519 6.4293C15.2462 6.32355 15.1027 6.26413 14.9532 6.26413C14.8036 6.26413 14.6602 6.32355 14.5544 6.4293C14.4487 6.53505 14.3893 6.67849 14.3893 6.82805V13.2708L8.80654 16.4851C8.74248 16.5228 8.68653 16.5729 8.64191 16.6324C8.59729 16.6919 8.56487 16.7596 8.54652 16.8317C8.52818 16.9037 8.52427 16.9787 8.53502 17.0523C8.54577 17.1259 8.57097 17.1966 8.60917 17.2604C8.65679 17.3458 8.72631 17.4169 8.81056 17.4665C8.89481 17.516 8.99075 17.5422 9.0885 17.5424C9.1866 17.5405 9.28301 17.5164 9.37045 17.4719L15.2351 14.0884H15.2492L15.3056 14.0461L15.3338 14.0179L15.3761 13.9756L15.4184 13.9333C15.4184 13.9192 15.4325 13.9052 15.4466 13.8911C15.4607 13.877 15.4607 13.8629 15.4607 13.8488L15.4889 13.7924C15.4889 13.7783 15.503 13.7501 15.503 13.736V13.6937C15.5174 13.668 15.5224 13.6381 15.5171 13.6091ZM0.897667 9.87318L0.869469 9.81678C0.869778 9.79708 0.864916 9.77764 0.85537 9.76039V9.7181C0.85537 9.67581 0.841272 9.64761 0.841272 9.60532V3.96619C0.841272 3.81663 0.900688 3.6732 1.00644 3.56744C1.1122 3.46169 1.25562 3.40228 1.40518 3.40228C1.55474 3.40228 1.69818 3.46169 1.80393 3.56744C1.90969 3.6732 1.9691 3.81663 1.9691 3.96619V8.25193L5.77551 4.41732C7.59013 2.60528 9.90119 1.37183 12.4166 0.872875C14.932 0.373917 17.5389 0.631842 19.9078 1.61405C22.2767 2.59626 24.3013 4.25867 25.7256 6.39117C27.1499 8.52368 27.9102 11.0306 27.9102 13.595C27.9102 16.1594 27.1499 18.6663 25.7256 20.7988C24.3013 22.9313 22.2767 24.5937 19.9078 25.576C17.5389 26.5582 14.932 26.8161 12.4166 26.3171C9.90119 25.8182 7.59013 24.5847 5.77551 22.7727C5.67445 22.6633 5.61833 22.5198 5.61833 22.3709C5.61833 22.222 5.67445 22.0785 5.77551 21.9691C5.82798 21.9158 5.89053 21.8735 5.95951 21.8446C6.02848 21.8158 6.10252 21.8009 6.1773 21.8009C6.25208 21.8009 6.32611 21.8158 6.39509 21.8446C6.46407 21.8735 6.52661 21.9158 6.57908 21.9691C8.23529 23.6251 10.3454 24.7529 12.6425 25.2097C14.9396 25.6665 17.3206 25.432 19.4844 24.5356C21.6482 23.6393 23.4976 22.1214 24.7988 20.174C26.1 18.2266 26.7945 15.9371 26.7945 13.595C26.7945 11.2529 26.1 8.96338 24.7988 7.01597C23.4976 5.06856 21.6482 3.55072 19.4844 2.65438C17.3206 1.75804 14.9396 1.52345 12.6425 1.98029C10.3454 2.43712 8.23529 3.56486 6.57908 5.2209L2.75858 9.0414H7.03022C7.17978 9.0414 7.32321 9.10082 7.42896 9.20657C7.53472 9.31233 7.59413 9.45576 7.59413 9.60532C7.59413 9.75488 7.53472 9.89831 7.42896 10.0041C7.32321 10.1098 7.17978 10.1692 7.03022 10.1692H1.17962L1.12323 10.141L1.08094 10.1128L0.996349 10.0564L0.925859 9.97186L0.897667 9.87318Z" fill="#1900C0"/>
</svg>
