<svg width="200" height="150" viewBox="0 0 200 150" fill="none" xmlns="http://www.w3.org/2000/svg">
<rect x="0.5" y="0.5" width="199" height="148.902" rx="9.5" fill="#1900C0" stroke="#EEEEEE"/>
<path d="M31.5352 53.5552L40.3923 53.5552L40.3923 55.7695L31.5352 55.7695L31.5352 53.5552ZM31.5352 48.0195L44.8209 48.0195L44.8209 50.2338L31.5352 50.2338L31.5352 48.0195ZM31.5352 59.091L37.0709 59.091L37.0709 61.3052L31.5352 61.3052L31.5352 59.091Z" fill="white"/>
<path d="M48.1429 39.1613L44.8214 39.1613L44.8214 38.0541C44.8214 37.4669 44.5881 36.9037 44.1729 36.4884C43.7576 36.0731 43.1944 35.8398 42.6071 35.8398L33.75 35.8398C33.1627 35.8398 32.5995 36.0731 32.1843 36.4884C31.769 36.9037 31.5357 37.4669 31.5357 38.0541L31.5357 39.1613L28.2143 39.1613C27.627 39.1613 27.0638 39.3946 26.6485 39.8098C26.2333 40.2251 26 40.7883 26 41.3756L26 64.6256C26 65.2128 26.2333 65.776 26.6485 66.1913C27.0638 66.6066 27.627 66.8398 28.2143 66.8398L48.1429 66.8398C48.7301 66.8398 49.2933 66.6066 49.7086 66.1913C50.1239 65.776 50.3571 65.2128 50.3571 64.6256L50.3571 41.3756C50.3571 40.7883 50.1239 40.2251 49.7086 39.8098C49.2933 39.3946 48.7301 39.1613 48.1429 39.1613ZM33.75 38.0541L42.6071 38.0541L42.6071 42.4827L33.75 42.4827L33.75 38.0541ZM48.1429 64.6256L28.2143 64.6256L28.2143 41.3756L31.5357 41.3756L31.5357 44.697L44.8214 44.697L44.8214 41.3756L48.1429 41.3756L48.1429 64.6256Z" fill="white"/>
<path d="M174.001 120.788C178.604 120.788 182.335 117.057 182.335 112.454C182.335 107.852 178.604 104.121 174.001 104.121C169.399 104.121 165.668 107.852 165.668 112.454C165.668 117.057 169.399 120.788 174.001 120.788Z" stroke="white" stroke-width="1.66667"/>
<path d="M172.75 109.121L176.083 112.454L172.75 115.788" stroke="white" stroke-width="1.66667" stroke-linecap="round" stroke-linejoin="round"/>
<path d="M27.26 115.953V107.553H30.536C31.272 107.553 31.9 107.669 32.42 107.901C32.94 108.133 33.34 108.469 33.62 108.909C33.9 109.349 34.04 109.873 34.04 110.481C34.04 111.089 33.9 111.613 33.62 112.053C33.34 112.485 32.94 112.817 32.42 113.049C31.9 113.281 31.272 113.397 30.536 113.397H27.92L28.46 112.845V115.953H27.26ZM32.876 115.953L30.74 112.905H32.024L34.184 115.953H32.876ZM28.46 112.965L27.92 112.377H30.5C31.268 112.377 31.848 112.213 32.24 111.885C32.64 111.549 32.84 111.081 32.84 110.481C32.84 109.881 32.64 109.417 32.24 109.089C31.848 108.761 31.268 108.597 30.5 108.597H27.92L28.46 107.997V112.965ZM38.6428 116.025C37.9628 116.025 37.3628 115.885 36.8428 115.605C36.3308 115.325 35.9308 114.941 35.6428 114.453C35.3628 113.965 35.2228 113.405 35.2228 112.773C35.2228 112.141 35.3588 111.581 35.6308 111.093C35.9108 110.605 36.2908 110.225 36.7708 109.953C37.2588 109.673 37.8068 109.533 38.4148 109.533C39.0308 109.533 39.5748 109.669 40.0468 109.941C40.5188 110.213 40.8868 110.597 41.1508 111.093C41.4228 111.581 41.5588 112.153 41.5588 112.809C41.5588 112.857 41.5548 112.913 41.5468 112.977C41.5468 113.041 41.5428 113.101 41.5348 113.157H36.1228V112.329H40.9348L40.4668 112.617C40.4748 112.209 40.3908 111.845 40.2148 111.525C40.0388 111.205 39.7948 110.957 39.4828 110.781C39.1788 110.597 38.8228 110.505 38.4148 110.505C38.0148 110.505 37.6588 110.597 37.3468 110.781C37.0348 110.957 36.7908 111.209 36.6148 111.537C36.4388 111.857 36.3508 112.225 36.3508 112.641V112.833C36.3508 113.257 36.4468 113.637 36.6388 113.973C36.8388 114.301 37.1148 114.557 37.4668 114.741C37.8188 114.925 38.2228 115.017 38.6788 115.017C39.0548 115.017 39.3948 114.953 39.6988 114.825C40.0108 114.697 40.2828 114.505 40.5148 114.249L41.1508 114.993C40.8628 115.329 40.5028 115.585 40.0708 115.761C39.6468 115.937 39.1708 116.025 38.6428 116.025ZM46.5304 116.025C46.0024 116.025 45.5184 115.905 45.0784 115.665C44.6464 115.417 44.2984 115.053 44.0344 114.573C43.7784 114.093 43.6504 113.493 43.6504 112.773C43.6504 112.053 43.7744 111.453 44.0224 110.973C44.2784 110.493 44.6224 110.133 45.0544 109.893C45.4944 109.653 45.9864 109.533 46.5304 109.533C47.1544 109.533 47.7064 109.669 48.1864 109.941C48.6664 110.213 49.0464 110.593 49.3264 111.081C49.6064 111.561 49.7464 112.125 49.7464 112.773C49.7464 113.421 49.6064 113.989 49.3264 114.477C49.0464 114.965 48.6664 115.345 48.1864 115.617C47.7064 115.889 47.1544 116.025 46.5304 116.025ZM43.1584 118.281V109.593H44.2624V111.309L44.1904 112.785L44.3104 114.261V118.281H43.1584ZM46.4344 115.017C46.8424 115.017 47.2064 114.925 47.5264 114.741C47.8544 114.557 48.1104 114.297 48.2944 113.961C48.4864 113.617 48.5824 113.221 48.5824 112.773C48.5824 112.317 48.4864 111.925 48.2944 111.597C48.1104 111.261 47.8544 111.001 47.5264 110.817C47.2064 110.633 46.8424 110.541 46.4344 110.541C46.0344 110.541 45.6704 110.633 45.3424 110.817C45.0224 111.001 44.7664 111.261 44.5744 111.597C44.3904 111.925 44.2984 112.317 44.2984 112.773C44.2984 113.221 44.3904 113.617 44.5744 113.961C44.7664 114.297 45.0224 114.557 45.3424 114.741C45.6704 114.925 46.0344 115.017 46.4344 115.017ZM54.0621 116.025C53.4221 116.025 52.8541 115.885 52.3581 115.605C51.8621 115.325 51.4701 114.941 51.1821 114.453C50.8941 113.957 50.7501 113.397 50.7501 112.773C50.7501 112.141 50.8941 111.581 51.1821 111.093C51.4701 110.605 51.8621 110.225 52.3581 109.953C52.8541 109.673 53.4221 109.533 54.0621 109.533C54.6941 109.533 55.2581 109.673 55.7541 109.953C56.2581 110.225 56.6501 110.605 56.9301 111.093C57.2181 111.573 57.3621 112.133 57.3621 112.773C57.3621 113.405 57.2181 113.965 56.9301 114.453C56.6501 114.941 56.2581 115.325 55.7541 115.605C55.2581 115.885 54.6941 116.025 54.0621 116.025ZM54.0621 115.017C54.4701 115.017 54.8341 114.925 55.1541 114.741C55.4821 114.557 55.7381 114.297 55.9221 113.961C56.1061 113.617 56.1981 113.221 56.1981 112.773C56.1981 112.317 56.1061 111.925 55.9221 111.597C55.7381 111.261 55.4821 111.001 55.1541 110.817C54.8341 110.633 54.4701 110.541 54.0621 110.541C53.6541 110.541 53.2901 110.633 52.9701 110.817C52.6501 111.001 52.3941 111.261 52.2021 111.597C52.0101 111.925 51.9141 112.317 51.9141 112.773C51.9141 113.221 52.0101 113.617 52.2021 113.961C52.3941 114.297 52.6501 114.557 52.9701 114.741C53.2901 114.925 53.6541 115.017 54.0621 115.017ZM58.9553 115.953V109.593H60.0593V111.321L59.9513 110.889C60.1273 110.449 60.4233 110.113 60.8393 109.881C61.2553 109.649 61.7673 109.533 62.3753 109.533V110.649C62.3273 110.641 62.2793 110.637 62.2313 110.637C62.1913 110.637 62.1513 110.637 62.1113 110.637C61.4953 110.637 61.0073 110.821 60.6473 111.189C60.2873 111.557 60.1073 112.089 60.1073 112.785V115.953H58.9553ZM66.2369 116.025C65.5969 116.025 65.1009 115.853 64.7489 115.509C64.3969 115.165 64.2209 114.673 64.2209 114.033V108.201H65.3729V113.985C65.3729 114.329 65.4569 114.593 65.6249 114.777C65.8009 114.961 66.0489 115.053 66.3689 115.053C66.7289 115.053 67.0289 114.953 67.2689 114.753L67.6289 115.581C67.4529 115.733 67.2409 115.845 66.9929 115.917C66.7529 115.989 66.5009 116.025 66.2369 116.025ZM63.1409 110.541V109.593H67.1969V110.541H63.1409ZM70.8457 116.025C70.3177 116.025 69.8137 115.953 69.3337 115.809C68.8617 115.665 68.4897 115.489 68.2177 115.281L68.6977 114.369C68.9697 114.553 69.3057 114.709 69.7057 114.837C70.1057 114.965 70.5137 115.029 70.9297 115.029C71.4657 115.029 71.8497 114.953 72.0817 114.801C72.3217 114.649 72.4417 114.437 72.4417 114.165C72.4417 113.965 72.3697 113.809 72.2257 113.697C72.0817 113.585 71.8897 113.501 71.6497 113.445C71.4177 113.389 71.1577 113.341 70.8697 113.301C70.5817 113.253 70.2937 113.197 70.0057 113.133C69.7177 113.061 69.4537 112.965 69.2137 112.845C68.9737 112.717 68.7817 112.545 68.6377 112.329C68.4937 112.105 68.4217 111.809 68.4217 111.441C68.4217 111.057 68.5297 110.721 68.7457 110.433C68.9617 110.145 69.2657 109.925 69.6577 109.773C70.0577 109.613 70.5297 109.533 71.0737 109.533C71.4897 109.533 71.9097 109.585 72.3337 109.689C72.7657 109.785 73.1177 109.925 73.3897 110.109L72.8977 111.021C72.6097 110.829 72.3097 110.697 71.9977 110.625C71.6857 110.553 71.3737 110.517 71.0617 110.517C70.5577 110.517 70.1817 110.601 69.9337 110.769C69.6857 110.929 69.5617 111.137 69.5617 111.393C69.5617 111.609 69.6337 111.777 69.7777 111.897C69.9297 112.009 70.1217 112.097 70.3537 112.161C70.5937 112.225 70.8577 112.281 71.1457 112.329C71.4337 112.369 71.7217 112.425 72.0097 112.497C72.2977 112.561 72.5577 112.653 72.7897 112.773C73.0297 112.893 73.2217 113.061 73.3657 113.277C73.5177 113.493 73.5937 113.781 73.5937 114.141C73.5937 114.525 73.4817 114.857 73.2577 115.137C73.0337 115.417 72.7177 115.637 72.3097 115.797C71.9017 115.949 71.4137 116.025 70.8457 116.025Z" fill="white"/>
<line x1="26.4688" y1="81.9531" x2="171.531" y2="81.9531" stroke="#EEEEEE"/>
</svg>
