<svg width="200" height="150" viewBox="0 0 200 150" fill="none" xmlns="http://www.w3.org/2000/svg">
<rect x="0.5" y="0.5" width="199" height="148.902" rx="9.5" fill="white" stroke="#EEEEEE"/>
<path d="M31.5352 53.5552L40.3923 53.5552L40.3923 55.7695L31.5352 55.7695L31.5352 53.5552ZM31.5352 48.0195L44.8209 48.0195L44.8209 50.2338L31.5352 50.2338L31.5352 48.0195ZM31.5352 59.091L37.0709 59.091L37.0709 61.3052L31.5352 61.3052L31.5352 59.091Z" fill="#1900C0"/>
<path d="M48.1429 39.1613L44.8214 39.1613L44.8214 38.0541C44.8214 37.4669 44.5881 36.9037 44.1729 36.4884C43.7576 36.0731 43.1944 35.8398 42.6071 35.8398L33.75 35.8398C33.1627 35.8398 32.5995 36.0731 32.1843 36.4884C31.769 36.9037 31.5357 37.4669 31.5357 38.0541L31.5357 39.1613L28.2143 39.1613C27.627 39.1613 27.0638 39.3946 26.6485 39.8098C26.2333 40.2251 26 40.7883 26 41.3756L26 64.6256C26 65.2128 26.2333 65.776 26.6485 66.1913C27.0638 66.6066 27.627 66.8398 28.2143 66.8398L48.1429 66.8398C48.7301 66.8398 49.2933 66.6066 49.7086 66.1913C50.1239 65.776 50.3571 65.2128 50.3571 64.6256L50.3571 41.3756C50.3571 40.7883 50.1239 40.2251 49.7086 39.8098C49.2933 39.3946 48.7301 39.1613 48.1429 39.1613ZM33.75 38.0541L42.6071 38.0541L42.6071 42.4827L33.75 42.4827L33.75 38.0541ZM48.1429 64.6256L28.2143 64.6256L28.2143 41.3756L31.5357 41.3756L31.5357 44.697L44.8214 44.697L44.8214 41.3756L48.1429 41.3756L48.1429 64.6256Z" fill="#1900C0"/>
<path d="M174.001 120.788C178.604 120.788 182.335 117.057 182.335 112.454C182.335 107.852 178.604 104.121 174.001 104.121C169.399 104.121 165.668 107.852 165.668 112.454C165.668 117.057 169.399 120.788 174.001 120.788Z" stroke="#1900C0" stroke-width="1.66667"/>
<path d="M172.75 109.121L176.083 112.454L172.75 115.788" stroke="#1900C0" stroke-width="1.66667" stroke-linecap="round" stroke-linejoin="round"/>
<path d="M32.876 115.953L31.064 113.373C30.84 113.389 30.664 113.397 30.536 113.397H28.46V115.953H27.26V107.553H30.536C31.624 107.553 32.48 107.813 33.104 108.333C33.728 108.853 34.04 109.569 34.04 110.481C34.04 111.129 33.88 111.681 33.56 112.137C33.24 112.593 32.784 112.925 32.192 113.133L34.184 115.953H32.876ZM30.5 112.377C31.26 112.377 31.84 112.213 32.24 111.885C32.64 111.557 32.84 111.089 32.84 110.481C32.84 109.873 32.64 109.409 32.24 109.089C31.84 108.761 31.26 108.597 30.5 108.597H28.46V112.377H30.5ZM41.5588 112.809C41.5588 112.897 41.5508 113.013 41.5348 113.157H36.3748C36.4468 113.717 36.6908 114.169 37.1068 114.513C37.5308 114.849 38.0548 115.017 38.6788 115.017C39.4388 115.017 40.0508 114.761 40.5148 114.249L41.1508 114.993C40.8628 115.329 40.5028 115.585 40.0708 115.761C39.6468 115.937 39.1708 116.025 38.6428 116.025C37.9708 116.025 37.3748 115.889 36.8548 115.617C36.3348 115.337 35.9308 114.949 35.6428 114.453C35.3628 113.957 35.2228 113.397 35.2228 112.773C35.2228 112.157 35.3588 111.601 35.6308 111.105C35.9108 110.609 36.2908 110.225 36.7708 109.953C37.2588 109.673 37.8068 109.533 38.4148 109.533C39.0228 109.533 39.5628 109.673 40.0348 109.953C40.5148 110.225 40.8868 110.609 41.1508 111.105C41.4228 111.601 41.5588 112.169 41.5588 112.809ZM38.4148 110.505C37.8628 110.505 37.3988 110.673 37.0228 111.009C36.6548 111.345 36.4388 111.785 36.3748 112.329H40.4548C40.3908 111.793 40.1708 111.357 39.7948 111.021C39.4268 110.677 38.9668 110.505 38.4148 110.505ZM46.5304 109.533C47.1464 109.533 47.6984 109.669 48.1864 109.941C48.6744 110.213 49.0544 110.593 49.3264 111.081C49.6064 111.569 49.7464 112.133 49.7464 112.773C49.7464 113.413 49.6064 113.981 49.3264 114.477C49.0544 114.965 48.6744 115.345 48.1864 115.617C47.6984 115.889 47.1464 116.025 46.5304 116.025C46.0744 116.025 45.6544 115.937 45.2704 115.761C44.8944 115.585 44.5744 115.329 44.3104 114.993V118.281H43.1584V109.593H44.2624V110.601C44.5184 110.249 44.8424 109.985 45.2344 109.809C45.6264 109.625 46.0584 109.533 46.5304 109.533ZM46.4344 115.017C46.8424 115.017 47.2064 114.925 47.5264 114.741C47.8544 114.549 48.1104 114.285 48.2944 113.949C48.4864 113.605 48.5824 113.213 48.5824 112.773C48.5824 112.333 48.4864 111.945 48.2944 111.609C48.1104 111.265 47.8544 111.001 47.5264 110.817C47.2064 110.633 46.8424 110.541 46.4344 110.541C46.0344 110.541 45.6704 110.637 45.3424 110.829C45.0224 111.013 44.7664 111.273 44.5744 111.609C44.3904 111.945 44.2984 112.333 44.2984 112.773C44.2984 113.213 44.3904 113.605 44.5744 113.949C44.7584 114.285 45.0144 114.549 45.3424 114.741C45.6704 114.925 46.0344 115.017 46.4344 115.017ZM54.0621 116.025C53.4301 116.025 52.8621 115.885 52.3581 115.605C51.8541 115.325 51.4581 114.941 51.1701 114.453C50.8901 113.957 50.7501 113.397 50.7501 112.773C50.7501 112.149 50.8901 111.593 51.1701 111.105C51.4581 110.609 51.8541 110.225 52.3581 109.953C52.8621 109.673 53.4301 109.533 54.0621 109.533C54.6941 109.533 55.2581 109.673 55.7541 109.953C56.2581 110.225 56.6501 110.609 56.9301 111.105C57.2181 111.593 57.3621 112.149 57.3621 112.773C57.3621 113.397 57.2181 113.957 56.9301 114.453C56.6501 114.941 56.2581 115.325 55.7541 115.605C55.2581 115.885 54.6941 116.025 54.0621 116.025ZM54.0621 115.017C54.4701 115.017 54.8341 114.925 55.1541 114.741C55.4821 114.549 55.7381 114.285 55.9221 113.949C56.1061 113.605 56.1981 113.213 56.1981 112.773C56.1981 112.333 56.1061 111.945 55.9221 111.609C55.7381 111.265 55.4821 111.001 55.1541 110.817C54.8341 110.633 54.4701 110.541 54.0621 110.541C53.6541 110.541 53.2861 110.633 52.9581 110.817C52.6381 111.001 52.3821 111.265 52.1901 111.609C52.0061 111.945 51.9141 112.333 51.9141 112.773C51.9141 113.213 52.0061 113.605 52.1901 113.949C52.3821 114.285 52.6381 114.549 52.9581 114.741C53.2861 114.925 53.6541 115.017 54.0621 115.017ZM60.0593 110.661C60.2593 110.293 60.5553 110.013 60.9473 109.821C61.3393 109.629 61.8153 109.533 62.3753 109.533V110.649C62.3113 110.641 62.2233 110.637 62.1113 110.637C61.4873 110.637 60.9953 110.825 60.6353 111.201C60.2833 111.569 60.1073 112.097 60.1073 112.785V115.953H58.9553V109.593H60.0593V110.661ZM67.6289 115.581C67.4609 115.725 67.2529 115.837 67.0049 115.917C66.7569 115.989 66.5009 116.025 66.2369 116.025C65.5969 116.025 65.1009 115.853 64.7489 115.509C64.3969 115.165 64.2209 114.673 64.2209 114.033V110.541H63.1409V109.593H64.2209V108.201H65.3729V109.593H67.1969V110.541H65.3729V113.985C65.3729 114.329 65.4569 114.593 65.6249 114.777C65.8009 114.961 66.0489 115.053 66.3689 115.053C66.7209 115.053 67.0209 114.953 67.2689 114.753L67.6289 115.581ZM70.8457 116.025C70.3257 116.025 69.8257 115.957 69.3457 115.821C68.8657 115.677 68.4897 115.497 68.2177 115.281L68.6977 114.369C68.9777 114.569 69.3177 114.729 69.7177 114.849C70.1177 114.969 70.5217 115.029 70.9297 115.029C71.9377 115.029 72.4417 114.741 72.4417 114.165C72.4417 113.973 72.3737 113.821 72.2377 113.709C72.1017 113.597 71.9297 113.517 71.7217 113.469C71.5217 113.413 71.2337 113.353 70.8577 113.289C70.3457 113.209 69.9257 113.117 69.5977 113.013C69.2777 112.909 69.0017 112.733 68.7697 112.485C68.5377 112.237 68.4217 111.889 68.4217 111.441C68.4217 110.865 68.6617 110.405 69.1417 110.061C69.6217 109.709 70.2657 109.533 71.0737 109.533C71.4977 109.533 71.9217 109.585 72.3457 109.689C72.7697 109.793 73.1177 109.933 73.3897 110.109L72.8977 111.021C72.3777 110.685 71.7657 110.517 71.0617 110.517C70.5737 110.517 70.2017 110.597 69.9457 110.757C69.6897 110.917 69.5617 111.129 69.5617 111.393C69.5617 111.601 69.6337 111.765 69.7777 111.885C69.9217 112.005 70.0977 112.093 70.3057 112.149C70.5217 112.205 70.8217 112.269 71.2057 112.341C71.7177 112.429 72.1297 112.525 72.4417 112.629C72.7617 112.725 73.0337 112.893 73.2577 113.133C73.4817 113.373 73.5937 113.709 73.5937 114.141C73.5937 114.717 73.3457 115.177 72.8497 115.521C72.3617 115.857 71.6937 116.025 70.8457 116.025Z" fill="#6F6F6F"/>
<line x1="26.4688" y1="81.9531" x2="171.531" y2="81.9531" stroke="#EEEEEE"/>
</svg>
