<svg width="201" height="151" viewBox="0 0 201 151" fill="none" xmlns="http://www.w3.org/2000/svg">
<rect x="1.48438" y="0.714844" width="199" height="148.902" rx="9.5" fill="#1900C0" stroke="#EEEEEE"/>
<g clip-path="url(#clip0_14305_7686)">
<rect width="20" height="20" transform="translate(164.984 102.668)" fill="#1900C0"/>
<path d="M174.986 121.003C179.588 121.003 183.319 117.272 183.319 112.669C183.319 108.067 179.588 104.336 174.986 104.336C170.383 104.336 166.652 108.067 166.652 112.669C166.652 117.272 170.383 121.003 174.986 121.003Z" stroke="white" stroke-width="1.66667"/>
<path d="M173.734 109.336L177.068 112.669L173.734 116.003" stroke="white" stroke-width="1.66667" stroke-linecap="round" stroke-linejoin="round"/>
</g>
<path d="M30.6924 116.264C30.0524 116.264 29.4404 116.168 28.8564 115.976C28.2724 115.776 27.8124 115.52 27.4764 115.208L27.9204 114.272C28.2404 114.552 28.6484 114.784 29.1444 114.968C29.6404 115.152 30.1564 115.244 30.6924 115.244C31.1804 115.244 31.5764 115.188 31.8804 115.076C32.1844 114.964 32.4084 114.812 32.5524 114.62C32.6964 114.42 32.7684 114.196 32.7684 113.948C32.7684 113.66 32.6724 113.428 32.4804 113.252C32.2964 113.076 32.0524 112.936 31.7484 112.832C31.4524 112.72 31.1244 112.624 30.7644 112.544C30.4044 112.464 30.0404 112.372 29.6724 112.268C29.3124 112.156 28.9804 112.016 28.6764 111.848C28.3804 111.68 28.1404 111.456 27.9564 111.176C27.7724 110.888 27.6804 110.52 27.6804 110.072C27.6804 109.64 27.7924 109.244 28.0164 108.884C28.2484 108.516 28.6004 108.224 29.0724 108.008C29.5524 107.784 30.1604 107.672 30.8964 107.672C31.3844 107.672 31.8684 107.736 32.3484 107.864C32.8284 107.992 33.2444 108.176 33.5964 108.416L33.2004 109.376C32.8404 109.136 32.4604 108.964 32.0604 108.86C31.6604 108.748 31.2724 108.692 30.8964 108.692C30.4244 108.692 30.0364 108.752 29.7324 108.872C29.4284 108.992 29.2044 109.152 29.0604 109.352C28.9244 109.552 28.8564 109.776 28.8564 110.024C28.8564 110.32 28.9484 110.556 29.1324 110.732C29.3244 110.908 29.5684 111.048 29.8644 111.152C30.1684 111.256 30.5004 111.352 30.8604 111.44C31.2204 111.52 31.5804 111.612 31.9404 111.716C32.3084 111.82 32.6404 111.956 32.9364 112.124C33.2404 112.292 33.4844 112.516 33.6684 112.796C33.8524 113.076 33.9444 113.436 33.9444 113.876C33.9444 114.3 33.8284 114.696 33.5964 115.064C33.3644 115.424 33.0044 115.716 32.5164 115.94C32.0364 116.156 31.4284 116.264 30.6924 116.264ZM38.3615 116.24C37.6815 116.24 37.0815 116.1 36.5615 115.82C36.0495 115.54 35.6495 115.156 35.3615 114.668C35.0815 114.18 34.9415 113.62 34.9415 112.988C34.9415 112.356 35.0775 111.796 35.3495 111.308C35.6295 110.82 36.0095 110.44 36.4895 110.168C36.9775 109.888 37.5255 109.748 38.1335 109.748C38.7495 109.748 39.2935 109.884 39.7655 110.156C40.2375 110.428 40.6055 110.812 40.8695 111.308C41.1415 111.796 41.2775 112.368 41.2775 113.024C41.2775 113.072 41.2735 113.128 41.2655 113.192C41.2655 113.256 41.2615 113.316 41.2535 113.372H35.8415V112.544H40.6535L40.1855 112.832C40.1935 112.424 40.1095 112.06 39.9335 111.74C39.7575 111.42 39.5135 111.172 39.2015 110.996C38.8975 110.812 38.5415 110.72 38.1335 110.72C37.7335 110.72 37.3775 110.812 37.0655 110.996C36.7535 111.172 36.5095 111.424 36.3335 111.752C36.1575 112.072 36.0695 112.44 36.0695 112.856V113.048C36.0695 113.472 36.1655 113.852 36.3575 114.188C36.5575 114.516 36.8335 114.772 37.1855 114.956C37.5375 115.14 37.9415 115.232 38.3975 115.232C38.7735 115.232 39.1135 115.168 39.4175 115.04C39.7295 114.912 40.0015 114.72 40.2335 114.464L40.8695 115.208C40.5815 115.544 40.2215 115.8 39.7895 115.976C39.3655 116.152 38.8895 116.24 38.3615 116.24ZM45.6492 116.24C45.0012 116.24 44.4212 116.1 43.9092 115.82C43.4052 115.54 43.0092 115.156 42.7212 114.668C42.4332 114.18 42.2892 113.62 42.2892 112.988C42.2892 112.356 42.4332 111.796 42.7212 111.308C43.0092 110.82 43.4052 110.44 43.9092 110.168C44.4212 109.888 45.0012 109.748 45.6492 109.748C46.2252 109.748 46.7372 109.864 47.1852 110.096C47.6412 110.32 47.9932 110.656 48.2412 111.104L47.3652 111.668C47.1572 111.356 46.9012 111.128 46.5972 110.984C46.3012 110.832 45.9812 110.756 45.6372 110.756C45.2212 110.756 44.8492 110.848 44.5212 111.032C44.1932 111.216 43.9332 111.476 43.7412 111.812C43.5492 112.14 43.4532 112.532 43.4532 112.988C43.4532 113.444 43.5492 113.84 43.7412 114.176C43.9332 114.512 44.1932 114.772 44.5212 114.956C44.8492 115.14 45.2212 115.232 45.6372 115.232C45.9812 115.232 46.3012 115.16 46.5972 115.016C46.9012 114.864 47.1572 114.632 47.3652 114.32L48.2412 114.872C47.9932 115.312 47.6412 115.652 47.1852 115.892C46.7372 116.124 46.2252 116.24 45.6492 116.24ZM52.4086 116.24C51.8646 116.24 51.3846 116.14 50.9686 115.94C50.5606 115.74 50.2406 115.436 50.0086 115.028C49.7846 114.612 49.6726 114.092 49.6726 113.468V109.808H50.8246V113.336C50.8246 113.96 50.9726 114.428 51.2686 114.74C51.5726 115.052 51.9966 115.208 52.5406 115.208C52.9406 115.208 53.2886 115.128 53.5846 114.968C53.8806 114.8 54.1086 114.56 54.2686 114.248C54.4286 113.928 54.5086 113.544 54.5086 113.096V109.808H55.6606V116.168H54.5686V114.452L54.7486 114.908C54.5406 115.332 54.2286 115.66 53.8126 115.892C53.3966 116.124 52.9286 116.24 52.4086 116.24ZM57.8537 116.168V109.808H58.9577V111.536L58.8497 111.104C59.0257 110.664 59.3217 110.328 59.7377 110.096C60.1537 109.864 60.6657 109.748 61.2737 109.748V110.864C61.2257 110.856 61.1777 110.852 61.1297 110.852C61.0897 110.852 61.0497 110.852 61.0097 110.852C60.3937 110.852 59.9057 111.036 59.5457 111.404C59.1857 111.772 59.0057 112.304 59.0057 113V116.168H57.8537ZM62.6936 116.168V109.808H63.8456V116.168H62.6936ZM63.2696 108.584C63.0456 108.584 62.8576 108.512 62.7056 108.368C62.5616 108.224 62.4896 108.048 62.4896 107.84C62.4896 107.624 62.5616 107.444 62.7056 107.3C62.8576 107.156 63.0456 107.084 63.2696 107.084C63.4936 107.084 63.6776 107.156 63.8216 107.3C63.9736 107.436 64.0496 107.608 64.0496 107.816C64.0496 108.032 63.9776 108.216 63.8336 108.368C63.6896 108.512 63.5016 108.584 63.2696 108.584ZM68.2291 116.24C67.5891 116.24 67.0931 116.068 66.7411 115.724C66.3891 115.38 66.2131 114.888 66.2131 114.248V108.416H67.3651V114.2C67.3651 114.544 67.4491 114.808 67.6171 114.992C67.7931 115.176 68.0411 115.268 68.3611 115.268C68.7211 115.268 69.0211 115.168 69.2611 114.968L69.6211 115.796C69.4451 115.948 69.2331 116.06 68.9851 116.132C68.7451 116.204 68.4931 116.24 68.2291 116.24ZM65.1331 110.756V109.808H69.1891V110.756H65.1331ZM71.1727 118.568C70.8687 118.568 70.5727 118.516 70.2847 118.412C69.9967 118.316 69.7487 118.172 69.5407 117.98L70.0327 117.116C70.1927 117.268 70.3687 117.384 70.5607 117.464C70.7527 117.544 70.9567 117.584 71.1727 117.584C71.4527 117.584 71.6847 117.512 71.8687 117.368C72.0527 117.224 72.2247 116.968 72.3847 116.6L72.7807 115.724L72.9007 115.58L75.3967 109.808H76.5247L73.4407 116.804C73.2567 117.252 73.0487 117.604 72.8167 117.86C72.5927 118.116 72.3447 118.296 72.0727 118.4C71.8007 118.512 71.5007 118.568 71.1727 118.568ZM72.6847 116.372L69.7807 109.808H70.9807L73.4527 115.472L72.6847 116.372ZM80.9905 116.168V107.768H81.9745L85.7425 114.116H85.2145L88.9345 107.768H89.9185L89.9305 116.168H88.7785L88.7665 109.58H89.0425L85.7305 115.148H85.1785L81.8425 109.58H82.1425V116.168H80.9905ZM96.2314 116.168V114.824L96.1714 114.572V112.28C96.1714 111.792 96.0274 111.416 95.7394 111.152C95.4594 110.88 95.0354 110.744 94.4674 110.744C94.0914 110.744 93.7234 110.808 93.3634 110.936C93.0034 111.056 92.6994 111.22 92.4514 111.428L91.9714 110.564C92.2994 110.3 92.6914 110.1 93.1474 109.964C93.6114 109.82 94.0954 109.748 94.5994 109.748C95.4714 109.748 96.1434 109.96 96.6154 110.384C97.0874 110.808 97.3234 111.456 97.3234 112.328V116.168H96.2314ZM94.1434 116.24C93.6714 116.24 93.2554 116.16 92.8954 116C92.5434 115.84 92.2714 115.62 92.0794 115.34C91.8874 115.052 91.7914 114.728 91.7914 114.368C91.7914 114.024 91.8714 113.712 92.0314 113.432C92.1994 113.152 92.4674 112.928 92.8354 112.76C93.2114 112.592 93.7154 112.508 94.3474 112.508H96.3634V113.336H94.3954C93.8194 113.336 93.4314 113.432 93.2314 113.624C93.0314 113.816 92.9314 114.048 92.9314 114.32C92.9314 114.632 93.0554 114.884 93.3034 115.076C93.5514 115.26 93.8954 115.352 94.3354 115.352C94.7674 115.352 95.1434 115.256 95.4634 115.064C95.7914 114.872 96.0274 114.592 96.1714 114.224L96.3994 115.016C96.2474 115.392 95.9794 115.692 95.5954 115.916C95.2114 116.132 94.7274 116.24 94.1434 116.24ZM101.279 116.24C100.751 116.24 100.247 116.168 99.7673 116.024C99.2953 115.88 98.9233 115.704 98.6513 115.496L99.1313 114.584C99.4033 114.768 99.7393 114.924 100.139 115.052C100.539 115.18 100.947 115.244 101.363 115.244C101.899 115.244 102.283 115.168 102.515 115.016C102.755 114.864 102.875 114.652 102.875 114.38C102.875 114.18 102.803 114.024 102.659 113.912C102.515 113.8 102.323 113.716 102.083 113.66C101.851 113.604 101.591 113.556 101.303 113.516C101.015 113.468 100.727 113.412 100.439 113.348C100.151 113.276 99.8873 113.18 99.6473 113.06C99.4073 112.932 99.2153 112.76 99.0713 112.544C98.9273 112.32 98.8553 112.024 98.8553 111.656C98.8553 111.272 98.9633 110.936 99.1793 110.648C99.3953 110.36 99.6993 110.14 100.091 109.988C100.491 109.828 100.963 109.748 101.507 109.748C101.923 109.748 102.343 109.8 102.767 109.904C103.199 110 103.551 110.14 103.823 110.324L103.331 111.236C103.043 111.044 102.743 110.912 102.431 110.84C102.119 110.768 101.807 110.732 101.495 110.732C100.991 110.732 100.615 110.816 100.367 110.984C100.119 111.144 99.9953 111.352 99.9953 111.608C99.9953 111.824 100.067 111.992 100.211 112.112C100.363 112.224 100.555 112.312 100.787 112.376C101.027 112.44 101.291 112.496 101.579 112.544C101.867 112.584 102.155 112.64 102.443 112.712C102.731 112.776 102.991 112.868 103.223 112.988C103.463 113.108 103.655 113.276 103.799 113.492C103.951 113.708 104.027 113.996 104.027 114.356C104.027 114.74 103.915 115.072 103.691 115.352C103.467 115.632 103.151 115.852 102.743 116.012C102.335 116.164 101.847 116.24 101.279 116.24ZM107.651 116.24C107.011 116.24 106.515 116.068 106.163 115.724C105.811 115.38 105.635 114.888 105.635 114.248V108.416H106.787V114.2C106.787 114.544 106.871 114.808 107.039 114.992C107.215 115.176 107.463 115.268 107.783 115.268C108.143 115.268 108.443 115.168 108.683 114.968L109.043 115.796C108.867 115.948 108.655 116.06 108.407 116.132C108.167 116.204 107.915 116.24 107.651 116.24ZM104.555 110.756V109.808H108.611V110.756H104.555ZM113.057 116.24C112.377 116.24 111.777 116.1 111.257 115.82C110.745 115.54 110.345 115.156 110.057 114.668C109.777 114.18 109.637 113.62 109.637 112.988C109.637 112.356 109.773 111.796 110.045 111.308C110.325 110.82 110.705 110.44 111.185 110.168C111.673 109.888 112.221 109.748 112.829 109.748C113.445 109.748 113.989 109.884 114.461 110.156C114.933 110.428 115.301 110.812 115.565 111.308C115.837 111.796 115.973 112.368 115.973 113.024C115.973 113.072 115.969 113.128 115.961 113.192C115.961 113.256 115.957 113.316 115.949 113.372H110.537V112.544H115.349L114.881 112.832C114.889 112.424 114.805 112.06 114.629 111.74C114.453 111.42 114.209 111.172 113.897 110.996C113.593 110.812 113.237 110.72 112.829 110.72C112.429 110.72 112.073 110.812 111.761 110.996C111.449 111.172 111.205 111.424 111.029 111.752C110.853 112.072 110.765 112.44 110.765 112.856V113.048C110.765 113.472 110.861 113.852 111.053 114.188C111.253 114.516 111.529 114.772 111.881 114.956C112.233 115.14 112.637 115.232 113.093 115.232C113.469 115.232 113.809 115.168 114.113 115.04C114.425 114.912 114.697 114.72 114.929 114.464L115.565 115.208C115.277 115.544 114.917 115.8 114.485 115.976C114.061 116.152 113.585 116.24 113.057 116.24ZM117.572 116.168V109.808H118.676V111.536L118.568 111.104C118.744 110.664 119.04 110.328 119.456 110.096C119.872 109.864 120.384 109.748 120.992 109.748V110.864C120.944 110.856 120.896 110.852 120.848 110.852C120.808 110.852 120.768 110.852 120.728 110.852C120.112 110.852 119.624 111.036 119.264 111.404C118.904 111.772 118.724 112.304 118.724 113V116.168H117.572Z" fill="white"/>
<line x1="27.4531" y1="82.168" x2="172.516" y2="82.168" stroke="white"/>
<path d="M48.129 54.4141C49.0743 53.9062 50.1563 53.6172 51.3087 53.6172H51.3126C51.4298 53.6172 51.4845 53.4766 51.3985 53.3984C50.2002 52.323 48.8312 51.4543 47.3478 50.8281C47.3321 50.8203 47.3165 50.8164 47.3009 50.8086C49.7267 49.0469 51.3048 46.1836 51.3048 42.9531C51.3048 37.6016 46.9767 33.2656 41.6368 33.2656C36.297 33.2656 31.9728 37.6016 31.9728 42.9531C31.9728 46.1836 33.5509 49.0469 35.9806 50.8086C35.9649 50.8164 35.9493 50.8203 35.9337 50.8281C34.1876 51.5664 32.6212 52.625 31.2735 53.9766C29.9337 55.314 28.8669 56.8995 28.1329 58.6445C27.4107 60.3534 27.0209 62.1842 26.9845 64.0391C26.9834 64.0808 26.9907 64.1222 27.006 64.1611C27.0212 64.1999 27.0441 64.2353 27.0732 64.2651C27.1023 64.295 27.1371 64.3187 27.1756 64.3349C27.214 64.3511 27.2553 64.3594 27.297 64.3594H29.6368C29.8048 64.3594 29.9454 64.2227 29.9493 64.0547C30.0274 61.0391 31.2345 58.2148 33.3712 56.0742C35.5782 53.8594 38.5157 52.6406 41.6407 52.6406C43.8556 52.6406 45.9806 53.2539 47.8126 54.4023C47.8597 54.4319 47.9137 54.4486 47.9692 54.4506C48.0248 54.4527 48.0799 54.4401 48.129 54.4141ZM41.6407 49.6719C39.8517 49.6719 38.1681 48.9727 36.8985 47.7031C36.2739 47.0801 35.7787 46.3397 35.4415 45.5244C35.1043 44.7092 34.9317 43.8353 34.9337 42.9531C34.9337 41.1602 35.6329 39.4727 36.8985 38.2031C38.1642 36.9336 39.8478 36.2344 41.6407 36.2344C43.4337 36.2344 45.1134 36.9336 46.3829 38.2031C47.0075 38.8261 47.5027 39.5666 47.8399 40.3818C48.1772 41.197 48.3497 42.0709 48.3478 42.9531C48.3478 44.7461 47.6485 46.4336 46.3829 47.7031C45.1134 48.9727 43.4298 49.6719 41.6407 49.6719Z" fill="white"/>
<path d="M54.9435 61.1179V59.0434C54.9435 57.1072 53.0073 55.5859 51.0711 55.5859C49.1349 55.5859 47.1987 57.1072 47.1987 59.0434V61.1179C46.3689 61.1179 45.5391 61.9477 45.5391 62.7775V67.618C45.5391 68.5861 46.3689 69.4159 47.1987 69.4159H54.8052C55.7733 69.4159 56.6031 68.5861 56.6031 67.7563V62.9158C56.6031 61.9477 55.7733 61.1179 54.9435 61.1179ZM53.1456 61.1179H48.9966V59.0434C48.9966 57.937 49.9647 57.2455 51.0711 57.2455C52.1775 57.2455 53.1456 57.937 53.1456 59.0434V61.1179Z" fill="white"/>
<defs>
<clipPath id="clip0_14305_7686">
<rect width="20" height="20" fill="white" transform="translate(164.984 102.668)"/>
</clipPath>
</defs>
</svg>
