<svg width="201" height="151" viewBox="0 0 201 151" fill="none" xmlns="http://www.w3.org/2000/svg">
<rect x="1.48438" y="0.714844" width="199" height="148.902" rx="9.5" fill="white" stroke="#EEEEEE"/>
<g clip-path="url(#clip0_14305_7686)">
<path d="M174.986 121.003C179.588 121.003 183.319 117.272 183.319 112.669C183.319 108.067 179.588 104.336 174.986 104.336C170.383 104.336 166.652 108.067 166.652 112.669C166.652 117.272 170.383 121.003 174.986 121.003Z" stroke="#1900C0" stroke-width="1.66667"/>
<path d="M173.734 109.336L177.068 112.669L173.734 116.003" stroke="#1900C0" stroke-width="1.66667" stroke-linecap="round" stroke-linejoin="round"/>
</g>
<path d="M30.6924 116.264C30.0604 116.264 29.4484 116.168 28.8564 115.976C28.2724 115.776 27.8124 115.52 27.4764 115.208L27.9204 114.272C28.2404 114.56 28.6484 114.796 29.1444 114.98C29.6484 115.156 30.1644 115.244 30.6924 115.244C31.3884 115.244 31.9084 115.128 32.2524 114.896C32.5964 114.656 32.7684 114.34 32.7684 113.948C32.7684 113.66 32.6724 113.428 32.4804 113.252C32.2964 113.068 32.0644 112.928 31.7844 112.832C31.5124 112.736 31.1244 112.628 30.6204 112.508C29.9884 112.356 29.4764 112.204 29.0844 112.052C28.7004 111.9 28.3684 111.668 28.0884 111.356C27.8164 111.036 27.6804 110.608 27.6804 110.072C27.6804 109.624 27.7964 109.22 28.0284 108.86C28.2684 108.5 28.6284 108.212 29.1084 107.996C29.5884 107.78 30.1844 107.672 30.8964 107.672C31.3924 107.672 31.8804 107.736 32.3604 107.864C32.8404 107.992 33.2524 108.176 33.5964 108.416L33.2004 109.376C32.8484 109.152 32.4724 108.984 32.0724 108.872C31.6724 108.752 31.2804 108.692 30.8964 108.692C30.2164 108.692 29.7044 108.816 29.3604 109.064C29.0244 109.312 28.8564 109.632 28.8564 110.024C28.8564 110.312 28.9524 110.548 29.1444 110.732C29.3364 110.908 29.5724 111.048 29.8524 111.152C30.1404 111.248 30.5284 111.352 31.0164 111.464C31.6484 111.616 32.1564 111.768 32.5404 111.92C32.9244 112.072 33.2524 112.304 33.5244 112.616C33.8044 112.928 33.9444 113.348 33.9444 113.876C33.9444 114.316 33.8244 114.72 33.5844 115.088C33.3444 115.448 32.9804 115.736 32.4924 115.952C32.0044 116.16 31.4044 116.264 30.6924 116.264ZM41.2775 113.024C41.2775 113.112 41.2695 113.228 41.2535 113.372H36.0935C36.1655 113.932 36.4095 114.384 36.8255 114.728C37.2495 115.064 37.7735 115.232 38.3975 115.232C39.1575 115.232 39.7695 114.976 40.2335 114.464L40.8695 115.208C40.5815 115.544 40.2215 115.8 39.7895 115.976C39.3655 116.152 38.8895 116.24 38.3615 116.24C37.6895 116.24 37.0935 116.104 36.5735 115.832C36.0535 115.552 35.6495 115.164 35.3615 114.668C35.0815 114.172 34.9415 113.612 34.9415 112.988C34.9415 112.372 35.0775 111.816 35.3495 111.32C35.6295 110.824 36.0095 110.44 36.4895 110.168C36.9775 109.888 37.5255 109.748 38.1335 109.748C38.7415 109.748 39.2815 109.888 39.7535 110.168C40.2335 110.44 40.6055 110.824 40.8695 111.32C41.1415 111.816 41.2775 112.384 41.2775 113.024ZM38.1335 110.72C37.5815 110.72 37.1175 110.888 36.7415 111.224C36.3735 111.56 36.1575 112 36.0935 112.544H40.1735C40.1095 112.008 39.8895 111.572 39.5135 111.236C39.1455 110.892 38.6855 110.72 38.1335 110.72ZM45.6492 116.24C45.0012 116.24 44.4212 116.1 43.9092 115.82C43.4052 115.54 43.0092 115.156 42.7212 114.668C42.4332 114.172 42.2892 113.612 42.2892 112.988C42.2892 112.364 42.4332 111.808 42.7212 111.32C43.0092 110.824 43.4052 110.44 43.9092 110.168C44.4212 109.888 45.0012 109.748 45.6492 109.748C46.2252 109.748 46.7372 109.864 47.1852 110.096C47.6412 110.328 47.9932 110.664 48.2412 111.104L47.3652 111.668C47.1652 111.364 46.9172 111.136 46.6212 110.984C46.3252 110.832 45.9972 110.756 45.6372 110.756C45.2212 110.756 44.8452 110.848 44.5092 111.032C44.1812 111.216 43.9212 111.48 43.7292 111.824C43.5452 112.16 43.4532 112.548 43.4532 112.988C43.4532 113.436 43.5452 113.832 43.7292 114.176C43.9212 114.512 44.1812 114.772 44.5092 114.956C44.8452 115.14 45.2212 115.232 45.6372 115.232C45.9972 115.232 46.3252 115.156 46.6212 115.004C46.9172 114.852 47.1652 114.624 47.3652 114.32L48.2412 114.872C47.9932 115.312 47.6412 115.652 47.1852 115.892C46.7372 116.124 46.2252 116.24 45.6492 116.24ZM55.6606 109.808V116.168H54.5686V115.208C54.3366 115.536 54.0286 115.792 53.6446 115.976C53.2686 116.152 52.8566 116.24 52.4086 116.24C51.5606 116.24 50.8926 116.008 50.4046 115.544C49.9166 115.072 49.6726 114.38 49.6726 113.468V109.808H50.8246V113.336C50.8246 113.952 50.9726 114.42 51.2686 114.74C51.5646 115.052 51.9886 115.208 52.5406 115.208C53.1486 115.208 53.6286 115.024 53.9806 114.656C54.3326 114.288 54.5086 113.768 54.5086 113.096V109.808H55.6606ZM58.9577 110.876C59.1577 110.508 59.4537 110.228 59.8457 110.036C60.2377 109.844 60.7137 109.748 61.2737 109.748V110.864C61.2097 110.856 61.1217 110.852 61.0097 110.852C60.3857 110.852 59.8937 111.04 59.5337 111.416C59.1817 111.784 59.0057 112.312 59.0057 113V116.168H57.8537V109.808H58.9577V110.876ZM62.6936 109.808H63.8456V116.168H62.6936V109.808ZM63.2696 108.584C63.0456 108.584 62.8576 108.512 62.7056 108.368C62.5616 108.224 62.4896 108.048 62.4896 107.84C62.4896 107.632 62.5616 107.456 62.7056 107.312C62.8576 107.16 63.0456 107.084 63.2696 107.084C63.4936 107.084 63.6776 107.156 63.8216 107.3C63.9736 107.436 64.0496 107.608 64.0496 107.816C64.0496 108.032 63.9736 108.216 63.8216 108.368C63.6776 108.512 63.4936 108.584 63.2696 108.584ZM69.6211 115.796C69.4531 115.94 69.2451 116.052 68.9971 116.132C68.7491 116.204 68.4931 116.24 68.2291 116.24C67.5891 116.24 67.0931 116.068 66.7411 115.724C66.3891 115.38 66.2131 114.888 66.2131 114.248V110.756H65.1331V109.808H66.2131V108.416H67.3651V109.808H69.1891V110.756H67.3651V114.2C67.3651 114.544 67.4491 114.808 67.6171 114.992C67.7931 115.176 68.0411 115.268 68.3611 115.268C68.7131 115.268 69.0131 115.168 69.2611 114.968L69.6211 115.796ZM76.5247 109.808L73.4407 116.804C73.1687 117.452 72.8487 117.908 72.4807 118.172C72.1207 118.436 71.6847 118.568 71.1727 118.568C70.8607 118.568 70.5567 118.516 70.2607 118.412C69.9727 118.316 69.7327 118.172 69.5407 117.98L70.0327 117.116C70.3607 117.428 70.7407 117.584 71.1727 117.584C71.4527 117.584 71.6847 117.508 71.8687 117.356C72.0607 117.212 72.2327 116.96 72.3847 116.6L72.5887 116.156L69.7807 109.808H70.9807L73.2007 114.896L75.3967 109.808H76.5247ZM88.7785 116.168L88.7665 110.048L85.7305 115.148H85.1785L82.1425 110.084V116.168H80.9905V107.768H81.9745L85.4785 113.672L88.9345 107.768H89.9185L89.9305 116.168H88.7785ZM94.5994 109.748C95.4794 109.748 96.1514 109.964 96.6154 110.396C97.0874 110.828 97.3234 111.472 97.3234 112.328V116.168H96.2314V115.328C96.0394 115.624 95.7634 115.852 95.4034 116.012C95.0514 116.164 94.6314 116.24 94.1434 116.24C93.4314 116.24 92.8594 116.068 92.4274 115.724C92.0034 115.38 91.7914 114.928 91.7914 114.368C91.7914 113.808 91.9954 113.36 92.4034 113.024C92.8114 112.68 93.4594 112.508 94.3474 112.508H96.1714V112.28C96.1714 111.784 96.0274 111.404 95.7394 111.14C95.4514 110.876 95.0274 110.744 94.4674 110.744C94.0914 110.744 93.7234 110.808 93.3634 110.936C93.0034 111.056 92.6994 111.22 92.4514 111.428L91.9714 110.564C92.2994 110.3 92.6914 110.1 93.1474 109.964C93.6034 109.82 94.0874 109.748 94.5994 109.748ZM94.3354 115.352C94.7754 115.352 95.1554 115.256 95.4754 115.064C95.7954 114.864 96.0274 114.584 96.1714 114.224V113.336H94.3954C93.4194 113.336 92.9314 113.664 92.9314 114.32C92.9314 114.64 93.0554 114.892 93.3034 115.076C93.5514 115.26 93.8954 115.352 94.3354 115.352ZM101.279 116.24C100.759 116.24 100.259 116.172 99.7793 116.036C99.2993 115.892 98.9233 115.712 98.6513 115.496L99.1313 114.584C99.4113 114.784 99.7513 114.944 100.151 115.064C100.551 115.184 100.955 115.244 101.363 115.244C102.371 115.244 102.875 114.956 102.875 114.38C102.875 114.188 102.807 114.036 102.671 113.924C102.535 113.812 102.363 113.732 102.155 113.684C101.955 113.628 101.667 113.568 101.291 113.504C100.779 113.424 100.359 113.332 100.031 113.228C99.7113 113.124 99.4353 112.948 99.2033 112.7C98.9713 112.452 98.8553 112.104 98.8553 111.656C98.8553 111.08 99.0953 110.62 99.5753 110.276C100.055 109.924 100.699 109.748 101.507 109.748C101.931 109.748 102.355 109.8 102.779 109.904C103.203 110.008 103.551 110.148 103.823 110.324L103.331 111.236C102.811 110.9 102.199 110.732 101.495 110.732C101.007 110.732 100.635 110.812 100.379 110.972C100.123 111.132 99.9953 111.344 99.9953 111.608C99.9953 111.816 100.067 111.98 100.211 112.1C100.355 112.22 100.531 112.308 100.739 112.364C100.955 112.42 101.255 112.484 101.639 112.556C102.151 112.644 102.563 112.74 102.875 112.844C103.195 112.94 103.467 113.108 103.691 113.348C103.915 113.588 104.027 113.924 104.027 114.356C104.027 114.932 103.779 115.392 103.283 115.736C102.795 116.072 102.127 116.24 101.279 116.24ZM109.043 115.796C108.875 115.94 108.667 116.052 108.419 116.132C108.171 116.204 107.915 116.24 107.651 116.24C107.011 116.24 106.515 116.068 106.163 115.724C105.811 115.38 105.635 114.888 105.635 114.248V110.756H104.555V109.808H105.635V108.416H106.787V109.808H108.611V110.756H106.787V114.2C106.787 114.544 106.871 114.808 107.039 114.992C107.215 115.176 107.463 115.268 107.783 115.268C108.135 115.268 108.435 115.168 108.683 114.968L109.043 115.796ZM115.973 113.024C115.973 113.112 115.965 113.228 115.949 113.372H110.789C110.861 113.932 111.105 114.384 111.521 114.728C111.945 115.064 112.469 115.232 113.093 115.232C113.853 115.232 114.465 114.976 114.929 114.464L115.565 115.208C115.277 115.544 114.917 115.8 114.485 115.976C114.061 116.152 113.585 116.24 113.057 116.24C112.385 116.24 111.789 116.104 111.269 115.832C110.749 115.552 110.345 115.164 110.057 114.668C109.777 114.172 109.637 113.612 109.637 112.988C109.637 112.372 109.773 111.816 110.045 111.32C110.325 110.824 110.705 110.44 111.185 110.168C111.673 109.888 112.221 109.748 112.829 109.748C113.437 109.748 113.977 109.888 114.449 110.168C114.929 110.44 115.301 110.824 115.565 111.32C115.837 111.816 115.973 112.384 115.973 113.024ZM112.829 110.72C112.277 110.72 111.813 110.888 111.437 111.224C111.069 111.56 110.853 112 110.789 112.544H114.869C114.805 112.008 114.585 111.572 114.209 111.236C113.841 110.892 113.381 110.72 112.829 110.72ZM118.676 110.876C118.876 110.508 119.172 110.228 119.564 110.036C119.956 109.844 120.432 109.748 120.992 109.748V110.864C120.928 110.856 120.84 110.852 120.728 110.852C120.104 110.852 119.612 111.04 119.252 111.416C118.9 111.784 118.724 112.312 118.724 113V116.168H117.572V109.808H118.676V110.876Z" fill="#6F6F6F"/>
<line x1="27.4531" y1="82.168" x2="172.516" y2="82.168" stroke="#EEEEEE"/>
<path d="M48.129 54.4141C49.0743 53.9062 50.1563 53.6172 51.3087 53.6172H51.3126C51.4298 53.6172 51.4845 53.4766 51.3985 53.3984C50.2002 52.323 48.8312 51.4543 47.3478 50.8281C47.3321 50.8203 47.3165 50.8164 47.3009 50.8086C49.7267 49.0469 51.3048 46.1836 51.3048 42.9531C51.3048 37.6016 46.9767 33.2656 41.6368 33.2656C36.297 33.2656 31.9728 37.6016 31.9728 42.9531C31.9728 46.1836 33.5509 49.0469 35.9806 50.8086C35.9649 50.8164 35.9493 50.8203 35.9337 50.8281C34.1876 51.5664 32.6212 52.625 31.2735 53.9766C29.9337 55.314 28.8669 56.8995 28.1329 58.6445C27.4107 60.3534 27.0209 62.1842 26.9845 64.0391C26.9834 64.0808 26.9907 64.1222 27.006 64.1611C27.0212 64.1999 27.0441 64.2353 27.0732 64.2651C27.1023 64.295 27.1371 64.3187 27.1756 64.3349C27.214 64.3511 27.2553 64.3594 27.297 64.3594H29.6368C29.8048 64.3594 29.9454 64.2227 29.9493 64.0547C30.0274 61.0391 31.2345 58.2148 33.3712 56.0742C35.5782 53.8594 38.5157 52.6406 41.6407 52.6406C43.8556 52.6406 45.9806 53.2539 47.8126 54.4023C47.8597 54.4319 47.9137 54.4486 47.9692 54.4506C48.0248 54.4527 48.0799 54.4401 48.129 54.4141ZM41.6407 49.6719C39.8517 49.6719 38.1681 48.9727 36.8985 47.7031C36.2739 47.0801 35.7787 46.3397 35.4415 45.5244C35.1043 44.7092 34.9317 43.8353 34.9337 42.9531C34.9337 41.1602 35.6329 39.4727 36.8985 38.2031C38.1642 36.9336 39.8478 36.2344 41.6407 36.2344C43.4337 36.2344 45.1134 36.9336 46.3829 38.2031C47.0075 38.8261 47.5027 39.5666 47.8399 40.3818C48.1772 41.197 48.3497 42.0709 48.3478 42.9531C48.3478 44.7461 47.6485 46.4336 46.3829 47.7031C45.1134 48.9727 43.4298 49.6719 41.6407 49.6719Z" fill="#1900C0"/>
<path d="M54.9435 61.1179V59.0434C54.9435 57.1072 53.0073 55.5859 51.0711 55.5859C49.1349 55.5859 47.1987 57.1072 47.1987 59.0434V61.1179C46.3689 61.1179 45.5391 61.9477 45.5391 62.7775V67.618C45.5391 68.5861 46.3689 69.4159 47.1987 69.4159H54.8052C55.7733 69.4159 56.6031 68.5861 56.6031 67.7563V62.9158C56.6031 61.9477 55.7733 61.1179 54.9435 61.1179ZM53.1456 61.1179H48.9966V59.0434C48.9966 57.937 49.9647 57.2455 51.0711 57.2455C52.1775 57.2455 53.1456 57.937 53.1456 59.0434V61.1179Z" fill="#1900C0"/>
<defs>
<clipPath id="clip0_14305_7686">
<rect width="20" height="20" fill="white" transform="translate(164.984 102.668)"/>
</clipPath>
</defs>
</svg>
