<svg width="201" height="151" viewBox="0 0 201 151" fill="none" xmlns="http://www.w3.org/2000/svg">
<rect x="1.15234" y="0.714844" width="199" height="148.902" rx="9.5" fill="#1900C0" stroke="#EEEEEE"/>
<path d="M29.5586 35.8398C28.7878 35.8398 28.0486 36.146 27.5036 36.6911C26.9585 37.2361 26.6523 37.9753 26.6523 38.7461V63.9336C26.6523 64.7044 26.9585 65.4436 27.5036 65.9886C28.0486 66.5336 28.7878 66.8398 29.5586 66.8398H43.1211C43.8919 66.8398 44.6311 66.5336 45.1761 65.9886C45.7212 65.4436 46.0273 64.7044 46.0273 63.9336V61.0273C46.0273 60.7704 45.9253 60.524 45.7436 60.3423C45.5619 60.1607 45.3155 60.0586 45.0586 60.0586C44.2584 60.0586 43.7469 59.861 43.4001 59.6013C43.0455 59.3359 42.7762 58.9387 42.5786 58.3943C42.164 57.255 42.1523 55.7457 42.1523 54.2461C42.1523 54.1187 42.1271 53.9925 42.0783 53.8748C42.0294 53.7571 41.9578 53.6502 41.8675 53.5602L41.3134 53.0042L38.9632 50.654C38.0584 49.7492 37.793 49.1427 37.7426 48.8037C37.7038 48.5324 37.7852 48.3503 37.979 48.1643C38.3936 47.7671 38.69 47.4978 39.0252 47.4164C39.2248 47.366 39.6801 47.3312 40.4977 48.1488L46.3102 53.9613C46.4919 54.1432 46.7383 54.2455 46.9954 54.2457C47.1227 54.2458 47.2488 54.2208 47.3664 54.1721C47.484 54.1235 47.5909 54.0522 47.681 53.9623C47.7711 53.8723 47.8425 53.7655 47.8913 53.6479C47.9401 53.5304 47.9653 53.4043 47.9654 53.2771C47.9655 53.1498 47.9405 53.0237 47.8919 52.9061C47.8432 52.7884 47.7719 52.6815 47.682 52.5915L46.0273 50.9388V44.9597L50.9873 49.9197C51.2575 50.1895 51.4719 50.5099 51.6182 50.8627C51.7644 51.2154 51.8398 51.5935 51.8398 51.9753V65.8711C51.8398 66.128 51.9419 66.3744 52.1236 66.5561C52.3053 66.7378 52.5517 66.8398 52.8086 66.8398C53.0655 66.8398 53.3119 66.7378 53.4936 66.5561C53.6753 66.3744 53.7773 66.128 53.7773 65.8711V51.9753C53.7771 50.6913 53.2669 49.4599 52.3591 48.5518L46.0273 42.22V38.7461C46.0273 37.9753 45.7212 37.2361 45.1761 36.6911C44.6311 36.146 43.8919 35.8398 43.1211 35.8398H29.5586ZM44.0898 42.6211V49.0013L41.8695 46.779C40.7477 45.6591 39.6336 45.2735 38.566 45.5332C38.3563 45.5849 38.1529 45.6596 37.9596 45.756C37.0935 45.5051 36.181 45.4591 35.294 45.6215C34.4071 45.784 33.5701 46.1506 32.8492 46.6922C32.1283 47.2338 31.5433 47.9356 31.1403 48.7422C30.7373 49.5489 30.5275 50.4382 30.5273 51.3398C30.5273 52.4635 30.8529 53.5631 31.4648 54.5055C32.0767 55.4479 32.9486 56.1928 33.975 56.6499C35.0015 57.1071 36.1384 57.2569 37.2483 57.0813C38.3581 56.9057 39.3932 56.4122 40.2284 55.6605C40.2613 56.7803 40.3737 58.0048 40.7573 59.0569C41.0441 59.8455 41.5013 60.5992 42.2376 61.1494L42.2492 61.161C41.6592 61.3466 41.1438 61.7155 40.7779 62.2141C40.4121 62.7128 40.2148 63.3151 40.2148 63.9336V64.9023H32.4648V63.9336C32.4648 63.1628 32.1587 62.4236 31.6136 61.8786C31.0686 61.3335 30.3294 61.0273 29.5586 61.0273H28.5898V41.6523H29.5586C30.3294 41.6523 31.0686 41.3462 31.6136 40.8011C32.1587 40.2561 32.4648 39.5169 32.4648 38.7461V37.7773H40.2148V38.7461C40.2148 39.5169 40.521 40.2561 41.0661 40.8011C41.6111 41.3462 42.3503 41.6523 43.1211 41.6523H44.0898V42.6211ZM44.0898 63.9336V63.951C44.0853 64.2049 43.9812 64.4469 43.8 64.6248C43.6188 64.8027 43.375 64.9024 43.1211 64.9023H42.1523V63.9336C42.1523 63.6767 42.2544 63.4303 42.4361 63.2486C42.6178 63.0669 42.8642 62.9648 43.1211 62.9648H44.0898V63.9336ZM32.4648 51.3398C32.4649 50.3544 32.8403 49.406 33.5148 48.6876C34.1893 47.9691 35.1122 47.5347 36.0957 47.4726C35.8555 47.9182 35.7334 48.4607 35.8264 49.0865C35.964 50.0204 36.5588 50.9911 37.5915 52.0238L39.3488 53.7811C38.8443 54.4028 38.1596 54.8529 37.3889 55.0697C36.6182 55.2864 35.7993 55.2591 35.0447 54.9915C34.2901 54.7239 33.6369 54.2292 33.175 53.5753C32.713 52.9214 32.4649 52.1405 32.4648 51.3398ZM30.5273 37.7773V38.7461C30.5273 39.003 30.4253 39.2494 30.2436 39.4311C30.0619 39.6128 29.8155 39.7148 29.5586 39.7148H28.5898V38.7461C28.5898 38.4892 28.6919 38.2428 28.8736 38.0611C29.0553 37.8794 29.3017 37.7773 29.5586 37.7773H30.5273ZM28.5898 62.9648H29.5586C29.8155 62.9648 30.0619 63.0669 30.2436 63.2486C30.4253 63.4303 30.5273 63.6767 30.5273 63.9336V64.9023H29.5586C29.3017 64.9023 29.0553 64.8003 28.8736 64.6186C28.6919 64.4369 28.5898 64.1905 28.5898 63.9336V62.9648ZM44.0898 39.7148H43.1211C42.8642 39.7148 42.6178 39.6128 42.4361 39.4311C42.2544 39.2494 42.1523 39.003 42.1523 38.7461V37.7773H43.1211C43.378 37.7773 43.6244 37.8794 43.8061 38.0611C43.9878 38.2428 44.0898 38.4892 44.0898 38.7461V39.7148Z" fill="white"/>
<path d="M174.654 121.003C179.256 121.003 182.987 117.272 182.987 112.669C182.987 108.067 179.256 104.336 174.654 104.336C170.051 104.336 166.32 108.067 166.32 112.669C166.32 117.272 170.051 121.003 174.654 121.003Z" stroke="white" stroke-width="1.66667"/>
<path d="M173.402 109.336L176.736 112.669L173.402 116.003" stroke="white" stroke-width="1.66667" stroke-linecap="round" stroke-linejoin="round"/>
<path d="M29.5803 116.168V108.812H26.7003V107.768H33.6483V108.812H30.7683V116.168H29.5803ZM34.635 116.168V109.808H35.739V111.536L35.631 111.104C35.807 110.664 36.103 110.328 36.519 110.096C36.935 109.864 37.447 109.748 38.055 109.748V110.864C38.007 110.856 37.959 110.852 37.911 110.852C37.871 110.852 37.831 110.852 37.791 110.852C37.175 110.852 36.687 111.036 36.327 111.404C35.967 111.772 35.787 112.304 35.787 113V116.168H34.635ZM42.9541 116.168V114.824L42.8941 114.572V112.28C42.8941 111.792 42.7501 111.416 42.4621 111.152C42.1821 110.88 41.7581 110.744 41.1901 110.744C40.8141 110.744 40.4461 110.808 40.0861 110.936C39.7261 111.056 39.4221 111.22 39.1741 111.428L38.6941 110.564C39.0221 110.3 39.4141 110.1 39.8701 109.964C40.3341 109.82 40.8181 109.748 41.3221 109.748C42.1941 109.748 42.8661 109.96 43.3381 110.384C43.8101 110.808 44.0461 111.456 44.0461 112.328V116.168H42.9541ZM40.8661 116.24C40.3941 116.24 39.9781 116.16 39.6181 116C39.2661 115.84 38.9941 115.62 38.8021 115.34C38.6101 115.052 38.5141 114.728 38.5141 114.368C38.5141 114.024 38.5941 113.712 38.7541 113.432C38.9221 113.152 39.1901 112.928 39.5581 112.76C39.9341 112.592 40.4381 112.508 41.0701 112.508H43.0861V113.336H41.1181C40.5421 113.336 40.1541 113.432 39.9541 113.624C39.7541 113.816 39.6541 114.048 39.6541 114.32C39.6541 114.632 39.7781 114.884 40.0261 115.076C40.2741 115.26 40.6181 115.352 41.0581 115.352C41.4901 115.352 41.8661 115.256 42.1861 115.064C42.5141 114.872 42.7501 114.592 42.8941 114.224L43.1221 115.016C42.9701 115.392 42.7021 115.692 42.3181 115.916C41.9341 116.132 41.4501 116.24 40.8661 116.24ZM49.5739 109.748C50.0939 109.748 50.5499 109.848 50.9419 110.048C51.3419 110.248 51.6539 110.552 51.8779 110.96C52.1019 111.368 52.2139 111.884 52.2139 112.508V116.168H51.0619V112.64C51.0619 112.024 50.9099 111.56 50.6059 111.248C50.3099 110.936 49.8899 110.78 49.3459 110.78C48.9379 110.78 48.5819 110.86 48.2779 111.02C47.9739 111.18 47.7379 111.416 47.5699 111.728C47.4099 112.04 47.3299 112.428 47.3299 112.892V116.168H46.1779V109.808H47.2819V111.524L47.1019 111.068C47.3099 110.652 47.6299 110.328 48.0619 110.096C48.4939 109.864 48.9979 109.748 49.5739 109.748ZM56.1699 116.24C55.6419 116.24 55.1379 116.168 54.6579 116.024C54.1859 115.88 53.8139 115.704 53.5419 115.496L54.0219 114.584C54.2939 114.768 54.6299 114.924 55.0299 115.052C55.4299 115.18 55.8379 115.244 56.2539 115.244C56.7899 115.244 57.1739 115.168 57.4059 115.016C57.6459 114.864 57.7659 114.652 57.7659 114.38C57.7659 114.18 57.6939 114.024 57.5499 113.912C57.4059 113.8 57.2139 113.716 56.9739 113.66C56.7419 113.604 56.4819 113.556 56.1939 113.516C55.9059 113.468 55.6179 113.412 55.3299 113.348C55.0419 113.276 54.7779 113.18 54.5379 113.06C54.2979 112.932 54.1059 112.76 53.9619 112.544C53.8179 112.32 53.7459 112.024 53.7459 111.656C53.7459 111.272 53.8539 110.936 54.0699 110.648C54.2859 110.36 54.5899 110.14 54.9819 109.988C55.3819 109.828 55.8539 109.748 56.3979 109.748C56.8139 109.748 57.2339 109.8 57.6579 109.904C58.0899 110 58.4419 110.14 58.7139 110.324L58.2219 111.236C57.9339 111.044 57.6339 110.912 57.3219 110.84C57.0099 110.768 56.6979 110.732 56.3859 110.732C55.8819 110.732 55.5059 110.816 55.2579 110.984C55.0099 111.144 54.8859 111.352 54.8859 111.608C54.8859 111.824 54.9579 111.992 55.1019 112.112C55.2539 112.224 55.4459 112.312 55.6779 112.376C55.9179 112.44 56.1819 112.496 56.4699 112.544C56.7579 112.584 57.0459 112.64 57.3339 112.712C57.6219 112.776 57.8819 112.868 58.1139 112.988C58.3539 113.108 58.5459 113.276 58.6899 113.492C58.8419 113.708 58.9179 113.996 58.9179 114.356C58.9179 114.74 58.8059 115.072 58.5819 115.352C58.3579 115.632 58.0419 115.852 57.6339 116.012C57.2259 116.164 56.7379 116.24 56.1699 116.24ZM64.3056 116.168V114.824L64.2456 114.572V112.28C64.2456 111.792 64.1016 111.416 63.8136 111.152C63.5336 110.88 63.1096 110.744 62.5416 110.744C62.1656 110.744 61.7976 110.808 61.4376 110.936C61.0776 111.056 60.7736 111.22 60.5256 111.428L60.0456 110.564C60.3736 110.3 60.7656 110.1 61.2216 109.964C61.6856 109.82 62.1696 109.748 62.6736 109.748C63.5456 109.748 64.2176 109.96 64.6896 110.384C65.1616 110.808 65.3976 111.456 65.3976 112.328V116.168H64.3056ZM62.2176 116.24C61.7456 116.24 61.3296 116.16 60.9696 116C60.6176 115.84 60.3456 115.62 60.1536 115.34C59.9616 115.052 59.8656 114.728 59.8656 114.368C59.8656 114.024 59.9456 113.712 60.1056 113.432C60.2736 113.152 60.5416 112.928 60.9096 112.76C61.2856 112.592 61.7896 112.508 62.4216 112.508H64.4376V113.336H62.4696C61.8936 113.336 61.5056 113.432 61.3056 113.624C61.1056 113.816 61.0056 114.048 61.0056 114.32C61.0056 114.632 61.1296 114.884 61.3776 115.076C61.6256 115.26 61.9696 115.352 62.4096 115.352C62.8416 115.352 63.2176 115.256 63.5376 115.064C63.8656 114.872 64.1016 114.592 64.2456 114.224L64.4736 115.016C64.3216 115.392 64.0536 115.692 63.6696 115.916C63.2856 116.132 62.8016 116.24 62.2176 116.24ZM70.3015 116.24C69.6535 116.24 69.0735 116.1 68.5615 115.82C68.0575 115.54 67.6615 115.156 67.3735 114.668C67.0855 114.18 66.9415 113.62 66.9415 112.988C66.9415 112.356 67.0855 111.796 67.3735 111.308C67.6615 110.82 68.0575 110.44 68.5615 110.168C69.0735 109.888 69.6535 109.748 70.3015 109.748C70.8775 109.748 71.3895 109.864 71.8375 110.096C72.2935 110.32 72.6455 110.656 72.8935 111.104L72.0175 111.668C71.8095 111.356 71.5535 111.128 71.2495 110.984C70.9535 110.832 70.6335 110.756 70.2895 110.756C69.8735 110.756 69.5015 110.848 69.1735 111.032C68.8455 111.216 68.5855 111.476 68.3935 111.812C68.2015 112.14 68.1055 112.532 68.1055 112.988C68.1055 113.444 68.2015 113.84 68.3935 114.176C68.5855 114.512 68.8455 114.772 69.1735 114.956C69.5015 115.14 69.8735 115.232 70.2895 115.232C70.6335 115.232 70.9535 115.16 71.2495 115.016C71.5535 114.864 71.8095 114.632 72.0175 114.32L72.8935 114.872C72.6455 115.312 72.2935 115.652 71.8375 115.892C71.3895 116.124 70.8775 116.24 70.3015 116.24ZM76.651 116.24C76.011 116.24 75.515 116.068 75.163 115.724C74.811 115.38 74.635 114.888 74.635 114.248V108.416H75.787V114.2C75.787 114.544 75.871 114.808 76.039 114.992C76.215 115.176 76.463 115.268 76.783 115.268C77.143 115.268 77.443 115.168 77.683 114.968L78.043 115.796C77.867 115.948 77.655 116.06 77.407 116.132C77.167 116.204 76.915 116.24 76.651 116.24ZM73.555 110.756V109.808H77.611V110.756H73.555ZM79.4358 116.168V109.808H80.5878V116.168H79.4358ZM80.0118 108.584C79.7878 108.584 79.5998 108.512 79.4478 108.368C79.3038 108.224 79.2318 108.048 79.2318 107.84C79.2318 107.624 79.3038 107.444 79.4478 107.3C79.5998 107.156 79.7878 107.084 80.0118 107.084C80.2358 107.084 80.4198 107.156 80.5638 107.3C80.7158 107.436 80.7918 107.608 80.7918 107.816C80.7918 108.032 80.7198 108.216 80.5758 108.368C80.4318 108.512 80.2438 108.584 80.0118 108.584ZM85.5113 116.24C84.8713 116.24 84.3033 116.1 83.8073 115.82C83.3113 115.54 82.9193 115.156 82.6313 114.668C82.3433 114.172 82.1993 113.612 82.1993 112.988C82.1993 112.356 82.3433 111.796 82.6313 111.308C82.9193 110.82 83.3113 110.44 83.8073 110.168C84.3033 109.888 84.8713 109.748 85.5113 109.748C86.1433 109.748 86.7073 109.888 87.2033 110.168C87.7073 110.44 88.0993 110.82 88.3793 111.308C88.6673 111.788 88.8113 112.348 88.8113 112.988C88.8113 113.62 88.6673 114.18 88.3793 114.668C88.0993 115.156 87.7073 115.54 87.2033 115.82C86.7073 116.1 86.1433 116.24 85.5113 116.24ZM85.5113 115.232C85.9193 115.232 86.2833 115.14 86.6033 114.956C86.9313 114.772 87.1873 114.512 87.3713 114.176C87.5553 113.832 87.6473 113.436 87.6473 112.988C87.6473 112.532 87.5553 112.14 87.3713 111.812C87.1873 111.476 86.9313 111.216 86.6033 111.032C86.2833 110.848 85.9193 110.756 85.5113 110.756C85.1033 110.756 84.7393 110.848 84.4193 111.032C84.0993 111.216 83.8433 111.476 83.6513 111.812C83.4593 112.14 83.3633 112.532 83.3633 112.988C83.3633 113.436 83.4593 113.832 83.6513 114.176C83.8433 114.512 84.0993 114.772 84.4193 114.956C84.7393 115.14 85.1033 115.232 85.5113 115.232ZM93.8005 109.748C94.3205 109.748 94.7765 109.848 95.1685 110.048C95.5685 110.248 95.8805 110.552 96.1045 110.96C96.3285 111.368 96.4405 111.884 96.4405 112.508V116.168H95.2885V112.64C95.2885 112.024 95.1365 111.56 94.8325 111.248C94.5365 110.936 94.1165 110.78 93.5725 110.78C93.1645 110.78 92.8085 110.86 92.5045 111.02C92.2005 111.18 91.9645 111.416 91.7965 111.728C91.6365 112.04 91.5565 112.428 91.5565 112.892V116.168H90.4045V109.808H91.5085V111.524L91.3285 111.068C91.5365 110.652 91.8565 110.328 92.2885 110.096C92.7205 109.864 93.2245 109.748 93.8005 109.748ZM101.963 116.168V107.768H102.947L106.715 114.116H106.187L109.907 107.768H110.891L110.903 116.168H109.751L109.739 109.58H110.015L106.703 115.148H106.151L102.815 109.58H103.115V116.168H101.963ZM117.204 116.168V114.824L117.144 114.572V112.28C117.144 111.792 117 111.416 116.712 111.152C116.432 110.88 116.008 110.744 115.44 110.744C115.064 110.744 114.696 110.808 114.336 110.936C113.976 111.056 113.672 111.22 113.424 111.428L112.944 110.564C113.272 110.3 113.664 110.1 114.12 109.964C114.584 109.82 115.068 109.748 115.572 109.748C116.444 109.748 117.116 109.96 117.588 110.384C118.06 110.808 118.296 111.456 118.296 112.328V116.168H117.204ZM115.116 116.24C114.644 116.24 114.228 116.16 113.868 116C113.516 115.84 113.244 115.62 113.052 115.34C112.86 115.052 112.764 114.728 112.764 114.368C112.764 114.024 112.844 113.712 113.004 113.432C113.172 113.152 113.44 112.928 113.808 112.76C114.184 112.592 114.688 112.508 115.32 112.508H117.336V113.336H115.368C114.792 113.336 114.404 113.432 114.204 113.624C114.004 113.816 113.904 114.048 113.904 114.32C113.904 114.632 114.028 114.884 114.276 115.076C114.524 115.26 114.868 115.352 115.308 115.352C115.74 115.352 116.116 115.256 116.436 115.064C116.764 114.872 117 114.592 117.144 114.224L117.372 115.016C117.22 115.392 116.952 115.692 116.568 115.916C116.184 116.132 115.7 116.24 115.116 116.24ZM122.252 116.24C121.724 116.24 121.22 116.168 120.74 116.024C120.268 115.88 119.896 115.704 119.624 115.496L120.104 114.584C120.376 114.768 120.712 114.924 121.112 115.052C121.512 115.18 121.92 115.244 122.336 115.244C122.872 115.244 123.256 115.168 123.488 115.016C123.728 114.864 123.848 114.652 123.848 114.38C123.848 114.18 123.776 114.024 123.632 113.912C123.488 113.8 123.296 113.716 123.056 113.66C122.824 113.604 122.564 113.556 122.276 113.516C121.988 113.468 121.7 113.412 121.412 113.348C121.124 113.276 120.86 113.18 120.62 113.06C120.38 112.932 120.188 112.76 120.044 112.544C119.9 112.32 119.828 112.024 119.828 111.656C119.828 111.272 119.936 110.936 120.152 110.648C120.368 110.36 120.672 110.14 121.064 109.988C121.464 109.828 121.936 109.748 122.48 109.748C122.896 109.748 123.316 109.8 123.74 109.904C124.172 110 124.524 110.14 124.796 110.324L124.304 111.236C124.016 111.044 123.716 110.912 123.404 110.84C123.092 110.768 122.78 110.732 122.468 110.732C121.964 110.732 121.588 110.816 121.34 110.984C121.092 111.144 120.968 111.352 120.968 111.608C120.968 111.824 121.04 111.992 121.184 112.112C121.336 112.224 121.528 112.312 121.76 112.376C122 112.44 122.264 112.496 122.552 112.544C122.84 112.584 123.128 112.64 123.416 112.712C123.704 112.776 123.964 112.868 124.196 112.988C124.436 113.108 124.628 113.276 124.772 113.492C124.924 113.708 125 113.996 125 114.356C125 114.74 124.888 115.072 124.664 115.352C124.44 115.632 124.124 115.852 123.716 116.012C123.308 116.164 122.82 116.24 122.252 116.24ZM128.624 116.24C127.984 116.24 127.488 116.068 127.136 115.724C126.784 115.38 126.608 114.888 126.608 114.248V108.416H127.76V114.2C127.76 114.544 127.844 114.808 128.012 114.992C128.188 115.176 128.436 115.268 128.756 115.268C129.116 115.268 129.416 115.168 129.656 114.968L130.016 115.796C129.84 115.948 129.628 116.06 129.38 116.132C129.14 116.204 128.888 116.24 128.624 116.24ZM125.528 110.756V109.808H129.584V110.756H125.528ZM134.029 116.24C133.349 116.24 132.749 116.1 132.229 115.82C131.717 115.54 131.317 115.156 131.029 114.668C130.749 114.18 130.609 113.62 130.609 112.988C130.609 112.356 130.745 111.796 131.017 111.308C131.297 110.82 131.677 110.44 132.157 110.168C132.645 109.888 133.193 109.748 133.801 109.748C134.417 109.748 134.961 109.884 135.433 110.156C135.905 110.428 136.273 110.812 136.537 111.308C136.809 111.796 136.945 112.368 136.945 113.024C136.945 113.072 136.941 113.128 136.933 113.192C136.933 113.256 136.929 113.316 136.921 113.372H131.509V112.544H136.321L135.853 112.832C135.861 112.424 135.777 112.06 135.601 111.74C135.425 111.42 135.181 111.172 134.869 110.996C134.565 110.812 134.209 110.72 133.801 110.72C133.401 110.72 133.045 110.812 132.733 110.996C132.421 111.172 132.177 111.424 132.001 111.752C131.825 112.072 131.737 112.44 131.737 112.856V113.048C131.737 113.472 131.833 113.852 132.025 114.188C132.225 114.516 132.501 114.772 132.853 114.956C133.205 115.14 133.609 115.232 134.065 115.232C134.441 115.232 134.781 115.168 135.085 115.04C135.397 114.912 135.669 114.72 135.901 114.464L136.537 115.208C136.249 115.544 135.889 115.8 135.457 115.976C135.033 116.152 134.557 116.24 134.029 116.24ZM138.545 116.168V109.808H139.649V111.536L139.541 111.104C139.717 110.664 140.013 110.328 140.429 110.096C140.845 109.864 141.357 109.748 141.965 109.748V110.864C141.917 110.856 141.869 110.852 141.821 110.852C141.781 110.852 141.741 110.852 141.701 110.852C141.085 110.852 140.597 111.036 140.237 111.404C139.877 111.772 139.697 112.304 139.697 113V116.168H138.545Z" fill="white"/>
<line x1="27.1211" y1="82.168" x2="172.184" y2="82.168" stroke="#EEEEEE"/>
</svg>
