<svg width="201" height="151" viewBox="0 0 201 151" fill="none" xmlns="http://www.w3.org/2000/svg">
<rect x="1.15234" y="0.714844" width="199" height="148.902" rx="9.5" fill="white" stroke="#EEEEEE"/>
<path d="M29.5586 35.8398C28.7878 35.8398 28.0486 36.146 27.5036 36.6911C26.9585 37.2361 26.6523 37.9753 26.6523 38.7461V63.9336C26.6523 64.7044 26.9585 65.4436 27.5036 65.9886C28.0486 66.5336 28.7878 66.8398 29.5586 66.8398H43.1211C43.8919 66.8398 44.6311 66.5336 45.1761 65.9886C45.7212 65.4436 46.0273 64.7044 46.0273 63.9336V61.0273C46.0273 60.7704 45.9253 60.524 45.7436 60.3423C45.5619 60.1607 45.3155 60.0586 45.0586 60.0586C44.2584 60.0586 43.7469 59.861 43.4001 59.6013C43.0455 59.3359 42.7762 58.9387 42.5786 58.3943C42.164 57.255 42.1523 55.7457 42.1523 54.2461C42.1523 54.1187 42.1271 53.9925 42.0783 53.8748C42.0294 53.7571 41.9578 53.6502 41.8675 53.5602L41.3134 53.0042L38.9632 50.654C38.0584 49.7492 37.793 49.1427 37.7426 48.8037C37.7038 48.5324 37.7852 48.3503 37.979 48.1643C38.3936 47.7671 38.69 47.4978 39.0252 47.4164C39.2248 47.366 39.6801 47.3312 40.4977 48.1488L46.3102 53.9613C46.4919 54.1432 46.7383 54.2455 46.9954 54.2457C47.1227 54.2458 47.2488 54.2208 47.3664 54.1721C47.484 54.1235 47.5909 54.0522 47.681 53.9622C47.7711 53.8723 47.8425 53.7655 47.8913 53.6479C47.9401 53.5304 47.9653 53.4043 47.9654 53.2771C47.9655 53.1498 47.9405 53.0237 47.8919 52.9061C47.8432 52.7884 47.7719 52.6815 47.682 52.5915L46.0273 50.9388V44.9597L50.9873 49.9197C51.2575 50.1895 51.4719 50.5099 51.6182 50.8627C51.7644 51.2154 51.8398 51.5935 51.8398 51.9753V65.8711C51.8398 66.128 51.9419 66.3744 52.1236 66.5561C52.3053 66.7378 52.5517 66.8398 52.8086 66.8398C53.0655 66.8398 53.3119 66.7378 53.4936 66.5561C53.6753 66.3744 53.7773 66.128 53.7773 65.8711V51.9753C53.7771 50.6913 53.2669 49.4599 52.3591 48.5518L46.0273 42.22V38.7461C46.0273 37.9753 45.7212 37.2361 45.1761 36.6911C44.6311 36.146 43.8919 35.8398 43.1211 35.8398H29.5586ZM44.0898 42.6211V49.0013L41.8695 46.779C40.7477 45.6591 39.6336 45.2735 38.566 45.5332C38.3563 45.5849 38.1529 45.6596 37.9596 45.756C37.0935 45.5051 36.181 45.4591 35.294 45.6215C34.4071 45.784 33.5701 46.1506 32.8492 46.6922C32.1283 47.2338 31.5433 47.9356 31.1403 48.7422C30.7373 49.5489 30.5275 50.4382 30.5273 51.3398C30.5273 52.4635 30.8529 53.5631 31.4648 54.5055C32.0767 55.4479 32.9486 56.1928 33.975 56.6499C35.0015 57.1071 36.1384 57.2569 37.2483 57.0813C38.3581 56.9057 39.3932 56.4122 40.2284 55.6605C40.2613 56.7803 40.3737 58.0048 40.7573 59.0569C41.0441 59.8455 41.5013 60.5992 42.2376 61.1494L42.2492 61.161C41.6592 61.3466 41.1438 61.7155 40.7779 62.2141C40.4121 62.7128 40.2148 63.3151 40.2148 63.9336V64.9023H32.4648V63.9336C32.4648 63.1628 32.1587 62.4236 31.6136 61.8786C31.0686 61.3335 30.3294 61.0273 29.5586 61.0273H28.5898V41.6523H29.5586C30.3294 41.6523 31.0686 41.3462 31.6136 40.8011C32.1587 40.2561 32.4648 39.5169 32.4648 38.7461V37.7773H40.2148V38.7461C40.2148 39.5169 40.521 40.2561 41.0661 40.8011C41.6111 41.3462 42.3503 41.6523 43.1211 41.6523H44.0898V42.6211ZM44.0898 63.9336V63.951C44.0853 64.2049 43.9812 64.4469 43.8 64.6248C43.6188 64.8027 43.375 64.9024 43.1211 64.9023H42.1523V63.9336C42.1523 63.6767 42.2544 63.4303 42.4361 63.2486C42.6178 63.0669 42.8642 62.9648 43.1211 62.9648H44.0898V63.9336ZM32.4648 51.3398C32.4649 50.3544 32.8403 49.406 33.5148 48.6876C34.1893 47.9691 35.1122 47.5347 36.0957 47.4726C35.8555 47.9182 35.7334 48.4607 35.8264 49.0865C35.964 50.0204 36.5588 50.9911 37.5915 52.0238L39.3488 53.7811C38.8443 54.4028 38.1596 54.8529 37.3889 55.0697C36.6182 55.2864 35.7993 55.2591 35.0447 54.9915C34.2901 54.7239 33.6369 54.2292 33.175 53.5753C32.713 52.9214 32.4649 52.1405 32.4648 51.3398ZM30.5273 37.7773V38.7461C30.5273 39.003 30.4253 39.2494 30.2436 39.4311C30.0619 39.6128 29.8155 39.7148 29.5586 39.7148H28.5898V38.7461C28.5898 38.4892 28.6919 38.2428 28.8736 38.0611C29.0553 37.8794 29.3017 37.7773 29.5586 37.7773H30.5273ZM28.5898 62.9648H29.5586C29.8155 62.9648 30.0619 63.0669 30.2436 63.2486C30.4253 63.4303 30.5273 63.6767 30.5273 63.9336V64.9023H29.5586C29.3017 64.9023 29.0553 64.8003 28.8736 64.6186C28.6919 64.4369 28.5898 64.1905 28.5898 63.9336V62.9648ZM44.0898 39.7148H43.1211C42.8642 39.7148 42.6178 39.6128 42.4361 39.4311C42.2544 39.2494 42.1523 39.003 42.1523 38.7461V37.7773H43.1211C43.378 37.7773 43.6244 37.8794 43.8061 38.0611C43.9878 38.2428 44.0898 38.4892 44.0898 38.7461V39.7148Z" fill="#1900C0"/>
<path d="M174.654 121.003C179.256 121.003 182.987 117.272 182.987 112.669C182.987 108.067 179.256 104.336 174.654 104.336C170.051 104.336 166.32 108.067 166.32 112.669C166.32 117.272 170.051 121.003 174.654 121.003Z" stroke="#1900C0" stroke-width="1.66667"/>
<path d="M173.402 109.336L176.736 112.669L173.402 116.003" stroke="#1900C0" stroke-width="1.66667" stroke-linecap="round" stroke-linejoin="round"/>
<path d="M29.5803 108.812H26.7003V107.768H33.6483V108.812H30.7683V116.168H29.5803V108.812ZM35.739 110.876C35.939 110.508 36.235 110.228 36.627 110.036C37.019 109.844 37.495 109.748 38.055 109.748V110.864C37.991 110.856 37.903 110.852 37.791 110.852C37.167 110.852 36.675 111.04 36.315 111.416C35.963 111.784 35.787 112.312 35.787 113V116.168H34.635V109.808H35.739V110.876ZM41.7791 109.748C42.6591 109.748 43.3311 109.964 43.7951 110.396C44.2671 110.828 44.5031 111.472 44.5031 112.328V116.168H43.4111V115.328C43.2191 115.624 42.9431 115.852 42.5831 116.012C42.2311 116.164 41.8111 116.24 41.3231 116.24C40.6111 116.24 40.0391 116.068 39.6071 115.724C39.1831 115.38 38.9711 114.928 38.9711 114.368C38.9711 113.808 39.1751 113.36 39.5831 113.024C39.9911 112.68 40.6391 112.508 41.5271 112.508H43.3511V112.28C43.3511 111.784 43.2071 111.404 42.9191 111.14C42.6311 110.876 42.2071 110.744 41.6471 110.744C41.2711 110.744 40.9031 110.808 40.5431 110.936C40.1831 111.056 39.8791 111.22 39.6311 111.428L39.1511 110.564C39.4791 110.3 39.8711 110.1 40.3271 109.964C40.7831 109.82 41.2671 109.748 41.7791 109.748ZM41.5151 115.352C41.9551 115.352 42.3351 115.256 42.6551 115.064C42.9751 114.864 43.2071 114.584 43.3511 114.224V113.336H41.5751C40.5991 113.336 40.1111 113.664 40.1111 114.32C40.1111 114.64 40.2351 114.892 40.4831 115.076C40.7311 115.26 41.0751 115.352 41.5151 115.352ZM50.031 109.748C50.839 109.748 51.479 109.984 51.951 110.456C52.431 110.92 52.671 111.604 52.671 112.508V116.168H51.519V112.64C51.519 112.024 51.371 111.56 51.075 111.248C50.779 110.936 50.355 110.78 49.803 110.78C49.179 110.78 48.687 110.964 48.327 111.332C47.967 111.692 47.787 112.212 47.787 112.892V116.168H46.635V109.808H47.739V110.768C47.971 110.44 48.283 110.188 48.675 110.012C49.075 109.836 49.527 109.748 50.031 109.748ZM56.6269 116.24C56.1069 116.24 55.6069 116.172 55.1269 116.036C54.6469 115.892 54.2709 115.712 53.9989 115.496L54.4789 114.584C54.7589 114.784 55.0989 114.944 55.4989 115.064C55.8989 115.184 56.3029 115.244 56.7109 115.244C57.7189 115.244 58.2229 114.956 58.2229 114.38C58.2229 114.188 58.1549 114.036 58.0189 113.924C57.8829 113.812 57.7109 113.732 57.5029 113.684C57.3029 113.628 57.0149 113.568 56.6389 113.504C56.1269 113.424 55.7069 113.332 55.3789 113.228C55.0589 113.124 54.7829 112.948 54.5509 112.7C54.3189 112.452 54.2029 112.104 54.2029 111.656C54.2029 111.08 54.4429 110.62 54.9229 110.276C55.4029 109.924 56.0469 109.748 56.8549 109.748C57.2789 109.748 57.7029 109.8 58.1269 109.904C58.5509 110.008 58.8989 110.148 59.1709 110.324L58.6789 111.236C58.1589 110.9 57.5469 110.732 56.8429 110.732C56.3549 110.732 55.9829 110.812 55.7269 110.972C55.4709 111.132 55.3429 111.344 55.3429 111.608C55.3429 111.816 55.4149 111.98 55.5589 112.1C55.7029 112.22 55.8789 112.308 56.0869 112.364C56.3029 112.42 56.6029 112.484 56.9869 112.556C57.4989 112.644 57.9109 112.74 58.2229 112.844C58.5429 112.94 58.8149 113.108 59.0389 113.348C59.2629 113.588 59.3749 113.924 59.3749 114.356C59.3749 114.932 59.1269 115.392 58.6309 115.736C58.1429 116.072 57.4749 116.24 56.6269 116.24ZM63.1307 109.748C64.0107 109.748 64.6827 109.964 65.1467 110.396C65.6187 110.828 65.8547 111.472 65.8547 112.328V116.168H64.7627V115.328C64.5707 115.624 64.2947 115.852 63.9347 116.012C63.5827 116.164 63.1627 116.24 62.6747 116.24C61.9627 116.24 61.3907 116.068 60.9587 115.724C60.5347 115.38 60.3227 114.928 60.3227 114.368C60.3227 113.808 60.5267 113.36 60.9347 113.024C61.3427 112.68 61.9907 112.508 62.8787 112.508H64.7027V112.28C64.7027 111.784 64.5587 111.404 64.2707 111.14C63.9827 110.876 63.5587 110.744 62.9987 110.744C62.6227 110.744 62.2547 110.808 61.8947 110.936C61.5347 111.056 61.2307 111.22 60.9827 111.428L60.5027 110.564C60.8307 110.3 61.2227 110.1 61.6787 109.964C62.1347 109.82 62.6187 109.748 63.1307 109.748ZM62.8667 115.352C63.3067 115.352 63.6867 115.256 64.0067 115.064C64.3267 114.864 64.5587 114.584 64.7027 114.224V113.336H62.9267C61.9507 113.336 61.4627 113.664 61.4627 114.32C61.4627 114.64 61.5867 114.892 61.8347 115.076C62.0827 115.26 62.4267 115.352 62.8667 115.352ZM70.7937 116.24C70.1457 116.24 69.5657 116.1 69.0537 115.82C68.5497 115.54 68.1537 115.156 67.8657 114.668C67.5777 114.172 67.4337 113.612 67.4337 112.988C67.4337 112.364 67.5777 111.808 67.8657 111.32C68.1537 110.824 68.5497 110.44 69.0537 110.168C69.5657 109.888 70.1457 109.748 70.7937 109.748C71.3697 109.748 71.8817 109.864 72.3297 110.096C72.7857 110.328 73.1377 110.664 73.3857 111.104L72.5097 111.668C72.3097 111.364 72.0617 111.136 71.7657 110.984C71.4697 110.832 71.1417 110.756 70.7817 110.756C70.3657 110.756 69.9897 110.848 69.6537 111.032C69.3257 111.216 69.0657 111.48 68.8737 111.824C68.6897 112.16 68.5977 112.548 68.5977 112.988C68.5977 113.436 68.6897 113.832 68.8737 114.176C69.0657 114.512 69.3257 114.772 69.6537 114.956C69.9897 115.14 70.3657 115.232 70.7817 115.232C71.1417 115.232 71.4697 115.156 71.7657 115.004C72.0617 114.852 72.3097 114.624 72.5097 114.32L73.3857 114.872C73.1377 115.312 72.7857 115.652 72.3297 115.892C71.8817 116.124 71.3697 116.24 70.7937 116.24ZM78.5352 115.796C78.3672 115.94 78.1592 116.052 77.9112 116.132C77.6632 116.204 77.4072 116.24 77.1432 116.24C76.5032 116.24 76.0072 116.068 75.6552 115.724C75.3032 115.38 75.1272 114.888 75.1272 114.248V110.756H74.0472V109.808H75.1272V108.416H76.2792V109.808H78.1032V110.756H76.2792V114.2C76.2792 114.544 76.3632 114.808 76.5312 114.992C76.7072 115.176 76.9552 115.268 77.2752 115.268C77.6272 115.268 77.9272 115.168 78.1752 114.968L78.5352 115.796ZM79.9279 109.808H81.0799V116.168H79.9279V109.808ZM80.5039 108.584C80.2799 108.584 80.0919 108.512 79.9399 108.368C79.7959 108.224 79.7239 108.048 79.7239 107.84C79.7239 107.632 79.7959 107.456 79.9399 107.312C80.0919 107.16 80.2799 107.084 80.5039 107.084C80.7279 107.084 80.9119 107.156 81.0559 107.3C81.2079 107.436 81.2839 107.608 81.2839 107.816C81.2839 108.032 81.2079 108.216 81.0559 108.368C80.9119 108.512 80.7279 108.584 80.5039 108.584ZM86.0035 116.24C85.3715 116.24 84.8035 116.1 84.2995 115.82C83.7955 115.54 83.3995 115.156 83.1115 114.668C82.8315 114.172 82.6915 113.612 82.6915 112.988C82.6915 112.364 82.8315 111.808 83.1115 111.32C83.3995 110.824 83.7955 110.44 84.2995 110.168C84.8035 109.888 85.3715 109.748 86.0035 109.748C86.6355 109.748 87.1995 109.888 87.6955 110.168C88.1995 110.44 88.5915 110.824 88.8715 111.32C89.1595 111.808 89.3035 112.364 89.3035 112.988C89.3035 113.612 89.1595 114.172 88.8715 114.668C88.5915 115.156 88.1995 115.54 87.6955 115.82C87.1995 116.1 86.6355 116.24 86.0035 116.24ZM86.0035 115.232C86.4115 115.232 86.7755 115.14 87.0955 114.956C87.4235 114.764 87.6795 114.5 87.8635 114.164C88.0475 113.82 88.1395 113.428 88.1395 112.988C88.1395 112.548 88.0475 112.16 87.8635 111.824C87.6795 111.48 87.4235 111.216 87.0955 111.032C86.7755 110.848 86.4115 110.756 86.0035 110.756C85.5955 110.756 85.2275 110.848 84.8995 111.032C84.5795 111.216 84.3235 111.48 84.1315 111.824C83.9475 112.16 83.8555 112.548 83.8555 112.988C83.8555 113.428 83.9475 113.82 84.1315 114.164C84.3235 114.5 84.5795 114.764 84.8995 114.956C85.2275 115.14 85.5955 115.232 86.0035 115.232ZM94.2927 109.748C95.1007 109.748 95.7407 109.984 96.2127 110.456C96.6927 110.92 96.9327 111.604 96.9327 112.508V116.168H95.7807V112.64C95.7807 112.024 95.6327 111.56 95.3367 111.248C95.0407 110.936 94.6167 110.78 94.0647 110.78C93.4407 110.78 92.9487 110.964 92.5887 111.332C92.2287 111.692 92.0487 112.212 92.0487 112.892V116.168H90.8967V109.808H92.0007V110.768C92.2327 110.44 92.5447 110.188 92.9367 110.012C93.3367 109.836 93.7887 109.748 94.2927 109.748ZM110.243 116.168L110.231 110.048L107.195 115.148H106.643L103.607 110.084V116.168H102.455V107.768H103.439L106.943 113.672L110.399 107.768H111.383L111.395 116.168H110.243ZM116.064 109.748C116.944 109.748 117.616 109.964 118.08 110.396C118.552 110.828 118.788 111.472 118.788 112.328V116.168H117.696V115.328C117.504 115.624 117.228 115.852 116.868 116.012C116.516 116.164 116.096 116.24 115.608 116.24C114.896 116.24 114.324 116.068 113.892 115.724C113.468 115.38 113.256 114.928 113.256 114.368C113.256 113.808 113.46 113.36 113.868 113.024C114.276 112.68 114.924 112.508 115.812 112.508H117.636V112.28C117.636 111.784 117.492 111.404 117.204 111.14C116.916 110.876 116.492 110.744 115.932 110.744C115.556 110.744 115.188 110.808 114.828 110.936C114.468 111.056 114.164 111.22 113.916 111.428L113.436 110.564C113.764 110.3 114.156 110.1 114.612 109.964C115.068 109.82 115.552 109.748 116.064 109.748ZM115.8 115.352C116.24 115.352 116.62 115.256 116.94 115.064C117.26 114.864 117.492 114.584 117.636 114.224V113.336H115.86C114.884 113.336 114.396 113.664 114.396 114.32C114.396 114.64 114.52 114.892 114.768 115.076C115.016 115.26 115.36 115.352 115.8 115.352ZM122.744 116.24C122.224 116.24 121.724 116.172 121.244 116.036C120.764 115.892 120.388 115.712 120.116 115.496L120.596 114.584C120.876 114.784 121.216 114.944 121.616 115.064C122.016 115.184 122.42 115.244 122.828 115.244C123.836 115.244 124.34 114.956 124.34 114.38C124.34 114.188 124.272 114.036 124.136 113.924C124 113.812 123.828 113.732 123.62 113.684C123.42 113.628 123.132 113.568 122.756 113.504C122.244 113.424 121.824 113.332 121.496 113.228C121.176 113.124 120.9 112.948 120.668 112.7C120.436 112.452 120.32 112.104 120.32 111.656C120.32 111.08 120.56 110.62 121.04 110.276C121.52 109.924 122.164 109.748 122.972 109.748C123.396 109.748 123.82 109.8 124.244 109.904C124.668 110.008 125.016 110.148 125.288 110.324L124.796 111.236C124.276 110.9 123.664 110.732 122.96 110.732C122.472 110.732 122.1 110.812 121.844 110.972C121.588 111.132 121.46 111.344 121.46 111.608C121.46 111.816 121.532 111.98 121.676 112.1C121.82 112.22 121.996 112.308 122.204 112.364C122.42 112.42 122.72 112.484 123.104 112.556C123.616 112.644 124.028 112.74 124.34 112.844C124.66 112.94 124.932 113.108 125.156 113.348C125.38 113.588 125.492 113.924 125.492 114.356C125.492 114.932 125.244 115.392 124.748 115.736C124.26 116.072 123.592 116.24 122.744 116.24ZM130.508 115.796C130.34 115.94 130.132 116.052 129.884 116.132C129.636 116.204 129.38 116.24 129.116 116.24C128.476 116.24 127.98 116.068 127.628 115.724C127.276 115.38 127.1 114.888 127.1 114.248V110.756H126.02V109.808H127.1V108.416H128.252V109.808H130.076V110.756H128.252V114.2C128.252 114.544 128.336 114.808 128.504 114.992C128.68 115.176 128.928 115.268 129.248 115.268C129.6 115.268 129.9 115.168 130.148 114.968L130.508 115.796ZM137.438 113.024C137.438 113.112 137.43 113.228 137.414 113.372H132.254C132.326 113.932 132.57 114.384 132.986 114.728C133.41 115.064 133.934 115.232 134.558 115.232C135.318 115.232 135.93 114.976 136.394 114.464L137.03 115.208C136.742 115.544 136.382 115.8 135.95 115.976C135.526 116.152 135.05 116.24 134.522 116.24C133.85 116.24 133.254 116.104 132.734 115.832C132.214 115.552 131.81 115.164 131.522 114.668C131.242 114.172 131.102 113.612 131.102 112.988C131.102 112.372 131.238 111.816 131.51 111.32C131.79 110.824 132.17 110.44 132.65 110.168C133.138 109.888 133.686 109.748 134.294 109.748C134.902 109.748 135.442 109.888 135.914 110.168C136.394 110.44 136.766 110.824 137.03 111.32C137.302 111.816 137.438 112.384 137.438 113.024ZM134.294 110.72C133.742 110.72 133.278 110.888 132.902 111.224C132.534 111.56 132.318 112 132.254 112.544H136.334C136.27 112.008 136.05 111.572 135.674 111.236C135.306 110.892 134.846 110.72 134.294 110.72ZM140.141 110.876C140.341 110.508 140.637 110.228 141.029 110.036C141.421 109.844 141.897 109.748 142.457 109.748V110.864C142.393 110.856 142.305 110.852 142.193 110.852C141.569 110.852 141.077 111.04 140.717 111.416C140.365 111.784 140.189 112.312 140.189 113V116.168H139.037V109.808H140.141V110.876Z" fill="#6F6F6F"/>
<line x1="27.1211" y1="82.168" x2="172.184" y2="82.168" stroke="#EEEEEE"/>
</svg>
