<svg width="292" height="72" viewBox="0 0 292 72" fill="none" xmlns="http://www.w3.org/2000/svg">
<rect x="1.66797" y="31" width="83.3982" height="7" rx="3.5" fill="#FF0BA3"/>
<rect x="43.3633" y="31" width="88.304" height="7" rx="3.5" fill="#F7BF21"/>
<path d="M4.67234 19.8828L1.07234 5.28281H4.45234L7.27234 17.6828L6.57234 17.2228H8.39234L7.61234 17.6828L9.79234 5.82281H12.5123L9.65234 19.8828H4.67234ZM13.3723 19.8828L10.2923 5.82281H13.1523L15.6723 17.6828L14.9123 17.2228H16.6523L15.9923 17.6828L18.4523 5.28281H21.6523L18.4523 19.8828H13.3723ZM28.0308 20.2628C27.0974 20.2628 26.2708 20.1028 25.5508 19.7828C24.8441 19.4628 24.2508 19.0361 23.7708 18.5028C23.3041 17.9561 22.9441 17.3495 22.6908 16.6828C22.4508 16.0028 22.3308 15.3095 22.3308 14.6028V14.2028C22.3308 13.4695 22.4508 12.7695 22.6908 12.1028C22.9441 11.4228 23.3041 10.8161 23.7708 10.2828C24.2374 9.74948 24.8174 9.32948 25.5108 9.02281C26.2174 8.70281 27.0174 8.54281 27.9108 8.54281C29.0841 8.54281 30.0708 8.80948 30.8708 9.34281C31.6841 9.86281 32.3041 10.5495 32.7308 11.4028C33.1574 12.2428 33.3708 13.1628 33.3708 14.1628V15.2428H23.6708V13.4228H31.4308L30.3908 14.2628C30.3908 13.6095 30.2974 13.0495 30.1108 12.5828C29.9241 12.1161 29.6441 11.7628 29.2708 11.5228C28.9108 11.2695 28.4574 11.1428 27.9108 11.1428C27.3508 11.1428 26.8774 11.2695 26.4908 11.5228C26.1041 11.7761 25.8108 12.1495 25.6108 12.6428C25.4108 13.1228 25.3108 13.7161 25.3108 14.4228C25.3108 15.0761 25.4041 15.6495 25.5908 16.1428C25.7774 16.6228 26.0708 16.9961 26.4708 17.2628C26.8708 17.5295 27.3908 17.6628 28.0308 17.6628C28.6174 17.6628 29.0974 17.5495 29.4708 17.3228C29.8441 17.0961 30.0974 16.8161 30.2308 16.4828H33.1708C33.0108 17.2161 32.6974 17.8695 32.2308 18.4428C31.7641 19.0161 31.1774 19.4628 30.4708 19.7828C29.7641 20.1028 28.9508 20.2628 28.0308 20.2628ZM35.6313 19.8828V5.28281H38.8513V19.8828H35.6313ZM34.3313 7.64281V5.28281H38.8513V7.64281H34.3313ZM46.7198 20.2628C45.7732 20.2628 44.9465 20.1095 44.2398 19.8028C43.5465 19.4828 42.9665 19.0561 42.4998 18.5228C42.0332 17.9895 41.6865 17.3895 41.4598 16.7228C41.2332 16.0428 41.1198 15.3428 41.1198 14.6228V14.2428C41.1198 13.4961 41.2398 12.7828 41.4798 12.1028C41.7198 11.4095 42.0732 10.7961 42.5398 10.2628C43.0065 9.72948 43.5865 9.30948 44.2798 9.00281C44.9865 8.69615 45.7932 8.54281 46.6998 8.54281C47.6865 8.54281 48.5598 8.73615 49.3198 9.12281C50.0798 9.49614 50.6865 10.0228 51.1398 10.7028C51.5932 11.3828 51.8465 12.1628 51.8998 13.0428H48.7598C48.7065 12.5495 48.5065 12.1361 48.1598 11.8028C47.8265 11.4561 47.3398 11.2828 46.6998 11.2828C46.1665 11.2828 45.7198 11.4161 45.3598 11.6828C45.0132 11.9495 44.7532 12.3161 44.5798 12.7828C44.4065 13.2495 44.3198 13.8028 44.3198 14.4428C44.3198 15.0295 44.3998 15.5628 44.5598 16.0428C44.7198 16.5095 44.9732 16.8761 45.3198 17.1428C45.6798 17.3961 46.1465 17.5228 46.7198 17.5228C47.1465 17.5228 47.5065 17.4495 47.7998 17.3028C48.1065 17.1428 48.3465 16.9295 48.5198 16.6628C48.7065 16.3828 48.8198 16.0628 48.8598 15.7028H51.9798C51.9398 16.6095 51.6865 17.4095 51.2198 18.1028C50.7532 18.7828 50.1332 19.3161 49.3598 19.7028C48.5865 20.0761 47.7065 20.2628 46.7198 20.2628ZM59.3664 20.2628C58.4064 20.2628 57.5531 20.1161 56.8064 19.8228C56.0597 19.5161 55.4264 19.1028 54.9064 18.5828C54.3997 18.0628 54.0131 17.4695 53.7464 16.8028C53.4797 16.1228 53.3464 15.4095 53.3464 14.6628V14.2028C53.3464 13.4428 53.4797 12.7228 53.7464 12.0428C54.0264 11.3495 54.4264 10.7428 54.9464 10.2228C55.4797 9.70281 56.1197 9.29615 56.8664 9.00281C57.6131 8.69615 58.4464 8.54281 59.3664 8.54281C60.3131 8.54281 61.1531 8.69615 61.8864 9.00281C62.6331 9.29615 63.2664 9.70281 63.7864 10.2228C64.3064 10.7428 64.7064 11.3495 64.9864 12.0428C65.2664 12.7228 65.4064 13.4428 65.4064 14.2028V14.6628C65.4064 15.4095 65.2731 16.1228 65.0064 16.8028C64.7397 17.4695 64.3464 18.0628 63.8264 18.5828C63.3197 19.1028 62.6931 19.5161 61.9464 19.8228C61.1997 20.1161 60.3397 20.2628 59.3664 20.2628ZM59.3664 17.5628C59.9931 17.5628 60.5131 17.4295 60.9264 17.1628C61.3397 16.8961 61.6531 16.5228 61.8664 16.0428C62.0931 15.5628 62.2064 15.0295 62.2064 14.4428C62.2064 13.8161 62.0931 13.2695 61.8664 12.8028C61.6397 12.3228 61.3131 11.9428 60.8864 11.6628C60.4731 11.3828 59.9664 11.2428 59.3664 11.2428C58.7797 11.2428 58.2731 11.3828 57.8464 11.6628C57.4197 11.9428 57.0931 12.3228 56.8664 12.8028C56.6531 13.2695 56.5464 13.8161 56.5464 14.4428C56.5464 15.0295 56.6531 15.5628 56.8664 16.0428C57.0797 16.5228 57.3997 16.8961 57.8264 17.1628C58.2531 17.4295 58.7664 17.5628 59.3664 17.5628ZM67.6397 19.8828V8.92281H70.1797V13.6428H69.9997C69.9997 12.5228 70.1397 11.5895 70.4197 10.8428C70.6997 10.0961 71.1197 9.53615 71.6797 9.16281C72.2397 8.77615 72.9264 8.58281 73.7397 8.58281H73.8797C74.7064 8.58281 75.393 8.77615 75.9397 9.16281C76.4997 9.53615 76.9197 10.0961 77.1997 10.8428C77.493 11.5895 77.6397 12.5228 77.6397 13.6428H76.8597C76.8597 12.5228 76.9997 11.5895 77.2797 10.8428C77.573 10.0961 77.9997 9.53615 78.5597 9.16281C79.1197 8.77615 79.8064 8.58281 80.6197 8.58281H80.7597C81.5864 8.58281 82.2797 8.77615 82.8397 9.16281C83.413 9.53615 83.8464 10.0961 84.1397 10.8428C84.433 11.5895 84.5797 12.5228 84.5797 13.6428V19.8828H81.3797V13.4628C81.3797 12.8628 81.2197 12.3761 80.8997 12.0028C80.593 11.6295 80.153 11.4428 79.5797 11.4428C79.0064 11.4428 78.553 11.6361 78.2197 12.0228C77.8864 12.3961 77.7197 12.8961 77.7197 13.5228V19.8828H74.4997V13.4628C74.4997 12.8628 74.3397 12.3761 74.0197 12.0028C73.713 11.6295 73.2797 11.4428 72.7197 11.4428C72.133 11.4428 71.673 11.6361 71.3397 12.0228C71.0064 12.3961 70.8397 12.8961 70.8397 13.5228V19.8828H67.6397ZM92.3277 20.2628C91.3943 20.2628 90.5677 20.1028 89.8477 19.7828C89.141 19.4628 88.5477 19.0361 88.0677 18.5028C87.601 17.9561 87.241 17.3495 86.9877 16.6828C86.7477 16.0028 86.6277 15.3095 86.6277 14.6028V14.2028C86.6277 13.4695 86.7477 12.7695 86.9877 12.1028C87.241 11.4228 87.601 10.8161 88.0677 10.2828C88.5343 9.74948 89.1143 9.32948 89.8077 9.02281C90.5143 8.70281 91.3143 8.54281 92.2077 8.54281C93.381 8.54281 94.3677 8.80948 95.1677 9.34281C95.981 9.86281 96.601 10.5495 97.0277 11.4028C97.4543 12.2428 97.6677 13.1628 97.6677 14.1628V15.2428H87.9677V13.4228H95.7277L94.6877 14.2628C94.6877 13.6095 94.5943 13.0495 94.4077 12.5828C94.221 12.1161 93.941 11.7628 93.5677 11.5228C93.2077 11.2695 92.7543 11.1428 92.2077 11.1428C91.6477 11.1428 91.1743 11.2695 90.7877 11.5228C90.401 11.7761 90.1077 12.1495 89.9077 12.6428C89.7077 13.1228 89.6077 13.7161 89.6077 14.4228C89.6077 15.0761 89.701 15.6495 89.8877 16.1428C90.0743 16.6228 90.3677 16.9961 90.7677 17.2628C91.1677 17.5295 91.6877 17.6628 92.3277 17.6628C92.9143 17.6628 93.3943 17.5495 93.7677 17.3228C94.141 17.0961 94.3943 16.8161 94.5277 16.4828H97.4677C97.3077 17.2161 96.9943 17.8695 96.5277 18.4428C96.061 19.0161 95.4743 19.4628 94.7677 19.7828C94.061 20.1028 93.2477 20.2628 92.3277 20.2628ZM108.967 20.0228C107.861 20.0228 106.967 19.8895 106.287 19.6228C105.607 19.3428 105.107 18.8828 104.787 18.2428C104.481 17.5895 104.327 16.7095 104.327 15.6028V5.96281H107.307V15.7228C107.307 16.2428 107.441 16.6428 107.707 16.9228C107.987 17.1895 108.381 17.3228 108.887 17.3228H110.507V20.0228H108.967ZM102.667 11.2628V8.92281H110.507V11.2628H102.667ZM117.96 20.2628C117 20.2628 116.147 20.1161 115.4 19.8228C114.653 19.5161 114.02 19.1028 113.5 18.5828C112.993 18.0628 112.607 17.4695 112.34 16.8028C112.073 16.1228 111.94 15.4095 111.94 14.6628V14.2028C111.94 13.4428 112.073 12.7228 112.34 12.0428C112.62 11.3495 113.02 10.7428 113.54 10.2228C114.073 9.70281 114.713 9.29615 115.46 9.00281C116.207 8.69615 117.04 8.54281 117.96 8.54281C118.907 8.54281 119.747 8.69615 120.48 9.00281C121.227 9.29615 121.86 9.70281 122.38 10.2228C122.9 10.7428 123.3 11.3495 123.58 12.0428C123.86 12.7228 124 13.4428 124 14.2028V14.6628C124 15.4095 123.867 16.1228 123.6 16.8028C123.333 17.4695 122.94 18.0628 122.42 18.5828C121.913 19.1028 121.287 19.5161 120.54 19.8228C119.793 20.1161 118.933 20.2628 117.96 20.2628ZM117.96 17.5628C118.587 17.5628 119.107 17.4295 119.52 17.1628C119.933 16.8961 120.247 16.5228 120.46 16.0428C120.687 15.5628 120.8 15.0295 120.8 14.4428C120.8 13.8161 120.687 13.2695 120.46 12.8028C120.233 12.3228 119.907 11.9428 119.48 11.6628C119.067 11.3828 118.56 11.2428 117.96 11.2428C117.373 11.2428 116.867 11.3828 116.44 11.6628C116.013 11.9428 115.687 12.3228 115.46 12.8028C115.247 13.2695 115.14 13.8161 115.14 14.4428C115.14 15.0295 115.247 15.5628 115.46 16.0428C115.673 16.5228 115.993 16.8961 116.42 17.1628C116.847 17.4295 117.36 17.5628 117.96 17.5628ZM135.413 20.0228C134.306 20.0228 133.413 19.8895 132.733 19.6228C132.053 19.3428 131.553 18.8828 131.233 18.2428C130.926 17.5895 130.773 16.7095 130.773 15.6028V5.96281H133.753V15.7228C133.753 16.2428 133.886 16.6428 134.153 16.9228C134.433 17.1895 134.826 17.3228 135.333 17.3228H136.953V20.0228H135.413ZM129.113 11.2628V8.92281H136.953V11.2628H129.113ZM139.105 19.8828V5.28281H142.305V13.7028H141.825C141.825 12.5961 141.965 11.6628 142.245 10.9028C142.525 10.1428 142.938 9.56948 143.485 9.18281C144.031 8.78281 144.718 8.58281 145.545 8.58281H145.685C146.898 8.58281 147.825 9.01615 148.465 9.88281C149.105 10.7361 149.425 11.9895 149.425 13.6428V19.8828H146.225V13.4428C146.225 12.8428 146.045 12.3628 145.685 12.0028C145.338 11.6295 144.878 11.4428 144.305 11.4428C143.705 11.4428 143.218 11.6361 142.845 12.0228C142.485 12.4095 142.305 12.9228 142.305 13.5628V19.8828H139.105ZM157.171 20.2628C156.238 20.2628 155.411 20.1028 154.691 19.7828C153.985 19.4628 153.391 19.0361 152.911 18.5028C152.445 17.9561 152.085 17.3495 151.831 16.6828C151.591 16.0028 151.471 15.3095 151.471 14.6028V14.2028C151.471 13.4695 151.591 12.7695 151.831 12.1028C152.085 11.4228 152.445 10.8161 152.911 10.2828C153.378 9.74948 153.958 9.32948 154.651 9.02281C155.358 8.70281 156.158 8.54281 157.051 8.54281C158.225 8.54281 159.211 8.80948 160.011 9.34281C160.825 9.86281 161.445 10.5495 161.871 11.4028C162.298 12.2428 162.511 13.1628 162.511 14.1628V15.2428H152.811V13.4228H160.571L159.531 14.2628C159.531 13.6095 159.438 13.0495 159.251 12.5828C159.065 12.1161 158.785 11.7628 158.411 11.5228C158.051 11.2695 157.598 11.1428 157.051 11.1428C156.491 11.1428 156.018 11.2695 155.631 11.5228C155.245 11.7761 154.951 12.1495 154.751 12.6428C154.551 13.1228 154.451 13.7161 154.451 14.4228C154.451 15.0761 154.545 15.6495 154.731 16.1428C154.918 16.6228 155.211 16.9961 155.611 17.2628C156.011 17.5295 156.531 17.6628 157.171 17.6628C157.758 17.6628 158.238 17.5495 158.611 17.3228C158.985 17.0961 159.238 16.8161 159.371 16.4828H162.311C162.151 17.2161 161.838 17.8695 161.371 18.4428C160.905 19.0161 160.318 19.4628 159.611 19.7828C158.905 20.1028 158.091 20.2628 157.171 20.2628ZM171.891 19.9628V16.9028H174.611C175.291 16.9028 175.904 16.8028 176.451 16.6028C176.998 16.3895 177.464 16.0961 177.851 15.7228C178.238 15.3361 178.531 14.8761 178.731 14.3428C178.931 13.7961 179.031 13.1961 179.031 12.5428C179.031 11.8628 178.931 11.2561 178.731 10.7228C178.531 10.1895 178.238 9.73615 177.851 9.36281C177.464 8.98948 176.998 8.70948 176.451 8.52281C175.904 8.32281 175.291 8.22281 174.611 8.22281H171.891V5.16281H174.431C175.751 5.16281 176.904 5.35614 177.891 5.74281C178.878 6.12948 179.704 6.65615 180.371 7.32281C181.038 7.98948 181.531 8.75615 181.851 9.62281C182.184 10.4761 182.351 11.3761 182.351 12.3228V12.7628C182.351 13.6428 182.184 14.5161 181.851 15.3828C181.531 16.2361 181.038 17.0095 180.371 17.7028C179.704 18.3828 178.878 18.9295 177.891 19.3428C176.904 19.7561 175.751 19.9628 174.431 19.9628H171.891ZM169.011 19.9628V5.16281H172.291V19.9628H169.011ZM191.076 19.8828V16.6428H190.536V13.1228C190.536 12.5628 190.403 12.1428 190.136 11.8628C189.869 11.5828 189.443 11.4428 188.856 11.4428C188.563 11.4428 188.176 11.4495 187.696 11.4628C187.216 11.4761 186.723 11.4961 186.216 11.5228C185.709 11.5495 185.249 11.5761 184.836 11.6028V8.90281C185.143 8.87615 185.503 8.84948 185.916 8.82281C186.329 8.79615 186.756 8.77615 187.196 8.76281C187.636 8.74948 188.049 8.74281 188.436 8.74281C189.556 8.74281 190.496 8.90281 191.256 9.22281C192.029 9.54281 192.616 10.0295 193.016 10.6828C193.416 11.3228 193.616 12.1495 193.616 13.1628V19.8828H191.076ZM187.576 20.1628C186.789 20.1628 186.096 20.0228 185.496 19.7428C184.909 19.4628 184.449 19.0628 184.116 18.5428C183.783 18.0095 183.616 17.3761 183.616 16.6428C183.616 15.8428 183.823 15.1895 184.236 14.6828C184.649 14.1628 185.229 13.7828 185.976 13.5428C186.723 13.2895 187.583 13.1628 188.556 13.1628H190.896V14.9428H188.536C187.976 14.9428 187.543 15.0828 187.236 15.3628C186.943 15.6295 186.796 15.9961 186.796 16.4628C186.796 16.9028 186.943 17.2628 187.236 17.5428C187.543 17.8095 187.976 17.9428 188.536 17.9428C188.896 17.9428 189.216 17.8828 189.496 17.7628C189.789 17.6295 190.029 17.4095 190.216 17.1028C190.403 16.7961 190.509 16.3695 190.536 15.8228L191.296 16.6228C191.229 17.3828 191.043 18.0228 190.736 18.5428C190.443 19.0628 190.029 19.4628 189.496 19.7428C188.976 20.0228 188.336 20.1628 187.576 20.1628ZM200.491 20.2228C198.931 20.2228 197.711 19.9028 196.831 19.2628C195.951 18.6228 195.484 17.7228 195.431 16.5628H198.271C198.324 16.9095 198.531 17.2228 198.891 17.5028C199.264 17.7695 199.818 17.9028 200.551 17.9028C201.111 17.9028 201.571 17.8095 201.931 17.6228C202.304 17.4228 202.491 17.1428 202.491 16.7828C202.491 16.4628 202.351 16.2095 202.071 16.0228C201.791 15.8228 201.291 15.6828 200.571 15.6028L199.711 15.5228C198.391 15.3895 197.398 15.0228 196.731 14.4228C196.078 13.8228 195.751 13.0561 195.751 12.1228C195.751 11.3495 195.944 10.7028 196.331 10.1828C196.718 9.66281 197.251 9.26948 197.931 9.00281C198.624 8.73615 199.411 8.60281 200.291 8.60281C201.704 8.60281 202.844 8.91615 203.711 9.54281C204.578 10.1561 205.031 11.0495 205.071 12.2228H202.231C202.178 11.8628 201.991 11.5628 201.671 11.3228C201.351 11.0695 200.878 10.9428 200.251 10.9428C199.758 10.9428 199.364 11.0361 199.071 11.2228C198.778 11.4095 198.631 11.6628 198.631 11.9828C198.631 12.2895 198.758 12.5228 199.011 12.6828C199.264 12.8428 199.678 12.9561 200.251 13.0228L201.111 13.1028C202.458 13.2495 203.504 13.6228 204.251 14.2228C204.998 14.8228 205.371 15.6295 205.371 16.6428C205.371 17.3761 205.171 18.0161 204.771 18.5628C204.371 19.0961 203.804 19.5095 203.071 19.8028C202.338 20.0828 201.478 20.2228 200.491 20.2228ZM207.444 19.8828V5.28281H210.644V13.7028H210.164C210.164 12.5961 210.304 11.6628 210.584 10.9028C210.864 10.1428 211.278 9.56948 211.824 9.18281C212.371 8.78281 213.058 8.58281 213.884 8.58281H214.024C215.238 8.58281 216.164 9.01615 216.804 9.88281C217.444 10.7361 217.764 11.9895 217.764 13.6428V19.8828H214.564V13.4428C214.564 12.8428 214.384 12.3628 214.024 12.0028C213.678 11.6295 213.218 11.4428 212.644 11.4428C212.044 11.4428 211.558 11.6361 211.184 12.0228C210.824 12.4095 210.644 12.9228 210.644 13.5628V19.8828H207.444ZM227.231 20.2428C226.338 20.2428 225.551 20.0561 224.871 19.6828C224.191 19.2961 223.658 18.7428 223.271 18.0228C222.885 17.3028 222.678 16.4228 222.651 15.3828H223.031V19.8828H220.491V5.28281H223.691V12.7028L222.931 13.6628C222.971 12.5561 223.178 11.6295 223.551 10.8828C223.938 10.1228 224.465 9.55615 225.131 9.18281C225.798 8.79615 226.558 8.60281 227.411 8.60281C228.158 8.60281 228.831 8.74281 229.431 9.02281C230.045 9.28948 230.565 9.67615 230.991 10.1828C231.418 10.6761 231.745 11.2628 231.971 11.9428C232.211 12.6228 232.331 13.3628 232.331 14.1628V14.6028C232.331 15.4028 232.211 16.1428 231.971 16.8228C231.745 17.5028 231.405 18.1028 230.951 18.6228C230.511 19.1295 229.978 19.5295 229.351 19.8228C228.725 20.1028 228.018 20.2428 227.231 20.2428ZM226.391 17.5628C226.938 17.5628 227.411 17.4295 227.811 17.1628C228.225 16.8961 228.545 16.5228 228.771 16.0428C228.998 15.5495 229.111 14.9961 229.111 14.3828C229.111 13.7561 228.998 13.2095 228.771 12.7428C228.545 12.2761 228.225 11.9161 227.811 11.6628C227.411 11.3961 226.938 11.2628 226.391 11.2628C225.911 11.2628 225.458 11.3761 225.031 11.6028C224.605 11.8295 224.258 12.1561 223.991 12.5828C223.738 12.9961 223.611 13.5028 223.611 14.1028V14.8428C223.611 15.4161 223.745 15.9095 224.011 16.3228C224.291 16.7228 224.645 17.0295 225.071 17.2428C225.498 17.4561 225.938 17.5628 226.391 17.5628ZM239.894 20.2628C238.934 20.2628 238.08 20.1161 237.334 19.8228C236.587 19.5161 235.954 19.1028 235.434 18.5828C234.927 18.0628 234.54 17.4695 234.274 16.8028C234.007 16.1228 233.874 15.4095 233.874 14.6628V14.2028C233.874 13.4428 234.007 12.7228 234.274 12.0428C234.554 11.3495 234.954 10.7428 235.474 10.2228C236.007 9.70281 236.647 9.29615 237.394 9.00281C238.14 8.69615 238.974 8.54281 239.894 8.54281C240.84 8.54281 241.68 8.69615 242.414 9.00281C243.16 9.29615 243.794 9.70281 244.314 10.2228C244.834 10.7428 245.234 11.3495 245.514 12.0428C245.794 12.7228 245.934 13.4428 245.934 14.2028V14.6628C245.934 15.4095 245.8 16.1228 245.534 16.8028C245.267 17.4695 244.874 18.0628 244.354 18.5828C243.847 19.1028 243.22 19.5161 242.474 19.8228C241.727 20.1161 240.867 20.2628 239.894 20.2628ZM239.894 17.5628C240.52 17.5628 241.04 17.4295 241.454 17.1628C241.867 16.8961 242.18 16.5228 242.394 16.0428C242.62 15.5628 242.734 15.0295 242.734 14.4428C242.734 13.8161 242.62 13.2695 242.394 12.8028C242.167 12.3228 241.84 11.9428 241.414 11.6628C241 11.3828 240.494 11.2428 239.894 11.2428C239.307 11.2428 238.8 11.3828 238.374 11.6628C237.947 11.9428 237.62 12.3228 237.394 12.8028C237.18 13.2695 237.074 13.8161 237.074 14.4428C237.074 15.0295 237.18 15.5628 237.394 16.0428C237.607 16.5228 237.927 16.8961 238.354 17.1628C238.78 17.4295 239.294 17.5628 239.894 17.5628ZM254.787 19.8828V16.6428H254.247V13.1228C254.247 12.5628 254.114 12.1428 253.847 11.8628C253.58 11.5828 253.154 11.4428 252.567 11.4428C252.274 11.4428 251.887 11.4495 251.407 11.4628C250.927 11.4761 250.434 11.4961 249.927 11.5228C249.42 11.5495 248.96 11.5761 248.547 11.6028V8.90281C248.854 8.87615 249.214 8.84948 249.627 8.82281C250.04 8.79615 250.467 8.77615 250.907 8.76281C251.347 8.74948 251.76 8.74281 252.147 8.74281C253.267 8.74281 254.207 8.90281 254.967 9.22281C255.74 9.54281 256.327 10.0295 256.727 10.6828C257.127 11.3228 257.327 12.1495 257.327 13.1628V19.8828H254.787ZM251.287 20.1628C250.5 20.1628 249.807 20.0228 249.207 19.7428C248.62 19.4628 248.16 19.0628 247.827 18.5428C247.494 18.0095 247.327 17.3761 247.327 16.6428C247.327 15.8428 247.534 15.1895 247.947 14.6828C248.36 14.1628 248.94 13.7828 249.687 13.5428C250.434 13.2895 251.294 13.1628 252.267 13.1628H254.607V14.9428H252.247C251.687 14.9428 251.254 15.0828 250.947 15.3628C250.654 15.6295 250.507 15.9961 250.507 16.4628C250.507 16.9028 250.654 17.2628 250.947 17.5428C251.254 17.8095 251.687 17.9428 252.247 17.9428C252.607 17.9428 252.927 17.8828 253.207 17.7628C253.5 17.6295 253.74 17.4095 253.927 17.1028C254.114 16.7961 254.22 16.3695 254.247 15.8228L255.007 16.6228C254.94 17.3828 254.754 18.0228 254.447 18.5428C254.154 19.0628 253.74 19.4628 253.207 19.7428C252.687 20.0228 252.047 20.1628 251.287 20.1628ZM260.042 19.8828V8.92281H262.582V13.6228H262.522C262.522 12.0761 262.849 10.8828 263.502 10.0428C264.169 9.20281 265.129 8.78281 266.382 8.78281H266.802V11.5428H266.002C265.122 11.5428 264.442 11.7828 263.962 12.2628C263.482 12.7295 263.242 13.4095 263.242 14.3028V19.8828H260.042ZM272.921 20.2428C272.148 20.2428 271.441 20.1028 270.801 19.8228C270.175 19.5428 269.628 19.1561 269.161 18.6628C268.695 18.1561 268.335 17.5628 268.081 16.8828C267.841 16.2028 267.721 15.4695 267.721 14.6828V14.2228C267.721 13.4361 267.835 12.7028 268.061 12.0228C268.301 11.3428 268.641 10.7495 269.081 10.2428C269.535 9.72281 270.075 9.32281 270.701 9.04281C271.328 8.74948 272.028 8.60281 272.801 8.60281C273.681 8.60281 274.441 8.79615 275.081 9.18281C275.721 9.55615 276.221 10.1161 276.581 10.8628C276.941 11.5961 277.141 12.5028 277.181 13.5828L276.341 12.8028V5.28281H279.561V19.8828H277.021V15.3428H277.461C277.421 16.3828 277.201 17.2695 276.801 18.0028C276.415 18.7361 275.888 19.2961 275.221 19.6828C274.555 20.0561 273.788 20.2428 272.921 20.2428ZM273.721 17.5628C274.215 17.5628 274.661 17.4561 275.061 17.2428C275.475 17.0161 275.801 16.6895 276.041 16.2628C276.295 15.8361 276.421 15.3228 276.421 14.7228V13.9828C276.421 13.3961 276.295 12.9028 276.041 12.5028C275.788 12.1028 275.455 11.7961 275.041 11.5828C274.628 11.3695 274.181 11.2628 273.701 11.2628C273.168 11.2628 272.688 11.4028 272.261 11.6828C271.848 11.9495 271.521 12.3228 271.281 12.8028C271.041 13.2695 270.921 13.8161 270.921 14.4428C270.921 15.0828 271.041 15.6361 271.281 16.1028C271.521 16.5695 271.855 16.9295 272.281 17.1828C272.708 17.4361 273.188 17.5628 273.721 17.5628ZM286.743 14.9428V5.28281H290.023V14.9428H286.743ZM286.503 19.8828V16.6628H290.263V19.8828H286.503Z" fill="#1900C0"/>
<path d="M2.12234 59.0828H3.52234V67.6648H8.82834V68.8828H2.12234V59.0828ZM16.8491 65.2148C16.8491 65.3175 16.8398 65.4528 16.8211 65.6208H10.8011C10.8851 66.2741 11.1698 66.8015 11.6551 67.2028C12.1498 67.5948 12.7611 67.7908 13.4891 67.7908C14.3758 67.7908 15.0898 67.4921 15.6311 66.8948L16.3731 67.7628C16.0371 68.1548 15.6171 68.4535 15.1131 68.6588C14.6185 68.8641 14.0631 68.9668 13.4471 68.9668C12.6631 68.9668 11.9678 68.8081 11.3611 68.4908C10.7545 68.1641 10.2831 67.7115 9.94714 67.1328C9.62047 66.5541 9.45714 65.9008 9.45714 65.1728C9.45714 64.4541 9.61581 63.8055 9.93314 63.2268C10.2598 62.6481 10.7031 62.2001 11.2631 61.8828C11.8325 61.5561 12.4718 61.3928 13.1811 61.3928C13.8905 61.3928 14.5205 61.5561 15.0711 61.8828C15.6311 62.2001 16.0651 62.6481 16.3731 63.2268C16.6905 63.8055 16.8491 64.4681 16.8491 65.2148ZM13.1811 62.5268C12.5371 62.5268 11.9958 62.7228 11.5571 63.1148C11.1278 63.5068 10.8758 64.0201 10.8011 64.6548H15.5611C15.4865 64.0295 15.2298 63.5208 14.7911 63.1288C14.3618 62.7275 13.8251 62.5268 13.1811 62.5268ZM22.8874 68.4488C22.6914 68.6168 22.4487 68.7475 22.1594 68.8408C21.8701 68.9248 21.5714 68.9668 21.2634 68.9668C20.5167 68.9668 19.9381 68.7661 19.5274 68.3648C19.1167 67.9635 18.9114 67.3895 18.9114 66.6428V62.5688H17.6514V61.4628H18.9114V59.8388H20.2554V61.4628H22.3834V62.5688H20.2554V66.5868C20.2554 66.9881 20.3534 67.2961 20.5494 67.5108C20.7547 67.7255 21.0441 67.8328 21.4174 67.8328C21.8281 67.8328 22.1781 67.7161 22.4674 67.4828L22.8874 68.4488ZM24.8483 58.4108C25.1096 58.4108 25.3243 58.5041 25.4923 58.6908C25.6696 58.8681 25.7583 59.0921 25.7583 59.3628C25.7583 59.5028 25.7443 59.6428 25.7163 59.7828C25.6883 59.9135 25.6276 60.1048 25.5343 60.3568L24.8623 62.3168H23.9803L24.4983 60.2308C24.3209 60.1655 24.1763 60.0581 24.0643 59.9088C23.9616 59.7501 23.9103 59.5681 23.9103 59.3628C23.9103 59.0828 23.9989 58.8541 24.1763 58.6768C24.3536 58.4995 24.5776 58.4108 24.8483 58.4108ZM29.5797 68.9668C28.9731 68.9668 28.3897 68.8875 27.8297 68.7288C27.2697 68.5608 26.8311 68.3508 26.5137 68.0988L27.0737 67.0348C27.4004 67.2681 27.7971 67.4548 28.2637 67.5948C28.7304 67.7348 29.2017 67.8048 29.6777 67.8048C30.8537 67.8048 31.4417 67.4688 31.4417 66.7968C31.4417 66.5728 31.3624 66.3955 31.2037 66.2648C31.0451 66.1341 30.8444 66.0408 30.6017 65.9848C30.3684 65.9195 30.0324 65.8495 29.5937 65.7748C28.9964 65.6815 28.5064 65.5741 28.1237 65.4528C27.7504 65.3315 27.4284 65.1261 27.1577 64.8368C26.8871 64.5475 26.7517 64.1415 26.7517 63.6188C26.7517 62.9468 27.0317 62.4101 27.5917 62.0088C28.1517 61.5981 28.9031 61.3928 29.8457 61.3928C30.3404 61.3928 30.8351 61.4535 31.3297 61.5748C31.8244 61.6961 32.2304 61.8595 32.5477 62.0648L31.9737 63.1288C31.3671 62.7368 30.6531 62.5408 29.8317 62.5408C29.2624 62.5408 28.8284 62.6341 28.5297 62.8208C28.2311 63.0075 28.0817 63.2548 28.0817 63.5628C28.0817 63.8055 28.1657 63.9968 28.3337 64.1368C28.5017 64.2768 28.7071 64.3795 28.9497 64.4448C29.2017 64.5101 29.5517 64.5848 29.9997 64.6688C30.5971 64.7715 31.0777 64.8835 31.4417 65.0048C31.8151 65.1168 32.1324 65.3128 32.3937 65.5928C32.6551 65.8728 32.7857 66.2648 32.7857 66.7688C32.7857 67.4408 32.4964 67.9775 31.9177 68.3788C31.3484 68.7708 30.5691 68.9668 29.5797 68.9668ZM45.3232 61.4628V67.8748C45.3232 69.1721 45.0012 70.1288 44.3572 70.7448C43.7132 71.3701 42.7518 71.6828 41.4732 71.6828C40.7732 71.6828 40.1058 71.5848 39.4712 71.3888C38.8365 71.2021 38.3232 70.9315 37.9312 70.5768L38.5752 69.5408C38.9205 69.8395 39.3452 70.0728 39.8492 70.2408C40.3625 70.4181 40.8898 70.5068 41.4312 70.5068C42.2992 70.5068 42.9385 70.3015 43.3492 69.8908C43.7692 69.4801 43.9792 68.8548 43.9792 68.0148V67.4268C43.6618 67.8095 43.2698 68.0988 42.8032 68.2948C42.3458 68.4815 41.8465 68.5748 41.3052 68.5748C40.5958 68.5748 39.9518 68.4255 39.3732 68.1268C38.8038 67.8188 38.3558 67.3941 38.0292 66.8528C37.7025 66.3021 37.5392 65.6768 37.5392 64.9768C37.5392 64.2768 37.7025 63.6561 38.0292 63.1148C38.3558 62.5641 38.8038 62.1395 39.3732 61.8408C39.9518 61.5421 40.5958 61.3928 41.3052 61.3928C41.8652 61.3928 42.3832 61.4955 42.8592 61.7008C43.3445 61.9061 43.7412 62.2095 44.0492 62.6108V61.4628H45.3232ZM41.4592 67.3988C41.9445 67.3988 42.3785 67.2961 42.7612 67.0908C43.1532 66.8855 43.4565 66.6008 43.6712 66.2368C43.8952 65.8635 44.0072 65.4435 44.0072 64.9768C44.0072 64.2581 43.7692 63.6795 43.2932 63.2408C42.8172 62.7928 42.2058 62.5688 41.4592 62.5688C40.7032 62.5688 40.0872 62.7928 39.6112 63.2408C39.1352 63.6795 38.8972 64.2581 38.8972 64.9768C38.8972 65.4435 39.0045 65.8635 39.2192 66.2368C39.4432 66.6008 39.7465 66.8855 40.1292 67.0908C40.5212 67.2961 40.9645 67.3988 41.4592 67.3988ZM54.5972 65.2148C54.5972 65.3175 54.5879 65.4528 54.5692 65.6208H48.5492C48.6332 66.2741 48.9179 66.8015 49.4032 67.2028C49.8979 67.5948 50.5092 67.7908 51.2372 67.7908C52.1239 67.7908 52.8379 67.4921 53.3792 66.8948L54.1212 67.7628C53.7852 68.1548 53.3652 68.4535 52.8612 68.6588C52.3665 68.8641 51.8112 68.9668 51.1952 68.9668C50.4112 68.9668 49.7159 68.8081 49.1092 68.4908C48.5025 68.1641 48.0312 67.7115 47.6952 67.1328C47.3685 66.5541 47.2052 65.9008 47.2052 65.1728C47.2052 64.4541 47.3639 63.8055 47.6812 63.2268C48.0079 62.6481 48.4512 62.2001 49.0112 61.8828C49.5805 61.5561 50.2199 61.3928 50.9292 61.3928C51.6385 61.3928 52.2685 61.5561 52.8192 61.8828C53.3792 62.2001 53.8132 62.6481 54.1212 63.2268C54.4385 63.8055 54.5972 64.4681 54.5972 65.2148ZM50.9292 62.5268C50.2852 62.5268 49.7439 62.7228 49.3052 63.1148C48.8759 63.5068 48.6239 64.0201 48.5492 64.6548H53.3092C53.2345 64.0295 52.9779 63.5208 52.5392 63.1288C52.1099 62.7275 51.5732 62.5268 50.9292 62.5268ZM60.6355 68.4488C60.4395 68.6168 60.1968 68.7475 59.9075 68.8408C59.6181 68.9248 59.3195 68.9668 59.0115 68.9668C58.2648 68.9668 57.6861 68.7661 57.2755 68.3648C56.8648 67.9635 56.6595 67.3895 56.6595 66.6428V62.5688H55.3995V61.4628H56.6595V59.8388H58.0035V61.4628H60.1315V62.5688H58.0035V66.5868C58.0035 66.9881 58.1015 67.2961 58.2975 67.5108C58.5028 67.7255 58.7921 67.8328 59.1655 67.8328C59.5761 67.8328 59.9261 67.7161 60.2155 67.4828L60.6355 68.4488ZM69.9541 61.3928C70.6728 61.3928 71.3168 61.5515 71.8861 61.8688C72.4554 62.1861 72.8988 62.6295 73.2161 63.1988C73.5428 63.7681 73.7061 64.4261 73.7061 65.1728C73.7061 65.9195 73.5428 66.5821 73.2161 67.1608C72.8988 67.7301 72.4554 68.1735 71.8861 68.4908C71.3168 68.8081 70.6728 68.9668 69.9541 68.9668C69.4034 68.9668 68.8994 68.8595 68.4421 68.6448C67.9848 68.4301 67.6068 68.1175 67.3081 67.7068V68.8828H66.0201V58.4948H67.3641V62.5828C67.6628 62.1908 68.0361 61.8968 68.4841 61.7008C68.9321 61.4955 69.4221 61.3928 69.9541 61.3928ZM69.8421 67.7908C70.3181 67.7908 70.7428 67.6835 71.1161 67.4688C71.4988 67.2448 71.7974 66.9368 72.0121 66.5448C72.2361 66.1435 72.3481 65.6861 72.3481 65.1728C72.3481 64.6595 72.2361 64.2068 72.0121 63.8148C71.7974 63.4135 71.4988 63.1055 71.1161 62.8908C70.7428 62.6761 70.3181 62.5688 69.8421 62.5688C69.3754 62.5688 68.9508 62.6761 68.5681 62.8908C68.1854 63.1055 67.8868 63.4135 67.6721 63.8148C67.4574 64.2068 67.3501 64.6595 67.3501 65.1728C67.3501 65.6861 67.4574 66.1435 67.6721 66.5448C67.8868 66.9368 68.1854 67.2448 68.5681 67.4688C68.9508 67.6835 69.3754 67.7908 69.8421 67.7908ZM78.1967 61.3928C79.2234 61.3928 80.0074 61.6448 80.5487 62.1488C81.0994 62.6528 81.3747 63.4041 81.3747 64.4028V68.8828H80.1007V67.9028C79.8767 68.2481 79.5547 68.5141 79.1347 68.7008C78.724 68.8781 78.234 68.9668 77.6647 68.9668C76.834 68.9668 76.1667 68.7661 75.6627 68.3648C75.168 67.9635 74.9207 67.4361 74.9207 66.7828C74.9207 66.1295 75.1587 65.6068 75.6347 65.2148C76.1107 64.8135 76.8667 64.6128 77.9027 64.6128H80.0307V64.3468C80.0307 63.7681 79.8627 63.3248 79.5267 63.0168C79.1907 62.7088 78.696 62.5548 78.0427 62.5548C77.604 62.5548 77.1747 62.6295 76.7547 62.7788C76.3347 62.9188 75.98 63.1101 75.6907 63.3528L75.1307 62.3448C75.5134 62.0368 75.9707 61.8035 76.5027 61.6448C77.0347 61.4768 77.5994 61.3928 78.1967 61.3928ZM77.8887 67.9308C78.402 67.9308 78.8454 67.8188 79.2187 67.5948C79.592 67.3615 79.8627 67.0348 80.0307 66.6148V65.5788H77.9587C76.82 65.5788 76.2507 65.9615 76.2507 66.7268C76.2507 67.1001 76.3954 67.3941 76.6847 67.6088C76.974 67.8235 77.3754 67.9308 77.8887 67.9308ZM87.1369 68.9668C86.3809 68.9668 85.7042 68.8035 85.1069 68.4768C84.5189 68.1501 84.0569 67.7021 83.7209 67.1328C83.3849 66.5541 83.2169 65.9008 83.2169 65.1728C83.2169 64.4448 83.3849 63.7961 83.7209 63.2268C84.0569 62.6481 84.5189 62.2001 85.1069 61.8828C85.7042 61.5561 86.3809 61.3928 87.1369 61.3928C87.8089 61.3928 88.4062 61.5281 88.9289 61.7988C89.4609 62.0695 89.8716 62.4615 90.1609 62.9748L89.1389 63.6328C88.9056 63.2781 88.6162 63.0121 88.2709 62.8348C87.9256 62.6575 87.5429 62.5688 87.1229 62.5688C86.6376 62.5688 86.1989 62.6761 85.8069 62.8908C85.4242 63.1055 85.1209 63.4135 84.8969 63.8148C84.6822 64.2068 84.5749 64.6595 84.5749 65.1728C84.5749 65.6955 84.6822 66.1575 84.8969 66.5588C85.1209 66.9508 85.4242 67.2541 85.8069 67.4688C86.1989 67.6835 86.6376 67.7908 87.1229 67.7908C87.5429 67.7908 87.9256 67.7021 88.2709 67.5248C88.6162 67.3475 88.9056 67.0815 89.1389 66.7268L90.1609 67.3708C89.8716 67.8841 89.4609 68.2808 88.9289 68.5608C88.4062 68.8315 87.8089 68.9668 87.1369 68.9668ZM94.6893 65.4248L93.1493 66.8528V68.8828H91.8053V58.4948H93.1493V65.1588L97.1953 61.4628H98.8193L95.6973 64.5288L99.1273 68.8828H97.4753L94.6893 65.4248ZM108.364 68.4488C108.168 68.6168 107.925 68.7475 107.636 68.8408C107.347 68.9248 107.048 68.9668 106.74 68.9668C105.993 68.9668 105.415 68.7661 105.004 68.3648C104.593 67.9635 104.388 67.3895 104.388 66.6428V62.5688H103.128V61.4628H104.388V59.8388H105.732V61.4628H107.86V62.5688H105.732V66.5868C105.732 66.9881 105.83 67.2961 106.026 67.5108C106.231 67.7255 106.521 67.8328 106.894 67.8328C107.305 67.8328 107.655 67.7161 107.944 67.4828L108.364 68.4488ZM112.921 68.9668C112.183 68.9668 111.521 68.8035 110.933 68.4768C110.345 68.1501 109.883 67.7021 109.547 67.1328C109.22 66.5541 109.057 65.9008 109.057 65.1728C109.057 64.4448 109.22 63.7961 109.547 63.2268C109.883 62.6481 110.345 62.2001 110.933 61.8828C111.521 61.5561 112.183 61.3928 112.921 61.3928C113.658 61.3928 114.316 61.5561 114.895 61.8828C115.483 62.2001 115.94 62.6481 116.267 63.2268C116.603 63.7961 116.771 64.4448 116.771 65.1728C116.771 65.9008 116.603 66.5541 116.267 67.1328C115.94 67.7021 115.483 68.1501 114.895 68.4768C114.316 68.8035 113.658 68.9668 112.921 68.9668ZM112.921 67.7908C113.397 67.7908 113.821 67.6835 114.195 67.4688C114.577 67.2448 114.876 66.9368 115.091 66.5448C115.305 66.1435 115.413 65.6861 115.413 65.1728C115.413 64.6595 115.305 64.2068 115.091 63.8148C114.876 63.4135 114.577 63.1055 114.195 62.8908C113.821 62.6761 113.397 62.5688 112.921 62.5688C112.445 62.5688 112.015 62.6761 111.633 62.8908C111.259 63.1055 110.961 63.4135 110.737 63.8148C110.522 64.2068 110.415 64.6595 110.415 65.1728C110.415 65.6861 110.522 66.1435 110.737 66.5448C110.961 66.9368 111.259 67.2448 111.633 67.4688C112.015 67.6835 112.445 67.7908 112.921 67.7908ZM133.617 61.4628L130.845 68.8828H129.557L127.415 63.2548L125.245 68.8828H123.957L121.199 61.4628H122.473L124.629 67.3708L126.869 61.4628H128.003L130.201 67.3988L132.413 61.4628H133.617ZM137.954 68.9668C137.217 68.9668 136.554 68.8035 135.966 68.4768C135.378 68.1501 134.916 67.7021 134.58 67.1328C134.253 66.5541 134.09 65.9008 134.09 65.1728C134.09 64.4448 134.253 63.7961 134.58 63.2268C134.916 62.6481 135.378 62.2001 135.966 61.8828C136.554 61.5561 137.217 61.3928 137.954 61.3928C138.691 61.3928 139.349 61.5561 139.928 61.8828C140.516 62.2001 140.973 62.6481 141.3 63.2268C141.636 63.7961 141.804 64.4448 141.804 65.1728C141.804 65.9008 141.636 66.5541 141.3 67.1328C140.973 67.7021 140.516 68.1501 139.928 68.4768C139.349 68.8035 138.691 68.9668 137.954 68.9668ZM137.954 67.7908C138.43 67.7908 138.855 67.6835 139.228 67.4688C139.611 67.2448 139.909 66.9368 140.124 66.5448C140.339 66.1435 140.446 65.6861 140.446 65.1728C140.446 64.6595 140.339 64.2068 140.124 63.8148C139.909 63.4135 139.611 63.1055 139.228 62.8908C138.855 62.6761 138.43 62.5688 137.954 62.5688C137.478 62.5688 137.049 62.6761 136.666 62.8908C136.293 63.1055 135.994 63.4135 135.77 63.8148C135.555 64.2068 135.448 64.6595 135.448 65.1728C135.448 65.6861 135.555 66.1435 135.77 66.5448C135.994 66.9368 136.293 67.2448 136.666 67.4688C137.049 67.6835 137.478 67.7908 137.954 67.7908ZM144.951 62.7088C145.184 62.2795 145.529 61.9528 145.987 61.7288C146.444 61.5048 146.999 61.3928 147.653 61.3928V62.6948C147.578 62.6855 147.475 62.6808 147.345 62.6808C146.617 62.6808 146.043 62.9001 145.623 63.3388C145.212 63.7681 145.007 64.3841 145.007 65.1868V68.8828H143.663V61.4628H144.951V62.7088ZM152.193 65.4248L150.653 66.8528V68.8828H149.309V58.4948H150.653V65.1588L154.699 61.4628H156.323L153.201 64.5288L156.631 68.8828H154.979L152.193 65.4248Z" fill="#6F6F6F"/>
</svg>
