<svg width="15" height="16" viewBox="0 0 15 16" fill="none" xmlns="http://www.w3.org/2000/svg">
<path d="M13.125 9.21045V12.3354C13.125 12.667 12.9933 12.9849 12.7589 13.2193C12.5245 13.4538 12.2065 13.5854 11.875 13.5854H3.125C2.79348 13.5854 2.47554 13.4538 2.24112 13.2193C2.0067 12.9849 1.875 12.667 1.875 12.3354V3.58545C1.875 3.25393 2.0067 2.93599 2.24112 2.70157C2.47554 2.46715 2.79348 2.33545 3.125 2.33545H6.25V3.58545H3.125V12.3354H11.875V9.21045H13.125Z" fill="white"/>
<path d="M13.125 4.83545H10.625V2.33545H9.375V4.83545H6.875V6.08545H9.375V8.58545H10.625V6.08545H13.125V4.83545Z" fill="white"/>
</svg>
