<svg width="30" height="31" viewBox="0 0 30 31" fill="none" xmlns="http://www.w3.org/2000/svg">
<rect y="0.960449" width="30" height="30" rx="3.58213" fill="#FFDFF3"/>
<path d="M11.25 17.2104H16.25V18.4604H11.25V17.2104ZM11.25 14.0854H18.75V15.3354H11.25V14.0854ZM11.25 20.3354H14.375V21.5854H11.25V20.3354Z" fill="#FF0BA3"/>
<path d="M20.625 9.08545H18.75V8.46045C18.75 8.12893 18.6183 7.81099 18.3839 7.57657C18.1495 7.34215 17.8315 7.21045 17.5 7.21045H12.5C12.1685 7.21045 11.8505 7.34215 11.6161 7.57657C11.3817 7.81099 11.25 8.12893 11.25 8.46045V9.08545H9.375C9.04348 9.08545 8.72554 9.21715 8.49112 9.45157C8.2567 9.68599 8.125 10.0039 8.125 10.3354V23.4604C8.125 23.792 8.2567 24.1099 8.49112 24.3443C8.72554 24.5788 9.04348 24.7104 9.375 24.7104H20.625C20.9565 24.7104 21.2745 24.5788 21.5089 24.3443C21.7433 24.1099 21.875 23.792 21.875 23.4604V10.3354C21.875 10.0039 21.7433 9.68599 21.5089 9.45157C21.2745 9.21715 20.9565 9.08545 20.625 9.08545ZM12.5 8.46045H17.5V10.9604H12.5V8.46045ZM20.625 23.4604H9.375V10.3354H11.25V12.2104H18.75V10.3354H20.625V23.4604Z" fill="#FF0BA3"/>
</svg>
