<svg width="25" height="26" viewBox="0 0 25 26" fill="none" xmlns="http://www.w3.org/2000/svg">
<circle cx="12.18" cy="13.0237" r="12.0745" fill="white"/>
<path d="M4.89062 6.16797C4.89062 6.16797 13.2212 10.7825 14.9459 13.2523C16.7682 15.8521 15.9872 18.3868 15.5316 19.8817C15.5316 19.8817 14.4577 17.7044 11.7894 16.437C8.53524 14.9421 5.3462 12.9923 4.89062 6.16797Z" fill="#1E8FFE"/>
<path d="M19.4695 6.16797C19.4695 6.16797 11.1389 10.7825 9.41424 13.2523C7.59194 15.8521 8.37293 18.3868 8.8285 19.8817C8.8285 19.8817 9.90236 17.7044 12.5707 16.437C15.8249 14.9421 19.0139 12.9923 19.4695 6.16797Z" fill="#FC5133"/>
<path fill-rule="evenodd" clip-rule="evenodd" d="M12.1791 16.6342C12.0529 16.5663 11.9227 16.5002 11.7884 16.4364C10.7086 15.9404 9.63596 15.3943 8.66797 14.6365C8.84415 14.1808 9.087 13.7173 9.41333 13.2517C9.90852 12.5426 10.9483 11.6567 12.1791 10.7539C13.41 11.6567 14.4497 12.5426 14.9449 13.2517C15.2713 13.7173 15.5141 14.1808 15.6903 14.6365C14.7223 15.3943 13.6496 15.9404 12.5698 16.4364C12.4356 16.5002 12.3054 16.5663 12.1791 16.6342Z" fill="#2E3192"/>
</svg>
