<svg width="20" height="20" viewBox="0 0 20 20" fill="none" xmlns="http://www.w3.org/2000/svg">
<path d="M13.332 1.66797C11.032 1.66797 9.16536 3.53464 9.16536 5.83463C9.16536 8.13463 11.032 10.0013 13.332 10.0013C15.632 10.0013 17.4987 8.13463 17.4987 5.83463C17.4987 3.53464 15.632 1.66797 13.332 1.66797ZM13.332 8.33463C11.9487 8.33463 10.832 7.21797 10.832 5.83463C10.832 4.4513 11.9487 3.33464 13.332 3.33464C14.7154 3.33464 15.832 4.4513 15.832 5.83463C15.832 7.21797 14.7154 8.33463 13.332 8.33463ZM15.832 13.3346H14.1654C14.1654 12.3346 13.5404 11.4346 12.607 11.0846L7.4737 9.16797H0.832031V18.3346H5.83203V17.1346L11.6654 18.7513L18.332 16.668V15.8346C18.332 14.4513 17.2154 13.3346 15.832 13.3346ZM4.16536 16.668H2.4987V10.8346H4.16536V16.668ZM11.6404 17.0096L5.83203 15.418V10.8346H7.1737L12.0237 12.643C12.307 12.7513 12.4987 13.0263 12.4987 13.3346C12.4987 13.3346 10.832 13.293 10.582 13.2096L8.5987 12.5513L8.0737 14.1346L10.057 14.793C10.482 14.9346 10.9237 15.0013 11.3737 15.0013H15.832C16.157 15.0013 16.4487 15.2013 16.582 15.4763L11.6404 17.0096Z" fill="white"/>
</svg>
