<svg width="132" height="30" viewBox="0 0 132 30" fill="none" xmlns="http://www.w3.org/2000/svg">
<path d="M5.99034 14.8871C5.06634 14.8871 4.27301 14.7284 3.61034 14.4111C2.94768 14.0844 2.40634 13.6598 1.98634 13.1371C1.56634 12.6051 1.25368 12.0358 1.04834 11.4291C0.852344 10.8131 0.754344 10.2158 0.754344 9.63709V9.32909C0.754344 8.69443 0.85701 8.06909 1.06234 7.45309C1.26768 6.82776 1.58034 6.26309 2.00034 5.75909C2.42968 5.25509 2.96634 4.85376 3.61034 4.55509C4.26368 4.24709 5.03368 4.09309 5.92034 4.09309C6.84434 4.09309 7.66101 4.26576 8.37034 4.61109C9.07968 4.95643 9.64434 5.43709 10.0643 6.05309C10.4937 6.65976 10.7457 7.37376 10.8203 8.19509H8.51034C8.44501 7.78443 8.29568 7.43443 8.06234 7.14509C7.82901 6.85576 7.52568 6.63176 7.15234 6.47309C6.78834 6.31443 6.37768 6.23509 5.92034 6.23509C5.46301 6.23509 5.05701 6.31443 4.70234 6.47309C4.34768 6.63176 4.04901 6.85576 3.80634 7.14509C3.57301 7.43443 3.39101 7.77976 3.26034 8.18109C3.13901 8.57309 3.07834 9.01176 3.07834 9.49709C3.07834 9.97309 3.13901 10.4118 3.26034 10.8131C3.39101 11.2051 3.57768 11.5504 3.82034 11.8491C4.07234 12.1384 4.38034 12.3624 4.74434 12.5211C5.10834 12.6704 5.52368 12.7451 5.99034 12.7451C6.69968 12.7451 7.29701 12.5724 7.78234 12.2271C8.27701 11.8818 8.57568 11.4058 8.67834 10.7991H10.9743C10.8903 11.5458 10.6383 12.2318 10.2183 12.8571C9.80768 13.4731 9.24301 13.9678 8.52434 14.3411C7.81501 14.7051 6.97034 14.8871 5.99034 14.8871ZM12.3716 14.6211V4.40109H14.6116V10.2951H14.2756C14.2756 9.52043 14.3736 8.86709 14.5696 8.33509C14.7656 7.80309 15.0549 7.40176 15.4376 7.13109C15.8203 6.85109 16.3009 6.71109 16.8796 6.71109H16.9776C17.8269 6.71109 18.4756 7.01443 18.9236 7.62109C19.3716 8.21843 19.5956 9.09576 19.5956 10.2531V14.6211H17.3556V10.1131C17.3556 9.69309 17.2296 9.35709 16.9776 9.10509C16.7349 8.84376 16.4129 8.71309 16.0116 8.71309C15.5916 8.71309 15.2509 8.84843 14.9896 9.11909C14.7376 9.38976 14.6116 9.74909 14.6116 10.1971V14.6211H12.3716ZM26.1384 14.6211V12.3531H25.7604V9.88909C25.7604 9.49709 25.6671 9.20309 25.4804 9.00709C25.2938 8.81109 24.9951 8.71309 24.5844 8.71309C24.3791 8.71309 24.1084 8.71776 23.7724 8.72709C23.4364 8.73643 23.0911 8.75043 22.7364 8.76909C22.3818 8.78776 22.0598 8.80643 21.7704 8.82509V6.93509C21.9851 6.91643 22.2371 6.89776 22.5264 6.87909C22.8158 6.86043 23.1144 6.84643 23.4224 6.83709C23.7304 6.82776 24.0198 6.82309 24.2904 6.82309C25.0744 6.82309 25.7324 6.93509 26.2644 7.15909C26.8058 7.38309 27.2164 7.72376 27.4964 8.18109C27.7764 8.62909 27.9164 9.20776 27.9164 9.91709V14.6211H26.1384ZM23.6884 14.8171C23.1378 14.8171 22.6524 14.7191 22.2324 14.5231C21.8218 14.3271 21.4998 14.0471 21.2664 13.6831C21.0331 13.3098 20.9164 12.8664 20.9164 12.3531C20.9164 11.7931 21.0611 11.3358 21.3504 10.9811C21.6398 10.6171 22.0458 10.3511 22.5684 10.1831C23.0911 10.0058 23.6931 9.91709 24.3744 9.91709H26.0124V11.1631H24.3604C23.9684 11.1631 23.6651 11.2611 23.4504 11.4571C23.2451 11.6438 23.1424 11.9004 23.1424 12.2271C23.1424 12.5351 23.2451 12.7871 23.4504 12.9831C23.6651 13.1698 23.9684 13.2631 24.3604 13.2631C24.6124 13.2631 24.8364 13.2211 25.0324 13.1371C25.2378 13.0438 25.4058 12.8898 25.5364 12.6751C25.6671 12.4604 25.7418 12.1618 25.7604 11.7791L26.2924 12.3391C26.2458 12.8711 26.1151 13.3191 25.9004 13.6831C25.6951 14.0471 25.4058 14.3271 25.0324 14.5231C24.6684 14.7191 24.2204 14.8171 23.6884 14.8171ZM29.8169 14.6211V6.94909H31.5949V10.2391H31.4689C31.4689 9.45509 31.5669 8.80176 31.7629 8.27909C31.9683 7.75643 32.2763 7.36443 32.6869 7.10309C33.0976 6.84176 33.5969 6.71109 34.1849 6.71109H34.2829C35.1789 6.71109 35.8603 7.00509 36.3269 7.59309C36.8029 8.17176 37.0409 9.05376 37.0409 10.2391V14.6211H34.8009V10.1131C34.8009 9.70243 34.6796 9.36643 34.4369 9.10509C34.1943 8.84376 33.8676 8.71309 33.4569 8.71309C33.0369 8.71309 32.6963 8.84843 32.4349 9.11909C32.1829 9.38043 32.0569 9.72576 32.0569 10.1551V14.6211H29.8169ZM41.9737 17.6731C41.6004 17.6731 41.2177 17.6591 40.8257 17.6311C40.4337 17.6031 40.0744 17.5658 39.7477 17.5191V15.6291C40.0744 15.6758 40.4337 15.7131 40.8257 15.7411C41.2271 15.7784 41.5911 15.7971 41.9177 15.7971C42.5244 15.7971 43.0144 15.7271 43.3877 15.5871C43.7704 15.4471 44.0504 15.2324 44.2277 14.9431C44.4051 14.6631 44.4937 14.2991 44.4937 13.8511V12.3251L44.8997 11.4291C44.8811 12.1104 44.7457 12.6938 44.4937 13.1791C44.2511 13.6644 43.9104 14.0378 43.4717 14.2991C43.0331 14.5511 42.5104 14.6771 41.9037 14.6771C41.3811 14.6771 40.9051 14.5838 40.4757 14.3971C40.0557 14.2011 39.6964 13.9304 39.3977 13.5851C39.0991 13.2398 38.8704 12.8384 38.7117 12.3811C38.5531 11.9144 38.4737 11.4104 38.4737 10.8691V10.5471C38.4737 10.0058 38.5577 9.50176 38.7257 9.03509C38.8937 8.56843 39.1364 8.16243 39.4537 7.81709C39.7711 7.47176 40.1491 7.20576 40.5877 7.01909C41.0264 6.82309 41.5117 6.72509 42.0437 6.72509C42.6597 6.72509 43.1917 6.86043 43.6397 7.13109C44.0971 7.40176 44.4564 7.79843 44.7177 8.32109C44.9791 8.84376 45.1191 9.47376 45.1377 10.2111L44.8297 10.2951V6.94909H46.6077V13.7111C46.6077 14.6538 46.4397 15.4144 46.1037 15.9931C45.7677 16.5718 45.2544 16.9964 44.5637 17.2671C43.8824 17.5378 43.0191 17.6731 41.9737 17.6731ZM42.6037 12.7871C42.9491 12.7871 43.2617 12.7124 43.5417 12.5631C43.8217 12.4044 44.0411 12.1804 44.1997 11.8911C44.3677 11.6018 44.4517 11.2518 44.4517 10.8411V10.4351C44.4517 10.0338 44.3631 9.69776 44.1857 9.42709C44.0177 9.14709 43.7937 8.93709 43.5137 8.79709C43.2337 8.64776 42.9351 8.57309 42.6177 8.57309C42.2444 8.57309 41.9131 8.66176 41.6237 8.83909C41.3344 9.01643 41.1104 9.26376 40.9517 9.58109C40.7931 9.89843 40.7137 10.2718 40.7137 10.7011C40.7137 11.1398 40.7931 11.5178 40.9517 11.8351C41.1197 12.1431 41.3437 12.3811 41.6237 12.5491C41.9131 12.7078 42.2397 12.7871 42.6037 12.7871ZM52.0614 14.8871C51.4081 14.8871 50.8294 14.7751 50.3254 14.5511C49.8307 14.3271 49.4154 14.0284 49.0794 13.6551C48.7527 13.2724 48.5007 12.8478 48.3234 12.3811C48.1554 11.9051 48.0714 11.4198 48.0714 10.9251V10.6451C48.0714 10.1318 48.1554 9.64176 48.3234 9.17509C48.5007 8.69909 48.7527 8.27443 49.0794 7.90109C49.4061 7.52776 49.8121 7.23376 50.2974 7.01909C50.7921 6.79509 51.3521 6.68309 51.9774 6.68309C52.7987 6.68309 53.4894 6.86976 54.0494 7.24309C54.6187 7.60709 55.0527 8.08776 55.3514 8.68509C55.6501 9.27309 55.7994 9.91709 55.7994 10.6171V11.3731H49.0094V10.0991H54.4414L53.7134 10.6871C53.7134 10.2298 53.6481 9.83776 53.5174 9.51109C53.3867 9.18443 53.1907 8.93709 52.9294 8.76909C52.6774 8.59176 52.3601 8.50309 51.9774 8.50309C51.5854 8.50309 51.2541 8.59176 50.9834 8.76909C50.7127 8.94643 50.5074 9.20776 50.3674 9.55309C50.2274 9.88909 50.1574 10.3044 50.1574 10.7991C50.1574 11.2564 50.2227 11.6578 50.3534 12.0031C50.4841 12.3391 50.6894 12.6004 50.9694 12.7871C51.2494 12.9738 51.6134 13.0671 52.0614 13.0671C52.4721 13.0671 52.8081 12.9878 53.0694 12.8291C53.3307 12.6704 53.5081 12.4744 53.6014 12.2411H55.6594C55.5474 12.7544 55.3281 13.2118 55.0014 13.6131C54.6747 14.0144 54.2641 14.3271 53.7694 14.5511C53.2747 14.7751 52.7054 14.8871 52.0614 14.8871ZM62.3652 11.6951V9.70709H64.1992C64.5538 9.70709 64.8572 9.63709 65.1092 9.49709C65.3705 9.35709 65.5712 9.16109 65.7112 8.90909C65.8512 8.64776 65.9212 8.34909 65.9212 8.01309C65.9212 7.65843 65.8512 7.35509 65.7112 7.10309C65.5712 6.84176 65.3705 6.64576 65.1092 6.51509C64.8572 6.37509 64.5538 6.30509 64.1992 6.30509H62.3652V4.31709H64.0872C64.9552 4.31709 65.6972 4.46176 66.3132 4.75109C66.9385 5.04043 67.4145 5.45109 67.7412 5.98309C68.0772 6.51509 68.2452 7.15443 68.2452 7.90109V8.12509C68.2452 8.85309 68.0772 9.48776 67.7412 10.0291C67.4145 10.5611 66.9385 10.9718 66.3132 11.2611C65.6972 11.5504 64.9552 11.6951 64.0872 11.6951H62.3652ZM60.3492 14.6211V4.31709H62.6452V14.6211H60.3492ZM74.0857 14.6211V12.3531H73.7077V9.88909C73.7077 9.49709 73.6144 9.20309 73.4277 9.00709C73.241 8.81109 72.9424 8.71309 72.5317 8.71309C72.3264 8.71309 72.0557 8.71776 71.7197 8.72709C71.3837 8.73643 71.0384 8.75043 70.6837 8.76909C70.329 8.78776 70.007 8.80643 69.7177 8.82509V6.93509C69.9324 6.91643 70.1844 6.89776 70.4737 6.87909C70.763 6.86043 71.0617 6.84643 71.3697 6.83709C71.6777 6.82776 71.967 6.82309 72.2377 6.82309C73.0217 6.82309 73.6797 6.93509 74.2117 7.15909C74.753 7.38309 75.1637 7.72376 75.4437 8.18109C75.7237 8.62909 75.8637 9.20776 75.8637 9.91709V14.6211H74.0857ZM71.6357 14.8171C71.085 14.8171 70.5997 14.7191 70.1797 14.5231C69.769 14.3271 69.447 14.0471 69.2137 13.6831C68.9804 13.3098 68.8637 12.8664 68.8637 12.3531C68.8637 11.7931 69.0084 11.3358 69.2977 10.9811C69.587 10.6171 69.993 10.3511 70.5157 10.1831C71.0384 10.0058 71.6404 9.91709 72.3217 9.91709H73.9597V11.1631H72.3077C71.9157 11.1631 71.6124 11.2611 71.3977 11.4571C71.1924 11.6438 71.0897 11.9004 71.0897 12.2271C71.0897 12.5351 71.1924 12.7871 71.3977 12.9831C71.6124 13.1698 71.9157 13.2631 72.3077 13.2631C72.5597 13.2631 72.7837 13.2211 72.9797 13.1371C73.185 13.0438 73.353 12.8898 73.4837 12.6751C73.6144 12.4604 73.689 12.1618 73.7077 11.7791L74.2397 12.3391C74.193 12.8711 74.0624 13.3191 73.8477 13.6831C73.6424 14.0471 73.353 14.3271 72.9797 14.5231C72.6157 14.7191 72.1677 14.8171 71.6357 14.8171ZM80.6762 14.8591C79.5842 14.8591 78.7302 14.6351 78.1142 14.1871C77.4982 13.7391 77.1715 13.1091 77.1342 12.2971H79.1222C79.1595 12.5398 79.3042 12.7591 79.5562 12.9551C79.8175 13.1418 80.2049 13.2351 80.7182 13.2351C81.1102 13.2351 81.4322 13.1698 81.6842 13.0391C81.9455 12.8991 82.0762 12.7031 82.0762 12.4511C82.0762 12.2271 81.9782 12.0498 81.7822 11.9191C81.5862 11.7791 81.2362 11.6811 80.7322 11.6251L80.1302 11.5691C79.2062 11.4758 78.5109 11.2191 78.0442 10.7991C77.5869 10.3791 77.3582 9.84243 77.3582 9.18909C77.3582 8.64776 77.4935 8.19509 77.7642 7.83109C78.0349 7.46709 78.4082 7.19176 78.8842 7.00509C79.3695 6.81843 79.9202 6.72509 80.5362 6.72509C81.5255 6.72509 82.3235 6.94443 82.9302 7.38309C83.5369 7.81243 83.8542 8.43776 83.8822 9.25909H81.8942C81.8569 9.00709 81.7262 8.79709 81.5022 8.62909C81.2782 8.45176 80.9469 8.36309 80.5082 8.36309C80.1629 8.36309 79.8875 8.42843 79.6822 8.55909C79.4769 8.68976 79.3742 8.86709 79.3742 9.09109C79.3742 9.30576 79.4629 9.46909 79.6402 9.58109C79.8175 9.69309 80.1069 9.77243 80.5082 9.81909L81.1102 9.87509C82.0529 9.97776 82.7855 10.2391 83.3082 10.6591C83.8309 11.0791 84.0922 11.6438 84.0922 12.3531C84.0922 12.8664 83.9522 13.3144 83.6722 13.6971C83.3922 14.0704 82.9955 14.3598 82.4822 14.5651C81.9689 14.7611 81.3669 14.8591 80.6762 14.8591ZM88.4555 14.8591C87.3635 14.8591 86.5095 14.6351 85.8935 14.1871C85.2775 13.7391 84.9508 13.1091 84.9135 12.2971H86.9015C86.9388 12.5398 87.0835 12.7591 87.3355 12.9551C87.5968 13.1418 87.9842 13.2351 88.4975 13.2351C88.8895 13.2351 89.2115 13.1698 89.4635 13.0391C89.7248 12.8991 89.8555 12.7031 89.8555 12.4511C89.8555 12.2271 89.7575 12.0498 89.5615 11.9191C89.3655 11.7791 89.0155 11.6811 88.5115 11.6251L87.9095 11.5691C86.9855 11.4758 86.2902 11.2191 85.8235 10.7991C85.3662 10.3791 85.1375 9.84243 85.1375 9.18909C85.1375 8.64776 85.2728 8.19509 85.5435 7.83109C85.8142 7.46709 86.1875 7.19176 86.6635 7.00509C87.1488 6.81843 87.6995 6.72509 88.3155 6.72509C89.3048 6.72509 90.1028 6.94443 90.7095 7.38309C91.3162 7.81243 91.6335 8.43776 91.6615 9.25909H89.6735C89.6362 9.00709 89.5055 8.79709 89.2815 8.62909C89.0575 8.45176 88.7262 8.36309 88.2875 8.36309C87.9422 8.36309 87.6668 8.42843 87.4615 8.55909C87.2562 8.68976 87.1535 8.86709 87.1535 9.09109C87.1535 9.30576 87.2422 9.46909 87.4195 9.58109C87.5968 9.69309 87.8862 9.77243 88.2875 9.81909L88.8895 9.87509C89.8322 9.97776 90.5648 10.2391 91.0875 10.6591C91.6102 11.0791 91.8715 11.6438 91.8715 12.3531C91.8715 12.8664 91.7315 13.3144 91.4515 13.6971C91.1715 14.0704 90.7748 14.3598 90.2615 14.5651C89.7482 14.7611 89.1462 14.8591 88.4555 14.8591ZM96.0548 14.6211L97.4548 7.20109H99.9048L101.529 14.6211H99.7928L98.1268 7.25709H99.1208L97.6228 14.6211H96.0548ZM95.5228 14.6211L95.5088 12.7591H97.0488L97.0628 14.6211H95.5228ZM94.5148 14.6211L92.4568 6.94909H94.6548L96.5728 14.6211H94.5148ZM100.367 14.6211L100.381 12.7591H101.921V14.6211H100.367ZM100.997 14.6211L102.705 6.94909H104.763L102.915 14.6211H100.997ZM109.707 14.8871C109.035 14.8871 108.438 14.7844 107.915 14.5791C107.393 14.3644 106.949 14.0751 106.585 13.7111C106.231 13.3471 105.96 12.9318 105.773 12.4651C105.587 11.9891 105.493 11.4898 105.493 10.9671V10.6451C105.493 10.1131 105.587 9.60909 105.773 9.13309C105.969 8.64776 106.249 8.22309 106.613 7.85909C106.987 7.49509 107.435 7.21043 107.957 7.00509C108.48 6.79043 109.063 6.68309 109.707 6.68309C110.37 6.68309 110.958 6.79043 111.471 7.00509C111.994 7.21043 112.437 7.49509 112.801 7.85909C113.165 8.22309 113.445 8.64776 113.641 9.13309C113.837 9.60909 113.935 10.1131 113.935 10.6451V10.9671C113.935 11.4898 113.842 11.9891 113.655 12.4651C113.469 12.9318 113.193 13.3471 112.829 13.7111C112.475 14.0751 112.036 14.3644 111.513 14.5791C110.991 14.7844 110.389 14.8871 109.707 14.8871ZM109.707 12.9971C110.146 12.9971 110.51 12.9038 110.799 12.7171C111.089 12.5304 111.308 12.2691 111.457 11.9331C111.616 11.5971 111.695 11.2238 111.695 10.8131C111.695 10.3744 111.616 9.99176 111.457 9.66509C111.299 9.32909 111.07 9.06309 110.771 8.86709C110.482 8.67109 110.127 8.57309 109.707 8.57309C109.297 8.57309 108.942 8.67109 108.643 8.86709C108.345 9.06309 108.116 9.32909 107.957 9.66509C107.808 9.99176 107.733 10.3744 107.733 10.8131C107.733 11.2238 107.808 11.5971 107.957 11.9331C108.107 12.2691 108.331 12.5304 108.629 12.7171C108.928 12.9038 109.287 12.9971 109.707 12.9971ZM115.499 14.6211V6.94909H117.277V10.2391H117.235C117.235 9.15643 117.463 8.32109 117.921 7.73309C118.387 7.14509 119.059 6.85109 119.937 6.85109H120.231V8.78309H119.671C119.055 8.78309 118.579 8.95109 118.243 9.28709C117.907 9.61376 117.739 10.0898 117.739 10.7151V14.6211H115.499ZM124.514 14.8731C123.973 14.8731 123.478 14.7751 123.03 14.5791C122.591 14.3831 122.209 14.1124 121.882 13.7671C121.555 13.4124 121.303 12.9971 121.126 12.5211C120.958 12.0451 120.874 11.5318 120.874 10.9811V10.6591C120.874 10.1084 120.953 9.59509 121.112 9.11909C121.28 8.64309 121.518 8.22776 121.826 7.87309C122.143 7.50909 122.521 7.22909 122.96 7.03309C123.399 6.82776 123.889 6.72509 124.43 6.72509C125.046 6.72509 125.578 6.86043 126.026 7.13109C126.474 7.39243 126.824 7.78443 127.076 8.30709C127.328 8.82043 127.468 9.45509 127.496 10.2111L126.908 9.66509V4.40109H129.162V14.6211H127.384V11.4431H127.692C127.664 12.1711 127.51 12.7918 127.23 13.3051C126.959 13.8184 126.591 14.2104 126.124 14.4811C125.657 14.7424 125.121 14.8731 124.514 14.8731ZM125.074 12.9971C125.419 12.9971 125.732 12.9224 126.012 12.7731C126.301 12.6144 126.53 12.3858 126.698 12.0871C126.875 11.7884 126.964 11.4291 126.964 11.0091V10.4911C126.964 10.0804 126.875 9.73509 126.698 9.45509C126.521 9.17509 126.287 8.96043 125.998 8.81109C125.709 8.66176 125.396 8.58709 125.06 8.58709C124.687 8.58709 124.351 8.68509 124.052 8.88109C123.763 9.06776 123.534 9.32909 123.366 9.66509C123.198 9.99176 123.114 10.3744 123.114 10.8131C123.114 11.2611 123.198 11.6484 123.366 11.9751C123.534 12.3018 123.767 12.5538 124.066 12.7311C124.365 12.9084 124.701 12.9971 125.074 12.9971Z" fill="#1900C0"/>
<rect x="0.152344" y="22.6211" width="108.026" height="7" rx="3.5" fill="#FF0BA3"/>
<rect x="53.8711" y="22.6211" width="77.2822" height="7" rx="3.5" fill="#F7BF21"/>
</svg>
