<svg width="199" height="43" viewBox="0 0 199 43" fill="none" xmlns="http://www.w3.org/2000/svg">
<rect x="45" y="35.2227" width="36" height="7" fill="#1900C0"/>
<rect x="81" y="35.2227" width="36" height="7" fill="#FF0BA3"/>
<rect x="117" y="35.2227" width="36" height="7" fill="#EAB054"/>
<path d="M2.08128 23.2227V5.55865H6.01728V23.2227H2.08128ZM12.7133 23.2227L7.57728 15.6867H11.8973L17.2733 23.2227H12.7133ZM4.96128 17.6067V14.5107H9.28128C9.85728 14.5107 10.3533 14.3987 10.7693 14.1747C11.2013 13.9347 11.5293 13.6067 11.7533 13.1907C11.9933 12.7587 12.1133 12.2627 12.1133 11.7027C12.1133 11.1427 11.9933 10.6547 11.7533 10.2387C11.5293 9.80666 11.2013 9.47866 10.7693 9.25466C10.3533 9.01466 9.85728 8.89466 9.28128 8.89466H4.96128V5.55865H8.96928C10.4253 5.55865 11.6893 5.78266 12.7613 6.23066C13.8333 6.66266 14.6573 7.31066 15.2333 8.17466C15.8093 9.03866 16.0973 10.1267 16.0973 11.4387V11.8227C16.0973 13.1187 15.8013 14.1987 15.2093 15.0627C14.6333 15.9107 13.8093 16.5507 12.7373 16.9827C11.6813 17.3987 10.4253 17.6067 8.96928 17.6067H4.96128ZM25.1862 23.6787C24.0662 23.6787 23.0742 23.4867 22.2102 23.1027C21.3622 22.7187 20.6502 22.2067 20.0742 21.5667C19.5142 20.9107 19.0822 20.1827 18.7782 19.3827C18.4902 18.5667 18.3462 17.7347 18.3462 16.8867V16.4067C18.3462 15.5267 18.4902 14.6867 18.7782 13.8867C19.0822 13.0707 19.5142 12.3427 20.0742 11.7027C20.6342 11.0627 21.3302 10.5587 22.1622 10.1907C23.0102 9.80666 23.9702 9.61466 25.0422 9.61466C26.4502 9.61466 27.6342 9.93466 28.5942 10.5747C29.5702 11.1987 30.3142 12.0227 30.8262 13.0467C31.3382 14.0547 31.5942 15.1587 31.5942 16.3587V17.6547H19.9542V15.4707H29.2662L28.0182 16.4787C28.0182 15.6947 27.9062 15.0227 27.6822 14.4627C27.4582 13.9027 27.1222 13.4787 26.6742 13.1907C26.2422 12.8867 25.6982 12.7347 25.0422 12.7347C24.3702 12.7347 23.8022 12.8867 23.3382 13.1907C22.8742 13.4947 22.5222 13.9427 22.2822 14.5347C22.0422 15.1107 21.9222 15.8227 21.9222 16.6707C21.9222 17.4547 22.0342 18.1427 22.2582 18.7347C22.4822 19.3107 22.8342 19.7587 23.3142 20.0787C23.7942 20.3987 24.4182 20.5587 25.1862 20.5587C25.8902 20.5587 26.4662 20.4227 26.9142 20.1507C27.3622 19.8787 27.6662 19.5427 27.8262 19.1427H31.3542C31.1622 20.0227 30.7862 20.8067 30.2262 21.4947C29.6662 22.1827 28.9622 22.7187 28.1142 23.1027C27.2662 23.4867 26.2902 23.6787 25.1862 23.6787ZM39.1307 23.6307C37.2587 23.6307 35.7947 23.2467 34.7387 22.4787C33.6827 21.7107 33.1227 20.6307 33.0587 19.2387H36.4667C36.5307 19.6547 36.7787 20.0307 37.2107 20.3667C37.6587 20.6867 38.3227 20.8467 39.2027 20.8467C39.8747 20.8467 40.4267 20.7347 40.8587 20.5107C41.3067 20.2707 41.5307 19.9347 41.5307 19.5027C41.5307 19.1187 41.3627 18.8147 41.0267 18.5907C40.6907 18.3507 40.0907 18.1827 39.2267 18.0867L38.1947 17.9907C36.6107 17.8307 35.4187 17.3907 34.6187 16.6707C33.8347 15.9507 33.4427 15.0307 33.4427 13.9107C33.4427 12.9827 33.6747 12.2067 34.1387 11.5827C34.6027 10.9587 35.2427 10.4867 36.0587 10.1667C36.8907 9.84666 37.8347 9.68666 38.8907 9.68666C40.5867 9.68666 41.9547 10.0627 42.9947 10.8147C44.0347 11.5507 44.5787 12.6227 44.6267 14.0307H41.2187C41.1547 13.5987 40.9307 13.2387 40.5467 12.9507C40.1627 12.6467 39.5947 12.4947 38.8427 12.4947C38.2507 12.4947 37.7787 12.6067 37.4267 12.8307C37.0747 13.0547 36.8987 13.3587 36.8987 13.7427C36.8987 14.1107 37.0507 14.3907 37.3547 14.5827C37.6587 14.7747 38.1547 14.9107 38.8427 14.9907L39.8747 15.0867C41.4907 15.2627 42.7467 15.7107 43.6427 16.4307C44.5387 17.1507 44.9867 18.1187 44.9867 19.3347C44.9867 20.2147 44.7467 20.9827 44.2667 21.6387C43.7867 22.2787 43.1067 22.7747 42.2267 23.1267C41.3467 23.4627 40.3147 23.6307 39.1307 23.6307ZM53.4987 23.6787C52.3787 23.6787 51.3867 23.4867 50.5227 23.1027C49.6747 22.7187 48.9627 22.2067 48.3867 21.5667C47.8267 20.9107 47.3947 20.1827 47.0907 19.3827C46.8027 18.5667 46.6587 17.7347 46.6587 16.8867V16.4067C46.6587 15.5267 46.8027 14.6867 47.0907 13.8867C47.3947 13.0707 47.8267 12.3427 48.3867 11.7027C48.9467 11.0627 49.6427 10.5587 50.4747 10.1907C51.3227 9.80666 52.2827 9.61466 53.3547 9.61466C54.7627 9.61466 55.9467 9.93466 56.9067 10.5747C57.8827 11.1987 58.6267 12.0227 59.1387 13.0467C59.6507 14.0547 59.9067 15.1587 59.9067 16.3587V17.6547H48.2667V15.4707H57.5787L56.3307 16.4787C56.3307 15.6947 56.2187 15.0227 55.9947 14.4627C55.7707 13.9027 55.4347 13.4787 54.9867 13.1907C54.5547 12.8867 54.0107 12.7347 53.3547 12.7347C52.6827 12.7347 52.1147 12.8867 51.6507 13.1907C51.1867 13.4947 50.8347 13.9427 50.5947 14.5347C50.3547 15.1107 50.2347 15.8227 50.2347 16.6707C50.2347 17.4547 50.3467 18.1427 50.5707 18.7347C50.7947 19.3107 51.1467 19.7587 51.6267 20.0787C52.1067 20.3987 52.7307 20.5587 53.4987 20.5587C54.2027 20.5587 54.7787 20.4227 55.2267 20.1507C55.6747 19.8787 55.9787 19.5427 56.1387 19.1427H59.6667C59.4747 20.0227 59.0987 20.8067 58.5387 21.4947C57.9787 22.1827 57.2747 22.7187 56.4267 23.1027C55.5787 23.4867 54.6027 23.6787 53.4987 23.6787ZM68.4272 23.3907C67.0992 23.3907 66.0272 23.2307 65.2112 22.9107C64.3952 22.5747 63.7952 22.0227 63.4112 21.2547C63.0432 20.4707 62.8592 19.4147 62.8592 18.0867V6.51866H66.4352V18.2307C66.4352 18.8547 66.5952 19.3347 66.9152 19.6707C67.2512 19.9907 67.7232 20.1507 68.3312 20.1507H70.2752V23.3907H68.4272ZM60.8672 12.8787V10.0707H70.2752V12.8787H60.8672ZM77.8965 28.0227V10.0707H80.9445V15.7587L80.5365 15.7347C80.6005 14.4227 80.8725 13.3187 81.3525 12.4227C81.8325 11.5107 82.4805 10.8307 83.2965 10.3827C84.1125 9.91866 85.0325 9.68666 86.0565 9.68666C86.9685 9.68666 87.7925 9.85466 88.5285 10.1907C89.2805 10.5267 89.9205 10.9987 90.4485 11.6067C90.9925 12.1987 91.4005 12.9027 91.6725 13.7187C91.9605 14.5187 92.1045 15.3987 92.1045 16.3587V16.9107C92.1045 17.8547 91.9685 18.7427 91.6965 19.5747C91.4245 20.3907 91.0245 21.1027 90.4965 21.7107C89.9845 22.3187 89.3525 22.7987 88.6005 23.1507C87.8645 23.4867 87.0165 23.6547 86.0565 23.6547C85.0645 23.6547 84.1685 23.4547 83.3685 23.0547C82.5845 22.6387 81.9525 22.0147 81.4725 21.1827C80.9925 20.3347 80.7285 19.2627 80.6805 17.9667L81.7365 19.4067V28.0227H77.8965ZM84.9765 20.4387C85.6325 20.4387 86.2005 20.2787 86.6805 19.9587C87.1765 19.6387 87.5605 19.1907 87.8325 18.6147C88.1045 18.0387 88.2405 17.3747 88.2405 16.6227C88.2405 15.8707 88.1045 15.2147 87.8325 14.6547C87.5605 14.0947 87.1845 13.6627 86.7045 13.3587C86.2245 13.0387 85.6485 12.8787 84.9765 12.8787C84.4005 12.8787 83.8565 13.0147 83.3445 13.2867C82.8325 13.5587 82.4165 13.9507 82.0965 14.4627C81.7925 14.9587 81.6405 15.5667 81.6405 16.2867V17.1747C81.6405 17.8627 81.8005 18.4547 82.1205 18.9507C82.4565 19.4307 82.8805 19.7987 83.3925 20.0547C83.9045 20.3107 84.4325 20.4387 84.9765 20.4387ZM102.716 23.2227V19.3347H102.068V15.1107C102.068 14.4387 101.908 13.9347 101.588 13.5987C101.268 13.2627 100.756 13.0947 100.052 13.0947C99.6995 13.0947 99.2355 13.1027 98.6595 13.1187C98.0835 13.1347 97.4915 13.1587 96.8835 13.1907C96.2755 13.2227 95.7235 13.2547 95.2275 13.2867V10.0467C95.5955 10.0147 96.0275 9.98266 96.5235 9.95066C97.0195 9.91866 97.5315 9.89466 98.0595 9.87865C98.5875 9.86266 99.0835 9.85466 99.5475 9.85466C100.892 9.85466 102.02 10.0467 102.932 10.4307C103.86 10.8147 104.564 11.3987 105.044 12.1827C105.524 12.9507 105.764 13.9427 105.764 15.1587V23.2227H102.716ZM98.5155 23.5587C97.5715 23.5587 96.7395 23.3907 96.0195 23.0547C95.3155 22.7187 94.7635 22.2387 94.3635 21.6147C93.9635 20.9747 93.7635 20.2147 93.7635 19.3347C93.7635 18.3747 94.0115 17.5907 94.5075 16.9827C95.0035 16.3587 95.6995 15.9027 96.5955 15.6147C97.4915 15.3107 98.5235 15.1587 99.6915 15.1587H102.5V17.2947H99.6675C98.9955 17.2947 98.4755 17.4627 98.1075 17.7987C97.7555 18.1187 97.5795 18.5587 97.5795 19.1187C97.5795 19.6467 97.7555 20.0787 98.1075 20.4147C98.4755 20.7347 98.9955 20.8947 99.6675 20.8947C100.1 20.8947 100.484 20.8227 100.82 20.6787C101.172 20.5187 101.46 20.2547 101.684 19.8867C101.908 19.5187 102.036 19.0067 102.068 18.3507L102.98 19.3107C102.9 20.2227 102.676 20.9907 102.308 21.6147C101.956 22.2387 101.46 22.7187 100.82 23.0547C100.196 23.3907 99.4275 23.5587 98.5155 23.5587ZM114.014 23.6307C112.142 23.6307 110.678 23.2467 109.622 22.4787C108.566 21.7107 108.006 20.6307 107.942 19.2387H111.35C111.414 19.6547 111.662 20.0307 112.094 20.3667C112.542 20.6867 113.206 20.8467 114.086 20.8467C114.758 20.8467 115.31 20.7347 115.742 20.5107C116.19 20.2707 116.414 19.9347 116.414 19.5027C116.414 19.1187 116.246 18.8147 115.91 18.5907C115.574 18.3507 114.974 18.1827 114.11 18.0867L113.078 17.9907C111.494 17.8307 110.302 17.3907 109.502 16.6707C108.718 15.9507 108.326 15.0307 108.326 13.9107C108.326 12.9827 108.558 12.2067 109.022 11.5827C109.486 10.9587 110.126 10.4867 110.942 10.1667C111.774 9.84666 112.718 9.68666 113.774 9.68666C115.47 9.68666 116.838 10.0627 117.878 10.8147C118.918 11.5507 119.462 12.6227 119.51 14.0307H116.102C116.038 13.5987 115.814 13.2387 115.43 12.9507C115.046 12.6467 114.478 12.4947 113.726 12.4947C113.134 12.4947 112.662 12.6067 112.31 12.8307C111.958 13.0547 111.782 13.3587 111.782 13.7427C111.782 14.1107 111.934 14.3907 112.238 14.5827C112.542 14.7747 113.038 14.9107 113.726 14.9907L114.758 15.0867C116.374 15.2627 117.63 15.7107 118.526 16.4307C119.422 17.1507 119.87 18.1187 119.87 19.3347C119.87 20.2147 119.63 20.9827 119.15 21.6387C118.67 22.2787 117.99 22.7747 117.11 23.1267C116.23 23.4627 115.198 23.6307 114.014 23.6307ZM127.349 23.6307C125.477 23.6307 124.013 23.2467 122.957 22.4787C121.901 21.7107 121.341 20.6307 121.277 19.2387H124.685C124.749 19.6547 124.997 20.0307 125.429 20.3667C125.877 20.6867 126.541 20.8467 127.421 20.8467C128.093 20.8467 128.645 20.7347 129.077 20.5107C129.525 20.2707 129.749 19.9347 129.749 19.5027C129.749 19.1187 129.581 18.8147 129.245 18.5907C128.909 18.3507 128.309 18.1827 127.445 18.0867L126.413 17.9907C124.829 17.8307 123.637 17.3907 122.837 16.6707C122.053 15.9507 121.661 15.0307 121.661 13.9107C121.661 12.9827 121.893 12.2067 122.357 11.5827C122.821 10.9587 123.461 10.4867 124.277 10.1667C125.109 9.84666 126.053 9.68666 127.109 9.68666C128.805 9.68666 130.173 10.0627 131.213 10.8147C132.253 11.5507 132.797 12.6227 132.845 14.0307H129.437C129.373 13.5987 129.149 13.2387 128.765 12.9507C128.381 12.6467 127.813 12.4947 127.061 12.4947C126.469 12.4947 125.997 12.6067 125.645 12.8307C125.293 13.0547 125.117 13.3587 125.117 13.7427C125.117 14.1107 125.269 14.3907 125.573 14.5827C125.877 14.7747 126.373 14.9107 127.061 14.9907L128.093 15.0867C129.709 15.2627 130.965 15.7107 131.861 16.4307C132.757 17.1507 133.205 18.1187 133.205 19.3347C133.205 20.2147 132.965 20.9827 132.485 21.6387C132.005 22.2787 131.325 22.7747 130.445 23.1267C129.565 23.4627 128.533 23.6307 127.349 23.6307ZM140.4 23.2227L142.8 10.5027H147L149.784 23.2227H146.808L143.952 10.5987H145.656L143.088 23.2227H140.4ZM139.488 23.2227L139.464 20.0307H142.104L142.128 23.2227H139.488ZM137.76 23.2227L134.232 10.0707H138L141.288 23.2227H137.76ZM147.792 23.2227L147.816 20.0307H150.456V23.2227H147.792ZM148.872 23.2227L151.8 10.0707H155.328L152.16 23.2227H148.872ZM163.805 23.6787C162.653 23.6787 161.629 23.5027 160.733 23.1507C159.837 22.7827 159.077 22.2867 158.453 21.6627C157.845 21.0387 157.381 20.3267 157.061 19.5267C156.741 18.7107 156.581 17.8547 156.581 16.9587V16.4067C156.581 15.4947 156.741 14.6307 157.061 13.8147C157.397 12.9827 157.877 12.2547 158.501 11.6307C159.141 11.0067 159.909 10.5187 160.805 10.1667C161.701 9.79866 162.701 9.61466 163.805 9.61466C164.941 9.61466 165.949 9.79866 166.829 10.1667C167.725 10.5187 168.485 11.0067 169.109 11.6307C169.733 12.2547 170.213 12.9827 170.549 13.8147C170.885 14.6307 171.053 15.4947 171.053 16.4067V16.9587C171.053 17.8547 170.893 18.7107 170.573 19.5267C170.253 20.3267 169.781 21.0387 169.157 21.6627C168.549 22.2867 167.797 22.7827 166.901 23.1507C166.005 23.5027 164.973 23.6787 163.805 23.6787ZM163.805 20.4387C164.557 20.4387 165.181 20.2787 165.677 19.9587C166.173 19.6387 166.549 19.1907 166.805 18.6147C167.077 18.0387 167.213 17.3987 167.213 16.6947C167.213 15.9427 167.077 15.2867 166.805 14.7267C166.533 14.1507 166.141 13.6947 165.629 13.3587C165.133 13.0227 164.525 12.8547 163.805 12.8547C163.101 12.8547 162.493 13.0227 161.981 13.3587C161.469 13.6947 161.077 14.1507 160.805 14.7267C160.549 15.2867 160.421 15.9427 160.421 16.6947C160.421 17.3987 160.549 18.0387 160.805 18.6147C161.061 19.1907 161.445 19.6387 161.957 19.9587C162.469 20.2787 163.085 20.4387 163.805 20.4387ZM173.732 23.2227V10.0707H176.78V15.7107H176.708C176.708 13.8547 177.1 12.4227 177.884 11.4147C178.684 10.4067 179.836 9.90266 181.34 9.90266H181.844V13.2147H180.884C179.828 13.2147 179.012 13.5027 178.436 14.0787C177.86 14.6387 177.572 15.4547 177.572 16.5267V23.2227H173.732ZM189.188 23.6547C188.26 23.6547 187.412 23.4867 186.644 23.1507C185.892 22.8147 185.236 22.3507 184.676 21.7587C184.116 21.1507 183.684 20.4387 183.38 19.6227C183.092 18.8067 182.948 17.9267 182.948 16.9827V16.4307C182.948 15.4867 183.084 14.6067 183.356 13.7907C183.644 12.9747 184.052 12.2627 184.58 11.6547C185.124 11.0307 185.772 10.5507 186.524 10.2147C187.276 9.86266 188.116 9.68666 189.044 9.68666C190.1 9.68666 191.012 9.91866 191.78 10.3827C192.548 10.8307 193.148 11.5027 193.58 12.3987C194.012 13.2787 194.252 14.3667 194.3 15.6627L193.292 14.7267V5.70266H197.156V23.2227H194.108V17.7747H194.636C194.588 19.0227 194.324 20.0867 193.844 20.9667C193.38 21.8467 192.748 22.5187 191.948 22.9827C191.148 23.4307 190.228 23.6547 189.188 23.6547ZM190.148 20.4387C190.74 20.4387 191.276 20.3107 191.756 20.0547C192.252 19.7827 192.644 19.3907 192.932 18.8787C193.236 18.3667 193.388 17.7507 193.388 17.0307V16.1427C193.388 15.4387 193.236 14.8467 192.932 14.3667C192.628 13.8867 192.228 13.5187 191.732 13.2627C191.236 13.0067 190.7 12.8787 190.124 12.8787C189.484 12.8787 188.908 13.0467 188.396 13.3827C187.9 13.7027 187.508 14.1507 187.22 14.7267C186.932 15.2867 186.788 15.9427 186.788 16.6947C186.788 17.4627 186.932 18.1267 187.22 18.6867C187.508 19.2467 187.908 19.6787 188.42 19.9827C188.932 20.2867 189.508 20.4387 190.148 20.4387Z" fill="#1900C0"/>
</svg>
