<svg width="15" height="17" viewBox="0 0 15 17" fill="none" xmlns="http://www.w3.org/2000/svg">
<path fill-rule="evenodd" clip-rule="evenodd" d="M1.22039 11.2204C2.00179 10.439 3.0616 10 4.16667 10H10.8333C11.9384 10 12.9982 10.439 13.7796 11.2204C14.561 12.0018 15 13.0616 15 14.1667V15.8333C15 16.2936 14.6269 16.6667 14.1667 16.6667C13.7064 16.6667 13.3333 16.2936 13.3333 15.8333V14.1667C13.3333 13.5036 13.0699 12.8677 12.6011 12.3989C12.1323 11.9301 11.4964 11.6667 10.8333 11.6667H4.16667C3.50363 11.6667 2.86774 11.9301 2.3989 12.3989C1.93006 12.8677 1.66667 13.5036 1.66667 14.1667V15.8333C1.66667 16.2936 1.29357 16.6667 0.833333 16.6667C0.373096 16.6667 0 16.2936 0 15.8333V14.1667C0 13.0616 0.438987 12.0018 1.22039 11.2204Z" fill="#F8F8F8"/>
<path fill-rule="evenodd" clip-rule="evenodd" d="M7.4987 1.66667C6.11799 1.66667 4.9987 2.78595 4.9987 4.16667C4.9987 5.54738 6.11799 6.66667 7.4987 6.66667C8.87941 6.66667 9.9987 5.54738 9.9987 4.16667C9.9987 2.78595 8.87941 1.66667 7.4987 1.66667ZM3.33203 4.16667C3.33203 1.86548 5.19751 0 7.4987 0C9.79988 0 11.6654 1.86548 11.6654 4.16667C11.6654 6.46785 9.79988 8.33333 7.4987 8.33333C5.19751 8.33333 3.33203 6.46785 3.33203 4.16667Z" fill="#F8F8F8"/>
</svg>
