<svg width="108" height="43" viewBox="0 0 108 43" fill="none" xmlns="http://www.w3.org/2000/svg">
<path d="M16.272 23.6787C14.944 23.6787 13.792 23.4307 12.816 22.9347C11.856 22.4227 11.112 21.6867 10.584 20.7267C10.072 19.7667 9.816 18.5987 9.816 17.2227V16.3347H13.704V17.4387C13.704 18.2067 13.928 18.8307 14.376 19.3107C14.84 19.7747 15.472 20.0067 16.272 20.0067C17.056 20.0067 17.672 19.7747 18.12 19.3107C18.584 18.8307 18.816 18.2067 18.816 17.4387V8.65465H22.752V17.2227C22.752 18.5987 22.488 19.7667 21.96 20.7267C21.448 21.6867 20.704 22.4227 19.728 22.9347C18.768 23.4307 17.616 23.6787 16.272 23.6787ZM11.856 9.13466V5.70266H22.752V9.13466H11.856ZM32.5819 23.6787C31.4299 23.6787 30.4059 23.5027 29.5099 23.1507C28.6139 22.7827 27.8539 22.2867 27.2299 21.6627C26.6219 21.0387 26.1579 20.3267 25.8379 19.5267C25.5179 18.7107 25.3579 17.8547 25.3579 16.9587V16.4067C25.3579 15.4947 25.5179 14.6307 25.8379 13.8147C26.1739 12.9827 26.6539 12.2547 27.2779 11.6307C27.9179 11.0067 28.6859 10.5187 29.5819 10.1667C30.4779 9.79866 31.4779 9.61466 32.5819 9.61466C33.7179 9.61466 34.7259 9.79866 35.6059 10.1667C36.5019 10.5187 37.2619 11.0067 37.8859 11.6307C38.5099 12.2547 38.9899 12.9827 39.3259 13.8147C39.6619 14.6307 39.8299 15.4947 39.8299 16.4067V16.9587C39.8299 17.8547 39.6699 18.7107 39.3499 19.5267C39.0299 20.3267 38.5579 21.0387 37.9339 21.6627C37.3259 22.2867 36.5739 22.7827 35.6779 23.1507C34.7819 23.5027 33.7499 23.6787 32.5819 23.6787ZM32.5819 20.4387C33.3339 20.4387 33.9579 20.2787 34.4539 19.9587C34.9499 19.6387 35.3259 19.1907 35.5819 18.6147C35.8539 18.0387 35.9899 17.3987 35.9899 16.6947C35.9899 15.9427 35.8539 15.2867 35.5819 14.7267C35.3099 14.1507 34.9179 13.6947 34.4059 13.3587C33.9099 13.0227 33.3019 12.8547 32.5819 12.8547C31.8779 12.8547 31.2699 13.0227 30.7579 13.3587C30.2459 13.6947 29.8539 14.1507 29.5819 14.7267C29.3259 15.2867 29.1979 15.9427 29.1979 16.6947C29.1979 17.3987 29.3259 18.0387 29.5819 18.6147C29.8379 19.1907 30.2219 19.6387 30.7339 19.9587C31.2459 20.2787 31.8619 20.4387 32.5819 20.4387ZM43.1338 23.2227V10.0707H46.9738V23.2227H43.1338ZM41.3818 12.9027V10.0707H46.9738V12.9027H41.3818ZM44.6218 8.77465C43.9018 8.77465 43.3658 8.59066 43.0138 8.22266C42.6778 7.83866 42.5098 7.35865 42.5098 6.78265C42.5098 6.19065 42.6778 5.71065 43.0138 5.34265C43.3658 4.95865 43.9018 4.76665 44.6218 4.76665C45.3418 4.76665 45.8698 4.95865 46.2058 5.34265C46.5578 5.71065 46.7338 6.19065 46.7338 6.78265C46.7338 7.35865 46.5578 7.83866 46.2058 8.22266C45.8698 8.59066 45.3418 8.77465 44.6218 8.77465ZM50.5254 23.2227V10.0707H53.5734V15.7107H53.3574C53.3574 14.3667 53.5254 13.2467 53.8614 12.3507C54.2134 11.4547 54.7414 10.7827 55.4454 10.3347C56.1494 9.88666 57.0054 9.66266 58.0134 9.66266H58.1814C59.7174 9.66266 60.8854 10.1667 61.6854 11.1747C62.5014 12.1667 62.9094 13.6787 62.9094 15.7107V23.2227H59.0694V15.4947C59.0694 14.7907 58.8614 14.2147 58.4454 13.7667C58.0294 13.3187 57.4694 13.0947 56.7654 13.0947C56.0454 13.0947 55.4614 13.3267 55.0134 13.7907C54.5814 14.2387 54.3654 14.8307 54.3654 15.5667V23.2227H50.5254ZM75.6608 23.6307C74.1408 23.6307 72.9728 23.1427 72.1568 22.1667C71.3408 21.1747 70.9328 19.6867 70.9328 17.7027V10.0707H74.7728V17.8947C74.7728 18.5987 74.9728 19.1587 75.3728 19.5747C75.7728 19.9907 76.3088 20.1987 76.9808 20.1987C77.6688 20.1987 78.2288 19.9827 78.6608 19.5507C79.0928 19.1187 79.3088 18.5347 79.3088 17.7987V10.0707H83.1488V23.2227H80.1008V17.6787H80.3648C80.3648 19.0067 80.1888 20.1187 79.8368 21.0147C79.5008 21.8947 78.9968 22.5507 78.3248 22.9827C77.6528 23.4147 76.8208 23.6307 75.8288 23.6307H75.6608ZM91.6815 23.6307C89.8095 23.6307 88.3455 23.2467 87.2895 22.4787C86.2335 21.7107 85.6735 20.6307 85.6095 19.2387H89.0175C89.0815 19.6547 89.3295 20.0307 89.7615 20.3667C90.2095 20.6867 90.8735 20.8467 91.7535 20.8467C92.4255 20.8467 92.9775 20.7347 93.4095 20.5107C93.8575 20.2707 94.0815 19.9347 94.0815 19.5027C94.0815 19.1187 93.9135 18.8147 93.5775 18.5907C93.2415 18.3507 92.6415 18.1827 91.7775 18.0867L90.7455 17.9907C89.1615 17.8307 87.9695 17.3907 87.1695 16.6707C86.3855 15.9507 85.9935 15.0307 85.9935 13.9107C85.9935 12.9827 86.2255 12.2067 86.6895 11.5827C87.1535 10.9587 87.7935 10.4867 88.6095 10.1667C89.4415 9.84666 90.3855 9.68666 91.4415 9.68666C93.1375 9.68666 94.5055 10.0627 95.5455 10.8147C96.5855 11.5507 97.1295 12.6227 97.1775 14.0307H93.7695C93.7055 13.5987 93.4815 13.2387 93.0975 12.9507C92.7135 12.6467 92.1455 12.4947 91.3935 12.4947C90.8015 12.4947 90.3295 12.6067 89.9775 12.8307C89.6255 13.0547 89.4495 13.3587 89.4495 13.7427C89.4495 14.1107 89.6015 14.3907 89.9055 14.5827C90.2095 14.7747 90.7055 14.9107 91.3935 14.9907L92.4255 15.0867C94.0415 15.2627 95.2975 15.7107 96.1935 16.4307C97.0895 17.1507 97.5375 18.1187 97.5375 19.3347C97.5375 20.2147 97.2975 20.9827 96.8175 21.6387C96.3375 22.2787 95.6575 22.7747 94.7775 23.1267C93.8975 23.4627 92.8655 23.6307 91.6815 23.6307Z" fill="#1900C0"/>
<rect y="35.2227" width="36" height="7" fill="#1900C0"/>
<rect x="36" y="35.2227" width="36" height="7" fill="#FF0BA3"/>
<rect x="72" y="35.2227" width="36" height="7" fill="#EAB054"/>
</svg>
