<svg xmlns="http://www.w3.org/2000/svg" width="178" height="40" viewBox="0 0 178 40" fill="none">
  <path d="M65.9738 1.24121V1.65502C65.228 1.82054 64.7307 2.48264 64.2335 3.55854L59.261 16.5521H59.0952H58.9295L53.6255 3.06197C53.294 2.15159 52.7968 1.73778 52.1338 1.65502V1.24121C52.7139 1.32397 53.4598 1.32397 54.4543 1.32397C55.6974 1.32397 56.609 1.32397 57.1891 1.24121V1.65502C56.609 1.65502 56.2775 1.73778 56.0289 1.82054C55.7803 1.90331 55.6974 2.15159 55.6974 2.39988C55.6974 2.64816 55.7803 2.97921 55.946 3.39302L59.8411 13.7382L63.3218 4.63444C63.5705 3.88959 63.7362 3.31026 63.7362 2.89645C63.7362 2.48264 63.5705 2.15159 63.239 1.90331C62.9903 1.73778 62.576 1.65502 61.913 1.65502V1.24121C62.7417 1.32397 63.5705 1.32397 64.3992 1.32397C65.0622 1.32397 65.5594 1.24121 65.9738 1.24121Z" fill="black"/>
  <path d="M69.4542 14.4833C69.4542 15.0626 69.5371 15.4765 69.7857 15.7247C70.0344 15.973 70.4487 16.0558 71.0288 16.0558V16.4696C69.7029 16.3868 68.8741 16.3868 68.4597 16.3868C68.0454 16.3868 67.2166 16.3868 65.8906 16.4696V16.0558C66.4707 16.0558 66.8851 15.973 67.1337 15.7247C67.3824 15.4765 67.4652 15.0626 67.4652 14.4833V7.69685C67.4652 7.03475 67.3824 6.53818 67.1337 6.2899C66.8851 5.95885 66.4707 5.79333 65.8906 5.79333V5.37952C66.3879 5.46228 66.8022 5.46228 67.2166 5.46228C68.1282 5.46228 68.8741 5.37952 69.4542 5.13123V14.4833ZM69.2885 0.413809C69.5371 0.662094 69.7028 0.993142 69.7028 1.40695C69.7028 1.82076 69.5371 2.06905 69.2885 2.40009C69.0399 2.64838 68.7084 2.8139 68.294 2.8139C67.8796 2.8139 67.631 2.64838 67.2995 2.40009C67.0509 2.15181 66.8851 1.82076 66.8851 1.40695C66.8851 0.993142 67.0509 0.744856 67.2995 0.413809C67.631 0.165524 67.9625 0 68.294 0C68.6255 0 69.0399 0.165524 69.2885 0.413809Z" fill="black"/>
  <path d="M82.0514 5.37939V5.7932C81.8028 5.7932 81.4713 5.95873 81.3055 6.20701C81.0569 6.4553 80.8912 6.78634 80.6425 7.36568L77.0789 16.5522H76.7474L72.7695 7.03463C72.5209 6.53806 72.3551 6.20701 72.1065 6.04149C71.9407 5.87597 71.6921 5.7932 71.5264 5.7932V5.37939C72.2722 5.46216 72.9352 5.46216 73.4325 5.46216C74.5098 5.46216 75.5043 5.46216 76.2502 5.37939V5.7932C75.753 5.7932 75.3386 5.7932 75.09 5.87597C74.8413 5.95873 74.7585 6.12425 74.7585 6.4553C74.7585 6.62082 74.8413 6.95187 75.0071 7.36568L77.6591 13.9039L79.8967 7.86225C80.0624 7.44844 80.1453 7.11739 80.1453 6.86911C80.1453 6.53806 79.9796 6.28977 79.7309 6.12425C79.4823 5.95873 79.0679 5.87597 78.4878 5.7932V5.37939C79.2337 5.46216 79.8138 5.46216 80.311 5.46216C80.974 5.46216 81.5542 5.37939 82.0514 5.37939Z" fill="black"/>
  <path d="M90.8357 5.54491C91.1672 5.87596 91.4158 6.28977 91.4158 6.78634C91.4158 7.20015 91.3329 7.44843 91.0843 7.77948C90.8357 8.02776 90.5871 8.19329 90.1727 8.19329C89.8412 8.19329 89.5926 8.11053 89.344 7.86224C89.0953 7.69672 89.0125 7.36567 89.0125 7.03462C89.0125 6.53805 89.2611 6.207 89.7583 5.87596C89.6755 5.71043 89.5097 5.62767 89.344 5.62767C88.7638 5.62767 88.2666 5.87596 87.8522 6.28977C87.355 6.70358 87.0235 7.28291 86.7749 7.86224C86.5262 8.52433 86.3605 9.10367 86.3605 9.683V14.2349C86.3605 14.897 86.5262 15.3936 86.9406 15.6418C87.355 15.8901 87.8522 16.0557 88.681 16.0557V16.4695H88.1837C86.692 16.3867 85.7804 16.3867 85.366 16.3867C84.9516 16.3867 84.1229 16.3867 82.7969 16.4695V16.0557C83.377 16.0557 83.7914 15.9729 84.04 15.7246C84.2886 15.4763 84.3715 15.0625 84.3715 14.4832V7.69672C84.3715 7.03462 84.2886 6.53805 84.04 6.28977C83.7914 5.95872 83.377 5.87596 82.7969 5.87596V5.37939C83.2941 5.46215 83.7085 5.46215 84.1229 5.46215C85.0345 5.46215 85.7804 5.37939 86.3605 5.1311V7.77948C86.6091 7.03462 87.0235 6.45529 87.6036 5.87596C88.1837 5.29663 88.7638 5.04834 89.5097 5.04834C90.0069 5.04834 90.4213 5.21386 90.8357 5.54491Z" fill="black"/>
  <path d="M95.8917 14.4833C95.8917 15.0626 95.9746 15.4765 96.2232 15.7247C96.4718 15.973 96.8862 16.0558 97.4663 16.0558V16.4696C96.1403 16.3868 95.3116 16.3868 94.8972 16.3868C94.4829 16.3868 93.6541 16.3868 92.3281 16.4696V16.0558C92.9082 16.0558 93.3226 15.973 93.5712 15.7247C93.8199 15.4765 93.9027 15.0626 93.9027 14.4833V7.69685C93.9027 7.03475 93.8199 6.53818 93.5712 6.2899C93.3226 5.95885 92.9082 5.87609 92.3281 5.87609V5.37952C92.8254 5.46228 93.2397 5.46228 93.6541 5.46228C94.5657 5.46228 95.3116 5.37952 95.8917 5.13123V14.4833ZM95.726 0.413809C95.9746 0.662094 96.1403 0.993142 96.1403 1.40695C96.1403 1.82076 95.9746 2.06905 95.726 2.40009C95.4773 2.64838 95.1459 2.8139 94.7315 2.8139C94.3171 2.8139 94.0685 2.64838 93.737 2.40009C93.4884 2.15181 93.3226 1.82076 93.3226 1.40695C93.3226 0.993142 93.4884 0.744856 93.737 0.413809C93.9856 0.165524 94.3171 0 94.7315 0C95.1459 0 95.4773 0.165524 95.726 0.413809Z" fill="black"/>
  <path d="M102.024 5.37931H105.173V5.79312H102.024V14.1521C102.024 14.8142 102.107 15.228 102.355 15.559C102.604 15.8073 102.935 15.9728 103.35 15.9728C103.764 15.9728 104.178 15.8073 104.51 15.4762C104.841 15.1452 105.09 14.5659 105.339 13.7383L105.753 13.821C105.422 15.8073 104.427 16.8004 102.935 16.8004C102.438 16.8004 102.024 16.7177 101.692 16.6349C101.361 16.5522 101.112 16.3039 100.864 16.1383C100.532 15.8073 100.366 15.4762 100.201 14.9797C100.118 14.4831 100.035 13.9038 100.035 13.1589V5.79312H97.9629V5.37931H100.035V2.06884C100.864 2.06884 101.444 1.90332 101.941 1.73779V5.37931H102.024Z" fill="black"/>
  <path d="M109.815 14.4833C109.815 15.0626 109.897 15.4765 110.146 15.7247C110.395 15.973 110.809 16.0558 111.389 16.0558V16.4696C110.063 16.3868 109.234 16.3868 108.82 16.3868C108.406 16.3868 107.577 16.3868 106.251 16.4696V16.0558C106.831 16.0558 107.245 15.973 107.494 15.7247C107.743 15.4765 107.826 15.0626 107.826 14.4833V7.69685C107.826 7.03475 107.743 6.53818 107.494 6.2899C107.245 5.95885 106.831 5.79333 106.251 5.79333V5.37952C106.748 5.46228 107.163 5.46228 107.577 5.46228C108.489 5.46228 109.234 5.37952 109.815 5.13123V14.4833ZM109.649 0.413809C109.897 0.662094 110.063 0.993142 110.063 1.40695C110.063 1.82076 109.897 2.06905 109.649 2.40009C109.4 2.64838 109.069 2.8139 108.654 2.8139C108.24 2.8139 107.991 2.64838 107.66 2.40009C107.411 2.15181 107.245 1.82076 107.245 1.40695C107.245 0.993142 107.411 0.744856 107.66 0.413809C107.908 0.165524 108.24 0 108.654 0C109.069 0 109.4 0.165524 109.649 0.413809Z" fill="black"/>
  <path d="M130.201 15.9731V16.3869C129.621 16.3041 128.875 16.3041 127.881 16.3041C126.638 16.3041 125.726 16.3041 125.146 16.3869V15.9731C125.726 15.9731 126.058 15.8903 126.306 15.8075C126.555 15.7248 126.638 15.4765 126.638 15.2282C126.638 14.9799 126.555 14.6489 126.389 14.2351L125.063 10.6763H119.842L118.93 12.9936C118.682 13.7385 118.516 14.3178 118.516 14.7316C118.516 15.1454 118.682 15.4765 119.013 15.7248C119.345 15.8903 119.759 16.0558 120.422 16.0558V16.4696C119.593 16.3869 118.765 16.3869 117.936 16.3869C117.273 16.3869 116.776 16.3869 116.361 16.4696V16.0558C117.107 15.8903 117.604 15.2282 118.102 14.1523L123.157 1.15869H123.489L128.71 14.6489C129.041 15.5592 129.538 15.9731 130.201 15.9731ZM124.98 10.2625L122.577 3.80707L120.091 10.2625H124.98Z" fill="black"/>
  <path d="M135.92 5.29663C136.335 5.46215 136.666 5.62767 136.915 5.87596C137.081 5.95872 137.163 6.04148 137.329 6.04148C137.578 6.04148 137.744 5.71043 137.826 5.1311H138.324C138.241 5.7932 138.241 7.03462 138.241 8.77262H137.744C137.578 7.86224 137.246 7.03462 136.832 6.45529C136.418 5.87596 135.672 5.54491 134.843 5.54491C134.346 5.54491 133.931 5.71043 133.6 5.95872C133.268 6.28977 133.103 6.62081 133.103 7.20015C133.103 7.69672 133.268 8.11053 133.6 8.44157C133.931 8.77262 134.511 9.18643 135.257 9.683C135.423 9.76576 135.589 9.84853 135.837 10.014C136.5 10.4279 136.998 10.8417 137.412 11.1727C137.826 11.5038 138.158 11.9176 138.407 12.3314C138.655 12.7452 138.821 13.2418 138.821 13.8211C138.821 14.7315 138.489 15.4763 137.744 16.0557C136.998 16.5522 136.169 16.8833 135.092 16.8833C134.429 16.8833 133.848 16.8005 133.351 16.5522C133.02 16.3867 132.771 16.2212 132.44 15.9729C132.357 15.8901 132.357 15.8901 132.274 15.8901C132.191 15.8901 132.108 15.9729 132.025 16.1384C131.942 16.3039 131.859 16.4695 131.859 16.7178H131.279C131.362 15.8901 131.362 14.4832 131.362 12.4141H131.859C132.025 13.7383 132.274 14.7315 132.688 15.3936C133.103 16.0557 133.848 16.3867 134.843 16.3867C135.34 16.3867 135.755 16.2212 136.169 15.8901C136.583 15.5591 136.749 15.0625 136.749 14.3177C136.749 13.7383 136.583 13.3245 136.169 12.9107C135.755 12.4969 135.174 12.0831 134.346 11.5038C133.683 11.09 133.103 10.6761 132.688 10.4279C132.274 10.1796 132.025 9.76576 131.694 9.35195C131.445 8.93815 131.279 8.44157 131.279 7.86224C131.279 6.95186 131.611 6.28977 132.191 5.7932C132.771 5.29663 133.517 5.04834 134.511 5.04834C135.092 5.04834 135.506 5.1311 135.92 5.29663Z" fill="black"/>
  <path d="M145.534 5.29663C145.948 5.46215 146.28 5.62767 146.528 5.87596C146.694 5.95872 146.777 6.04148 146.943 6.04148C147.191 6.04148 147.357 5.71043 147.44 5.1311H147.937C147.854 5.7932 147.854 7.03462 147.854 8.77262H147.357C147.191 7.86224 146.86 7.03462 146.445 6.45529C146.031 5.87596 145.285 5.54491 144.456 5.54491C143.959 5.54491 143.545 5.71043 143.213 5.95872C142.882 6.28977 142.716 6.62081 142.716 7.20015C142.716 7.69672 142.882 8.11053 143.213 8.44157C143.545 8.77262 144.125 9.18643 144.871 9.683C145.036 9.76576 145.202 9.84853 145.451 10.014C146.114 10.4279 146.611 10.8417 147.025 11.1727C147.44 11.5038 147.771 11.9176 148.02 12.3314C148.269 12.7452 148.434 13.2418 148.434 13.8211C148.434 14.7315 148.103 15.4763 147.357 16.0557C146.611 16.5522 145.782 16.8833 144.705 16.8833C144.042 16.8833 143.462 16.8005 142.965 16.5522C142.633 16.3867 142.384 16.2212 142.053 15.9729C141.97 15.8901 141.97 15.8901 141.887 15.8901C141.804 15.8901 141.721 15.9729 141.639 16.1384C141.556 16.3039 141.473 16.4695 141.473 16.7178H140.976C141.058 15.8901 141.058 14.4832 141.058 12.4141H141.556C141.721 13.7383 141.97 14.7315 142.384 15.3936C142.799 16.0557 143.545 16.3867 144.539 16.3867C145.036 16.3867 145.451 16.2212 145.865 15.8901C146.28 15.5591 146.445 15.0625 146.445 14.3177C146.445 13.7383 146.28 13.3245 145.865 12.9107C145.451 12.4969 144.871 12.0831 144.042 11.5038C143.379 11.09 142.799 10.6761 142.384 10.4279C141.97 10.1796 141.721 9.76576 141.39 9.35195C141.141 8.93815 140.976 8.44157 140.976 7.86224C140.976 6.95186 141.307 6.28977 141.887 5.7932C142.467 5.29663 143.213 5.04834 144.208 5.04834C144.705 5.04834 145.119 5.1311 145.534 5.29663Z" fill="black"/>
  <path d="M159.29 13.9041C159.042 14.7317 158.544 15.3938 157.798 15.9731C157.053 16.5525 156.224 16.8008 155.229 16.8008C154.235 16.8008 153.323 16.5525 152.577 16.1387C151.831 15.7249 151.251 14.98 150.837 14.1524C150.423 13.3248 150.257 12.3316 150.257 11.2557C150.257 10.0143 150.423 8.93839 150.837 8.02801C151.251 7.11763 151.831 6.37277 152.577 5.8762C153.323 5.37963 154.152 5.13135 155.146 5.13135C156.472 5.13135 157.467 5.54516 158.13 6.29001C158.793 7.03487 159.207 8.2763 159.207 9.84877H152.494C152.412 10.2626 152.412 10.6764 152.412 11.2557C152.412 12.1661 152.577 12.9937 152.909 13.7386C153.24 14.4007 153.655 14.98 154.152 15.3938C154.649 15.8076 155.229 15.9731 155.727 15.9731C156.39 15.9731 157.053 15.8076 157.55 15.4766C158.047 15.1455 158.544 14.5662 158.876 13.8213L159.29 13.9041ZM153.323 6.45554C152.826 7.11763 152.494 8.11077 152.412 9.3522H157.135C157.135 8.19353 156.97 7.28315 156.638 6.5383C156.307 5.79344 155.727 5.37963 155.064 5.37963C154.401 5.46239 153.82 5.79344 153.323 6.45554Z" fill="black"/>
  <path d="M164.346 5.37931H167.495V5.79312H164.346V14.1521C164.346 14.8142 164.429 15.228 164.678 15.559C164.926 15.8073 165.258 15.9728 165.672 15.9728C166.086 15.9728 166.501 15.8073 166.832 15.4762C167.164 15.1452 167.412 14.5659 167.661 13.7383L168.075 13.821C167.744 15.8073 166.749 16.8004 165.258 16.8004C164.76 16.8004 164.346 16.7177 164.015 16.6349C163.683 16.5522 163.434 16.3039 163.186 16.1383C162.854 15.8073 162.689 15.4762 162.523 14.9797C162.44 14.4831 162.357 13.9038 162.357 13.1589V5.79312H160.285V5.37931H162.357V2.06884C163.186 2.06884 163.766 1.90332 164.263 1.73779V5.37931H164.346Z" fill="black"/>
  <path d="M69.0401 21.4355C68.7915 21.5183 68.6257 21.6838 68.5428 21.9321C68.46 22.1804 68.3771 22.5942 68.3771 23.0908V33.767C68.3771 34.3464 68.46 34.6774 68.5428 34.9257C68.6257 35.174 68.7915 35.3395 69.0401 35.4223C69.2887 35.505 69.6202 35.5878 70.2003 35.5878V36.0016C69.5373 35.9188 68.6257 35.9188 67.4655 35.9188C66.2224 35.9188 65.3107 35.9188 64.7306 36.0016V35.5878C65.2279 35.5878 65.6422 35.505 65.8909 35.4223C66.1395 35.3395 66.3052 35.174 66.3881 34.9257C66.471 34.6774 66.5539 34.2636 66.5539 33.767V22.2631L61.3328 36.1671H60.8355L55.4487 22.1804V33.5188C55.4487 34.0981 55.5316 34.5119 55.6144 34.7602C55.6973 35.0085 55.8631 35.2568 56.1946 35.3395C56.4432 35.4223 56.8575 35.505 57.4377 35.5878V36.0016C56.9404 35.9188 56.1946 35.9188 55.2829 35.9188C54.4542 35.9188 53.7912 35.9188 53.2939 36.0016V35.5878C53.7912 35.5878 54.2056 35.505 54.4542 35.3395C54.7028 35.2568 54.8686 35.0085 54.9514 34.7602C55.0343 34.5119 55.1172 34.0981 55.1172 33.5188V23.0908C55.1172 22.5114 55.0343 22.1804 54.9514 21.9321C54.8686 21.6838 54.7028 21.5183 54.4542 21.4355C54.2056 21.3528 53.8741 21.27 53.2939 21.27V20.8562C53.7912 20.939 54.4542 20.939 55.2829 20.939C56.0288 20.939 56.6089 20.939 57.1062 20.8562L61.83 33.2705L66.471 20.8562H67.4655C68.6257 20.8562 69.5373 20.8562 70.2003 20.7734V21.1872C69.6202 21.27 69.2058 21.3528 69.0401 21.4355Z" fill="black"/>
  <path d="M72.4384 35.5046C72.024 35.0908 71.7754 34.4287 71.7754 33.6011C71.7754 32.939 71.9411 32.4425 72.2726 32.0286C72.6041 31.6148 73.0185 31.2838 73.5158 31.0355C74.013 30.7872 74.5931 30.5389 75.4219 30.2906C76.2506 30.0424 76.8307 29.7941 77.2451 29.5458C77.6595 29.2975 77.8252 29.0492 77.8252 28.6354V27.3112C77.8252 26.4836 77.6595 25.9043 77.328 25.5732C76.9965 25.2422 76.4992 25.0766 75.8362 25.0766C74.8418 25.0766 74.0959 25.3249 73.6815 25.8215C73.9301 25.9043 74.1788 26.0698 74.4274 26.2353C74.5931 26.4836 74.7589 26.7319 74.7589 27.0629C74.7589 27.394 74.676 27.725 74.4274 27.8906C74.1788 28.1388 73.9301 28.2216 73.5158 28.2216C73.1014 28.2216 72.8528 28.0561 72.6041 27.8078C72.4384 27.5595 72.2726 27.2285 72.2726 26.8974C72.2726 26.5664 72.3555 26.2353 72.5213 26.0698C72.687 25.8215 72.9356 25.5732 73.2671 25.4077C73.5986 25.1594 74.013 24.9939 74.5931 24.8284C75.0904 24.6628 75.6705 24.5801 76.3335 24.5801C77.4937 24.5801 78.3225 24.8284 78.9026 25.4077C79.2341 25.7387 79.4827 26.1526 79.6485 26.5664C79.7314 27.0629 79.8142 27.6423 79.8142 28.3871V34.346C79.8142 34.677 79.8971 34.9253 79.98 35.0908C80.0629 35.2564 80.2286 35.3391 80.4772 35.3391C80.643 35.3391 80.8087 35.3391 80.9745 35.2563C81.1402 35.1736 81.306 35.0908 81.4717 34.9253L81.7203 35.2563C81.306 35.5046 81.0573 35.7529 80.7259 35.8357C80.4772 35.9184 80.1457 36.0012 79.7314 36.0012C79.0684 36.0012 78.5711 35.8357 78.3225 35.5046C78.0739 35.1736 77.9081 34.677 77.9081 34.0977C77.4937 34.8425 76.9965 35.3391 76.4164 35.5874C75.8363 35.8357 75.2561 36.0012 74.5103 36.0012C73.5158 36.1667 72.8528 36.0012 72.4384 35.5046ZM77.8252 33.6839V29.463C77.6595 29.6285 77.4937 29.7941 77.328 29.9596C77.0794 30.1251 76.7479 30.2906 76.2506 30.4562C75.6705 30.7045 75.2561 30.87 74.9246 31.1183C74.5931 31.3665 74.2616 31.6148 74.013 31.9459C73.7644 32.2769 73.6815 32.7735 73.6815 33.3528C73.6815 34.0149 73.8473 34.5115 74.1788 34.8425C74.5103 35.1736 74.9246 35.3391 75.4219 35.3391C76.3335 35.3391 77.1622 34.7598 77.8252 33.6839Z" fill="black"/>
  <path d="M91.8302 25.4908C92.0789 25.7391 92.3275 26.1529 92.4104 26.5667C92.4932 26.9806 92.5761 27.5599 92.5761 28.3047V34.0153C92.5761 34.5946 92.659 35.0084 92.9076 35.2567C93.1562 35.505 93.5706 35.5878 94.1507 35.5878V36.0016C92.8247 35.9188 91.996 35.9188 91.5816 35.9188C91.1672 35.9188 90.3385 35.9188 89.1783 36.0016V35.5878C89.6755 35.5878 90.0899 35.505 90.2556 35.2567C90.5043 35.0084 90.5871 34.5946 90.5871 34.0153V27.8082C90.5871 26.9806 90.5043 26.4012 90.2556 25.9874C90.007 25.5736 89.5926 25.3253 88.8468 25.3253C88.2666 25.3253 87.7694 25.4908 87.2721 25.8219C86.7749 26.1529 86.4434 26.6495 86.1948 27.2288C85.9461 27.8082 85.7804 28.4703 85.7804 29.2151V34.0153C85.7804 34.5946 85.8633 35.0084 86.1119 35.2567C86.3605 35.505 86.692 35.5878 87.1893 35.5878V36.0016C85.9462 35.9188 85.2003 35.9188 84.7859 35.9188C84.3715 35.9188 83.5428 35.9188 82.2168 36.0016V35.5878C82.7969 35.5878 83.2113 35.505 83.4599 35.2567C83.7085 35.0084 83.7914 34.5946 83.7914 34.0153V27.3116C83.7914 26.6495 83.7085 26.1529 83.4599 25.9047C83.2113 25.5736 82.7969 25.4908 82.2168 25.4908V25.077C82.714 25.1598 83.1284 25.1598 83.5428 25.1598C84.4544 25.1598 85.2003 25.077 85.7804 24.8287V27.3116C86.1119 26.4012 86.6091 25.7391 87.2721 25.3253C87.9351 24.9115 88.5981 24.746 89.4269 24.746C90.5043 24.6632 91.2501 24.9115 91.8302 25.4908Z" fill="black"/>
  <path d="M95.9745 35.5046C95.5601 35.0908 95.3115 34.4287 95.3115 33.6011C95.3115 32.939 95.4773 32.4425 95.8088 32.0286C96.1403 31.6148 96.5546 31.2838 97.0519 31.0355C97.5491 30.7872 98.1293 30.5389 98.958 30.2906C99.7868 30.0424 100.367 29.7941 100.781 29.5458C101.196 29.2975 101.361 29.0492 101.361 28.6354V27.3112C101.361 26.4836 101.196 25.9043 100.864 25.5732C100.533 25.2422 100.035 25.0766 99.3724 25.0766C98.3779 25.0766 97.632 25.3249 97.2176 25.8215C97.4663 25.9043 97.7149 26.0698 97.9635 26.2353C98.1293 26.4836 98.295 26.7319 98.295 27.0629C98.295 27.394 98.2121 27.725 97.9635 27.8906C97.7149 28.1388 97.4663 28.2216 97.0519 28.2216C96.6375 28.2216 96.3889 28.0561 96.1403 27.8078C95.9745 27.5595 95.8088 27.2285 95.8088 26.8974C95.8088 26.5664 95.8916 26.2353 96.0574 26.0698C96.2231 25.8215 96.4718 25.5732 96.8033 25.4077C97.1348 25.1594 97.5491 24.9939 98.1293 24.8284C98.6265 24.6628 99.2066 24.5801 99.8696 24.5801C101.03 24.5801 101.859 24.8284 102.439 25.4077C102.77 25.7387 103.019 26.1526 103.185 26.5664C103.267 27.0629 103.35 27.6423 103.35 28.3871V34.346C103.35 34.677 103.433 34.9253 103.516 35.0908C103.599 35.2564 103.765 35.3391 104.013 35.3391C104.179 35.3391 104.345 35.3391 104.511 35.2563C104.676 35.1736 104.842 35.0908 105.008 34.9253L105.256 35.2563C104.842 35.5046 104.593 35.7529 104.262 35.8357C104.013 35.9184 103.682 36.0012 103.267 36.0012C102.604 36.0012 102.107 35.8357 101.859 35.5046C101.61 35.1736 101.444 34.677 101.444 34.0977C101.03 34.8425 100.533 35.3391 99.9525 35.5874C99.3724 35.8357 98.7923 36.0012 98.0464 36.0012C97.1348 36.1667 96.4718 36.0012 95.9745 35.5046ZM101.361 33.6839V29.463C101.196 29.6285 101.03 29.7941 100.864 29.9596C100.615 30.1251 100.284 30.2906 99.7868 30.4562C99.2066 30.7045 98.7923 30.87 98.4608 31.1183C98.1293 31.3665 97.7978 31.6148 97.5491 31.9459C97.3005 32.2769 97.2176 32.7735 97.2176 33.3528C97.2176 34.0149 97.3834 34.5115 97.7149 34.8425C98.0464 35.1736 98.4608 35.3391 98.958 35.3391C99.8696 35.3391 100.698 34.7598 101.361 33.6839Z" fill="black"/>
  <path d="M114.704 26.6494C114.538 26.4838 114.455 26.2355 114.455 25.9045C114.455 25.6562 114.538 25.3252 114.704 24.9114C114.289 25.0769 114.041 25.2424 113.792 25.4079C113.544 25.5735 113.378 25.8217 113.212 26.1528C113.544 26.6494 113.709 27.3115 113.709 28.0563C113.709 29.215 113.378 30.0426 112.715 30.6219C112.052 31.2013 111.14 31.4495 109.98 31.4495C109.483 31.6978 109.151 31.9461 108.903 32.1944C108.654 32.4427 108.571 32.691 108.571 32.9393C108.571 33.4358 108.903 33.6014 109.566 33.6014H112.218C113.212 33.6014 114.041 33.8496 114.621 34.2634C115.284 34.6773 115.615 35.3394 115.615 36.167C115.615 36.8291 115.367 37.4912 114.952 38.0705C114.538 38.6498 113.875 39.1464 112.963 39.4774C112.135 39.8085 111.057 39.974 109.814 39.974C108.571 39.974 107.494 39.8085 106.665 39.3947C105.836 38.9809 105.422 38.4843 105.422 37.7394C105.422 37.2429 105.588 36.8291 106.002 36.498C106.416 36.167 106.914 35.8359 107.659 35.6704L107.825 36.0014C107.494 36.0842 107.245 36.3325 107.079 36.5808C106.914 36.9118 106.831 37.2429 106.831 37.5739C106.831 38.236 107.162 38.7326 107.742 39.0636C108.322 39.3947 109.151 39.5602 110.146 39.5602C111.223 39.5602 112.218 39.3119 112.963 38.8981C113.792 38.4843 114.124 37.8222 114.124 36.9118C114.124 36.4153 113.958 36.0014 113.544 35.6704C113.212 35.4221 112.549 35.2566 111.555 35.2566H109.98C109.151 35.2566 108.488 35.1738 107.908 34.9255C107.411 34.6773 107.162 34.2634 107.162 33.6014C107.162 33.1875 107.328 32.7737 107.659 32.3599C107.991 31.9461 108.488 31.5323 109.234 31.2013C108.322 31.1185 107.494 30.7875 106.996 30.2081C106.416 29.6288 106.168 28.8839 106.168 27.808C106.168 26.6494 106.499 25.8217 107.162 25.2424C107.825 24.6631 108.737 24.4148 109.897 24.4148C111.223 24.4148 112.218 24.8286 112.881 25.5735C113.129 25.1596 113.461 24.8286 113.875 24.5803C114.289 24.332 114.704 24.1665 115.118 24.1665C115.533 24.1665 115.781 24.2493 116.03 24.4976C116.278 24.7458 116.361 24.9941 116.361 25.4079C116.361 25.8217 116.278 26.07 116.03 26.3183C115.781 26.4838 115.533 26.6494 115.284 26.6494C115.118 26.8976 114.87 26.8149 114.704 26.6494ZM111.223 30.3736C111.555 29.9598 111.637 29.1322 111.637 28.0563C111.637 26.9804 111.472 26.1528 111.223 25.739C110.892 25.3252 110.477 25.0769 109.897 25.0769C109.317 25.0769 108.903 25.3252 108.571 25.739C108.24 26.1528 108.157 26.9804 108.157 28.0563C108.157 29.1322 108.322 29.9598 108.571 30.3736C108.903 30.7875 109.317 31.0357 109.897 31.0357C110.477 31.0357 110.892 30.8702 111.223 30.3736Z" fill="black"/>
  <path d="M126.307 33.4358C126.058 34.2635 125.561 34.9256 124.815 35.5049C124.069 36.0842 123.24 36.3325 122.246 36.3325C121.251 36.3325 120.34 36.0842 119.594 35.6704C118.848 35.2566 118.268 34.5117 117.854 33.6841C117.439 32.8565 117.273 31.8634 117.273 30.7875C117.273 29.546 117.439 28.4701 117.854 27.5597C118.268 26.6494 118.848 25.9045 119.594 25.4079C120.34 24.9114 121.169 24.6631 122.163 24.6631C123.489 24.6631 124.484 25.0769 125.147 25.8218C125.81 26.5666 126.224 27.808 126.224 29.3805H119.511C119.428 29.7943 119.428 30.2081 119.428 30.7875C119.428 31.6978 119.594 32.5255 119.925 33.2703C120.257 33.9324 120.671 34.5117 121.169 34.9255C121.666 35.3394 122.246 35.5049 122.743 35.5049C123.406 35.5049 124.069 35.3394 124.566 35.0083C125.064 34.6773 125.561 34.0979 125.892 33.3531L126.307 33.4358ZM120.423 26.07C119.925 26.7321 119.594 27.7253 119.511 28.9667H124.235C124.235 27.808 124.069 26.8977 123.738 26.1528C123.406 25.4079 122.826 24.9941 122.163 24.9941C121.5 25.0769 120.92 25.4079 120.423 26.07Z" fill="black"/>
  <path d="M144.787 35.2566C145.036 35.5049 145.45 35.5876 146.03 35.5876V36.0015C144.704 35.9187 143.875 35.9187 143.461 35.9187C143.047 35.9187 142.218 35.9187 141.058 36.0015V35.5876C141.555 35.5876 141.969 35.5049 142.135 35.2566C142.301 35.0083 142.467 34.5945 142.467 34.0152V27.808C142.467 27.2287 142.467 26.8149 142.384 26.4838C142.301 26.1528 142.135 25.9045 141.969 25.6562C141.721 25.4079 141.389 25.3252 140.892 25.3252C140.312 25.3252 139.815 25.4907 139.4 25.8218C138.986 26.1528 138.572 26.6494 138.323 27.2287C138.074 27.808 137.909 28.4701 137.909 29.215V34.0152C137.909 34.5945 137.991 35.0083 138.24 35.2566C138.489 35.5049 138.903 35.5876 139.483 35.5876V36.0015C138.157 35.9187 137.328 35.9187 136.914 35.9187C136.5 35.9187 135.671 35.9187 134.511 36.0015V35.5876C135.008 35.5876 135.422 35.5049 135.588 35.2566C135.837 35.0083 135.92 34.5945 135.92 34.0152V27.808C135.92 27.2287 135.92 26.8149 135.837 26.4838C135.754 26.1528 135.588 25.9045 135.422 25.6562C135.174 25.4079 134.842 25.3252 134.345 25.3252C133.765 25.3252 133.268 25.4907 132.853 25.8218C132.439 26.1528 132.024 26.6494 131.776 27.2287C131.527 27.808 131.361 28.4701 131.361 29.215V34.0152C131.361 34.5945 131.444 35.0083 131.693 35.2566C131.942 35.5049 132.273 35.5876 132.77 35.5876V36.0015C131.527 35.9187 130.781 35.9187 130.367 35.9187C129.953 35.9187 129.124 35.9187 127.798 36.0015V35.5876C128.378 35.5876 128.792 35.5049 129.041 35.2566C129.29 35.0083 129.372 34.5945 129.372 34.0152V27.3115C129.372 26.6494 129.29 26.1528 129.041 25.9045C128.792 25.5735 128.378 25.4907 127.798 25.4907V25.0769C128.295 25.1597 128.709 25.1597 129.124 25.1597C130.035 25.1597 130.781 25.0769 131.361 24.8286V27.3115C131.693 26.4011 132.19 25.739 132.853 25.3252C133.516 24.9114 134.179 24.6631 134.925 24.6631C135.92 24.6631 136.665 24.9114 137.163 25.4907C137.494 25.9045 137.743 26.4011 137.826 27.2287C138.157 26.3183 138.654 25.6562 139.317 25.2424C139.98 24.8286 140.643 24.6631 141.389 24.6631C142.384 24.6631 143.13 24.9114 143.627 25.4907C143.875 25.739 144.041 26.1528 144.207 26.5666C144.29 26.9804 144.373 27.5598 144.373 28.3046V34.0152C144.456 34.6773 144.538 35.0083 144.787 35.2566Z" fill="black"/>
  <path d="M156.307 33.4358C156.058 34.2635 155.561 34.9256 154.815 35.5049C154.069 36.0842 153.24 36.3325 152.246 36.3325C151.251 36.3325 150.34 36.0842 149.594 35.6704C148.848 35.2566 148.268 34.5117 147.854 33.6841C147.439 32.8565 147.273 31.8634 147.273 30.7875C147.273 29.546 147.439 28.4701 147.854 27.5597C148.268 26.6494 148.848 25.9045 149.594 25.4079C150.34 24.9114 151.169 24.6631 152.163 24.6631C153.489 24.6631 154.484 25.0769 155.147 25.8218C155.81 26.5666 156.224 27.808 156.224 29.3805H149.511C149.428 29.7943 149.428 30.2081 149.428 30.7875C149.428 31.6978 149.594 32.5255 149.925 33.2703C150.257 33.9324 150.671 34.5117 151.169 34.9255C151.666 35.3394 152.246 35.5049 152.743 35.5049C153.406 35.5049 154.069 35.3394 154.566 35.0083C155.064 34.6773 155.561 34.0979 155.892 33.3531L156.307 33.4358ZM150.423 26.07C149.925 26.7321 149.594 27.7253 149.511 28.9667H154.235C154.235 27.808 154.069 26.8977 153.738 26.1528C153.406 25.4079 152.826 24.9941 152.163 24.9941C151.5 25.0769 150.92 25.4079 150.423 26.07Z" fill="black"/>
  <path d="M167.412 25.4908C167.661 25.7391 167.91 26.1529 167.992 26.5667C168.075 26.9806 168.158 27.5599 168.158 28.3047V34.0153C168.158 34.5946 168.241 35.0084 168.49 35.2567C168.738 35.505 169.153 35.5878 169.733 35.5878V36.0016C168.407 35.9188 167.578 35.9188 167.164 35.9188C166.749 35.9188 165.921 35.9188 164.76 36.0016V35.5878C165.258 35.5878 165.672 35.505 165.838 35.2567C166.086 35.0084 166.169 34.5946 166.169 34.0153V27.8082C166.169 26.9806 166.086 26.4012 165.838 25.9874C165.589 25.5736 165.175 25.3253 164.429 25.3253C163.849 25.3253 163.351 25.4908 162.854 25.8219C162.357 26.1529 162.025 26.6495 161.777 27.2288C161.528 27.8082 161.362 28.4703 161.362 29.2151V34.0153C161.362 34.5946 161.445 35.0084 161.694 35.2567C161.943 35.505 162.274 35.5878 162.771 35.5878V36.0016C161.528 35.9188 160.782 35.9188 160.368 35.9188C159.954 35.9188 159.125 35.9188 157.799 36.0016V35.5878C158.379 35.5878 158.793 35.505 159.042 35.2567C159.291 35.0084 159.373 34.5946 159.373 34.0153V27.3116C159.373 26.6495 159.291 26.1529 159.042 25.9047C158.793 25.5736 158.379 25.4908 157.799 25.4908V25.077C158.296 25.1598 158.71 25.1598 159.125 25.1598C160.036 25.1598 160.782 25.077 161.362 24.8287V27.3116C161.694 26.4012 162.191 25.7391 162.854 25.3253C163.517 24.9115 164.18 24.746 165.009 24.746C166.169 24.6632 166.915 24.9115 167.412 25.4908Z" fill="black"/>
  <path d="M174.207 24.9941H177.357V25.4079H174.207V33.7668C174.207 34.4289 174.29 34.8427 174.539 35.1738C174.788 35.422 175.119 35.5876 175.533 35.5876C175.948 35.5876 176.362 35.422 176.694 35.091C177.025 34.76 177.274 34.1806 177.522 33.353L177.937 33.4358C177.605 35.422 176.611 36.4152 175.119 36.4152C174.622 36.4152 174.207 36.3324 173.876 36.2497C173.544 36.1669 173.296 35.9186 173.047 35.7531C172.716 35.422 172.55 35.091 172.384 34.5944C172.301 34.0979 172.218 33.5185 172.218 32.7737V25.5734H170.229V25.1596H172.301V21.8491C173.13 21.8491 173.71 21.6836 174.207 21.5181V24.9941Z" fill="black"/>
  <path d="M1 1.57227C1 1.57227 22.2159 13.3244 26.6082 19.6143C31.2492 26.2353 29.2602 32.6907 28.1 36.4977C28.1 36.4977 25.3651 30.9527 18.5694 27.725C10.2819 23.918 2.16024 18.9522 1 1.57227Z" stroke="black" stroke-width="1.4" stroke-miterlimit="10"/>
  <path d="M38.1272 1.57227C38.1272 1.57227 16.9113 13.3244 12.519 19.6143C7.87803 26.2353 9.86702 32.6907 11.0273 36.4977C11.0273 36.4977 13.7621 30.9527 20.5578 27.725C28.8453 23.918 36.967 18.9522 38.1272 1.57227Z" stroke="black" stroke-width="1.4" stroke-miterlimit="10"/>
</svg>