<svg width="363" height="28" viewBox="0 0 363 28" fill="none" xmlns="http://www.w3.org/2000/svg">
<rect width="113" height="7" fill="#EAB054"/>
<rect x="125" width="113" height="7" fill="#EAB054"/>
<rect x="250" width="113" height="7" fill="#D9D9D9"/>
<path d="M305.077 25V16.6H306.361L310.033 22.732H309.361L312.973 16.6H314.257L314.269 25H312.793L312.781 18.916H313.093L310.021 24.04H309.325L306.205 18.916H306.565V25H305.077ZM319.274 25.084C318.618 25.084 318.034 24.944 317.522 24.664C317.01 24.376 316.606 23.984 316.31 23.488C316.014 22.992 315.866 22.428 315.866 21.796C315.866 21.156 316.014 20.592 316.31 20.104C316.606 19.608 317.01 19.22 317.522 18.94C318.034 18.66 318.618 18.52 319.274 18.52C319.938 18.52 320.526 18.66 321.038 18.94C321.558 19.22 321.962 19.604 322.25 20.092C322.546 20.58 322.694 21.148 322.694 21.796C322.694 22.428 322.546 22.992 322.25 23.488C321.962 23.984 321.558 24.376 321.038 24.664C320.526 24.944 319.938 25.084 319.274 25.084ZM319.274 23.8C319.642 23.8 319.97 23.72 320.258 23.56C320.546 23.4 320.77 23.168 320.93 22.864C321.098 22.56 321.182 22.204 321.182 21.796C321.182 21.38 321.098 21.024 320.93 20.728C320.77 20.424 320.546 20.192 320.258 20.032C319.97 19.872 319.646 19.792 319.286 19.792C318.918 19.792 318.59 19.872 318.302 20.032C318.022 20.192 317.798 20.424 317.63 20.728C317.462 21.024 317.378 21.38 317.378 21.796C317.378 22.204 317.462 22.56 317.63 22.864C317.798 23.168 318.022 23.4 318.302 23.56C318.59 23.72 318.914 23.8 319.274 23.8ZM326.841 25.084C326.225 25.084 325.669 24.948 325.173 24.676C324.685 24.396 324.301 24.012 324.021 23.524C323.741 23.036 323.601 22.46 323.601 21.796C323.601 21.132 323.741 20.556 324.021 20.068C324.301 19.58 324.685 19.2 325.173 18.928C325.669 18.656 326.225 18.52 326.841 18.52C327.377 18.52 327.857 18.64 328.281 18.88C328.705 19.112 329.041 19.468 329.289 19.948C329.537 20.428 329.661 21.044 329.661 21.796C329.661 22.54 329.541 23.156 329.301 23.644C329.061 24.124 328.729 24.484 328.305 24.724C327.881 24.964 327.393 25.084 326.841 25.084ZM327.021 23.8C327.381 23.8 327.701 23.72 327.981 23.56C328.269 23.4 328.497 23.168 328.665 22.864C328.841 22.56 328.929 22.204 328.929 21.796C328.929 21.38 328.841 21.024 328.665 20.728C328.497 20.424 328.269 20.192 327.981 20.032C327.701 19.872 327.381 19.792 327.021 19.792C326.661 19.792 326.337 19.872 326.049 20.032C325.769 20.192 325.541 20.424 325.365 20.728C325.197 21.024 325.113 21.38 325.113 21.796C325.113 22.204 325.197 22.56 325.365 22.864C325.541 23.168 325.769 23.4 326.049 23.56C326.337 23.72 326.661 23.8 327.021 23.8ZM328.965 25V23.488L329.025 21.784L328.905 20.08V16.096H330.393V25H328.965ZM335.379 25.084C334.667 25.084 334.043 24.944 333.507 24.664C332.979 24.376 332.567 23.984 332.271 23.488C331.983 22.992 331.839 22.428 331.839 21.796C331.839 21.156 331.979 20.592 332.259 20.104C332.547 19.608 332.939 19.22 333.435 18.94C333.939 18.66 334.511 18.52 335.151 18.52C335.775 18.52 336.331 18.656 336.819 18.928C337.307 19.2 337.691 19.584 337.971 20.08C338.251 20.576 338.391 21.16 338.391 21.832C338.391 21.896 338.387 21.968 338.379 22.048C338.379 22.128 338.375 22.204 338.367 22.276H333.027V21.28H337.575L336.987 21.592C336.995 21.224 336.919 20.9 336.759 20.62C336.599 20.34 336.379 20.12 336.099 19.96C335.827 19.8 335.511 19.72 335.151 19.72C334.783 19.72 334.459 19.8 334.179 19.96C333.907 20.12 333.691 20.344 333.531 20.632C333.379 20.912 333.303 21.244 333.303 21.628V21.868C333.303 22.252 333.391 22.592 333.567 22.888C333.743 23.184 333.991 23.412 334.311 23.572C334.631 23.732 334.999 23.812 335.415 23.812C335.775 23.812 336.099 23.756 336.387 23.644C336.675 23.532 336.931 23.356 337.155 23.116L337.959 24.04C337.671 24.376 337.307 24.636 336.867 24.82C336.435 24.996 335.939 25.084 335.379 25.084ZM339.832 25V18.592H341.26V20.356L341.092 19.84C341.284 19.408 341.584 19.08 341.992 18.856C342.408 18.632 342.924 18.52 343.54 18.52V19.948C343.476 19.932 343.416 19.924 343.36 19.924C343.304 19.916 343.248 19.912 343.192 19.912C342.624 19.912 342.172 20.08 341.836 20.416C341.5 20.744 341.332 21.236 341.332 21.892V25H339.832ZM348.303 25V23.704L348.219 23.428V21.16C348.219 20.72 348.087 20.38 347.823 20.14C347.559 19.892 347.159 19.768 346.623 19.768C346.263 19.768 345.907 19.824 345.555 19.936C345.211 20.048 344.919 20.204 344.679 20.404L344.091 19.312C344.435 19.048 344.843 18.852 345.315 18.724C345.795 18.588 346.291 18.52 346.803 18.52C347.731 18.52 348.447 18.744 348.951 19.192C349.463 19.632 349.719 20.316 349.719 21.244V25H348.303ZM346.287 25.084C345.807 25.084 345.387 25.004 345.027 24.844C344.667 24.676 344.387 24.448 344.187 24.16C343.995 23.864 343.899 23.532 343.899 23.164C343.899 22.804 343.983 22.48 344.151 22.192C344.327 21.904 344.611 21.676 345.003 21.508C345.395 21.34 345.915 21.256 346.563 21.256H348.423V22.252H346.671C346.159 22.252 345.815 22.336 345.639 22.504C345.463 22.664 345.375 22.864 345.375 23.104C345.375 23.376 345.483 23.592 345.699 23.752C345.915 23.912 346.215 23.992 346.599 23.992C346.967 23.992 347.295 23.908 347.583 23.74C347.879 23.572 348.091 23.324 348.219 22.996L348.471 23.896C348.327 24.272 348.067 24.564 347.691 24.772C347.323 24.98 346.855 25.084 346.287 25.084ZM354.056 25.084C353.352 25.084 352.808 24.904 352.424 24.544C352.04 24.176 351.848 23.636 351.848 22.924V17.176H353.348V22.888C353.348 23.192 353.424 23.428 353.576 23.596C353.736 23.764 353.956 23.848 354.236 23.848C354.572 23.848 354.852 23.76 355.076 23.584L355.496 24.652C355.32 24.796 355.104 24.904 354.848 24.976C354.592 25.048 354.328 25.084 354.056 25.084ZM350.792 19.84V18.64H355.064V19.84H350.792ZM359.531 25.084C358.819 25.084 358.195 24.944 357.659 24.664C357.131 24.376 356.719 23.984 356.423 23.488C356.135 22.992 355.991 22.428 355.991 21.796C355.991 21.156 356.131 20.592 356.411 20.104C356.699 19.608 357.091 19.22 357.587 18.94C358.091 18.66 358.663 18.52 359.303 18.52C359.927 18.52 360.483 18.656 360.971 18.928C361.459 19.2 361.843 19.584 362.123 20.08C362.403 20.576 362.543 21.16 362.543 21.832C362.543 21.896 362.539 21.968 362.531 22.048C362.531 22.128 362.527 22.204 362.519 22.276H357.179V21.28H361.727L361.139 21.592C361.147 21.224 361.071 20.9 360.911 20.62C360.751 20.34 360.531 20.12 360.251 19.96C359.979 19.8 359.663 19.72 359.303 19.72C358.935 19.72 358.611 19.8 358.331 19.96C358.059 20.12 357.843 20.344 357.683 20.632C357.531 20.912 357.455 21.244 357.455 21.628V21.868C357.455 22.252 357.543 22.592 357.719 22.888C357.895 23.184 358.143 23.412 358.463 23.572C358.783 23.732 359.151 23.812 359.567 23.812C359.927 23.812 360.251 23.756 360.539 23.644C360.827 23.532 361.083 23.356 361.307 23.116L362.111 24.04C361.823 24.376 361.459 24.636 361.019 24.82C360.587 24.996 360.091 25.084 359.531 25.084Z" fill="#EAB054"/>
</svg>
