<svg width="108" height="42" viewBox="0 0 108 42" fill="none" xmlns="http://www.w3.org/2000/svg">
<rect y="35" width="36" height="7" fill="#1900C0"/>
<rect x="36" y="35" width="36" height="7" fill="#FF0BA3"/>
<rect x="72" y="35" width="36" height="7" fill="#EAB054"/>
<path d="M37.368 23.456C35.784 23.456 34.4 23.184 33.216 22.64C32.048 22.08 31.08 21.352 30.312 20.456C29.544 19.544 28.968 18.56 28.584 17.504C28.216 16.448 28.032 15.432 28.032 14.456V13.928C28.032 12.84 28.224 11.768 28.608 10.712C29.008 9.64 29.6 8.672 30.384 7.808C31.168 6.944 32.144 6.256 33.312 5.744C34.48 5.216 35.832 4.952 37.368 4.952C38.904 4.952 40.256 5.216 41.424 5.744C42.592 6.256 43.568 6.944 44.352 7.808C45.136 8.672 45.728 9.64 46.128 10.712C46.528 11.768 46.728 12.84 46.728 13.928V14.456C46.728 15.432 46.536 16.448 46.152 17.504C45.768 18.56 45.192 19.544 44.424 20.456C43.656 21.352 42.68 22.08 41.496 22.64C40.328 23.184 38.952 23.456 37.368 23.456ZM37.368 19.784C38.2 19.784 38.944 19.64 39.6 19.352C40.272 19.064 40.84 18.664 41.304 18.152C41.784 17.64 42.144 17.048 42.384 16.376C42.624 15.704 42.744 14.984 42.744 14.216C42.744 13.4 42.616 12.656 42.36 11.984C42.12 11.296 41.76 10.704 41.28 10.208C40.816 9.696 40.256 9.304 39.6 9.032C38.944 8.76 38.2 8.624 37.368 8.624C36.536 8.624 35.792 8.76 35.136 9.032C34.48 9.304 33.912 9.696 33.432 10.208C32.968 10.704 32.616 11.296 32.376 11.984C32.136 12.656 32.016 13.4 32.016 14.216C32.016 14.984 32.136 15.704 32.376 16.376C32.616 17.048 32.968 17.64 33.432 18.152C33.912 18.664 34.48 19.064 35.136 19.352C35.792 19.64 36.536 19.784 37.368 19.784ZM52.7214 23V8.432H56.6574V23H52.7214ZM47.8014 8.912V5.48H61.6014V8.912H47.8014ZM67.5334 17.984V14.576H70.6774C71.2854 14.576 71.8054 14.456 72.2374 14.216C72.6854 13.976 73.0294 13.64 73.2694 13.208C73.5094 12.76 73.6294 12.248 73.6294 11.672C73.6294 11.064 73.5094 10.544 73.2694 10.112C73.0294 9.664 72.6854 9.328 72.2374 9.104C71.8054 8.864 71.2854 8.744 70.6774 8.744H67.5334V5.336H70.4854C71.9734 5.336 73.2454 5.584 74.3014 6.08C75.3734 6.576 76.1894 7.28 76.7494 8.192C77.3254 9.104 77.6134 10.2 77.6134 11.48V11.864C77.6134 13.112 77.3254 14.2 76.7494 15.128C76.1894 16.04 75.3734 16.744 74.3014 17.24C73.2454 17.736 71.9734 17.984 70.4854 17.984H67.5334ZM64.0774 23V5.336H68.0134V23H64.0774Z" fill="#1900C0"/>
</svg>
