<svg width="166" height="19" viewBox="0 0 166 19" fill="none" xmlns="http://www.w3.org/2000/svg">
<path d="M7.49369 18.6787C5.90969 18.6787 4.57369 18.4307 3.48569 17.9347C2.39769 17.4227 1.57369 16.7347 1.01369 15.8707C0.453688 14.9907 0.173688 13.9827 0.173688 12.8467H3.98969C3.98969 13.2947 4.10969 13.7107 4.34969 14.0947C4.60569 14.4787 4.98969 14.7907 5.50169 15.0307C6.01369 15.2547 6.67769 15.3667 7.49369 15.3667C8.22969 15.3667 8.84569 15.2707 9.34169 15.0787C9.83769 14.8867 10.2137 14.6227 10.4697 14.2867C10.7257 13.9347 10.8537 13.5347 10.8537 13.0867C10.8537 12.5267 10.6137 12.0867 10.1337 11.7667C9.65369 11.4307 8.87769 11.2147 7.80569 11.1187L6.48569 10.9987C4.74169 10.8547 3.34969 10.3107 2.30969 9.36666C1.26969 8.42266 0.749688 7.17466 0.749688 5.62266C0.749688 4.50266 1.01369 3.53466 1.54169 2.71866C2.08569 1.90266 2.83769 1.27866 3.79769 0.846655C4.75769 0.398655 5.89369 0.174655 7.20569 0.174655C8.58169 0.174655 9.75769 0.414655 10.7337 0.894655C11.7257 1.35866 12.4857 2.02266 13.0137 2.88665C13.5417 3.73466 13.8057 4.73466 13.8057 5.88666H9.96569C9.96569 5.45466 9.86169 5.06266 9.65369 4.71066C9.44569 4.34266 9.13369 4.04666 8.71769 3.82266C8.31769 3.59866 7.81369 3.48666 7.20569 3.48666C6.62969 3.48666 6.14169 3.58266 5.74169 3.77465C5.35769 3.96666 5.06969 4.23066 4.87769 4.56666C4.68569 4.88666 4.58969 5.23866 4.58969 5.62266C4.58969 6.11866 4.76569 6.55066 5.11769 6.91866C5.46969 7.28666 6.04569 7.50266 6.84569 7.56666L8.18969 7.68666C9.46969 7.79866 10.5977 8.07866 11.5737 8.52666C12.5497 8.95866 13.3097 9.55866 13.8537 10.3267C14.4137 11.0787 14.6937 11.9987 14.6937 13.0867C14.6937 14.2067 14.3977 15.1907 13.8057 16.0387C13.2297 16.8707 12.4057 17.5187 11.3337 17.9827C10.2617 18.4467 8.98169 18.6787 7.49369 18.6787ZM23.2135 18.6787C22.0935 18.6787 21.1015 18.4867 20.2375 18.1027C19.3895 17.7187 18.6775 17.2067 18.1015 16.5667C17.5415 15.9107 17.1095 15.1827 16.8055 14.3827C16.5175 13.5667 16.3735 12.7347 16.3735 11.8867V11.4067C16.3735 10.5267 16.5175 9.68666 16.8055 8.88666C17.1095 8.07066 17.5415 7.34266 18.1015 6.70266C18.6615 6.06266 19.3575 5.55866 20.1895 5.19066C21.0375 4.80666 21.9975 4.61466 23.0695 4.61466C24.4775 4.61466 25.6615 4.93466 26.6215 5.57466C27.5975 6.19866 28.3415 7.02266 28.8535 8.04666C29.3655 9.05466 29.6215 10.1587 29.6215 11.3587V12.6547H17.9815V10.4707H27.2935L26.0455 11.4787C26.0455 10.6947 25.9335 10.0227 25.7095 9.46266C25.4855 8.90266 25.1495 8.47866 24.7015 8.19066C24.2695 7.88666 23.7255 7.73466 23.0695 7.73466C22.3975 7.73466 21.8295 7.88666 21.3655 8.19066C20.9015 8.49466 20.5495 8.94266 20.3095 9.53466C20.0695 10.1107 19.9495 10.8227 19.9495 11.6707C19.9495 12.4547 20.0615 13.1427 20.2855 13.7347C20.5095 14.3107 20.8615 14.7587 21.3415 15.0787C21.8215 15.3987 22.4455 15.5587 23.2135 15.5587C23.9175 15.5587 24.4935 15.4227 24.9415 15.1507C25.3895 14.8787 25.6935 14.5427 25.8535 14.1427H29.3815C29.1895 15.0227 28.8135 15.8067 28.2535 16.4947C27.6935 17.1827 26.9895 17.7187 26.1415 18.1027C25.2935 18.4867 24.3175 18.6787 23.2135 18.6787ZM38.1421 18.3907C36.8141 18.3907 35.7421 18.2307 34.9261 17.9107C34.1101 17.5747 33.5101 17.0227 33.1261 16.2547C32.7581 15.4707 32.5741 14.4147 32.5741 13.0867V1.51866H36.1501V13.2307C36.1501 13.8547 36.3101 14.3347 36.6301 14.6707C36.9661 14.9907 37.4381 15.1507 38.0461 15.1507H39.9901V18.3907H38.1421ZM30.5821 7.87866V5.07066H39.9901V7.87866H30.5821ZM51.2834 13.2067V9.79866H54.4274C55.0354 9.79866 55.5554 9.67866 55.9874 9.43866C56.4354 9.19866 56.7794 8.86266 57.0194 8.43066C57.2594 7.98266 57.3794 7.47066 57.3794 6.89466C57.3794 6.28666 57.2594 5.76666 57.0194 5.33466C56.7794 4.88666 56.4354 4.55066 55.9874 4.32665C55.5554 4.08666 55.0354 3.96666 54.4274 3.96666H51.2834V0.558655H54.2354C55.7234 0.558655 56.9954 0.806655 58.0514 1.30266C59.1234 1.79866 59.9394 2.50266 60.4994 3.41466C61.0754 4.32666 61.3634 5.42266 61.3634 6.70266V7.08666C61.3634 8.33466 61.0754 9.42266 60.4994 10.3507C59.9394 11.2627 59.1234 11.9667 58.0514 12.4627C56.9954 12.9587 55.7234 13.2067 54.2354 13.2067H51.2834ZM47.8274 18.2227V0.558655H51.7634V18.2227H47.8274ZM71.3991 18.2227V14.3347H70.7511V10.1107C70.7511 9.43866 70.5911 8.93466 70.2711 8.59866C69.9511 8.26266 69.4391 8.09466 68.7351 8.09466C68.3831 8.09466 67.9191 8.10266 67.3431 8.11866C66.7671 8.13466 66.1751 8.15866 65.5671 8.19066C64.9591 8.22266 64.4071 8.25466 63.9111 8.28666V5.04666C64.2791 5.01466 64.7111 4.98266 65.2071 4.95066C65.7031 4.91866 66.2151 4.89466 66.7431 4.87865C67.2711 4.86266 67.7671 4.85466 68.2311 4.85466C69.5751 4.85466 70.7031 5.04666 71.6151 5.43066C72.5431 5.81466 73.2471 6.39866 73.7271 7.18266C74.2071 7.95066 74.4471 8.94266 74.4471 10.1587V18.2227H71.3991ZM67.1991 18.5587C66.2551 18.5587 65.4231 18.3907 64.7031 18.0547C63.9991 17.7187 63.4471 17.2387 63.0471 16.6147C62.6471 15.9747 62.4471 15.2147 62.4471 14.3347C62.4471 13.3747 62.6951 12.5907 63.1911 11.9827C63.6871 11.3587 64.3831 10.9027 65.2791 10.6147C66.1751 10.3107 67.2071 10.1587 68.3751 10.1587H71.1831V12.2947H68.3511C67.6791 12.2947 67.1591 12.4627 66.7911 12.7987C66.4391 13.1187 66.2631 13.5587 66.2631 14.1187C66.2631 14.6467 66.4391 15.0787 66.7911 15.4147C67.1591 15.7347 67.6791 15.8947 68.3511 15.8947C68.7831 15.8947 69.1671 15.8227 69.5031 15.6787C69.8551 15.5187 70.1431 15.2547 70.3671 14.8867C70.5911 14.5187 70.7191 14.0067 70.7511 13.3507L71.6631 14.3107C71.5831 15.2227 71.3591 15.9907 70.9911 16.6147C70.6391 17.2387 70.1431 17.7187 69.5031 18.0547C68.8791 18.3907 68.1111 18.5587 67.1991 18.5587ZM82.6971 18.6307C80.8251 18.6307 79.3611 18.2467 78.3051 17.4787C77.2491 16.7107 76.6891 15.6307 76.6251 14.2387H80.0331C80.0971 14.6547 80.3451 15.0307 80.7771 15.3667C81.2251 15.6867 81.8891 15.8467 82.7691 15.8467C83.4411 15.8467 83.9931 15.7347 84.4251 15.5107C84.8731 15.2707 85.0971 14.9347 85.0971 14.5027C85.0971 14.1187 84.9291 13.8147 84.5931 13.5907C84.2571 13.3507 83.6571 13.1827 82.7931 13.0867L81.7611 12.9907C80.1771 12.8307 78.9851 12.3907 78.1851 11.6707C77.4011 10.9507 77.0091 10.0307 77.0091 8.91066C77.0091 7.98266 77.2411 7.20666 77.7051 6.58266C78.1691 5.95866 78.8091 5.48666 79.6251 5.16666C80.4571 4.84666 81.4011 4.68666 82.4571 4.68666C84.1531 4.68666 85.5211 5.06266 86.5611 5.81466C87.6011 6.55066 88.1451 7.62266 88.1931 9.03066H84.7851C84.7211 8.59866 84.4971 8.23866 84.1131 7.95066C83.7291 7.64666 83.1611 7.49466 82.4091 7.49466C81.8171 7.49466 81.3451 7.60666 80.9931 7.83066C80.6411 8.05466 80.4651 8.35866 80.4651 8.74266C80.4651 9.11066 80.6171 9.39066 80.9211 9.58266C81.2251 9.77466 81.7211 9.91066 82.4091 9.99066L83.4411 10.0867C85.0571 10.2627 86.3131 10.7107 87.2091 11.4307C88.1051 12.1507 88.5531 13.1187 88.5531 14.3347C88.5531 15.2147 88.3131 15.9827 87.8331 16.6387C87.3531 17.2787 86.6731 17.7747 85.7931 18.1267C84.9131 18.4627 83.8811 18.6307 82.6971 18.6307ZM96.0331 18.6307C94.1611 18.6307 92.6971 18.2467 91.6411 17.4787C90.5851 16.7107 90.0251 15.6307 89.9611 14.2387H93.3691C93.4331 14.6547 93.6811 15.0307 94.1131 15.3667C94.5611 15.6867 95.2251 15.8467 96.1051 15.8467C96.7771 15.8467 97.3291 15.7347 97.7611 15.5107C98.2091 15.2707 98.4331 14.9347 98.4331 14.5027C98.4331 14.1187 98.2651 13.8147 97.9291 13.5907C97.5931 13.3507 96.9931 13.1827 96.1291 13.0867L95.0971 12.9907C93.5131 12.8307 92.3211 12.3907 91.5211 11.6707C90.7371 10.9507 90.3451 10.0307 90.3451 8.91066C90.3451 7.98266 90.5771 7.20666 91.0411 6.58266C91.5051 5.95866 92.1451 5.48666 92.9611 5.16666C93.7931 4.84666 94.7371 4.68666 95.7931 4.68666C97.4891 4.68666 98.8571 5.06266 99.8971 5.81466C100.937 6.55066 101.481 7.62266 101.529 9.03066H98.1211C98.0571 8.59866 97.8331 8.23866 97.4491 7.95066C97.0651 7.64666 96.4971 7.49466 95.7451 7.49466C95.1531 7.49466 94.6811 7.60666 94.3291 7.83066C93.9771 8.05466 93.8011 8.35866 93.8011 8.74266C93.8011 9.11066 93.9531 9.39066 94.2571 9.58266C94.5611 9.77466 95.0571 9.91066 95.7451 9.99066L96.7771 10.0867C98.3931 10.2627 99.6491 10.7107 100.545 11.4307C101.441 12.1507 101.889 13.1187 101.889 14.3347C101.889 15.2147 101.649 15.9827 101.169 16.6387C100.689 17.2787 100.009 17.7747 99.1291 18.1267C98.2491 18.4627 97.2171 18.6307 96.0331 18.6307ZM109.084 18.2227L111.484 5.50266H115.684L118.468 18.2227H115.492L112.636 5.59866H114.34L111.772 18.2227H109.084ZM108.172 18.2227L108.148 15.0307H110.788L110.812 18.2227H108.172ZM106.444 18.2227L102.916 5.07066H106.684L109.972 18.2227H106.444ZM116.476 18.2227L116.5 15.0307H119.14V18.2227H116.476ZM117.556 18.2227L120.484 5.07066H124.012L120.844 18.2227H117.556ZM132.488 18.6787C131.336 18.6787 130.312 18.5027 129.416 18.1507C128.52 17.7827 127.76 17.2867 127.136 16.6627C126.528 16.0387 126.064 15.3267 125.744 14.5267C125.424 13.7107 125.264 12.8547 125.264 11.9587V11.4067C125.264 10.4947 125.424 9.63066 125.744 8.81466C126.08 7.98266 126.56 7.25466 127.184 6.63066C127.824 6.00666 128.592 5.51866 129.488 5.16666C130.384 4.79866 131.384 4.61466 132.488 4.61466C133.624 4.61466 134.632 4.79866 135.512 5.16666C136.408 5.51866 137.168 6.00666 137.792 6.63066C138.416 7.25466 138.896 7.98266 139.232 8.81466C139.568 9.63066 139.736 10.4947 139.736 11.4067V11.9587C139.736 12.8547 139.576 13.7107 139.256 14.5267C138.936 15.3267 138.464 16.0387 137.84 16.6627C137.232 17.2867 136.48 17.7827 135.584 18.1507C134.688 18.5027 133.656 18.6787 132.488 18.6787ZM132.488 15.4387C133.24 15.4387 133.864 15.2787 134.36 14.9587C134.856 14.6387 135.232 14.1907 135.488 13.6147C135.76 13.0387 135.896 12.3987 135.896 11.6947C135.896 10.9427 135.76 10.2867 135.488 9.72666C135.216 9.15066 134.824 8.69466 134.312 8.35866C133.816 8.02266 133.208 7.85466 132.488 7.85466C131.784 7.85466 131.176 8.02266 130.664 8.35866C130.152 8.69466 129.76 9.15066 129.488 9.72666C129.232 10.2867 129.104 10.9427 129.104 11.6947C129.104 12.3987 129.232 13.0387 129.488 13.6147C129.744 14.1907 130.128 14.6387 130.64 14.9587C131.152 15.2787 131.768 15.4387 132.488 15.4387ZM142.416 18.2227V5.07066H145.464V10.7107H145.392C145.392 8.85466 145.784 7.42266 146.568 6.41466C147.368 5.40666 148.52 4.90266 150.024 4.90266H150.528V8.21466H149.568C148.512 8.21466 147.696 8.50266 147.12 9.07866C146.544 9.63866 146.256 10.4547 146.256 11.5267V18.2227H142.416ZM157.871 18.6547C156.943 18.6547 156.095 18.4867 155.327 18.1507C154.575 17.8147 153.919 17.3507 153.359 16.7587C152.799 16.1507 152.367 15.4387 152.063 14.6227C151.775 13.8067 151.631 12.9267 151.631 11.9827V11.4307C151.631 10.4867 151.767 9.60666 152.039 8.79066C152.327 7.97466 152.735 7.26266 153.263 6.65466C153.807 6.03066 154.455 5.55066 155.207 5.21465C155.959 4.86266 156.799 4.68666 157.727 4.68666C158.783 4.68666 159.695 4.91866 160.463 5.38266C161.231 5.83066 161.831 6.50266 162.263 7.39866C162.695 8.27866 162.935 9.36666 162.983 10.6627L161.975 9.72666V0.702656H165.839V18.2227H162.791V12.7747H163.319C163.271 14.0227 163.007 15.0867 162.527 15.9667C162.063 16.8467 161.431 17.5187 160.631 17.9827C159.831 18.4307 158.911 18.6547 157.871 18.6547ZM158.831 15.4387C159.423 15.4387 159.959 15.3107 160.439 15.0547C160.935 14.7827 161.327 14.3907 161.615 13.8787C161.919 13.3667 162.071 12.7507 162.071 12.0307V11.1427C162.071 10.4387 161.919 9.84666 161.615 9.36666C161.311 8.88666 160.911 8.51866 160.415 8.26266C159.919 8.00666 159.383 7.87866 158.807 7.87866C158.167 7.87866 157.591 8.04666 157.079 8.38266C156.583 8.70266 156.191 9.15066 155.903 9.72666C155.615 10.2867 155.471 10.9427 155.471 11.6947C155.471 12.4627 155.615 13.1267 155.903 13.6867C156.191 14.2467 156.591 14.6787 157.103 14.9827C157.615 15.2867 158.191 15.4387 158.831 15.4387Z" fill="#1900C0"/>
</svg>
