<svg width="169" height="42" viewBox="0 0 169 42" fill="none" xmlns="http://www.w3.org/2000/svg">
<rect x="30" y="35" width="36" height="7" fill="#1900C0"/>
<rect x="66" y="35" width="36" height="7" fill="#FF0BA3"/>
<rect x="102" y="35" width="36" height="7" fill="#EAB054"/>
<path d="M8.49369 23.456C6.90969 23.456 5.57369 23.208 4.48569 22.712C3.39769 22.2 2.57369 21.512 2.01369 20.648C1.45369 19.768 1.17369 18.76 1.17369 17.624H4.98969C4.98969 18.072 5.10969 18.488 5.34969 18.872C5.60569 19.256 5.98969 19.568 6.50169 19.808C7.01369 20.032 7.67769 20.144 8.49369 20.144C9.22969 20.144 9.84569 20.048 10.3417 19.856C10.8377 19.664 11.2137 19.4 11.4697 19.064C11.7257 18.712 11.8537 18.312 11.8537 17.864C11.8537 17.304 11.6137 16.864 11.1337 16.544C10.6537 16.208 9.87769 15.992 8.80569 15.896L7.48569 15.776C5.74169 15.632 4.34969 15.088 3.30969 14.144C2.26969 13.2 1.74969 11.952 1.74969 10.4C1.74969 9.28 2.01369 8.312 2.54169 7.496C3.08569 6.68 3.83769 6.056 4.79769 5.624C5.75769 5.176 6.89369 4.952 8.20569 4.952C9.58169 4.952 10.7577 5.192 11.7337 5.672C12.7257 6.136 13.4857 6.8 14.0137 7.664C14.5417 8.512 14.8057 9.512 14.8057 10.664H10.9657C10.9657 10.232 10.8617 9.84 10.6537 9.488C10.4457 9.12 10.1337 8.824 9.71769 8.6C9.31769 8.376 8.81369 8.264 8.20569 8.264C7.62969 8.264 7.14169 8.36 6.74169 8.552C6.35769 8.744 6.06969 9.008 5.87769 9.344C5.68569 9.664 5.58969 10.016 5.58969 10.4C5.58969 10.896 5.76569 11.328 6.11769 11.696C6.46969 12.064 7.04569 12.28 7.84569 12.344L9.18969 12.464C10.4697 12.576 11.5977 12.856 12.5737 13.304C13.5497 13.736 14.3097 14.336 14.8537 15.104C15.4137 15.856 15.6937 16.776 15.6937 17.864C15.6937 18.984 15.3977 19.968 14.8057 20.816C14.2297 21.648 13.4057 22.296 12.3337 22.76C11.2617 23.224 9.98169 23.456 8.49369 23.456ZM24.2135 23.456C23.0935 23.456 22.1015 23.264 21.2375 22.88C20.3895 22.496 19.6775 21.984 19.1015 21.344C18.5415 20.688 18.1095 19.96 17.8055 19.16C17.5175 18.344 17.3735 17.512 17.3735 16.664V16.184C17.3735 15.304 17.5175 14.464 17.8055 13.664C18.1095 12.848 18.5415 12.12 19.1015 11.48C19.6615 10.84 20.3575 10.336 21.1895 9.968C22.0375 9.584 22.9975 9.392 24.0695 9.392C25.4775 9.392 26.6615 9.712 27.6215 10.352C28.5975 10.976 29.3415 11.8 29.8535 12.824C30.3655 13.832 30.6215 14.936 30.6215 16.136V17.432H18.9815V15.248H28.2935L27.0455 16.256C27.0455 15.472 26.9335 14.8 26.7095 14.24C26.4855 13.68 26.1495 13.256 25.7015 12.968C25.2695 12.664 24.7255 12.512 24.0695 12.512C23.3975 12.512 22.8295 12.664 22.3655 12.968C21.9015 13.272 21.5495 13.72 21.3095 14.312C21.0695 14.888 20.9495 15.6 20.9495 16.448C20.9495 17.232 21.0615 17.92 21.2855 18.512C21.5095 19.088 21.8615 19.536 22.3415 19.856C22.8215 20.176 23.4455 20.336 24.2135 20.336C24.9175 20.336 25.4935 20.2 25.9415 19.928C26.3895 19.656 26.6935 19.32 26.8535 18.92H30.3815C30.1895 19.8 29.8135 20.584 29.2535 21.272C28.6935 21.96 27.9895 22.496 27.1415 22.88C26.2935 23.264 25.3175 23.456 24.2135 23.456ZM39.1421 23.168C37.8141 23.168 36.7421 23.008 35.9261 22.688C35.1101 22.352 34.5101 21.8 34.1261 21.032C33.7581 20.248 33.5741 19.192 33.5741 17.864V6.296H37.1501V18.008C37.1501 18.632 37.3101 19.112 37.6301 19.448C37.9661 19.768 38.4381 19.928 39.0461 19.928H40.9901V23.168H39.1421ZM31.5821 12.656V9.848H40.9901V12.656H31.5821ZM52.2834 17.984V14.576H55.4274C56.0354 14.576 56.5554 14.456 56.9874 14.216C57.4354 13.976 57.7794 13.64 58.0194 13.208C58.2594 12.76 58.3794 12.248 58.3794 11.672C58.3794 11.064 58.2594 10.544 58.0194 10.112C57.7794 9.664 57.4354 9.328 56.9874 9.104C56.5554 8.864 56.0354 8.744 55.4274 8.744H52.2834V5.336H55.2354C56.7234 5.336 57.9954 5.584 59.0514 6.08C60.1234 6.576 60.9394 7.28 61.4994 8.192C62.0754 9.104 62.3634 10.2 62.3634 11.48V11.864C62.3634 13.112 62.0754 14.2 61.4994 15.128C60.9394 16.04 60.1234 16.744 59.0514 17.24C57.9954 17.736 56.7234 17.984 55.2354 17.984H52.2834ZM48.8274 23V5.336H52.7634V23H48.8274ZM72.3991 23V19.112H71.7511V14.888C71.7511 14.216 71.5911 13.712 71.2711 13.376C70.9511 13.04 70.4391 12.872 69.7351 12.872C69.3831 12.872 68.9191 12.88 68.3431 12.896C67.7671 12.912 67.1751 12.936 66.5671 12.968C65.9591 13 65.4071 13.032 64.9111 13.064V9.824C65.2791 9.792 65.7111 9.76 66.2071 9.728C66.7031 9.696 67.2151 9.672 67.7431 9.656C68.2711 9.64 68.7671 9.632 69.2311 9.632C70.5751 9.632 71.7031 9.824 72.6151 10.208C73.5431 10.592 74.2471 11.176 74.7271 11.96C75.2071 12.728 75.4471 13.72 75.4471 14.936V23H72.3991ZM68.1991 23.336C67.2551 23.336 66.4231 23.168 65.7031 22.832C64.9991 22.496 64.4471 22.016 64.0471 21.392C63.6471 20.752 63.4471 19.992 63.4471 19.112C63.4471 18.152 63.6951 17.368 64.1911 16.76C64.6871 16.136 65.3831 15.68 66.2791 15.392C67.1751 15.088 68.2071 14.936 69.3751 14.936H72.1831V17.072H69.3511C68.6791 17.072 68.1591 17.24 67.7911 17.576C67.4391 17.896 67.2631 18.336 67.2631 18.896C67.2631 19.424 67.4391 19.856 67.7911 20.192C68.1591 20.512 68.6791 20.672 69.3511 20.672C69.7831 20.672 70.1671 20.6 70.5031 20.456C70.8551 20.296 71.1431 20.032 71.3671 19.664C71.5911 19.296 71.7191 18.784 71.7511 18.128L72.6631 19.088C72.5831 20 72.3591 20.768 71.9911 21.392C71.6391 22.016 71.1431 22.496 70.5031 22.832C69.8791 23.168 69.1111 23.336 68.1991 23.336ZM83.6971 23.408C81.8251 23.408 80.3611 23.024 79.3051 22.256C78.2491 21.488 77.6891 20.408 77.6251 19.016H81.0331C81.0971 19.432 81.3451 19.808 81.7771 20.144C82.2251 20.464 82.8891 20.624 83.7691 20.624C84.4411 20.624 84.9931 20.512 85.4251 20.288C85.8731 20.048 86.0971 19.712 86.0971 19.28C86.0971 18.896 85.9291 18.592 85.5931 18.368C85.2571 18.128 84.6571 17.96 83.7931 17.864L82.7611 17.768C81.1771 17.608 79.9851 17.168 79.1851 16.448C78.4011 15.728 78.0091 14.808 78.0091 13.688C78.0091 12.76 78.2411 11.984 78.7051 11.36C79.1691 10.736 79.8091 10.264 80.6251 9.944C81.4571 9.624 82.4011 9.464 83.4571 9.464C85.1531 9.464 86.5211 9.84 87.5611 10.592C88.6011 11.328 89.1451 12.4 89.1931 13.808H85.7851C85.7211 13.376 85.4971 13.016 85.1131 12.728C84.7291 12.424 84.1611 12.272 83.4091 12.272C82.8171 12.272 82.3451 12.384 81.9931 12.608C81.6411 12.832 81.4651 13.136 81.4651 13.52C81.4651 13.888 81.6171 14.168 81.9211 14.36C82.2251 14.552 82.7211 14.688 83.4091 14.768L84.4411 14.864C86.0571 15.04 87.3131 15.488 88.2091 16.208C89.1051 16.928 89.5531 17.896 89.5531 19.112C89.5531 19.992 89.3131 20.76 88.8331 21.416C88.3531 22.056 87.6731 22.552 86.7931 22.904C85.9131 23.24 84.8811 23.408 83.6971 23.408ZM97.0331 23.408C95.1611 23.408 93.6971 23.024 92.6411 22.256C91.5851 21.488 91.0251 20.408 90.9611 19.016H94.3691C94.4331 19.432 94.6811 19.808 95.1131 20.144C95.5611 20.464 96.2251 20.624 97.1051 20.624C97.7771 20.624 98.3291 20.512 98.7611 20.288C99.2091 20.048 99.4331 19.712 99.4331 19.28C99.4331 18.896 99.2651 18.592 98.9291 18.368C98.5931 18.128 97.9931 17.96 97.1291 17.864L96.0971 17.768C94.5131 17.608 93.3211 17.168 92.5211 16.448C91.7371 15.728 91.3451 14.808 91.3451 13.688C91.3451 12.76 91.5771 11.984 92.0411 11.36C92.5051 10.736 93.1451 10.264 93.9611 9.944C94.7931 9.624 95.7371 9.464 96.7931 9.464C98.4891 9.464 99.8571 9.84 100.897 10.592C101.937 11.328 102.481 12.4 102.529 13.808H99.1211C99.0571 13.376 98.8331 13.016 98.4491 12.728C98.0651 12.424 97.4971 12.272 96.7451 12.272C96.1531 12.272 95.6811 12.384 95.3291 12.608C94.9771 12.832 94.8011 13.136 94.8011 13.52C94.8011 13.888 94.9531 14.168 95.2571 14.36C95.5611 14.552 96.0571 14.688 96.7451 14.768L97.7771 14.864C99.3931 15.04 100.649 15.488 101.545 16.208C102.441 16.928 102.889 17.896 102.889 19.112C102.889 19.992 102.649 20.76 102.169 21.416C101.689 22.056 101.009 22.552 100.129 22.904C99.2491 23.24 98.2171 23.408 97.0331 23.408ZM110.084 23L112.484 10.28H116.684L119.468 23H116.492L113.636 10.376H115.34L112.772 23H110.084ZM109.172 23L109.148 19.808H111.788L111.812 23H109.172ZM107.444 23L103.916 9.848H107.684L110.972 23H107.444ZM117.476 23L117.5 19.808H120.14V23H117.476ZM118.556 23L121.484 9.848H125.012L121.844 23H118.556ZM133.488 23.456C132.336 23.456 131.312 23.28 130.416 22.928C129.52 22.56 128.76 22.064 128.136 21.44C127.528 20.816 127.064 20.104 126.744 19.304C126.424 18.488 126.264 17.632 126.264 16.736V16.184C126.264 15.272 126.424 14.408 126.744 13.592C127.08 12.76 127.56 12.032 128.184 11.408C128.824 10.784 129.592 10.296 130.488 9.944C131.384 9.576 132.384 9.392 133.488 9.392C134.624 9.392 135.632 9.576 136.512 9.944C137.408 10.296 138.168 10.784 138.792 11.408C139.416 12.032 139.896 12.76 140.232 13.592C140.568 14.408 140.736 15.272 140.736 16.184V16.736C140.736 17.632 140.576 18.488 140.256 19.304C139.936 20.104 139.464 20.816 138.84 21.44C138.232 22.064 137.48 22.56 136.584 22.928C135.688 23.28 134.656 23.456 133.488 23.456ZM133.488 20.216C134.24 20.216 134.864 20.056 135.36 19.736C135.856 19.416 136.232 18.968 136.488 18.392C136.76 17.816 136.896 17.176 136.896 16.472C136.896 15.72 136.76 15.064 136.488 14.504C136.216 13.928 135.824 13.472 135.312 13.136C134.816 12.8 134.208 12.632 133.488 12.632C132.784 12.632 132.176 12.8 131.664 13.136C131.152 13.472 130.76 13.928 130.488 14.504C130.232 15.064 130.104 15.72 130.104 16.472C130.104 17.176 130.232 17.816 130.488 18.392C130.744 18.968 131.128 19.416 131.64 19.736C132.152 20.056 132.768 20.216 133.488 20.216ZM143.416 23V9.848H146.464V15.488H146.392C146.392 13.632 146.784 12.2 147.568 11.192C148.368 10.184 149.52 9.68 151.024 9.68H151.528V12.992H150.568C149.512 12.992 148.696 13.28 148.12 13.856C147.544 14.416 147.256 15.232 147.256 16.304V23H143.416ZM158.871 23.432C157.943 23.432 157.095 23.264 156.327 22.928C155.575 22.592 154.919 22.128 154.359 21.536C153.799 20.928 153.367 20.216 153.063 19.4C152.775 18.584 152.631 17.704 152.631 16.76V16.208C152.631 15.264 152.767 14.384 153.039 13.568C153.327 12.752 153.735 12.04 154.263 11.432C154.807 10.808 155.455 10.328 156.207 9.992C156.959 9.64 157.799 9.464 158.727 9.464C159.783 9.464 160.695 9.696 161.463 10.16C162.231 10.608 162.831 11.28 163.263 12.176C163.695 13.056 163.935 14.144 163.983 15.44L162.975 14.504V5.48H166.839V23H163.791V17.552H164.319C164.271 18.8 164.007 19.864 163.527 20.744C163.063 21.624 162.431 22.296 161.631 22.76C160.831 23.208 159.911 23.432 158.871 23.432ZM159.831 20.216C160.423 20.216 160.959 20.088 161.439 19.832C161.935 19.56 162.327 19.168 162.615 18.656C162.919 18.144 163.071 17.528 163.071 16.808V15.92C163.071 15.216 162.919 14.624 162.615 14.144C162.311 13.664 161.911 13.296 161.415 13.04C160.919 12.784 160.383 12.656 159.807 12.656C159.167 12.656 158.591 12.824 158.079 13.16C157.583 13.48 157.191 13.928 156.903 14.504C156.615 15.064 156.471 15.72 156.471 16.472C156.471 17.24 156.615 17.904 156.903 18.464C157.191 19.024 157.591 19.456 158.103 19.76C158.615 20.064 159.191 20.216 159.831 20.216Z" fill="#1900C0"/>
</svg>
