<svg width="108" height="38" viewBox="0 0 108 38" fill="none" xmlns="http://www.w3.org/2000/svg">
<path d="M20.1421 19.456C18.5581 19.456 17.2221 19.208 16.1341 18.712C15.0461 18.2 14.2221 17.512 13.6621 16.648C13.1021 15.768 12.8221 14.76 12.8221 13.624H16.6381C16.6381 14.072 16.7581 14.488 16.9981 14.872C17.2541 15.256 17.6381 15.568 18.1501 15.808C18.6621 16.032 19.3261 16.144 20.1421 16.144C20.8781 16.144 21.4941 16.048 21.9901 15.856C22.4861 15.664 22.8621 15.4 23.1181 15.064C23.3741 14.712 23.5021 14.312 23.5021 13.864C23.5021 13.304 23.2621 12.864 22.7821 12.544C22.3021 12.208 21.5261 11.992 20.4541 11.896L19.1341 11.776C17.3901 11.632 15.9981 11.088 14.9581 10.144C13.9181 9.2 13.3981 7.952 13.3981 6.4C13.3981 5.28 13.6621 4.312 14.1901 3.496C14.7341 2.68 15.4861 2.056 16.4461 1.624C17.4061 1.176 18.5421 0.951999 19.8541 0.951999C21.2301 0.951999 22.4061 1.192 23.3821 1.672C24.3741 2.136 25.1341 2.8 25.6621 3.664C26.1901 4.512 26.4541 5.512 26.4541 6.664H22.6141C22.6141 6.232 22.5101 5.84 22.3021 5.488C22.0941 5.12 21.7821 4.824 21.3661 4.6C20.9661 4.376 20.4621 4.264 19.8541 4.264C19.2781 4.264 18.7901 4.36 18.3901 4.552C18.0061 4.744 17.7181 5.008 17.5261 5.344C17.3341 5.664 17.2381 6.016 17.2381 6.4C17.2381 6.896 17.4141 7.328 17.7661 7.696C18.1181 8.064 18.6941 8.28 19.4941 8.344L20.8381 8.464C22.1181 8.576 23.2461 8.856 24.2221 9.304C25.1981 9.736 25.9581 10.336 26.5021 11.104C27.0621 11.856 27.3421 12.776 27.3421 13.864C27.3421 14.984 27.0461 15.968 26.4541 16.816C25.8781 17.648 25.0541 18.296 23.9821 18.76C22.9101 19.224 21.6301 19.456 20.1421 19.456ZM30.4619 19V5.848H34.3019V19H30.4619ZM28.7099 8.68V5.848H34.3019V8.68H28.7099ZM31.9499 4.552C31.2299 4.552 30.6939 4.368 30.3419 4C30.0059 3.616 29.8379 3.136 29.8379 2.56C29.8379 1.968 30.0059 1.488 30.3419 1.12C30.6939 0.735999 31.2299 0.543999 31.9499 0.543999C32.6699 0.543999 33.1979 0.735999 33.5339 1.12C33.8859 1.488 34.0619 1.968 34.0619 2.56C34.0619 3.136 33.8859 3.616 33.5339 4C33.1979 4.368 32.6699 4.552 31.9499 4.552ZM43.0376 24.232C42.3976 24.232 41.7416 24.208 41.0696 24.16C40.3976 24.112 39.7816 24.048 39.2216 23.968V20.728C39.7816 20.808 40.3976 20.872 41.0696 20.92C41.7576 20.984 42.3816 21.016 42.9416 21.016C43.9816 21.016 44.8216 20.896 45.4616 20.656C46.1176 20.416 46.5976 20.048 46.9016 19.552C47.2056 19.072 47.3576 18.448 47.3576 17.68V15.064L48.0536 13.528C48.0216 14.696 47.7896 15.696 47.3576 16.528C46.9416 17.36 46.3576 18 45.6056 18.448C44.8536 18.88 43.9576 19.096 42.9176 19.096C42.0216 19.096 41.2056 18.936 40.4696 18.616C39.7496 18.28 39.1336 17.816 38.6216 17.224C38.1096 16.632 37.7176 15.944 37.4456 15.16C37.1736 14.36 37.0376 13.496 37.0376 12.568V12.016C37.0376 11.088 37.1816 10.224 37.4696 9.424C37.7576 8.624 38.1736 7.928 38.7176 7.336C39.2616 6.744 39.9096 6.288 40.6616 5.968C41.4136 5.632 42.2456 5.464 43.1576 5.464C44.2136 5.464 45.1256 5.696 45.8936 6.16C46.6776 6.624 47.2936 7.304 47.7416 8.2C48.1896 9.096 48.4296 10.176 48.4616 11.44L47.9336 11.584V5.848H50.9816V17.44C50.9816 19.056 50.6936 20.36 50.1176 21.352C49.5416 22.344 48.6616 23.072 47.4776 23.536C46.3096 24 44.8296 24.232 43.0376 24.232ZM44.1176 15.856C44.7096 15.856 45.2456 15.728 45.7256 15.472C46.2056 15.2 46.5816 14.816 46.8536 14.32C47.1416 13.824 47.2856 13.224 47.2856 12.52V11.824C47.2856 11.136 47.1336 10.56 46.8296 10.096C46.5416 9.616 46.1576 9.256 45.6776 9.016C45.1976 8.76 44.6856 8.632 44.1416 8.632C43.5016 8.632 42.9336 8.784 42.4376 9.088C41.9416 9.392 41.5576 9.816 41.2856 10.36C41.0136 10.904 40.8776 11.544 40.8776 12.28C40.8776 13.032 41.0136 13.68 41.2856 14.224C41.5736 14.752 41.9576 15.16 42.4376 15.448C42.9336 15.72 43.4936 15.856 44.1176 15.856ZM54.3067 19V5.848H57.3547V11.488H57.1387C57.1387 10.144 57.3067 9.024 57.6427 8.128C57.9947 7.232 58.5227 6.56 59.2267 6.112C59.9307 5.664 60.7867 5.44 61.7947 5.44H61.9627C63.4987 5.44 64.6667 5.944 65.4667 6.952C66.2827 7.944 66.6907 9.456 66.6907 11.488V19H62.8507V11.272C62.8507 10.568 62.6427 9.992 62.2267 9.544C61.8107 9.096 61.2507 8.872 60.5467 8.872C59.8267 8.872 59.2427 9.104 58.7947 9.568C58.3627 10.016 58.1467 10.608 58.1467 11.344V19H54.3067ZM75.626 19V5.848H79.466V19H75.626ZM73.874 8.68V5.848H79.466V8.68H73.874ZM77.114 4.552C76.394 4.552 75.858 4.368 75.506 4C75.17 3.616 75.002 3.136 75.002 2.56C75.002 1.968 75.17 1.488 75.506 1.12C75.858 0.735999 76.394 0.543999 77.114 0.543999C77.834 0.543999 78.362 0.735999 78.698 1.12C79.05 1.488 79.226 1.968 79.226 2.56C79.226 3.136 79.05 3.616 78.698 4C78.362 4.368 77.834 4.552 77.114 4.552ZM83.0176 19V5.848H86.0656V11.488H85.8496C85.8496 10.144 86.0176 9.024 86.3536 8.128C86.7056 7.232 87.2336 6.56 87.9376 6.112C88.6416 5.664 89.4976 5.44 90.5056 5.44H90.6736C92.2096 5.44 93.3776 5.944 94.1776 6.952C94.9936 7.944 95.4016 9.456 95.4016 11.488V19H91.5616V11.272C91.5616 10.568 91.3536 9.992 90.9376 9.544C90.5216 9.096 89.9616 8.872 89.2576 8.872C88.5376 8.872 87.9536 9.104 87.5056 9.568C87.0736 10.016 86.8576 10.608 86.8576 11.344V19H83.0176Z" fill="#1900C0"/>
<rect y="31" width="36" height="7" fill="#1900C0"/>
<rect x="36" y="31" width="36" height="7" fill="#FF0BA3"/>
<rect x="72" y="31" width="36" height="7" fill="#EAB054"/>
</svg>
