<svg width="108" height="42" viewBox="0 0 108 42" fill="none" xmlns="http://www.w3.org/2000/svg">
<path d="M15.064 23.456C13.48 23.456 12.144 23.208 11.056 22.712C9.968 22.2 9.144 21.512 8.584 20.648C8.024 19.768 7.744 18.76 7.744 17.624H11.56C11.56 18.072 11.68 18.488 11.92 18.872C12.176 19.256 12.56 19.568 13.072 19.808C13.584 20.032 14.248 20.144 15.064 20.144C15.8 20.144 16.416 20.048 16.912 19.856C17.408 19.664 17.784 19.4 18.04 19.064C18.296 18.712 18.424 18.312 18.424 17.864C18.424 17.304 18.184 16.864 17.704 16.544C17.224 16.208 16.448 15.992 15.376 15.896L14.056 15.776C12.312 15.632 10.92 15.088 9.88 14.144C8.84 13.2 8.32 11.952 8.32 10.4C8.32 9.28 8.584 8.312 9.112 7.496C9.656 6.68 10.408 6.056 11.368 5.624C12.328 5.176 13.464 4.952 14.776 4.952C16.152 4.952 17.328 5.192 18.304 5.672C19.296 6.136 20.056 6.8 20.584 7.664C21.112 8.512 21.376 9.512 21.376 10.664H17.536C17.536 10.232 17.432 9.84 17.224 9.488C17.016 9.12 16.704 8.824 16.288 8.6C15.888 8.376 15.384 8.264 14.776 8.264C14.2 8.264 13.712 8.36 13.312 8.552C12.928 8.744 12.64 9.008 12.448 9.344C12.256 9.664 12.16 10.016 12.16 10.4C12.16 10.896 12.336 11.328 12.688 11.696C13.04 12.064 13.616 12.28 14.416 12.344L15.76 12.464C17.04 12.576 18.168 12.856 19.144 13.304C20.12 13.736 20.88 14.336 21.424 15.104C21.984 15.856 22.264 16.776 22.264 17.864C22.264 18.984 21.968 19.968 21.376 20.816C20.8 21.648 19.976 22.296 18.904 22.76C17.832 23.224 16.552 23.456 15.064 23.456ZM25.3838 23V9.848H29.2238V23H25.3838ZM23.6318 12.68V9.848H29.2238V12.68H23.6318ZM26.8718 8.552C26.1518 8.552 25.6158 8.368 25.2638 8C24.9278 7.616 24.7598 7.136 24.7598 6.56C24.7598 5.968 24.9278 5.488 25.2638 5.12C25.6158 4.736 26.1518 4.544 26.8718 4.544C27.5918 4.544 28.1198 4.736 28.4558 5.12C28.8078 5.488 28.9838 5.968 28.9838 6.56C28.9838 7.136 28.8078 7.616 28.4558 8C28.1198 8.368 27.5918 8.552 26.8718 8.552ZM37.9594 28.232C37.3194 28.232 36.6634 28.208 35.9914 28.16C35.3194 28.112 34.7034 28.048 34.1434 27.968V24.728C34.7034 24.808 35.3194 24.872 35.9914 24.92C36.6794 24.984 37.3034 25.016 37.8634 25.016C38.9034 25.016 39.7434 24.896 40.3834 24.656C41.0394 24.416 41.5194 24.048 41.8234 23.552C42.1274 23.072 42.2794 22.448 42.2794 21.68V19.064L42.9754 17.528C42.9434 18.696 42.7114 19.696 42.2794 20.528C41.8634 21.36 41.2794 22 40.5274 22.448C39.7754 22.88 38.8794 23.096 37.8394 23.096C36.9434 23.096 36.1274 22.936 35.3914 22.616C34.6714 22.28 34.0554 21.816 33.5434 21.224C33.0314 20.632 32.6394 19.944 32.3674 19.16C32.0954 18.36 31.9594 17.496 31.9594 16.568V16.016C31.9594 15.088 32.1034 14.224 32.3914 13.424C32.6794 12.624 33.0954 11.928 33.6394 11.336C34.1834 10.744 34.8314 10.288 35.5834 9.968C36.3354 9.632 37.1674 9.464 38.0794 9.464C39.1354 9.464 40.0474 9.696 40.8154 10.16C41.5994 10.624 42.2154 11.304 42.6634 12.2C43.1114 13.096 43.3514 14.176 43.3834 15.44L42.8554 15.584V9.848H45.9034V21.44C45.9034 23.056 45.6154 24.36 45.0394 25.352C44.4634 26.344 43.5834 27.072 42.3994 27.536C41.2314 28 39.7514 28.232 37.9594 28.232ZM39.0394 19.856C39.6314 19.856 40.1674 19.728 40.6474 19.472C41.1274 19.2 41.5034 18.816 41.7754 18.32C42.0634 17.824 42.2074 17.224 42.2074 16.52V15.824C42.2074 15.136 42.0554 14.56 41.7514 14.096C41.4634 13.616 41.0794 13.256 40.5994 13.016C40.1194 12.76 39.6074 12.632 39.0634 12.632C38.4234 12.632 37.8554 12.784 37.3594 13.088C36.8634 13.392 36.4794 13.816 36.2074 14.36C35.9354 14.904 35.7994 15.544 35.7994 16.28C35.7994 17.032 35.9354 17.68 36.2074 18.224C36.4954 18.752 36.8794 19.16 37.3594 19.448C37.8554 19.72 38.4154 19.856 39.0394 19.856ZM49.2286 23V9.848H52.2766V15.488H52.0606C52.0606 14.144 52.2286 13.024 52.5646 12.128C52.9166 11.232 53.4446 10.56 54.1486 10.112C54.8526 9.664 55.7086 9.44 56.7166 9.44H56.8846C58.4206 9.44 59.5886 9.944 60.3886 10.952C61.2046 11.944 61.6126 13.456 61.6126 15.488V23H57.7726V15.272C57.7726 14.568 57.5646 13.992 57.1486 13.544C56.7326 13.096 56.1726 12.872 55.4686 12.872C54.7486 12.872 54.1646 13.104 53.7166 13.568C53.2846 14.016 53.0686 14.608 53.0686 15.344V23H49.2286ZM74.3639 23.408C72.8439 23.408 71.6759 22.92 70.8599 21.944C70.0439 20.952 69.6359 19.464 69.6359 17.48V9.848H73.4759V17.672C73.4759 18.376 73.6759 18.936 74.0759 19.352C74.4759 19.768 75.0119 19.976 75.6839 19.976C76.3719 19.976 76.9319 19.76 77.3639 19.328C77.7959 18.896 78.0119 18.312 78.0119 17.576V9.848H81.8519V23H78.8039V17.456H79.0679C79.0679 18.784 78.8919 19.896 78.5399 20.792C78.2039 21.672 77.6999 22.328 77.0279 22.76C76.3559 23.192 75.5239 23.408 74.5319 23.408H74.3639ZM85.3926 27.8V9.848H88.4406V15.536L88.0326 15.512C88.0966 14.2 88.3686 13.096 88.8486 12.2C89.3286 11.288 89.9766 10.608 90.7926 10.16C91.6086 9.696 92.5286 9.464 93.5526 9.464C94.4646 9.464 95.2886 9.632 96.0246 9.968C96.7766 10.304 97.4166 10.776 97.9446 11.384C98.4886 11.976 98.8966 12.68 99.1686 13.496C99.4566 14.296 99.6006 15.176 99.6006 16.136V16.688C99.6006 17.632 99.4646 18.52 99.1926 19.352C98.9206 20.168 98.5206 20.88 97.9926 21.488C97.4806 22.096 96.8486 22.576 96.0966 22.928C95.3606 23.264 94.5126 23.432 93.5526 23.432C92.5606 23.432 91.6646 23.232 90.8646 22.832C90.0806 22.416 89.4486 21.792 88.9686 20.96C88.4886 20.112 88.2246 19.04 88.1766 17.744L89.2326 19.184V27.8H85.3926ZM92.4726 20.216C93.1286 20.216 93.6966 20.056 94.1766 19.736C94.6726 19.416 95.0566 18.968 95.3286 18.392C95.6006 17.816 95.7366 17.152 95.7366 16.4C95.7366 15.648 95.6006 14.992 95.3286 14.432C95.0566 13.872 94.6806 13.44 94.2006 13.136C93.7206 12.816 93.1446 12.656 92.4726 12.656C91.8966 12.656 91.3526 12.792 90.8406 13.064C90.3286 13.336 89.9126 13.728 89.5926 14.24C89.2886 14.736 89.1366 15.344 89.1366 16.064V16.952C89.1366 17.64 89.2966 18.232 89.6166 18.728C89.9526 19.208 90.3766 19.576 90.8886 19.832C91.4006 20.088 91.9286 20.216 92.4726 20.216Z" fill="#1900C0"/>
<rect y="35" width="36" height="7" fill="#1900C0"/>
<rect x="36" y="35" width="36" height="7" fill="#FF0BA3"/>
<rect x="72" y="35" width="36" height="7" fill="#EAB054"/>
</svg>
