<svg width="93" height="25" viewBox="0 0 93 25" fill="none" xmlns="http://www.w3.org/2000/svg">
<path d="M8.064 19.6787C6.48 19.6787 5.144 19.4307 4.056 18.9347C2.968 18.4227 2.144 17.7347 1.584 16.8707C1.024 15.9907 0.744 14.9827 0.744 13.8467H4.56C4.56 14.2947 4.68 14.7107 4.92 15.0947C5.176 15.4787 5.56 15.7907 6.072 16.0307C6.584 16.2547 7.248 16.3667 8.064 16.3667C8.8 16.3667 9.416 16.2707 9.912 16.0787C10.408 15.8867 10.784 15.6227 11.04 15.2867C11.296 14.9347 11.424 14.5347 11.424 14.0867C11.424 13.5267 11.184 13.0867 10.704 12.7667C10.224 12.4307 9.448 12.2147 8.376 12.1187L7.056 11.9987C5.312 11.8547 3.92 11.3107 2.88 10.3667C1.84 9.42266 1.32 8.17466 1.32 6.62266C1.32 5.50266 1.584 4.53466 2.112 3.71866C2.656 2.90266 3.408 2.27866 4.368 1.84666C5.328 1.39866 6.464 1.17466 7.776 1.17466C9.152 1.17466 10.328 1.41466 11.304 1.89465C12.296 2.35866 13.056 3.02266 13.584 3.88665C14.112 4.73466 14.376 5.73466 14.376 6.88666H10.536C10.536 6.45466 10.432 6.06266 10.224 5.71066C10.016 5.34266 9.704 5.04666 9.288 4.82266C8.888 4.59866 8.384 4.48666 7.776 4.48666C7.2 4.48666 6.712 4.58266 6.312 4.77465C5.928 4.96666 5.64 5.23066 5.448 5.56666C5.256 5.88666 5.16 6.23866 5.16 6.62266C5.16 7.11866 5.336 7.55066 5.688 7.91866C6.04 8.28666 6.616 8.50266 7.416 8.56666L8.76 8.68666C10.04 8.79866 11.168 9.07866 12.144 9.52666C13.12 9.95866 13.88 10.5587 14.424 11.3267C14.984 12.0787 15.264 12.9987 15.264 14.0867C15.264 15.2067 14.968 16.1907 14.376 17.0387C13.8 17.8707 12.976 18.5187 11.904 18.9827C10.832 19.4467 9.552 19.6787 8.064 19.6787ZM18.3838 19.2227V6.07066H22.2238V19.2227H18.3838ZM16.6318 8.90266V6.07066H22.2238V8.90266H16.6318ZM19.8718 4.77465C19.1518 4.77465 18.6158 4.59066 18.2638 4.22266C17.9278 3.83866 17.7598 3.35865 17.7598 2.78265C17.7598 2.19065 17.9278 1.71065 18.2638 1.34265C18.6158 0.958655 19.1518 0.766655 19.8718 0.766655C20.5918 0.766655 21.1198 0.958655 21.4558 1.34265C21.8078 1.71065 21.9838 2.19065 21.9838 2.78265C21.9838 3.35865 21.8078 3.83866 21.4558 4.22266C21.1198 4.59066 20.5918 4.77465 19.8718 4.77465ZM30.9594 24.4547C30.3194 24.4547 29.6634 24.4307 28.9914 24.3827C28.3194 24.3347 27.7034 24.2707 27.1434 24.1907V20.9507C27.7034 21.0307 28.3194 21.0947 28.9914 21.1427C29.6794 21.2067 30.3034 21.2387 30.8634 21.2387C31.9034 21.2387 32.7434 21.1187 33.3834 20.8787C34.0394 20.6387 34.5194 20.2707 34.8234 19.7747C35.1274 19.2947 35.2794 18.6707 35.2794 17.9027V15.2867L35.9754 13.7507C35.9434 14.9187 35.7114 15.9187 35.2794 16.7507C34.8634 17.5827 34.2794 18.2227 33.5274 18.6707C32.7754 19.1027 31.8794 19.3187 30.8394 19.3187C29.9434 19.3187 29.1274 19.1587 28.3914 18.8387C27.6714 18.5027 27.0554 18.0387 26.5434 17.4467C26.0314 16.8547 25.6394 16.1667 25.3674 15.3827C25.0954 14.5827 24.9594 13.7187 24.9594 12.7907V12.2387C24.9594 11.3107 25.1034 10.4467 25.3914 9.64666C25.6794 8.84666 26.0954 8.15066 26.6394 7.55866C27.1834 6.96666 27.8314 6.51066 28.5834 6.19066C29.3354 5.85466 30.1674 5.68666 31.0794 5.68666C32.1354 5.68666 33.0474 5.91866 33.8154 6.38266C34.5994 6.84666 35.2154 7.52666 35.6634 8.42266C36.1114 9.31866 36.3514 10.3987 36.3834 11.6627L35.8554 11.8067V6.07066H38.9034V17.6627C38.9034 19.2787 38.6154 20.5827 38.0394 21.5747C37.4634 22.5667 36.5834 23.2947 35.3994 23.7587C34.2314 24.2227 32.7514 24.4547 30.9594 24.4547ZM32.0394 16.0787C32.6314 16.0787 33.1674 15.9507 33.6474 15.6947C34.1274 15.4227 34.5034 15.0387 34.7754 14.5427C35.0634 14.0467 35.2074 13.4467 35.2074 12.7427V12.0467C35.2074 11.3587 35.0554 10.7827 34.7514 10.3187C34.4634 9.83866 34.0794 9.47866 33.5994 9.23866C33.1194 8.98266 32.6074 8.85466 32.0634 8.85466C31.4234 8.85466 30.8554 9.00666 30.3594 9.31066C29.8634 9.61466 29.4794 10.0387 29.2074 10.5827C28.9354 11.1267 28.7994 11.7667 28.7994 12.5027C28.7994 13.2547 28.9354 13.9027 29.2074 14.4467C29.4954 14.9747 29.8794 15.3827 30.3594 15.6707C30.8554 15.9427 31.4154 16.0787 32.0394 16.0787ZM42.2286 19.2227V6.07066H45.2766V11.7107H45.0606C45.0606 10.3667 45.2286 9.24666 45.5646 8.35066C45.9166 7.45466 46.4446 6.78266 47.1486 6.33466C47.8526 5.88666 48.7086 5.66266 49.7166 5.66266H49.8846C51.4206 5.66266 52.5886 6.16666 53.3886 7.17466C54.2046 8.16666 54.6126 9.67866 54.6126 11.7107V19.2227H50.7726V11.4947C50.7726 10.7907 50.5646 10.2147 50.1486 9.76666C49.7326 9.31866 49.1726 9.09466 48.4686 9.09466C47.7486 9.09466 47.1646 9.32666 46.7166 9.79066C46.2846 10.2387 46.0686 10.8307 46.0686 11.5667V19.2227H42.2286ZM67.3639 19.6307C65.8439 19.6307 64.6759 19.1427 63.8599 18.1667C63.0439 17.1747 62.6359 15.6867 62.6359 13.7027V6.07066H66.4759V13.8947C66.4759 14.5987 66.6759 15.1587 67.0759 15.5747C67.4759 15.9907 68.0119 16.1987 68.6839 16.1987C69.3719 16.1987 69.9319 15.9827 70.3639 15.5507C70.7959 15.1187 71.0119 14.5347 71.0119 13.7987V6.07066H74.8519V19.2227H71.8039V13.6787H72.0679C72.0679 15.0067 71.8919 16.1187 71.5399 17.0147C71.2039 17.8947 70.6999 18.5507 70.0279 18.9827C69.3559 19.4147 68.5239 19.6307 67.5319 19.6307H67.3639ZM78.3926 24.0227V6.07066H81.4406V11.7587L81.0326 11.7347C81.0966 10.4227 81.3686 9.31866 81.8486 8.42266C82.3286 7.51066 82.9766 6.83066 83.7926 6.38266C84.6086 5.91866 85.5286 5.68666 86.5526 5.68666C87.4646 5.68666 88.2886 5.85466 89.0246 6.19066C89.7766 6.52666 90.4166 6.99866 90.9446 7.60666C91.4886 8.19866 91.8966 8.90266 92.1686 9.71866C92.4566 10.5187 92.6006 11.3987 92.6006 12.3587V12.9107C92.6006 13.8547 92.4646 14.7427 92.1926 15.5747C91.9206 16.3907 91.5206 17.1027 90.9926 17.7107C90.4806 18.3187 89.8486 18.7987 89.0966 19.1507C88.3606 19.4867 87.5126 19.6547 86.5526 19.6547C85.5606 19.6547 84.6646 19.4547 83.8646 19.0547C83.0806 18.6387 82.4486 18.0147 81.9686 17.1827C81.4886 16.3347 81.2246 15.2627 81.1766 13.9667L82.2326 15.4067V24.0227H78.3926ZM85.4726 16.4387C86.1286 16.4387 86.6966 16.2787 87.1766 15.9587C87.6726 15.6387 88.0566 15.1907 88.3286 14.6147C88.6006 14.0387 88.7366 13.3747 88.7366 12.6227C88.7366 11.8707 88.6006 11.2147 88.3286 10.6547C88.0566 10.0947 87.6806 9.66266 87.2006 9.35866C86.7206 9.03866 86.1446 8.87866 85.4726 8.87866C84.8966 8.87866 84.3526 9.01466 83.8406 9.28666C83.3286 9.55866 82.9126 9.95066 82.5926 10.4627C82.2886 10.9587 82.1366 11.5667 82.1366 12.2867V13.1747C82.1366 13.8627 82.2966 14.4547 82.6166 14.9507C82.9526 15.4307 83.3766 15.7987 83.8886 16.0547C84.4006 16.3107 84.9286 16.4387 85.4726 16.4387Z" fill="#1900C0"/>
</svg>
