<svg width="363" height="28" viewBox="0 0 363 28" fill="none" xmlns="http://www.w3.org/2000/svg">
<rect width="113" height="7" fill="#11A529"/>
<rect x="125" width="113" height="7" fill="#11A529"/>
<rect x="250" width="113" height="7" fill="#11A529"/>
<path d="M330.052 25.12C329.396 25.12 328.792 25.016 328.24 24.808C327.696 24.592 327.22 24.292 326.812 23.908C326.404 23.516 326.088 23.056 325.864 22.528C325.64 22 325.528 21.424 325.528 20.8C325.528 20.176 325.64 19.6 325.864 19.072C326.088 18.544 326.404 18.088 326.812 17.704C327.228 17.312 327.712 17.012 328.264 16.804C328.816 16.588 329.42 16.48 330.076 16.48C330.788 16.48 331.428 16.596 331.996 16.828C332.572 17.06 333.056 17.4 333.448 17.848L332.464 18.808C332.136 18.48 331.78 18.24 331.396 18.088C331.02 17.928 330.604 17.848 330.148 17.848C329.708 17.848 329.3 17.92 328.924 18.064C328.548 18.208 328.224 18.412 327.952 18.676C327.68 18.94 327.468 19.252 327.316 19.612C327.172 19.972 327.1 20.368 327.1 20.8C327.1 21.224 327.172 21.616 327.316 21.976C327.468 22.336 327.68 22.652 327.952 22.924C328.224 23.188 328.544 23.392 328.912 23.536C329.28 23.68 329.688 23.752 330.136 23.752C330.552 23.752 330.952 23.688 331.336 23.56C331.728 23.424 332.1 23.2 332.452 22.888L333.34 24.052C332.9 24.404 332.388 24.672 331.804 24.856C331.228 25.032 330.644 25.12 330.052 25.12ZM331.864 23.848V20.704H333.34V24.052L331.864 23.848ZM335.254 25V18.592H336.682V20.356L336.514 19.84C336.706 19.408 337.006 19.08 337.414 18.856C337.83 18.632 338.346 18.52 338.962 18.52V19.948C338.898 19.932 338.838 19.924 338.782 19.924C338.726 19.916 338.67 19.912 338.614 19.912C338.046 19.912 337.594 20.08 337.258 20.416C336.922 20.744 336.754 21.236 336.754 21.892V25H335.254ZM343.187 25.084C342.475 25.084 341.851 24.944 341.315 24.664C340.787 24.376 340.375 23.984 340.079 23.488C339.791 22.992 339.647 22.428 339.647 21.796C339.647 21.156 339.787 20.592 340.067 20.104C340.355 19.608 340.747 19.22 341.243 18.94C341.747 18.66 342.319 18.52 342.959 18.52C343.583 18.52 344.139 18.656 344.627 18.928C345.115 19.2 345.499 19.584 345.779 20.08C346.059 20.576 346.199 21.16 346.199 21.832C346.199 21.896 346.195 21.968 346.187 22.048C346.187 22.128 346.183 22.204 346.175 22.276H340.835V21.28H345.383L344.795 21.592C344.803 21.224 344.727 20.9 344.567 20.62C344.407 20.34 344.187 20.12 343.907 19.96C343.635 19.8 343.319 19.72 342.959 19.72C342.591 19.72 342.267 19.8 341.987 19.96C341.715 20.12 341.499 20.344 341.339 20.632C341.187 20.912 341.111 21.244 341.111 21.628V21.868C341.111 22.252 341.199 22.592 341.375 22.888C341.551 23.184 341.799 23.412 342.119 23.572C342.439 23.732 342.807 23.812 343.223 23.812C343.583 23.812 343.907 23.756 344.195 23.644C344.483 23.532 344.739 23.356 344.963 23.116L345.767 24.04C345.479 24.376 345.115 24.636 344.675 24.82C344.243 24.996 343.747 25.084 343.187 25.084ZM351.412 25V23.704L351.328 23.428V21.16C351.328 20.72 351.196 20.38 350.932 20.14C350.668 19.892 350.268 19.768 349.732 19.768C349.372 19.768 349.016 19.824 348.664 19.936C348.32 20.048 348.028 20.204 347.788 20.404L347.2 19.312C347.544 19.048 347.952 18.852 348.424 18.724C348.904 18.588 349.4 18.52 349.912 18.52C350.84 18.52 351.556 18.744 352.06 19.192C352.572 19.632 352.828 20.316 352.828 21.244V25H351.412ZM349.396 25.084C348.916 25.084 348.496 25.004 348.136 24.844C347.776 24.676 347.496 24.448 347.296 24.16C347.104 23.864 347.008 23.532 347.008 23.164C347.008 22.804 347.092 22.48 347.26 22.192C347.436 21.904 347.72 21.676 348.112 21.508C348.504 21.34 349.024 21.256 349.672 21.256H351.532V22.252H349.78C349.268 22.252 348.924 22.336 348.748 22.504C348.572 22.664 348.484 22.864 348.484 23.104C348.484 23.376 348.592 23.592 348.808 23.752C349.024 23.912 349.324 23.992 349.708 23.992C350.076 23.992 350.404 23.908 350.692 23.74C350.988 23.572 351.2 23.324 351.328 22.996L351.58 23.896C351.436 24.272 351.176 24.564 350.8 24.772C350.432 24.98 349.964 25.084 349.396 25.084ZM357.166 25.084C356.462 25.084 355.918 24.904 355.534 24.544C355.15 24.176 354.958 23.636 354.958 22.924V17.176H356.458V22.888C356.458 23.192 356.534 23.428 356.686 23.596C356.846 23.764 357.066 23.848 357.346 23.848C357.682 23.848 357.962 23.76 358.186 23.584L358.606 24.652C358.43 24.796 358.214 24.904 357.958 24.976C357.702 25.048 357.438 25.084 357.166 25.084ZM353.902 19.84V18.64H358.174V19.84H353.902ZM359.935 22.216L359.647 16.6H361.423L361.123 22.216H359.935ZM360.535 25.084C360.255 25.084 360.023 24.992 359.839 24.808C359.655 24.624 359.563 24.404 359.563 24.148C359.563 23.892 359.655 23.676 359.839 23.5C360.023 23.316 360.255 23.224 360.535 23.224C360.815 23.224 361.043 23.316 361.219 23.5C361.395 23.676 361.483 23.892 361.483 24.148C361.483 24.404 361.395 24.624 361.219 24.808C361.043 24.992 360.815 25.084 360.535 25.084Z" fill="#11A529"/>
</svg>
