<svg width="363" height="28" viewBox="0 0 363 28" fill="none" xmlns="http://www.w3.org/2000/svg">
<rect width="113" height="7" fill="#F53B3B"/>
<rect x="125" width="113" height="7" fill="#D9D9D9"/>
<rect x="250" width="113" height="7" fill="#D9D9D9"/>
<path d="M330.108 25L327.324 16.6H328.944L331.428 24.196H330.624L333.204 16.6H334.644L337.152 24.196H336.372L338.916 16.6H340.404L337.62 25H335.964L333.672 18.148H334.104L331.776 25H330.108ZM344.062 25.084C343.35 25.084 342.726 24.944 342.19 24.664C341.662 24.376 341.25 23.984 340.954 23.488C340.666 22.992 340.522 22.428 340.522 21.796C340.522 21.156 340.662 20.592 340.942 20.104C341.23 19.608 341.622 19.22 342.118 18.94C342.622 18.66 343.194 18.52 343.834 18.52C344.458 18.52 345.014 18.656 345.502 18.928C345.99 19.2 346.374 19.584 346.654 20.08C346.934 20.576 347.074 21.16 347.074 21.832C347.074 21.896 347.07 21.968 347.062 22.048C347.062 22.128 347.058 22.204 347.05 22.276H341.71V21.28H346.258L345.67 21.592C345.678 21.224 345.602 20.9 345.442 20.62C345.282 20.34 345.062 20.12 344.782 19.96C344.51 19.8 344.194 19.72 343.834 19.72C343.466 19.72 343.142 19.8 342.862 19.96C342.59 20.12 342.374 20.344 342.214 20.632C342.062 20.912 341.986 21.244 341.986 21.628V21.868C341.986 22.252 342.074 22.592 342.25 22.888C342.426 23.184 342.674 23.412 342.994 23.572C343.314 23.732 343.682 23.812 344.098 23.812C344.458 23.812 344.782 23.756 345.07 23.644C345.358 23.532 345.614 23.356 345.838 23.116L346.642 24.04C346.354 24.376 345.99 24.636 345.55 24.82C345.118 24.996 344.622 25.084 344.062 25.084ZM352.287 25V23.704L352.203 23.428V21.16C352.203 20.72 352.071 20.38 351.807 20.14C351.543 19.892 351.143 19.768 350.607 19.768C350.247 19.768 349.891 19.824 349.539 19.936C349.195 20.048 348.903 20.204 348.663 20.404L348.075 19.312C348.419 19.048 348.827 18.852 349.299 18.724C349.779 18.588 350.275 18.52 350.787 18.52C351.715 18.52 352.431 18.744 352.935 19.192C353.447 19.632 353.703 20.316 353.703 21.244V25H352.287ZM350.271 25.084C349.791 25.084 349.371 25.004 349.011 24.844C348.651 24.676 348.371 24.448 348.171 24.16C347.979 23.864 347.883 23.532 347.883 23.164C347.883 22.804 347.967 22.48 348.135 22.192C348.311 21.904 348.595 21.676 348.987 21.508C349.379 21.34 349.899 21.256 350.547 21.256H352.407V22.252H350.655C350.143 22.252 349.799 22.336 349.623 22.504C349.447 22.664 349.359 22.864 349.359 23.104C349.359 23.376 349.467 23.592 349.683 23.752C349.899 23.912 350.199 23.992 350.583 23.992C350.951 23.992 351.279 23.908 351.567 23.74C351.863 23.572 352.075 23.324 352.203 22.996L352.455 23.896C352.311 24.272 352.051 24.564 351.675 24.772C351.307 24.98 350.839 25.084 350.271 25.084ZM356.853 23.572L356.889 21.688L360.237 18.592H362.037L359.193 21.448L358.401 22.108L356.853 23.572ZM355.629 25V16.096H357.129V25H355.629ZM360.465 25L358.125 22.108L359.073 20.908L362.289 25H360.465Z" fill="#F53B3B"/>
</svg>
