<svg xmlns="http://www.w3.org/2000/svg" width="30" height="31" viewBox="0 0 30 31" fill="none">
  <path d="M4.6875 13.291C4.43886 13.291 4.2004 13.1922 4.02459 13.0164C3.84877 12.8406 3.75 12.6021 3.75 12.3535V4.85535C3.75 4.60671 3.84877 4.36825 4.02459 4.19243C4.2004 4.01662 4.43886 3.91785 4.6875 3.91785H12.1875C12.4361 3.91785 12.6746 4.01662 12.8504 4.19243C13.0262 4.36825 13.125 4.60671 13.125 4.85535V12.3535C13.125 12.6021 13.0262 12.8406 12.8504 13.0164C12.6746 13.1922 12.4361 13.291 12.1875 13.291H4.6875ZM17.8125 13.291C17.5639 13.291 17.3254 13.1922 17.1496 13.0164C16.9738 12.8406 16.875 12.6021 16.875 12.3535V4.85535C16.875 4.60671 16.9738 4.36825 17.1496 4.19243C17.3254 4.01662 17.5639 3.91785 17.8125 3.91785H25.3106C25.5593 3.91785 25.7977 4.01662 25.9735 4.19243C26.1494 4.36825 26.2481 4.60671 26.2481 4.85535V12.3535C26.2481 12.6021 26.1494 12.8406 25.9735 13.0164C25.7977 13.1922 25.5593 13.291 25.3106 13.291H17.8125ZM4.6875 26.416C4.43886 26.416 4.2004 26.3172 4.02459 26.1414C3.84877 25.9656 3.75 25.7271 3.75 25.4785V17.9785C3.75 17.7298 3.84877 17.4914 4.02459 17.3156C4.2004 17.1397 4.43886 17.041 4.6875 17.041H12.1875C12.4361 17.041 12.6746 17.1397 12.8504 17.3156C13.0262 17.4914 13.125 17.7298 13.125 17.9785V25.4785C13.125 25.7271 13.0262 25.9656 12.8504 26.1414C12.6746 26.3172 12.4361 26.416 12.1875 26.416H4.6875ZM17.8125 26.416C17.5639 26.416 17.3254 26.3172 17.1496 26.1414C16.9738 25.9656 16.875 25.7271 16.875 25.4785V17.9785C16.875 17.7298 16.9738 17.4914 17.1496 17.3156C17.3254 17.1397 17.5639 17.041 17.8125 17.041H25.3106C25.5593 17.041 25.7977 17.1397 25.9735 17.3156C26.1494 17.4914 26.2481 17.7298 26.2481 17.9785V25.4785C26.2481 25.7271 26.1494 25.9656 25.9735 26.1414C25.7977 26.3172 25.5593 26.416 25.3106 26.416H17.8125Z" fill="#333333"/>
</svg>