<svg width="15" height="16" viewBox="0 0 15 16" fill="none" xmlns="http://www.w3.org/2000/svg">
<g clip-path="url(#clip0_3087_29046)">
<path d="M13.1243 5.28113C13.2836 5.2813 13.4368 5.3423 13.5527 5.45166C13.6685 5.56101 13.7382 5.71047 13.7475 5.8695C13.7569 6.02853 13.7051 6.18511 13.6029 6.30727C13.5006 6.42943 13.3556 6.50794 13.1974 6.52675L13.1243 6.53113V12.7811C13.2836 12.7813 13.4368 12.8423 13.5527 12.9517C13.6685 13.061 13.7382 13.2105 13.7475 13.3695C13.7569 13.5285 13.7051 13.6851 13.6029 13.8073C13.5006 13.9294 13.3556 14.0079 13.1974 14.0268L13.1243 14.0311H1.87431C1.71501 14.031 1.56179 13.97 1.44595 13.8606C1.33012 13.7512 1.26041 13.6018 1.25108 13.4428C1.24174 13.2837 1.29348 13.1271 1.39572 13.005C1.49797 12.8828 1.643 12.8043 1.80118 12.7855L1.87431 12.7811V6.53113C1.71501 6.53095 1.56179 6.46995 1.44595 6.3606C1.33012 6.25124 1.26041 6.10178 1.25108 5.94276C1.24174 5.78373 1.29348 5.62714 1.39572 5.50498C1.49797 5.38282 1.643 5.30432 1.80118 5.2855L1.87431 5.28113H13.1243ZM11.8743 6.53113H3.12431V12.7811H4.37431V8.40613C4.37431 8.24037 4.44016 8.0814 4.55737 7.96419C4.67458 7.84698 4.83355 7.78113 4.99931 7.78113C5.16507 7.78113 5.32404 7.84698 5.44125 7.96419C5.55846 8.0814 5.62431 8.24037 5.62431 8.40613V12.7811H6.87431V8.40613C6.87431 8.24037 6.94016 8.0814 7.05737 7.96419C7.17458 7.84698 7.33355 7.78113 7.49931 7.78113C7.66507 7.78113 7.82404 7.84698 7.94125 7.96419C8.05846 8.0814 8.12431 8.24037 8.12431 8.40613V12.7811H9.37431V8.40613C9.37431 8.24037 9.44016 8.0814 9.55737 7.96419C9.67458 7.84698 9.83355 7.78113 9.99931 7.78113C10.1651 7.78113 10.324 7.84698 10.4412 7.96419C10.5585 8.0814 10.6243 8.24037 10.6243 8.40613V12.7811H11.8743V6.53113ZM11.2493 3.40613C11.4151 3.40613 11.574 3.47198 11.6912 3.58919C11.8085 3.7064 11.8743 3.86537 11.8743 4.03113C11.8743 4.19689 11.8085 4.35586 11.6912 4.47307C11.574 4.59028 11.4151 4.65613 11.2493 4.65613H3.74931C3.58355 4.65613 3.42458 4.59028 3.30737 4.47307C3.19016 4.35586 3.12431 4.19689 3.12431 4.03113C3.12431 3.86537 3.19016 3.7064 3.30737 3.58919C3.42458 3.47198 3.58355 3.40613 3.74931 3.40613H11.2493Z" fill="white
"/>
</g>
<defs>
<clipPath id="clip0_3087_29046">
<rect width="15" height="15" fill="white" transform="translate(0 0.906128)"/>
</clipPath>
</defs>
</svg>
