<svg xmlns="http://www.w3.org/2000/svg" width="15" height="16" viewBox="0 0 15 16" fill="none">
  <g clip-path="url(#clip0_1425_6568)">
    <path d="M13.2295 5.16602C12.2648 2.95852 10.062 1.41602 7.49953 1.41602C4.93672 1.41602 2.73391 2.95852 1.76953 5.16602" stroke="white" stroke-width="1.25" stroke-linecap="round" stroke-linejoin="round"/>
    <path d="M7.50001 4.54102C6.9055 5.12228 6.43333 5.81664 6.11131 6.5832C5.7893 7.34976 5.62395 8.17301 5.62501 9.00445C5.62501 9.1607 5.63063 9.3157 5.64219 9.46945C6.23159 10.0501 6.69942 10.7424 7.0184 11.5058C7.33737 12.2693 7.50109 13.0886 7.50001 13.916C7.49888 13.0886 7.66258 12.2692 7.98155 11.5057C8.30053 10.7422 8.76838 10.0499 9.35782 9.46914C9.42673 8.56188 9.29611 7.65054 8.97516 6.79915C8.6542 5.94777 8.15069 5.177 7.50001 4.54102Z" stroke="white" stroke-width="1.25" stroke-linecap="round" stroke-linejoin="round"/>
    <path d="M1.25 7.66602C1.25 11.1179 4.04813 13.916 7.5 13.916C7.50113 13.0886 7.33743 12.2692 7.01845 11.5057C6.69948 10.7422 6.23162 10.0499 5.64219 9.46915C4.47353 8.31191 2.89467 7.66375 1.25 7.66602Z" stroke="white" stroke-width="1.25" stroke-linecap="round" stroke-linejoin="round"/>
    <path d="M13.75 7.66602C13.75 11.1179 10.9519 13.916 7.50001 13.916C7.49888 13.0886 7.66258 12.2692 7.98155 11.5057C8.30053 10.7422 8.76838 10.0499 9.35782 9.46915C10.5265 8.31191 12.1053 7.66375 13.75 7.66602Z" stroke="white" stroke-width="1.25" stroke-linecap="round" stroke-linejoin="round"/>
  </g>
  <defs>
    <clipPath id="clip0_1425_6568">
      <rect width="15" height="15" fill=" white" transform="translate(0 0.166016)"/>
    </clipPath>
  </defs>
</svg>