<svg xmlns="http://www.w3.org/2000/svg" width="16" height="16" viewBox="0 0 16 16" fill="none">
  <path d="M5.24414 13.4294C4.86914 13.419 4.51227 13.3228 4.17352 13.1407C3.83477 12.9586 3.51456 12.6903 3.21289 12.3357C2.79623 11.8357 2.4706 11.2394 2.23602 10.5469C2.00143 9.85444 1.88435 9.1434 1.88477 8.41382C1.88477 7.54923 2.04893 6.73674 2.37727 5.97632C2.7056 5.2159 3.15081 4.55444 3.71289 3.99194C4.27539 3.42944 4.93685 2.98424 5.69727 2.65632C6.45768 2.3284 7.27018 2.16424 8.13477 2.16382C8.99935 2.16382 9.81185 2.33048 10.5723 2.66382C11.3327 2.99715 11.9941 3.45028 12.5566 4.02319C13.1191 4.59611 13.5646 5.26798 13.8929 6.03882C14.2212 6.80965 14.3852 7.63778 14.3848 8.52319C14.3848 9.32528 14.2546 10.0753 13.9941 10.7732C13.7337 11.4711 13.3639 12.0597 12.8848 12.5388C12.5931 12.8305 12.2858 13.0519 11.9629 13.2032C11.64 13.3544 11.3118 13.4299 10.9785 13.4294C10.791 13.4294 10.6035 13.4061 10.416 13.3594C10.2285 13.3128 10.041 13.2424 9.85352 13.1482L8.97852 12.7107C8.85352 12.6482 8.7206 12.6013 8.57977 12.5701C8.43893 12.5388 8.2906 12.5232 8.13477 12.5232C7.97852 12.5232 7.82998 12.5388 7.68914 12.5701C7.54831 12.6013 7.4156 12.6482 7.29102 12.7107L6.41602 13.1482C6.2181 13.2524 6.02268 13.328 5.82977 13.3751C5.63685 13.4222 5.44164 13.4403 5.24414 13.4294ZM5.27539 12.1794C5.36914 12.1794 5.4656 12.169 5.56477 12.1482C5.66393 12.1274 5.76018 12.0909 5.85352 12.0388L6.72852 11.6013C6.94727 11.4867 7.17393 11.4034 7.40852 11.3513C7.6431 11.2992 7.87998 11.2732 8.11914 11.2732C8.35873 11.2732 8.59831 11.2992 8.83789 11.3513C9.07748 11.4034 9.30664 11.4867 9.52539 11.6013L10.416 12.0388C10.5098 12.0909 10.6035 12.1274 10.6973 12.1482C10.791 12.169 10.8848 12.1794 10.9785 12.1794C11.1764 12.1794 11.3639 12.1274 11.541 12.0232C11.7181 11.919 11.8952 11.7628 12.0723 11.5544C12.4056 11.1586 12.666 10.6847 12.8535 10.1326C13.041 9.58048 13.1348 9.01278 13.1348 8.42944C13.1348 7.03361 12.6504 5.84882 11.6816 4.87507C10.7129 3.90132 9.5306 3.41423 8.13477 3.41382C6.73893 3.41382 5.55664 3.9034 4.58789 4.88257C3.61914 5.86174 3.13477 7.04924 3.13477 8.44507C3.13477 9.03882 3.23102 9.61694 3.42352 10.1794C3.61602 10.7419 3.88435 11.2159 4.22852 11.6013C4.4056 11.8097 4.57748 11.9582 4.74414 12.0469C4.91081 12.1357 5.08789 12.1799 5.27539 12.1794ZM8.13477 9.66382C8.47852 9.66382 8.77289 9.54153 9.01789 9.29694C9.26289 9.05236 9.38518 8.75799 9.38477 8.41382C9.38477 8.33048 9.37685 8.24715 9.36102 8.16382C9.34518 8.08049 9.32185 7.99715 9.29102 7.91382L10.0723 6.86694C10.1764 7.00236 10.2677 7.14548 10.346 7.29632C10.4243 7.44715 10.4894 7.61132 10.541 7.78882H11.8223C11.666 6.87215 11.2416 6.12215 10.5491 5.53882C9.85664 4.95548 9.05185 4.66382 8.13477 4.66382C7.2181 4.66382 6.41081 4.95819 5.71289 5.54694C5.01498 6.13569 4.5931 6.88299 4.44727 7.78882H5.72852C5.87435 7.22632 6.17123 6.77319 6.61914 6.42944C7.06706 6.08569 7.57227 5.91382 8.13477 5.91382C8.31185 5.91382 8.47852 5.92944 8.63477 5.96069C8.79102 5.99194 8.94206 6.03882 9.08789 6.10132L8.29102 7.17944C8.27018 7.17944 8.24414 7.17673 8.21289 7.17132C8.18164 7.1659 8.1556 7.1634 8.13477 7.16382C7.79102 7.16382 7.49685 7.28632 7.25227 7.53132C7.00768 7.77632 6.88518 8.07049 6.88477 8.41382C6.88477 8.75757 7.00727 9.05194 7.25227 9.29694C7.49727 9.54194 7.79143 9.66424 8.13477 9.66382Z" fill="#FF0BA3"/>
</svg>