<svg xmlns="http://www.w3.org/2000/svg" width="134" height="31" viewBox="0 0 134 31" fill="none">
  <g clip-path="url(#clip0_1425_6501)">
    <path d="M49.1583 1.09668V1.4066C48.5997 1.53056 48.2273 2.02643 47.8549 2.83222L44.1308 12.5636H44.0067H43.8825L39.9102 2.46032C39.6619 1.7785 39.2895 1.46858 38.793 1.4066V1.09668C39.2274 1.15866 39.7861 1.15866 40.5309 1.15866C41.4619 1.15866 42.1446 1.15866 42.5791 1.09668V1.4066C42.1446 1.4066 41.8964 1.46858 41.7102 1.53056C41.524 1.59255 41.4619 1.7785 41.4619 1.96445C41.4619 2.1504 41.524 2.39833 41.6481 2.70825L44.5653 10.4562L47.1721 3.638C47.3583 3.08015 47.4825 2.64627 47.4825 2.33635C47.4825 2.02643 47.3583 1.7785 47.1101 1.59255C46.9239 1.46858 46.6135 1.4066 46.117 1.4066V1.09668C46.7377 1.15866 47.3583 1.15866 47.979 1.15866C48.4756 1.15866 48.848 1.09668 49.1583 1.09668Z" fill="black"/>
    <path d="M51.7666 11.0131C51.7666 11.447 51.8286 11.7569 52.0148 11.9429C52.2011 12.1288 52.5114 12.1908 52.9459 12.1908V12.5007C51.9528 12.4387 51.3321 12.4387 51.0218 12.4387C50.7114 12.4387 50.0907 12.4387 49.0977 12.5007V12.1908C49.5321 12.1908 49.8425 12.1288 50.0287 11.9429C50.2149 11.7569 50.2769 11.447 50.2769 11.0131V5.93048C50.2769 5.43461 50.2149 5.06271 50.0287 4.87676C49.8425 4.62883 49.5321 4.50486 49.0977 4.50486V4.19494C49.4701 4.25693 49.7804 4.25693 50.0907 4.25693C50.7735 4.25693 51.3321 4.19494 51.7666 4.00899V11.0131ZM51.6424 0.475933C51.8286 0.661883 51.9528 0.909817 51.9528 1.21973C51.9528 1.52965 51.8286 1.7156 51.6424 1.96354C51.4562 2.14949 51.208 2.27345 50.8976 2.27345C50.5873 2.27345 50.4011 2.14949 50.1528 1.96354C49.9666 1.77759 49.8425 1.52965 49.8425 1.21973C49.8425 0.909817 49.9666 0.723867 50.1528 0.475933C50.4011 0.289983 50.6494 0.166016 50.8976 0.166016C51.1459 0.166016 51.4562 0.289983 51.6424 0.475933Z" fill="black"/>
    <path d="M61.199 4.19434V4.50425C61.0128 4.50425 60.7645 4.62822 60.6404 4.81417C60.4542 5.00012 60.3301 5.24805 60.1439 5.68194L57.4749 12.5621H57.2267L54.2474 5.43401C54.0612 5.0621 53.9371 4.81417 53.7509 4.6902C53.6267 4.56624 53.4405 4.50425 53.3164 4.50425V4.19434C53.875 4.25632 54.3716 4.25632 54.744 4.25632C55.5508 4.25632 56.2957 4.25632 56.8543 4.19434V4.50425C56.4819 4.50425 56.1715 4.50425 55.9853 4.56624C55.7991 4.62822 55.7371 4.75219 55.7371 5.00012C55.7371 5.12409 55.7991 5.37202 55.9233 5.68194L57.9094 10.5786L59.5852 6.05384C59.7094 5.74392 59.7715 5.49599 59.7715 5.31004C59.7715 5.0621 59.6473 4.87615 59.4611 4.75219C59.2749 4.62822 58.9646 4.56624 58.5301 4.50425V4.19434C59.0887 4.25632 59.5232 4.25632 59.8956 4.25632C60.3921 4.25632 60.8266 4.19434 61.199 4.19434Z" fill="black"/>
    <path d="M67.7784 4.31917C68.0267 4.5671 68.2129 4.87702 68.2129 5.24892C68.2129 5.55884 68.1508 5.74479 67.9646 5.99272C67.7784 6.17867 67.5922 6.30264 67.2819 6.30264C67.0336 6.30264 66.8474 6.24065 66.6612 6.0547C66.475 5.93074 66.4129 5.6828 66.4129 5.43487C66.4129 5.06297 66.5991 4.81503 66.9715 4.5671C66.9094 4.44313 66.7853 4.38115 66.6612 4.38115C66.2267 4.38115 65.8543 4.5671 65.5439 4.87702C65.1715 5.18693 64.9233 5.62082 64.7371 6.0547C64.5509 6.55057 64.4267 6.98445 64.4267 7.41834V10.8274C64.4267 11.3233 64.5509 11.6952 64.8612 11.8811C65.1715 12.0671 65.5439 12.1911 66.1646 12.1911V12.501H65.7922C64.675 12.439 63.9923 12.439 63.6819 12.439C63.3716 12.439 62.7509 12.439 61.7578 12.501V12.1911C62.1923 12.1911 62.5026 12.1291 62.6888 11.9431C62.875 11.7572 62.9371 11.4473 62.9371 11.0134V5.93074C62.9371 5.43487 62.875 5.06297 62.6888 4.87702C62.5026 4.62908 62.1923 4.5671 61.7578 4.5671V4.1952C62.1302 4.25718 62.4406 4.25718 62.7509 4.25718C63.4336 4.25718 63.9923 4.1952 64.4267 4.00925V5.99272C64.6129 5.43487 64.9233 5.00098 65.3577 4.5671C65.7922 4.13322 66.2267 3.94727 66.7853 3.94727C67.1577 3.94727 67.4681 4.07123 67.7784 4.31917Z" fill="black"/>
    <path d="M71.5674 11.0131C71.5674 11.447 71.6294 11.7569 71.8156 11.9429C72.0018 12.1288 72.3122 12.1908 72.7466 12.1908V12.5007C71.7536 12.4387 71.1329 12.4387 70.8225 12.4387C70.5122 12.4387 69.8915 12.4387 68.8984 12.5007V12.1908C69.3329 12.1908 69.6433 12.1288 69.8295 11.9429C70.0157 11.7569 70.0777 11.447 70.0777 11.0131V5.93048C70.0777 5.43461 70.0157 5.06271 69.8295 4.87676C69.6433 4.62883 69.3329 4.56684 68.8984 4.56684V4.19494C69.2708 4.25693 69.5812 4.25693 69.8915 4.25693C70.5743 4.25693 71.1329 4.19494 71.5674 4.00899V11.0131ZM71.4432 0.475933C71.6294 0.661883 71.7536 0.909817 71.7536 1.21973C71.7536 1.52965 71.6294 1.7156 71.4432 1.96354C71.257 2.14949 71.0087 2.27345 70.6984 2.27345C70.3881 2.27345 70.2019 2.14949 69.9536 1.96354C69.7674 1.77759 69.6432 1.52965 69.6432 1.21973C69.6432 0.909817 69.7674 0.723867 69.9536 0.475933C70.1398 0.289983 70.3881 0.166016 70.6984 0.166016C71.0087 0.166016 71.257 0.289983 71.4432 0.475933Z" fill="black"/>
    <path d="M76.1585 4.19505H78.5171V4.50496H76.1585V10.7653C76.1585 11.2612 76.2206 11.5711 76.4068 11.819C76.593 12.005 76.8413 12.1289 77.1516 12.1289C77.4619 12.1289 77.7723 12.005 78.0206 11.757C78.2688 11.5091 78.455 11.0752 78.6412 10.4554L78.9516 10.5174C78.7033 12.005 77.9585 12.7488 76.8413 12.7488C76.4689 12.7488 76.1585 12.6868 75.9102 12.6248C75.662 12.5628 75.4758 12.3769 75.2896 12.2529C75.0413 12.005 74.9172 11.757 74.793 11.3851C74.731 11.0132 74.6689 10.5793 74.6689 10.0215V4.50496H73.1172V4.19505H74.6689V1.71571C75.2896 1.71571 75.724 1.59174 76.0964 1.46777V4.19505H76.1585Z" fill="black"/>
    <path d="M81.9931 11.0131C81.9931 11.447 82.0552 11.7569 82.2414 11.9429C82.4276 12.1288 82.7379 12.1908 83.1724 12.1908V12.5007C82.1793 12.4387 81.5587 12.4387 81.2483 12.4387C80.938 12.4387 80.3173 12.4387 79.3242 12.5007V12.1908C79.7587 12.1908 80.069 12.1288 80.2552 11.9429C80.4414 11.7569 80.5035 11.447 80.5035 11.0131V5.93048C80.5035 5.43461 80.4414 5.06271 80.2552 4.87676C80.069 4.62883 79.7587 4.50486 79.3242 4.50486V4.19494C79.6966 4.25693 80.007 4.25693 80.3173 4.25693C81 4.25693 81.5587 4.19494 81.9931 4.00899V11.0131ZM81.869 0.475933C82.0552 0.661883 82.1793 0.909817 82.1793 1.21973C82.1793 1.52965 82.0552 1.7156 81.869 1.96354C81.6828 2.14949 81.4345 2.27345 81.1242 2.27345C80.8138 2.27345 80.6276 2.14949 80.3794 1.96354C80.1932 1.77759 80.069 1.52965 80.069 1.21973C80.069 0.909817 80.1932 0.723867 80.3794 0.475933C80.5656 0.289983 80.8138 0.166016 81.1242 0.166016C81.4345 0.166016 81.6828 0.289983 81.869 0.475933Z" fill="black"/>
    <path d="M97.26 12.1285V12.4384C96.8256 12.3764 96.267 12.3764 95.5221 12.3764C94.5911 12.3764 93.9084 12.3764 93.4739 12.4384V12.1285C93.9084 12.1285 94.1567 12.0665 94.3429 12.0045C94.5291 11.9425 94.5911 11.7566 94.5911 11.5706C94.5911 11.3847 94.5291 11.1368 94.4049 10.8268L93.4118 8.16155H89.5016L88.8188 9.89709C88.6326 10.4549 88.5085 10.8888 88.5085 11.1987C88.5085 11.5087 88.6326 11.7566 88.8809 11.9425C89.1292 12.0665 89.4395 12.1905 89.936 12.1905V12.5004C89.3154 12.4384 88.6947 12.4384 88.074 12.4384C87.5775 12.4384 87.2051 12.4384 86.8947 12.5004V12.1905C87.4533 12.0665 87.8257 11.5706 88.1981 10.7649L91.9843 1.03345H92.2326L96.1428 11.1368C96.3911 11.8186 96.7635 12.1285 97.26 12.1285ZM93.3498 7.85163L91.5498 3.01692L89.6878 7.85163H93.3498Z" fill="black"/>
    <path d="M101.546 4.13322C101.856 4.25718 102.105 4.38115 102.291 4.5671C102.415 4.62908 102.477 4.69107 102.601 4.69107C102.787 4.69107 102.912 4.44313 102.974 4.00925H103.346C103.284 4.50512 103.284 5.43487 103.284 6.73652H102.912C102.787 6.0547 102.539 5.43487 102.229 5.00099C101.918 4.5671 101.36 4.31917 100.739 4.31917C100.367 4.31917 100.056 4.44313 99.8082 4.62908C99.5599 4.87702 99.4357 5.12495 99.4357 5.55884C99.4357 5.93074 99.5599 6.24065 99.8082 6.48859C100.056 6.73652 100.491 7.04644 101.05 7.41834C101.174 7.48032 101.298 7.54231 101.484 7.66628C101.981 7.97619 102.353 8.28611 102.663 8.53404C102.974 8.78198 103.222 9.09189 103.408 9.40181C103.594 9.71173 103.718 10.0836 103.718 10.5175C103.718 11.1993 103.47 11.7572 102.912 12.1911C102.353 12.563 101.732 12.8109 100.925 12.8109C100.429 12.8109 99.9944 12.7489 99.6219 12.563C99.3737 12.439 99.1875 12.315 98.9392 12.1291C98.8771 12.0671 98.8771 12.0671 98.8151 12.0671C98.753 12.0671 98.6909 12.1291 98.6289 12.2531C98.5668 12.377 98.5047 12.501 98.5047 12.6869H98.0703C98.1323 12.0671 98.1323 11.0134 98.1323 9.4638H98.5047C98.6289 10.4555 98.8151 11.1993 99.1254 11.6952C99.4357 12.1911 99.9944 12.439 100.739 12.439C101.112 12.439 101.422 12.315 101.732 12.0671C102.043 11.8192 102.167 11.4473 102.167 10.8894C102.167 10.4555 102.043 10.1456 101.732 9.8357C101.422 9.52578 100.987 9.21586 100.367 8.78198C99.8702 8.47206 99.4357 8.16214 99.1254 7.97619C98.8151 7.79024 98.6289 7.48032 98.3806 7.17041C98.1944 6.86049 98.0703 6.48859 98.0703 6.0547C98.0703 5.37289 98.3185 4.87702 98.753 4.50512C99.1875 4.13322 99.7461 3.94727 100.491 3.94727C100.925 3.94727 101.236 4.00925 101.546 4.13322Z" fill="black"/>
    <path d="M108.746 4.13322C109.056 4.25718 109.304 4.38115 109.491 4.5671C109.615 4.62908 109.677 4.69107 109.801 4.69107C109.987 4.69107 110.111 4.44313 110.173 4.00925H110.546C110.484 4.50512 110.484 5.43487 110.484 6.73652H110.111C109.987 6.0547 109.739 5.43487 109.429 5.00099C109.118 4.5671 108.56 4.31917 107.939 4.31917C107.566 4.31917 107.256 4.44313 107.008 4.62908C106.76 4.87702 106.635 5.12495 106.635 5.55884C106.635 5.93074 106.76 6.24065 107.008 6.48859C107.256 6.73652 107.691 7.04644 108.249 7.41834C108.373 7.48032 108.497 7.54231 108.684 7.66628C109.18 7.97619 109.553 8.28611 109.863 8.53404C110.173 8.78198 110.422 9.09189 110.608 9.40181C110.794 9.71173 110.918 10.0836 110.918 10.5175C110.918 11.1993 110.67 11.7572 110.111 12.1911C109.553 12.563 108.932 12.8109 108.125 12.8109C107.629 12.8109 107.194 12.7489 106.822 12.563C106.573 12.439 106.387 12.315 106.139 12.1291C106.077 12.0671 106.077 12.0671 106.015 12.0671C105.953 12.0671 105.891 12.1291 105.829 12.2531C105.767 12.377 105.704 12.501 105.704 12.6869H105.332C105.394 12.0671 105.394 11.0134 105.394 9.4638H105.767C105.891 10.4555 106.077 11.1993 106.387 11.6952C106.698 12.1911 107.256 12.439 108.001 12.439C108.373 12.439 108.684 12.315 108.994 12.0671C109.304 11.8192 109.429 11.4473 109.429 10.8894C109.429 10.4555 109.304 10.1456 108.994 9.8357C108.684 9.52578 108.249 9.21586 107.629 8.78198C107.132 8.47206 106.698 8.16214 106.387 7.97619C106.077 7.79024 105.891 7.48032 105.642 7.17041C105.456 6.86049 105.332 6.48859 105.332 6.0547C105.332 5.37289 105.58 4.87702 106.015 4.50512C106.449 4.13322 107.008 3.94727 107.753 3.94727C108.125 3.94727 108.435 4.00925 108.746 4.13322Z" fill="black"/>
    <path d="M119.047 10.579C118.86 11.1989 118.488 11.6947 117.929 12.1286C117.371 12.5625 116.75 12.7485 116.005 12.7485C115.261 12.7485 114.578 12.5625 114.019 12.2526C113.461 11.9427 113.026 11.3848 112.716 10.765C112.405 10.1452 112.281 9.40135 112.281 8.59557C112.281 7.66581 112.405 6.86003 112.716 6.17821C113.026 5.49639 113.461 4.93854 114.019 4.56664C114.578 4.19474 115.198 4.00879 115.943 4.00879C116.936 4.00879 117.681 4.31871 118.178 4.87656C118.674 5.43441 118.985 6.36416 118.985 7.54185H113.957C113.895 7.85176 113.895 8.16168 113.895 8.59557C113.895 9.27738 114.019 9.89722 114.267 10.4551C114.516 10.9509 114.826 11.3848 115.198 11.6947C115.571 12.0047 116.005 12.1286 116.378 12.1286C116.874 12.1286 117.371 12.0047 117.743 11.7567C118.116 11.5088 118.488 11.0749 118.736 10.5171L119.047 10.579ZM114.578 5.00052C114.205 5.49639 113.957 6.24019 113.895 7.16995H117.433C117.433 6.30218 117.309 5.62036 117.06 5.06251C116.812 4.50466 116.378 4.19474 115.881 4.19474C115.385 4.25672 114.95 4.50466 114.578 5.00052Z" fill="black"/>
    <path d="M122.83 4.19505H125.189V4.50496H122.83V10.7653C122.83 11.2612 122.892 11.5711 123.079 11.819C123.265 12.005 123.513 12.1289 123.823 12.1289C124.134 12.1289 124.444 12.005 124.692 11.757C124.941 11.5091 125.127 11.0752 125.313 10.4554L125.623 10.5174C125.375 12.005 124.63 12.7488 123.513 12.7488C123.141 12.7488 122.83 12.6868 122.582 12.6248C122.334 12.5628 122.148 12.3769 121.961 12.2529C121.713 12.005 121.589 11.757 121.465 11.3851C121.403 11.0132 121.341 10.5793 121.341 10.0215V4.50496H119.789V4.19505H121.341V1.71571C121.961 1.71571 122.396 1.59174 122.768 1.46777V4.19505H122.83Z" fill="black"/>
    <path d="M51.457 16.2195C51.2707 16.2815 51.1466 16.4055 51.0845 16.5914C51.0225 16.7774 50.9604 17.0873 50.9604 17.4592V25.455C50.9604 25.8889 51.0225 26.1369 51.0845 26.3228C51.1466 26.5088 51.2707 26.6327 51.457 26.6947C51.6432 26.7567 51.8914 26.8187 52.3259 26.8187V27.1286C51.8294 27.0666 51.1466 27.0666 50.2777 27.0666C49.3466 27.0666 48.6639 27.0666 48.2294 27.1286V26.8187C48.6018 26.8187 48.9122 26.7567 49.0984 26.6947C49.2846 26.6327 49.4087 26.5088 49.4708 26.3228C49.5328 26.1369 49.5949 25.8269 49.5949 25.455V16.8393L45.6846 27.2526H45.3122L41.2778 16.7774V25.2691C41.2778 25.703 41.3399 26.0129 41.402 26.1988C41.464 26.3848 41.5882 26.5707 41.8364 26.6327C42.0226 26.6947 42.333 26.7567 42.7675 26.8187V27.1286C42.395 27.0666 41.8364 27.0666 41.1537 27.0666C40.533 27.0666 40.0365 27.0666 39.6641 27.1286V26.8187C40.0365 26.8187 40.3468 26.7567 40.533 26.6327C40.7192 26.5707 40.8434 26.3848 40.9054 26.1988C40.9675 26.0129 41.0296 25.703 41.0296 25.2691V17.4592C41.0296 17.0253 40.9675 16.7774 40.9054 16.5914C40.8434 16.4055 40.7192 16.2815 40.533 16.2195C40.3468 16.1575 40.0985 16.0955 39.6641 16.0955V15.7856C40.0365 15.8476 40.533 15.8476 41.1537 15.8476C41.7123 15.8476 42.1468 15.8476 42.5192 15.7856L46.057 25.0831L49.5329 15.7856H50.2777C51.1466 15.7856 51.8294 15.7856 52.3259 15.7236V16.0336C51.8914 16.0955 51.5811 16.1575 51.457 16.2195Z" fill="black"/>
    <path d="M54.0005 26.757C53.6901 26.4471 53.5039 25.9512 53.5039 25.3314C53.5039 24.8355 53.628 24.4636 53.8763 24.1537C54.1246 23.8438 54.4349 23.5959 54.8073 23.4099C55.1797 23.224 55.6142 23.038 56.2349 22.8521C56.8556 22.6661 57.2901 22.4802 57.6004 22.2942C57.9107 22.1083 58.0349 21.9223 58.0349 21.6124V20.6207C58.0349 20.0008 57.9107 19.5669 57.6625 19.319C57.4142 19.0711 57.0418 18.9471 56.5452 18.9471C55.8004 18.9471 55.2418 19.133 54.9315 19.5049C55.1177 19.5669 55.3039 19.6909 55.4901 19.8149C55.6142 20.0008 55.7384 20.1868 55.7384 20.4347C55.7384 20.6826 55.6763 20.9306 55.4901 21.0545C55.3039 21.2405 55.1177 21.3025 54.8073 21.3025C54.497 21.3025 54.3108 21.1785 54.1246 20.9925C54.0004 20.8066 53.8763 20.5587 53.8763 20.3107C53.8763 20.0628 53.9384 19.8149 54.0625 19.6909C54.1867 19.5049 54.3729 19.319 54.6211 19.195C54.8694 19.0091 55.1797 18.8851 55.6142 18.7611C55.9866 18.6372 56.4211 18.5752 56.9176 18.5752C57.7866 18.5752 58.4073 18.7611 58.8418 19.195C59.09 19.443 59.2762 19.7529 59.4004 20.0628C59.4624 20.4347 59.5245 20.8686 59.5245 21.4264V25.8892C59.5245 26.1372 59.5866 26.3231 59.6486 26.4471C59.7107 26.5711 59.8348 26.633 60.021 26.633C60.1452 26.633 60.2693 26.633 60.3935 26.5711C60.5176 26.5091 60.6417 26.4471 60.7659 26.3231L60.9521 26.5711C60.6417 26.757 60.4555 26.943 60.2072 27.0049C60.021 27.0669 59.7728 27.1289 59.4624 27.1289C58.9659 27.1289 58.5935 27.005 58.4073 26.757C58.2211 26.5091 58.0969 26.1372 58.0969 25.7033C57.7866 26.2611 57.4142 26.633 56.9797 26.819C56.5452 27.0049 56.1108 27.1289 55.5522 27.1289C54.8073 27.2529 54.3108 27.1289 54.0005 26.757ZM58.0349 25.3934V22.2322C57.9107 22.3562 57.7866 22.4802 57.6625 22.6041C57.4763 22.7281 57.228 22.8521 56.8556 22.976C56.4211 23.162 56.1108 23.2859 55.8625 23.4719C55.6142 23.6578 55.3659 23.8438 55.1797 24.0917C54.9935 24.3397 54.9315 24.7116 54.9315 25.1454C54.9315 25.6413 55.0556 26.0132 55.3039 26.2611C55.5521 26.5091 55.8625 26.633 56.2349 26.633C56.9176 26.633 57.5383 26.1992 58.0349 25.3934Z" fill="black"/>
    <path d="M68.5241 19.257C68.7103 19.4429 68.8965 19.7528 68.9586 20.0628C69.0206 20.3727 69.0827 20.8066 69.0827 21.3644V25.6413C69.0827 26.0752 69.1448 26.3851 69.331 26.571C69.5172 26.757 69.8275 26.819 70.262 26.819V27.1289C69.2689 27.0669 68.6482 27.0669 68.3379 27.0669C68.0276 27.0669 67.4069 27.0669 66.5379 27.1289V26.819C66.9103 26.819 67.2207 26.757 67.3448 26.571C67.531 26.3851 67.5931 26.0752 67.5931 25.6413V20.9925C67.5931 20.3727 67.531 19.9388 67.3448 19.6289C67.1586 19.319 66.8483 19.133 66.2897 19.133C65.8552 19.133 65.4828 19.257 65.1104 19.5049C64.738 19.7528 64.4897 20.1247 64.3035 20.5586C64.1173 20.9925 63.9931 21.4884 63.9931 22.0462V25.6413C63.9931 26.0752 64.0552 26.3851 64.2414 26.571C64.4276 26.757 64.6759 26.819 65.0483 26.819V27.1289C64.1173 27.0669 63.5587 27.0669 63.2483 27.0669C62.938 27.0669 62.3173 27.0669 61.3242 27.1289V26.819C61.7587 26.819 62.069 26.757 62.2552 26.571C62.4414 26.3851 62.5035 26.0752 62.5035 25.6413V20.6206C62.5035 20.1247 62.4414 19.7528 62.2552 19.5669C62.069 19.319 61.7587 19.257 61.3242 19.257V18.9471C61.6966 19.009 62.007 19.009 62.3173 19.009C63.0001 19.009 63.5587 18.9471 63.9931 18.7611V20.6206C64.2414 19.9388 64.6138 19.4429 65.1104 19.133C65.6069 18.8231 66.1034 18.6991 66.7241 18.6991C67.531 18.6371 68.0896 18.8231 68.5241 19.257Z" fill="black"/>
    <path d="M71.6294 26.757C71.319 26.4471 71.1328 25.9512 71.1328 25.3314C71.1328 24.8355 71.2569 24.4636 71.5052 24.1537C71.7535 23.8438 72.0638 23.5959 72.4362 23.4099C72.8086 23.224 73.2431 23.038 73.8638 22.8521C74.4845 22.6661 74.919 22.4802 75.2293 22.2942C75.5396 22.1083 75.6638 21.9223 75.6638 21.6124V20.6207C75.6638 20.0008 75.5396 19.5669 75.2914 19.319C75.0431 19.0711 74.6707 18.9471 74.1741 18.9471C73.4293 18.9471 72.8707 19.133 72.5604 19.5049C72.7466 19.5669 72.9328 19.6909 73.119 19.8149C73.2431 20.0008 73.3673 20.1868 73.3673 20.4347C73.3673 20.6826 73.3052 20.9306 73.119 21.0545C72.9328 21.2405 72.7466 21.3025 72.4362 21.3025C72.1259 21.3025 71.9397 21.1785 71.7535 20.9925C71.6294 20.8066 71.5052 20.5587 71.5052 20.3107C71.5052 20.0628 71.5673 19.8149 71.6914 19.6909C71.8156 19.5049 72.0018 19.319 72.25 19.195C72.4983 19.0091 72.8086 18.8851 73.2431 18.7611C73.6155 18.6372 74.05 18.5752 74.5465 18.5752C75.4155 18.5752 76.0362 18.7611 76.4707 19.195C76.7189 19.443 76.9051 19.7529 77.0293 20.0628C77.0913 20.4347 77.1534 20.8686 77.1534 21.4264V25.8892C77.1534 26.1372 77.2155 26.3231 77.2775 26.4471C77.3396 26.5711 77.4637 26.633 77.6499 26.633C77.7741 26.633 77.8982 26.633 78.0224 26.5711C78.1465 26.5091 78.2706 26.4471 78.3948 26.3231L78.581 26.5711C78.2706 26.757 78.0844 26.943 77.8362 27.0049C77.6499 27.0669 77.4017 27.1289 77.0913 27.1289C76.5948 27.1289 76.2224 27.005 76.0362 26.757C75.85 26.5091 75.7258 26.1372 75.7258 25.7033C75.4155 26.2611 75.0431 26.633 74.6086 26.819C74.1741 27.0049 73.7397 27.1289 73.1811 27.1289C72.4983 27.2529 72.0018 27.1289 71.6294 26.757ZM75.6638 25.3934V22.2322C75.5396 22.3562 75.4155 22.4802 75.2914 22.6041C75.1052 22.7281 74.8569 22.8521 74.4845 22.976C74.05 23.162 73.7397 23.2859 73.4914 23.4719C73.2431 23.6578 72.9949 23.8438 72.8086 24.0917C72.6224 24.3397 72.5604 24.7116 72.5604 25.1454C72.5604 25.6413 72.6845 26.0132 72.9328 26.2611C73.1811 26.5091 73.4914 26.633 73.8638 26.633C74.5465 26.633 75.1672 26.1992 75.6638 25.3934Z" fill="black"/>
    <path d="M85.6548 20.1244C85.5306 20.0004 85.4686 19.8145 85.4686 19.5665C85.4686 19.3806 85.5306 19.1327 85.6548 18.8227C85.3444 18.9467 85.1582 19.0707 84.972 19.1946C84.7858 19.3186 84.6617 19.5046 84.5376 19.7525C84.7858 20.1244 84.91 20.6203 84.91 21.1781C84.91 22.0459 84.6617 22.6657 84.1652 23.0996C83.6686 23.5335 82.9859 23.7194 82.1169 23.7194C81.7445 23.9054 81.4962 24.0913 81.31 24.2773C81.1238 24.4632 81.0618 24.6492 81.0618 24.8351C81.0618 25.207 81.31 25.331 81.8066 25.331H83.7927C84.5376 25.331 85.1582 25.517 85.5927 25.8269C86.0893 26.1368 86.3375 26.6327 86.3375 27.2525C86.3375 27.7484 86.1513 28.2442 85.841 28.6781C85.5306 29.112 85.0341 29.4839 84.3514 29.7318C83.7307 29.9798 82.9238 30.1037 81.9928 30.1037C81.0618 30.1037 80.2549 29.9798 79.6342 29.6699C79.0135 29.3599 78.7032 28.988 78.7032 28.4302C78.7032 28.0583 78.8273 27.7484 79.1377 27.5004C79.448 27.2525 79.8204 27.0046 80.379 26.8806L80.5031 27.1285C80.2549 27.1905 80.0687 27.3765 79.9445 27.5624C79.8204 27.8104 79.7583 28.0583 79.7583 28.3062C79.7583 28.8021 80.0066 29.174 80.4411 29.4219C80.8756 29.6699 81.4962 29.7938 82.241 29.7938C83.0479 29.7938 83.7927 29.6079 84.3514 29.298C84.972 28.988 85.2203 28.4922 85.2203 27.8104C85.2203 27.4384 85.0962 27.1285 84.7858 26.8806C84.5376 26.6946 84.041 26.5707 83.2962 26.5707H82.1169C81.4962 26.5707 80.9997 26.5087 80.5652 26.3227C80.1928 26.1368 80.0066 25.8269 80.0066 25.331C80.0066 25.0211 80.1307 24.7112 80.379 24.4013C80.6273 24.0913 80.9997 23.7814 81.5583 23.5335C80.8756 23.4715 80.2549 23.2236 79.8825 22.7897C79.448 22.3558 79.2618 21.798 79.2618 20.9922C79.2618 20.1244 79.5101 19.5046 80.0066 19.0707C80.5031 18.6368 81.1859 18.4508 82.0548 18.4508C83.0479 18.4508 83.7927 18.7608 84.2893 19.3186C84.4755 19.0087 84.7238 18.7608 85.0341 18.5748C85.3444 18.3889 85.6548 18.2649 85.9651 18.2649C86.2755 18.2649 86.4617 18.3269 86.6479 18.5128C86.8341 18.6988 86.8961 18.8847 86.8961 19.1946C86.8961 19.5046 86.8341 19.6905 86.6479 19.8765C86.4617 20.0004 86.2755 20.1244 86.0893 20.1244C85.9651 20.3103 85.7789 20.2484 85.6548 20.1244ZM83.0479 22.9137C83.2962 22.6037 83.3583 21.9839 83.3583 21.1781C83.3583 20.3723 83.2341 19.7525 83.0479 19.4426C82.7997 19.1327 82.4893 18.9467 82.0548 18.9467C81.6204 18.9467 81.31 19.1327 81.0618 19.4426C80.8135 19.7525 80.7514 20.3723 80.7514 21.1781C80.7514 21.9839 80.8756 22.6037 81.0618 22.9137C81.31 23.2236 81.6204 23.4095 82.0548 23.4095C82.4893 23.4095 82.7997 23.2856 83.0479 22.9137Z" fill="black"/>
    <path d="M94.3435 25.207C94.1573 25.8268 93.7849 26.3227 93.2263 26.7566C92.6677 27.1904 92.047 27.3764 91.3022 27.3764C90.5574 27.3764 89.8746 27.1904 89.316 26.8805C88.7574 26.5706 88.3229 26.0128 88.0126 25.3929C87.7023 24.7731 87.5781 24.0293 87.5781 23.2235C87.5781 22.2937 87.7023 21.488 88.0126 20.8061C88.3229 20.1243 88.7574 19.5665 89.316 19.1946C89.8746 18.8227 90.4953 18.6367 91.2401 18.6367C92.2332 18.6367 92.978 18.9466 93.4746 19.5045C93.9711 20.0623 94.2814 20.9921 94.2814 22.1698H89.254C89.1919 22.4797 89.1919 22.7896 89.1919 23.2235C89.1919 23.9053 89.316 24.5251 89.5643 25.083C89.8126 25.5789 90.1229 26.0128 90.4953 26.3227C90.8677 26.6326 91.3022 26.7566 91.6746 26.7566C92.1711 26.7566 92.6677 26.6326 93.0401 26.3847C93.4125 26.1367 93.7849 25.7028 94.0332 25.145L94.3435 25.207ZM89.9367 19.6904C89.5643 20.1863 89.316 20.9301 89.254 21.8599H92.7918C92.7918 20.9921 92.6677 20.3103 92.4194 19.7524C92.1711 19.1946 91.7367 18.8847 91.2401 18.8847C90.7436 18.9466 90.3091 19.1946 89.9367 19.6904Z" fill="black"/>
    <path d="M108.185 26.5706C108.371 26.7566 108.681 26.8185 109.116 26.8185V27.1285C108.123 27.0665 107.502 27.0665 107.192 27.0665C106.881 27.0665 106.261 27.0665 105.392 27.1285V26.8185C105.764 26.8185 106.075 26.7566 106.199 26.5706C106.323 26.3847 106.447 26.0747 106.447 25.6409V20.9921C106.447 20.5582 106.447 20.2483 106.385 20.0004C106.323 19.7524 106.199 19.5665 106.075 19.3805C105.888 19.1946 105.64 19.1326 105.268 19.1326C104.833 19.1326 104.461 19.2566 104.15 19.5045C103.84 19.7524 103.53 20.1243 103.344 20.5582C103.157 20.9921 103.033 21.488 103.033 22.0458V25.6409C103.033 26.0747 103.095 26.3847 103.281 26.5706C103.468 26.7566 103.778 26.8185 104.213 26.8185V27.1285C103.219 27.0665 102.599 27.0665 102.288 27.0665C101.978 27.0665 101.357 27.0665 100.488 27.1285V26.8185C100.861 26.8185 101.171 26.7566 101.295 26.5706C101.482 26.3847 101.544 26.0747 101.544 25.6409V20.9921C101.544 20.5582 101.544 20.2483 101.482 20.0004C101.419 19.7524 101.295 19.5665 101.171 19.3805C100.985 19.1946 100.737 19.1326 100.364 19.1326C99.9298 19.1326 99.5574 19.2566 99.2471 19.5045C98.9367 19.7524 98.6264 20.1243 98.4402 20.5582C98.254 20.9921 98.1299 21.488 98.1299 22.0458V25.6409C98.1299 26.0747 98.1919 26.3847 98.3781 26.5706C98.5643 26.7566 98.8126 26.8185 99.185 26.8185V27.1285C98.254 27.0665 97.6954 27.0665 97.385 27.0665C97.0747 27.0665 96.454 27.0665 95.4609 27.1285V26.8185C95.8954 26.8185 96.2058 26.7566 96.392 26.5706C96.5782 26.3847 96.6402 26.0747 96.6402 25.6409V20.6202C96.6402 20.1243 96.5782 19.7524 96.392 19.5665C96.2058 19.3185 95.8954 19.2566 95.4609 19.2566V18.9466C95.8333 19.0086 96.1437 19.0086 96.454 19.0086C97.1368 19.0086 97.6954 18.9466 98.1299 18.7607V20.6202C98.3781 19.9384 98.7505 19.4425 99.2471 19.1326C99.7436 18.8227 100.24 18.6367 100.799 18.6367C101.544 18.6367 102.102 18.8227 102.475 19.2566C102.723 19.5665 102.909 19.9384 102.971 20.5582C103.219 19.8764 103.592 19.3805 104.088 19.0706C104.585 18.7607 105.081 18.6367 105.64 18.6367C106.385 18.6367 106.943 18.8227 107.316 19.2566C107.502 19.4425 107.626 19.7524 107.75 20.0623C107.812 20.3723 107.875 20.8061 107.875 21.364V25.6409C107.937 26.1367 107.999 26.3847 108.185 26.5706Z" fill="black"/>
    <path d="M116.812 25.207C116.626 25.8268 116.254 26.3227 115.695 26.7566C115.136 27.1904 114.516 27.3764 113.771 27.3764C113.026 27.3764 112.343 27.1904 111.785 26.8805C111.226 26.5706 110.792 26.0128 110.481 25.3929C110.171 24.7731 110.047 24.0293 110.047 23.2235C110.047 22.2937 110.171 21.488 110.481 20.8061C110.792 20.1243 111.226 19.5665 111.785 19.1946C112.343 18.8227 112.964 18.6367 113.709 18.6367C114.702 18.6367 115.447 18.9466 115.943 19.5045C116.44 20.0623 116.75 20.9921 116.75 22.1698H111.723C111.661 22.4797 111.661 22.7896 111.661 23.2235C111.661 23.9053 111.785 24.5251 112.033 25.083C112.281 25.5789 112.592 26.0128 112.964 26.3227C113.336 26.6326 113.771 26.7566 114.143 26.7566C114.64 26.7566 115.136 26.6326 115.509 26.3847C115.881 26.1367 116.254 25.7028 116.502 25.145L116.812 25.207ZM112.405 19.6904C112.033 20.1863 111.785 20.9301 111.723 21.8599H115.261C115.261 20.9921 115.136 20.3103 114.888 19.7524C114.64 19.1946 114.205 18.8847 113.709 18.8847C113.212 18.9466 112.778 19.1946 112.405 19.6904Z" fill="black"/>
    <path d="M125.13 19.257C125.316 19.4429 125.502 19.7528 125.564 20.0628C125.626 20.3727 125.688 20.8066 125.688 21.3644V25.6413C125.688 26.0752 125.75 26.3851 125.936 26.571C126.123 26.757 126.433 26.819 126.867 26.819V27.1289C125.874 27.0669 125.254 27.0669 124.943 27.0669C124.633 27.0669 124.012 27.0669 123.143 27.1289V26.819C123.516 26.819 123.826 26.757 123.95 26.571C124.136 26.3851 124.199 26.0752 124.199 25.6413V20.9925C124.199 20.3727 124.136 19.9388 123.95 19.6289C123.764 19.319 123.454 19.133 122.895 19.133C122.461 19.133 122.088 19.257 121.716 19.5049C121.343 19.7528 121.095 20.1247 120.909 20.5586C120.723 20.9925 120.599 21.4884 120.599 22.0462V25.6413C120.599 26.0752 120.661 26.3851 120.847 26.571C121.033 26.757 121.281 26.819 121.654 26.819V27.1289C120.723 27.0669 120.164 27.0669 119.854 27.0669C119.543 27.0669 118.923 27.0669 117.93 27.1289V26.819C118.364 26.819 118.675 26.757 118.861 26.571C119.047 26.3851 119.109 26.0752 119.109 25.6413V20.6206C119.109 20.1247 119.047 19.7528 118.861 19.5669C118.675 19.319 118.364 19.257 117.93 19.257V18.9471C118.302 19.009 118.612 19.009 118.923 19.009C119.606 19.009 120.164 18.9471 120.599 18.7611V20.6206C120.847 19.9388 121.219 19.4429 121.716 19.133C122.212 18.8231 122.709 18.6991 123.33 18.6991C124.199 18.6371 124.757 18.8231 125.13 19.257Z" fill="black"/>
    <path d="M130.218 18.8846H132.576V19.1945H130.218V25.4548C130.218 25.9507 130.28 26.2606 130.466 26.5085C130.652 26.6945 130.9 26.8184 131.211 26.8184C131.521 26.8184 131.831 26.6945 132.08 26.4465C132.328 26.1986 132.514 25.7647 132.7 25.1449L133.011 25.2069C132.762 26.6945 132.017 27.4383 130.9 27.4383C130.528 27.4383 130.218 27.3763 129.969 27.3143C129.721 27.2523 129.535 27.0664 129.349 26.9424C129.1 26.6945 128.976 26.4465 128.852 26.0746C128.79 25.7027 128.728 25.2689 128.728 24.711V19.3184H127.238V19.0085H128.79V16.5292C129.411 16.5292 129.845 16.4052 130.218 16.2812V18.8846Z" fill="black"/>
    <path d="M0.496094 1.34375C0.496094 1.34375 16.3855 10.1454 19.6751 14.8561C23.1509 19.8148 21.6612 24.6495 20.7923 27.5008C20.7923 27.5008 18.744 23.3479 13.6545 20.9305C7.44769 18.0793 1.36504 14.3603 0.496094 1.34375Z" stroke="black" stroke-width="1.4" stroke-miterlimit="10"/>
    <path d="M28.3034 1.34375C28.3034 1.34375 12.414 10.1454 9.12443 14.8561C5.64863 19.8148 7.13825 24.6495 8.0072 27.5008C8.0072 27.5008 10.0554 23.3479 15.145 20.9305C21.3518 18.0793 27.4344 14.3603 28.3034 1.34375Z" stroke="black" stroke-width="1.4" stroke-miterlimit="10"/>
  </g>
  <defs>
    <clipPath id="clip0_1425_6501">
      <rect width="133.011" height="30" fill="white" transform="translate(0 0.166016)"/>
    </clipPath>
  </defs>
</svg>