<svg xmlns="http://www.w3.org/2000/svg" width="18" height="19" viewBox="0 0 18 19" fill="none">
  <path d="M17.9761 16.4661L17.771 16.2852C17.1892 15.7667 16.6799 15.1722 16.2569 14.5177C15.795 13.6144 15.5181 12.6279 15.4426 11.6162V8.63626C15.4466 7.04713 14.8701 5.51123 13.8215 4.31715C12.773 3.12306 11.3244 2.35298 9.74812 2.15158V1.37342C9.74812 1.15984 9.66328 0.955008 9.51226 0.803984C9.36123 0.65296 9.1564 0.568115 8.94282 0.568115C8.72924 0.568115 8.52441 0.65296 8.37338 0.803984C8.22236 0.955008 8.13751 1.15984 8.13751 1.37342V2.16365C6.57531 2.37956 5.14429 3.1543 4.10949 4.34437C3.07469 5.53445 2.50624 7.05921 2.50942 8.63626V11.6162C2.43387 12.6279 2.157 13.6144 1.69506 14.5177C1.27937 15.1706 0.778278 15.765 0.205097 16.2852L0 16.4661V18.1672H17.9761V16.4661Z" fill="#1900C0"/>
  <circle cx="14.3505" cy="3.5505" r="3.3857" fill="#F7BF21"/>
</svg>