<svg xmlns="http://www.w3.org/2000/svg" width="21" height="21" viewBox="0 0 21 21" fill="none">
  <path d="M6.36719 12.2104H11.3672V13.4604H6.36719V12.2104ZM6.36719 9.08545H13.8672V10.3354H6.36719V9.08545ZM6.36719 15.3354H9.49219V16.5854H6.36719V15.3354Z" fill="#FF0BA3"/>
  <path d="M15.7422 4.08545H13.8672V3.46045C13.8672 3.12893 13.7355 2.81099 13.5011 2.57657C13.2667 2.34215 12.9487 2.21045 12.6172 2.21045H7.61719C7.28567 2.21045 6.96772 2.34215 6.7333 2.57657C6.49888 2.81099 6.36719 3.12893 6.36719 3.46045V4.08545H4.49219C4.16067 4.08545 3.84272 4.21715 3.6083 4.45157C3.37388 4.68599 3.24219 5.00393 3.24219 5.33545V18.4604C3.24219 18.792 3.37388 19.1099 3.6083 19.3443C3.84272 19.5788 4.16067 19.7104 4.49219 19.7104H15.7422C16.0737 19.7104 16.3917 19.5788 16.6261 19.3443C16.8605 19.1099 16.9922 18.792 16.9922 18.4604V5.33545C16.9922 5.00393 16.8605 4.68599 16.6261 4.45157C16.3917 4.21715 16.0737 4.08545 15.7422 4.08545ZM7.61719 3.46045H12.6172V5.96045H7.61719V3.46045ZM15.7422 18.4604H4.49219V5.33545H6.36719V7.21045H13.8672V5.33545H15.7422V18.4604Z" fill="#FF0BA3"/>
</svg>