<svg width="15" height="16" viewBox="0 0 15 16" fill="none" xmlns="http://www.w3.org/2000/svg">
<path d="M7.5 9.03113C8.16304 9.03113 8.79893 8.76774 9.26777 8.2989C9.73661 7.83005 10 7.19417 10 6.53113C10 5.86809 9.73661 5.2322 9.26777 4.76336C8.79893 4.29452 8.16304 4.03113 7.5 4.03113C6.83696 4.03113 6.20107 4.29452 5.73223 4.76336C5.26339 5.2322 5 5.86809 5 6.53113C5 7.19417 5.26339 7.83005 5.73223 8.2989C6.20107 8.76774 6.83696 9.03113 7.5 9.03113ZM7.5 9.03113C6.50544 9.03113 5.55161 9.42622 4.84835 10.1295C4.14509 10.8327 3.75 11.7866 3.75 12.7811V14.6561M7.5 9.03113C8.49456 9.03113 9.44839 9.42622 10.1517 10.1295C10.8549 10.8327 11.25 11.7866 11.25 12.7811V14.6561M8.125 4.03113C8.3775 2.99113 9.38437 2.15613 10.625 2.15613C11.9825 2.15613 13.1125 3.27488 13.125 4.65613C13.1125 6.03738 11.9825 7.15613 10.625 7.15613M10.625 7.15613H10M10.625 7.15613C12.68 7.15613 14.375 8.83488 14.375 10.9061V12.1561M6.875 4.03113C6.6225 2.99113 5.61563 2.15613 4.375 2.15613C3.0175 2.15613 1.8875 3.27488 1.875 4.65613C1.8875 6.03738 3.0175 7.15613 4.375 7.15613M4.375 7.15613H5M4.375 7.15613C2.32 7.15613 0.625 8.83488 0.625 10.9061V12.1561" stroke="white" stroke-width="1.25"/>
</svg>
