<svg xmlns="http://www.w3.org/2000/svg" width="19" height="19" viewBox="0 0 19 19" fill="none">
  <path d="M9.55078 3.39453C10.3464 3.39453 11.1095 3.7106 11.6721 4.27321C12.2347 4.83582 12.5508 5.59888 12.5508 6.39453C12.5508 7.19018 12.2347 7.95324 11.6721 8.51585C11.1095 9.07846 10.3464 9.39453 9.55078 9.39453C8.75513 9.39453 7.99207 9.07846 7.42946 8.51585C6.86685 7.95324 6.55078 7.19018 6.55078 6.39453C6.55078 5.59888 6.86685 4.83582 7.42946 4.27321C7.99207 3.7106 8.75513 3.39453 9.55078 3.39453ZM9.55078 15.3945C9.55078 15.3945 15.5508 15.3945 15.5508 13.8945C15.5508 12.0945 12.6258 10.1445 9.55078 10.1445C6.47578 10.1445 3.55078 12.0945 3.55078 13.8945C3.55078 15.3945 9.55078 15.3945 9.55078 15.3945Z" fill="#F7BF21"/>
</svg>