<svg xmlns="http://www.w3.org/2000/svg" width="19" height="19" viewBox="0 0 19 19" fill="none">
  <path d="M9.55078 3.92651C10.3464 3.92651 11.1095 4.24258 11.6721 4.80519C12.2347 5.3678 12.5508 6.13086 12.5508 6.92651C12.5508 7.72216 12.2347 8.48523 11.6721 9.04783C11.1095 9.61044 10.3464 9.92651 9.55078 9.92651C8.75513 9.92651 7.99207 9.61044 7.42946 9.04783C6.86685 8.48523 6.55078 7.72216 6.55078 6.92651C6.55078 6.13086 6.86685 5.3678 7.42946 4.80519C7.99207 4.24258 8.75513 3.92651 9.55078 3.92651ZM9.55078 15.9265C9.55078 15.9265 15.5508 15.9265 15.5508 14.4265C15.5508 12.6265 12.6258 10.6765 9.55078 10.6765C6.47578 10.6765 3.55078 12.6265 3.55078 14.4265C3.55078 15.9265 9.55078 15.9265 9.55078 15.9265Z" fill="#1900C0"/>
</svg>