<svg width="37" height="37" viewBox="0 0 37 37" fill="none" xmlns="http://www.w3.org/2000/svg">
<g clip-path="url(#clip0_15302_6918)">
<path d="M28.3672 16.4336C29.293 16.4336 30.166 16.6094 30.9863 16.9609C31.8066 17.3125 32.5215 17.793 33.1309 18.4023C33.7402 19.0117 34.2266 19.7324 34.5898 20.5645C34.9531 21.3965 35.1289 22.2695 35.1172 23.1836C35.1172 24.1211 34.9414 24.9941 34.5898 25.8027C34.2383 26.6113 33.7578 27.3262 33.1484 27.9473C32.5391 28.5684 31.8184 29.0547 30.9863 29.4062C30.1543 29.7578 29.2812 29.9336 28.3672 29.9336C27.6641 29.9336 26.9785 29.8281 26.3105 29.6172C25.6426 29.4062 25.0273 29.0957 24.4648 28.6855L16.7832 36.3496C16.5605 36.5723 16.2969 36.6836 15.9922 36.6836C15.6875 36.6836 15.4238 36.5723 15.2012 36.3496C14.9785 36.127 14.8672 35.8633 14.8672 35.5586C14.8672 35.2539 14.9785 34.9902 15.2012 34.7676L22.8652 27.0859C22.4551 26.5234 22.1445 25.9082 21.9336 25.2402C21.7227 24.5723 21.6172 23.8867 21.6172 23.1836C21.6172 22.2578 21.793 21.3848 22.1445 20.5645C22.4961 19.7441 22.9766 19.0293 23.5859 18.4199C24.1953 17.8105 24.9102 17.3242 25.7305 16.9609C26.5508 16.5977 27.4297 16.4219 28.3672 16.4336ZM28.3672 27.6836C28.9883 27.6836 29.5684 27.5664 30.1074 27.332C30.6465 27.0977 31.127 26.7754 31.5488 26.3652C31.9707 25.9551 32.293 25.4805 32.5156 24.9414C32.7383 24.4023 32.8555 23.8164 32.8672 23.1836C32.8672 22.5625 32.75 21.9824 32.5156 21.4434C32.2813 20.9043 31.959 20.4238 31.5488 20.002C31.1387 19.5801 30.6641 19.2578 30.125 19.0352C29.5859 18.8125 29 18.6953 28.3672 18.6836C27.7461 18.6836 27.166 18.8008 26.627 19.0352C26.0879 19.2695 25.6074 19.5918 25.1855 20.002C24.7637 20.4121 24.4414 20.8867 24.2188 21.4258C23.9961 21.9648 23.8789 22.5508 23.8672 23.1836C23.8672 23.8047 23.9844 24.3848 24.2188 24.9238C24.4531 25.4629 24.7754 25.9434 25.1855 26.3652C25.5957 26.7871 26.0703 27.1094 26.6094 27.332C27.1484 27.5547 27.7344 27.6719 28.3672 27.6836ZM5.86719 28.8086C5.86719 28.9844 5.91406 29.1426 6.00781 29.2832C6.10156 29.4238 6.21289 29.5586 6.3418 29.6875C6.68164 30.0273 7.10937 30.3262 7.625 30.584C8.14063 30.8418 8.69727 31.0586 9.29492 31.2344C9.89258 31.4102 10.4785 31.5625 11.0527 31.6914C11.627 31.8203 12.1484 31.9141 12.6172 31.9727V34.2227H12.4766C12.4062 34.2227 12.3594 34.2168 12.3359 34.2051C11.8789 34.1465 11.3516 34.0586 10.7539 33.9414C10.1562 33.8242 9.5293 33.666 8.87305 33.4668C8.2168 33.2676 7.58398 33.0332 6.97461 32.7637C6.36523 32.4941 5.80859 32.166 5.30469 31.7793C4.80078 31.3926 4.40234 30.959 4.10938 30.4785C3.81641 29.998 3.66406 29.4414 3.65234 28.8086V8.55859C3.65234 7.99609 3.78125 7.49219 4.03906 7.04688C4.29688 6.60156 4.63672 6.19141 5.05859 5.81641C5.48047 5.44141 5.9668 5.125 6.51758 4.86719C7.06836 4.60937 7.63086 4.36914 8.20508 4.14648C8.7793 3.92383 9.33594 3.75391 9.875 3.63672C10.4141 3.51953 10.9062 3.41406 11.3516 3.32031C12.125 3.19141 12.8984 3.09766 13.6719 3.03906C14.4453 2.98047 15.2188 2.94531 15.9922 2.93359C16.7773 2.93359 17.5566 2.96289 18.3301 3.02148C19.1035 3.08008 19.877 3.18555 20.6504 3.33789C21.0723 3.4082 21.5586 3.50781 22.1094 3.63672C22.6602 3.76563 23.2168 3.93555 23.7793 4.14648C24.3418 4.35742 24.9043 4.5918 25.4668 4.84961C26.0293 5.10742 26.5156 5.42969 26.9258 5.81641C27.3359 6.20312 27.6816 6.60742 27.9629 7.0293C28.2441 7.45117 28.3789 7.96094 28.3672 8.55859V14.1836H26.1172V11.8809C25.4375 12.3145 24.6758 12.6777 23.832 12.9707C22.9883 13.2637 22.1211 13.498 21.2305 13.6738C20.3398 13.8496 19.4434 13.9785 18.541 14.0605C17.6387 14.1426 16.7891 14.1836 15.9922 14.1836C15.1953 14.1836 14.3516 14.1484 13.4609 14.0781C12.5703 14.0078 11.6738 13.8789 10.7715 13.6914C9.86914 13.5039 8.99609 13.2637 8.15234 12.9707C7.30859 12.6777 6.54688 12.3145 5.86719 11.8809V28.8086ZM15.9922 5.18359C15.3242 5.18359 14.5625 5.21875 13.707 5.28906C12.8516 5.35938 11.9844 5.47656 11.1055 5.64062C10.2266 5.80469 9.38867 6.03906 8.5918 6.34375C7.79492 6.64844 7.12109 7.01758 6.57031 7.45117C6.40625 7.58008 6.24805 7.73828 6.0957 7.92578C5.94336 8.11328 5.86719 8.32422 5.86719 8.55859C5.86719 8.78125 5.94336 8.98633 6.0957 9.17383C6.24805 9.36133 6.40625 9.52539 6.57031 9.66602C7.10937 10.1113 7.77734 10.4805 8.57422 10.7734C9.37109 11.0664 10.209 11.2949 11.0879 11.459C11.9668 11.623 12.834 11.7461 13.6895 11.8281C14.5449 11.9102 15.3125 11.9453 15.9922 11.9336C16.6602 11.9336 17.4219 11.8984 18.2773 11.8281C19.1328 11.7578 20 11.6406 20.8789 11.4766C21.7578 11.3125 22.5957 11.0781 23.3926 10.7734C24.1895 10.4687 24.8574 10.0996 25.3965 9.66602C25.5605 9.53711 25.7187 9.37891 25.8711 9.19141C26.0234 9.00391 26.1055 8.79297 26.1172 8.55859C26.1172 8.33594 26.041 8.13086 25.8887 7.94336C25.7363 7.75586 25.5723 7.5918 25.3965 7.45117C24.8574 7.00586 24.1895 6.63672 23.3926 6.34375C22.5957 6.05078 21.7637 5.82227 20.8965 5.6582C20.0293 5.49414 19.1621 5.37109 18.2949 5.28906C17.4277 5.20703 16.6602 5.17187 15.9922 5.18359Z" fill="white"/>
</g>
<defs>
<clipPath id="clip0_15302_6918">
<rect width="36" height="36" fill="white" transform="translate(0.601562 0.683594)"/>
</clipPath>
</defs>
</svg>
