<svg width="35" height="26" viewBox="0 0 35 26" fill="none" xmlns="http://www.w3.org/2000/svg">
<path d="M33.7664 15.0471C33.5769 15.1931 33.3436 15.2709 33.1044 15.2678C32.933 15.2678 32.7641 15.2279 32.6109 15.1513C32.4576 15.0747 32.3244 14.9634 32.2216 14.8264C31.5565 13.9324 30.6908 13.207 29.6941 12.7087C28.6975 12.2104 27.5978 11.953 26.4835 11.9574C26.1908 11.9574 25.9102 11.8411 25.7032 11.6341C25.4963 11.4272 25.38 11.1465 25.38 10.8539C25.38 10.5612 25.4963 10.2805 25.7032 10.0736C25.9102 9.86665 26.1908 9.75039 26.4835 9.75039C27.1115 9.74972 27.7264 9.57042 28.2563 9.23342C28.7863 8.89642 29.2094 8.41562 29.4764 7.84716C29.7434 7.2787 29.8431 6.64603 29.764 6.023C29.6849 5.39998 29.4302 4.81231 29.0297 4.3286C28.6291 3.84488 28.0993 3.48509 27.5019 3.29121C26.9046 3.09734 26.2644 3.07738 25.6561 3.23367C25.0478 3.38996 24.4966 3.71605 24.0667 4.17387C23.6368 4.6317 23.346 5.20236 23.2282 5.81925C23.2068 5.96676 23.1557 6.1084 23.0781 6.23563C23.0004 6.36286 22.8978 6.47304 22.7764 6.55952C22.655 6.64599 22.5173 6.70697 22.3717 6.73878C22.2261 6.77059 22.0755 6.77257 21.9291 6.74459C21.7827 6.71662 21.6435 6.65927 21.5198 6.57601C21.3962 6.49275 21.2907 6.3853 21.2097 6.26015C21.1288 6.13501 21.074 5.99475 21.0487 5.84785C21.0234 5.70095 21.0282 5.55046 21.0626 5.40544C21.2264 4.54725 21.5915 3.74019 22.1281 3.05071C22.6647 2.36122 23.3573 1.80902 24.149 1.43954C24.9407 1.07006 25.8088 0.893879 26.6819 0.925487C27.555 0.957096 28.4081 1.19559 29.1711 1.62135C29.934 2.04711 30.5849 2.64795 31.0702 3.37443C31.5555 4.10091 31.8613 4.93226 31.9626 5.80005C32.0638 6.66783 31.9575 7.54725 31.6524 8.36593C31.3473 9.1846 30.8522 9.91912 30.2077 10.509C31.7075 11.1593 33.0106 12.1913 33.9871 13.5022C34.0741 13.6181 34.1373 13.7501 34.1733 13.8904C34.2093 14.0308 34.2172 14.1769 34.1967 14.3204C34.1763 14.4638 34.1277 14.6018 34.0539 14.7265C33.98 14.8512 33.8824 14.9601 33.7664 15.0471ZM26.0421 24.1646C26.1666 24.4285 26.183 24.7307 26.0876 25.0065C25.9922 25.2823 25.7927 25.5099 25.5317 25.6405C25.3795 25.7083 25.2155 25.7458 25.049 25.7508C24.8422 25.7494 24.6399 25.6906 24.4646 25.581C24.2892 25.4715 24.1477 25.3154 24.0558 25.1301C23.4195 23.8285 22.4306 22.7317 21.2015 21.9644C19.9725 21.1972 18.5528 20.7905 17.1039 20.7905C15.6551 20.7905 14.2353 21.1972 13.0063 21.9644C11.7773 22.7317 10.7883 23.8285 10.152 25.1301C10.0887 25.2606 10.0003 25.3773 9.89179 25.4736C9.78332 25.5699 9.65694 25.6439 9.51986 25.6913C9.38278 25.7387 9.2377 25.7586 9.09292 25.7499C8.94814 25.7412 8.80651 25.704 8.6761 25.6405C8.41513 25.5099 8.21563 25.2823 8.12025 25.0065C8.02488 24.7307 8.04121 24.4285 8.16574 24.1646C9.19126 22.053 10.9307 20.3722 13.0762 19.4196C11.978 18.5779 11.1711 17.4132 10.7689 16.0893C10.3667 14.7653 10.3894 13.3486 10.8338 12.0382C11.2783 10.7279 12.1221 9.58965 13.2467 8.78353C14.3713 7.9774 15.7202 7.54389 17.1039 7.54389C18.4876 7.54389 19.8365 7.9774 20.9612 8.78353C22.0858 9.58965 22.9296 10.7279 23.374 12.0382C23.8184 13.3486 23.8411 14.7653 23.4389 16.0893C23.0367 17.4132 22.2298 18.5779 21.1316 19.4196C23.2772 20.3722 25.0166 22.053 26.0421 24.1646ZM17.1039 18.5782C17.9769 18.5782 18.8303 18.3194 19.5562 17.8343C20.282 17.3493 20.8478 16.66 21.1818 15.8534C21.5159 15.0469 21.6033 14.1594 21.433 13.3032C21.2627 12.447 20.8423 11.6605 20.225 11.0432C19.6077 10.4259 18.8212 10.0055 17.965 9.8352C17.1088 9.66489 16.2213 9.7523 15.4148 10.0864C14.6083 10.4205 13.9189 10.9862 13.4339 11.7121C12.9489 12.4379 12.69 13.2913 12.69 14.1643C12.6936 15.3338 13.1598 16.4544 13.9868 17.2814C14.8138 18.1084 15.9344 18.5746 17.1039 18.5782ZM8.82783 10.8539C8.82783 10.5612 8.71157 10.2805 8.50463 10.0736C8.29769 9.86665 8.01701 9.75039 7.72435 9.75039C7.09633 9.74972 6.48145 9.57042 5.9515 9.23342C5.42155 8.89642 4.9984 8.41562 4.73143 7.84716C4.46447 7.2787 4.36472 6.64603 4.44382 6.023C4.52292 5.39998 4.77761 4.81231 5.17816 4.3286C5.57871 3.84488 6.10858 3.48509 6.70593 3.29121C7.30329 3.09734 7.94346 3.07738 8.55173 3.23367C9.16 3.38996 9.71126 3.71605 10.1412 4.17387C10.5711 4.6317 10.8619 5.20236 10.9796 5.81925C11.001 5.96676 11.0521 6.1084 11.1298 6.23563C11.2074 6.36286 11.3101 6.47304 11.4315 6.55952C11.5529 6.64599 11.6905 6.70697 11.8362 6.73878C11.9818 6.77059 12.1323 6.77257 12.2788 6.74459C12.4252 6.71662 12.5644 6.65927 12.688 6.57601C12.8117 6.49275 12.9171 6.3853 12.9981 6.26015C13.0791 6.13501 13.1339 5.99475 13.1591 5.84785C13.1844 5.70095 13.1797 5.55046 13.1452 5.40544C12.9815 4.54725 12.6163 3.74019 12.0797 3.05071C11.5432 2.36122 10.8505 1.80902 10.0588 1.43954C9.26713 1.07006 8.39901 0.893879 7.52591 0.925487C6.65281 0.957096 5.7997 1.19559 5.03679 1.62135C4.27388 2.04711 3.62298 2.64795 3.13767 3.37443C2.65236 4.10091 2.3465 4.93226 2.24528 5.80005C2.14406 6.66783 2.25037 7.54725 2.55545 8.36593C2.86054 9.1846 3.35567 9.91912 4.00011 10.509C2.50037 11.1593 1.19726 12.1913 0.2207 13.5022C0.0451038 13.7363 -0.0302934 14.0306 0.011095 14.3204C0.0524835 14.6101 0.207267 14.8715 0.441396 15.0471C0.630931 15.1931 0.864228 15.2709 1.10348 15.2678C1.27479 15.2678 1.44375 15.2279 1.59697 15.1513C1.7502 15.0747 1.88348 14.9634 1.98627 14.8264C2.65137 13.9324 3.51709 13.207 4.51373 12.7087C5.51037 12.2104 6.61008 11.953 7.72435 11.9574C8.01701 11.9574 8.29769 11.8411 8.50463 11.6341C8.71157 11.4272 8.82783 11.1465 8.82783 10.8539Z" fill="#1900C0"/>
</svg>
