<svg xmlns="http://www.w3.org/2000/svg" width="21" height="19" viewBox="0 0 21 19" fill="none">
  <path d="M12.4606 5.1675V3.08375C12.4606 2.53111 12.2411 2.0011 11.8503 1.61032C11.4595 1.21954 10.9295 1 10.3769 1H3.08375C2.53111 1 2.0011 1.21954 1.61032 1.61032C1.21954 2.0011 1 2.53111 1 3.08375V15.5863C1 16.1389 1.21954 16.6689 1.61032 17.0597C2.0011 17.4505 2.53111 17.67 3.08375 17.67H10.3769C10.9295 17.67 11.4595 17.4505 11.8503 17.0597C12.2411 16.6689 12.4606 16.1389 12.4606 15.5863V13.5025" stroke="white" stroke-width="1.2" stroke-linecap="round" stroke-linejoin="round"/>
  <path d="M5.16748 9.33461H19.7537M19.7537 9.33461L16.6281 6.20898M19.7537 9.33461L16.6281 12.4602" stroke="white" stroke-width="1.2" stroke-linecap="round" stroke-linejoin="round"/>
</svg>