<svg width="20" height="21" viewBox="0 0 20 21" fill="none" xmlns="http://www.w3.org/2000/svg">
<path d="M13.125 1.58594C12.2466 1.58574 11.3804 1.79129 10.5958 2.18613C9.81115 2.58097 9.12991 3.15411 8.60666 3.85964C8.08342 4.56516 7.73271 5.38343 7.58264 6.2489C7.43257 7.11436 7.48732 8.00294 7.7425 8.84344L1.25 15.3359V19.0859H5L11.4925 12.5934C12.2662 12.8283 13.0814 12.8936 13.8826 12.7849C14.6838 12.6761 15.4522 12.396 16.1353 11.9635C16.8184 11.5309 17.4003 10.9562 17.8412 10.2785C18.2822 9.60077 18.5718 8.83594 18.6904 8.03614C18.8091 7.23635 18.7539 6.42037 18.5286 5.64384C18.3033 4.8673 17.9133 4.14846 17.3851 3.53629C16.8569 2.92412 16.203 2.43301 15.4678 2.09644C14.7326 1.75987 13.9335 1.58575 13.125 1.58594ZM13.125 11.5859C12.6947 11.5857 12.2668 11.5221 11.855 11.3972L11.1381 11.1797L10.6088 11.7091L8.62063 13.6972L7.75875 12.8359L6.875 13.7197L7.73687 14.5816L6.74563 15.5728L5.88375 14.7109L5 15.5947L5.86187 16.4566L4.4825 17.8359H2.5V15.8534L8.62625 9.72719L9.15625 9.19781L8.93875 8.48094C8.67161 7.60031 8.68897 6.65786 8.98834 5.78767C9.28772 4.91747 9.85388 4.16383 10.6063 3.63395C11.3587 3.10408 12.259 2.82495 13.1792 2.83627C14.0994 2.84759 14.9926 3.14879 15.7317 3.69701C16.4708 4.24524 17.0183 5.01258 17.2961 5.88988C17.574 6.76718 17.5682 7.70976 17.2795 8.58355C16.9907 9.45734 16.4338 10.2178 15.688 10.7569C14.9421 11.2959 14.0453 11.586 13.125 11.5859Z" fill="white"/>
<path d="M13.75 7.83594C14.4404 7.83594 15 7.27629 15 6.58594C15 5.89558 14.4404 5.33594 13.75 5.33594C13.0596 5.33594 12.5 5.89558 12.5 6.58594C12.5 7.27629 13.0596 7.83594 13.75 7.83594Z" fill="white"/>
</svg>
