<svg width="18" height="23" viewBox="0 0 18 23" fill="none" xmlns="http://www.w3.org/2000/svg">
<path d="M3.91016 12.8454H10.0816V14.3883H3.91016V12.8454ZM3.91016 8.98828H13.1673V10.5311H3.91016V8.98828ZM3.91016 16.7026H7.7673V18.2454H3.91016V16.7026Z" fill="#1900C0"/>
<path d="M15.4833 2.81819H13.169V2.04676C13.169 1.63757 13.0064 1.24514 12.7171 0.955799C12.4277 0.666457 12.0353 0.503906 11.6261 0.503906H5.45469C5.0455 0.503906 4.65307 0.666457 4.36372 0.955799C4.07438 1.24514 3.91183 1.63757 3.91183 2.04676V2.81819H1.59754C1.18835 2.81819 0.795922 2.98074 0.50658 3.27008C0.217238 3.55943 0.0546875 3.95186 0.0546875 4.36105V20.5611C0.0546875 20.9702 0.217238 21.3627 0.50658 21.652C0.795922 21.9414 1.18835 22.1039 1.59754 22.1039H15.4833C15.8925 22.1039 16.2849 21.9414 16.5742 21.652C16.8636 21.3627 17.0261 20.9702 17.0261 20.5611V4.36105C17.0261 3.95186 16.8636 3.55943 16.5742 3.27008C16.2849 2.98074 15.8925 2.81819 15.4833 2.81819ZM5.45469 2.04676H11.6261V5.13248H5.45469V2.04676ZM15.4833 20.5611H1.59754V4.36105H3.91183V6.67533H13.169V4.36105H15.4833V20.5611Z" fill="#1900C0"/>
</svg>
