<svg width="22" height="27" viewBox="0 0 22 27" fill="none" xmlns="http://www.w3.org/2000/svg">
<path d="M15.7795 15.7275C16.4633 15.3602 17.246 15.1511 18.0795 15.1511H18.0824C18.1671 15.1511 18.2067 15.0494 18.1445 14.9929C17.2777 14.2149 16.2874 13.5866 15.2144 13.1336C15.2031 13.128 15.1918 13.1252 15.1804 13.1195C16.9352 11.8452 18.0767 9.77398 18.0767 7.4372C18.0767 3.56612 14.9459 0.429688 11.0833 0.429688C7.2207 0.429688 4.09275 3.56612 4.09275 7.4372C4.09275 9.77398 5.2343 11.8452 6.99183 13.1195C6.98053 13.1252 6.96922 13.128 6.95792 13.1336C5.69487 13.6677 4.5618 14.4334 3.58697 15.4111C2.61776 16.3785 1.84615 17.5254 1.31518 18.7877C0.792757 20.0238 0.510813 21.3482 0.484446 22.6899C0.483691 22.72 0.488981 22.75 0.500003 22.7781C0.511025 22.8062 0.527556 22.8318 0.548622 22.8534C0.569688 22.875 0.594863 22.8921 0.622664 22.9038C0.650464 22.9155 0.680328 22.9216 0.710495 22.9216H2.40304C2.52454 22.9216 2.62626 22.8227 2.62908 22.7012C2.6856 20.5198 3.55871 18.4769 5.10432 16.9284C6.70079 15.3263 8.82565 14.4447 11.0861 14.4447C12.6883 14.4447 14.2254 14.8883 15.5506 15.7191C15.5846 15.7405 15.6237 15.7525 15.6639 15.754C15.7041 15.7555 15.7439 15.7464 15.7795 15.7275ZM11.0861 12.2973C9.79201 12.2973 8.57417 11.7915 7.65585 10.8731C7.20402 10.4225 6.84582 9.88688 6.60189 9.29719C6.35796 8.70749 6.23312 8.07536 6.23456 7.4372C6.23456 6.14025 6.74035 4.91958 7.65585 4.00126C8.57134 3.08294 9.78918 2.57715 11.0861 2.57715C12.3831 2.57715 13.5981 3.08294 14.5164 4.00126C14.9683 4.45192 15.3265 4.98752 15.5704 5.57722C15.8143 6.16692 15.9392 6.79905 15.9377 7.4372C15.9377 8.73416 15.4319 9.95482 14.5164 10.8731C13.5981 11.7915 12.3803 12.2973 11.0861 12.2973Z" fill="white"/>
<path d="M20.7168 20.5758V19.0752C20.7168 17.6747 19.3162 16.5742 17.9157 16.5742C16.5151 16.5742 15.1145 17.6747 15.1145 19.0752V20.5758C14.5143 20.5758 13.9141 21.1761 13.9141 21.7763V25.2777C13.9141 25.978 14.5143 26.5782 15.1145 26.5782H20.6168C21.317 26.5782 21.9173 25.978 21.9173 25.3778V21.8763C21.9173 21.1761 21.317 20.5758 20.7168 20.5758ZM19.4163 20.5758H16.4151V19.0752C16.4151 18.2749 17.1153 17.7747 17.9157 17.7747C18.716 17.7747 19.4163 18.2749 19.4163 19.0752V20.5758Z" fill="white"/>
</svg>
