<svg width="118" height="103" viewBox="0 0 118 103" fill="none" xmlns="http://www.w3.org/2000/svg">
<path d="M4.96984 85.0525H0.169844V83.3125H11.7498V85.0525H6.94984V97.3125H4.96984V85.0525ZM19.3081 86.6125C20.6548 86.6125 21.7215 87.0058 22.5081 87.7925C23.3081 88.5658 23.7081 89.7058 23.7081 91.2125V97.3125H21.7881V91.4325C21.7881 90.4058 21.5415 89.6325 21.0481 89.1125C20.5548 88.5925 19.8481 88.3325 18.9281 88.3325C17.8881 88.3325 17.0681 88.6392 16.4681 89.2525C15.8681 89.8525 15.5681 90.7192 15.5681 91.8525V97.3125H13.6481V82.4725H15.5681V88.2125C15.9681 87.7058 16.4881 87.3125 17.1281 87.0325C17.7815 86.7525 18.5081 86.6125 19.3081 86.6125ZM31.1214 86.6125C32.5881 86.6125 33.7081 86.9725 34.4814 87.6925C35.2681 88.4125 35.6614 89.4858 35.6614 90.9125V97.3125H33.8414V95.9125C33.5214 96.4058 33.0614 96.7858 32.4614 97.0525C31.8747 97.3058 31.1747 97.4325 30.3614 97.4325C29.1747 97.4325 28.2214 97.1458 27.5014 96.5725C26.7947 95.9992 26.4414 95.2458 26.4414 94.3125C26.4414 93.3792 26.7814 92.6325 27.4614 92.0725C28.1414 91.4992 29.2214 91.2125 30.7014 91.2125H33.7414V90.8325C33.7414 90.0058 33.5014 89.3725 33.0214 88.9325C32.5414 88.4925 31.8347 88.2725 30.9014 88.2725C30.2747 88.2725 29.6614 88.3792 29.0614 88.5925C28.4614 88.7925 27.9547 89.0658 27.5414 89.4125L26.7414 87.9725C27.2881 87.5325 27.9414 87.1992 28.7014 86.9725C29.4614 86.7325 30.2681 86.6125 31.1214 86.6125ZM30.6814 95.9525C31.4147 95.9525 32.0481 95.7925 32.5814 95.4725C33.1147 95.1392 33.5014 94.6725 33.7414 94.0725V92.5925H30.7814C29.1547 92.5925 28.3414 93.1392 28.3414 94.2325C28.3414 94.7658 28.5481 95.1858 28.9614 95.4925C29.3747 95.7992 29.9481 95.9525 30.6814 95.9525ZM44.8745 86.6125C46.2212 86.6125 47.2879 87.0058 48.0745 87.7925C48.8745 88.5658 49.2745 89.7058 49.2745 91.2125V97.3125H47.3545V91.4325C47.3545 90.4058 47.1079 89.6325 46.6145 89.1125C46.1212 88.5925 45.4145 88.3325 44.4945 88.3325C43.4545 88.3325 42.6345 88.6392 42.0345 89.2525C41.4345 89.8525 41.1345 90.7192 41.1345 91.8525V97.3125H39.2145V86.7125H41.0545V88.3125C41.4412 87.7658 41.9612 87.3458 42.6145 87.0525C43.2812 86.7592 44.0345 86.6125 44.8745 86.6125ZM56.9478 92.3725L54.7478 94.4125V97.3125H52.8278V82.4725H54.7478V91.9925L60.5278 86.7125H62.8478L58.3878 91.0925L63.2878 97.3125H60.9278L56.9478 92.3725ZM79.9031 86.7125L74.7631 98.3725C74.3098 99.4525 73.7765 100.213 73.1631 100.653C72.5631 101.093 71.8365 101.313 70.9831 101.313C70.4631 101.313 69.9565 101.226 69.4631 101.053C68.9831 100.893 68.5831 100.653 68.2631 100.333L69.0831 98.8925C69.6298 99.4125 70.2631 99.6725 70.9831 99.6725C71.4498 99.6725 71.8365 99.5458 72.1431 99.2925C72.4631 99.0525 72.7498 98.6325 73.0031 98.0325L73.3431 97.2925L68.6631 86.7125H70.6631L74.3631 95.1925L78.0231 86.7125H79.9031ZM85.942 97.4325C84.8887 97.4325 83.942 97.1992 83.102 96.7325C82.262 96.2658 81.602 95.6258 81.122 94.8125C80.6554 93.9858 80.422 93.0525 80.422 92.0125C80.422 90.9725 80.6554 90.0458 81.122 89.2325C81.602 88.4058 82.262 87.7658 83.102 87.3125C83.942 86.8458 84.8887 86.6125 85.942 86.6125C86.9954 86.6125 87.9354 86.8458 88.762 87.3125C89.602 87.7658 90.2554 88.4058 90.722 89.2325C91.202 90.0458 91.442 90.9725 91.442 92.0125C91.442 93.0525 91.202 93.9858 90.722 94.8125C90.2554 95.6258 89.602 96.2658 88.762 96.7325C87.9354 97.1992 86.9954 97.4325 85.942 97.4325ZM85.942 95.7525C86.622 95.7525 87.2287 95.5992 87.762 95.2925C88.3087 94.9725 88.7354 94.5325 89.042 93.9725C89.3487 93.3992 89.502 92.7458 89.502 92.0125C89.502 91.2792 89.3487 90.6325 89.042 90.0725C88.7354 89.4992 88.3087 89.0592 87.762 88.7525C87.2287 88.4458 86.622 88.2925 85.942 88.2925C85.262 88.2925 84.6487 88.4458 84.102 88.7525C83.5687 89.0592 83.142 89.4992 82.822 90.0725C82.5154 90.6325 82.362 91.2792 82.362 92.0125C82.362 92.7458 82.5154 93.3992 82.822 93.9725C83.142 94.5325 83.5687 94.9725 84.102 95.2925C84.6487 95.5992 85.262 95.7525 85.942 95.7525ZM103.977 86.7125V97.3125H102.157V95.7125C101.771 96.2592 101.257 96.6858 100.617 96.9925C99.9907 97.2858 99.304 97.4325 98.5573 97.4325C97.144 97.4325 96.0307 97.0458 95.2173 96.2725C94.404 95.4858 93.9973 94.3325 93.9973 92.8125V86.7125H95.9173V92.5925C95.9173 93.6192 96.164 94.3992 96.6573 94.9325C97.1507 95.4525 97.8573 95.7125 98.7773 95.7125C99.7907 95.7125 100.591 95.4058 101.177 94.7925C101.764 94.1792 102.057 93.3125 102.057 92.1925V86.7125H103.977ZM112.744 83.3125H115.004L114.624 92.8925H113.104L112.744 83.3125ZM113.884 97.4325C113.51 97.4325 113.197 97.3125 112.944 97.0725C112.69 96.8192 112.564 96.5125 112.564 96.1525C112.564 95.7925 112.69 95.4925 112.944 95.2525C113.197 94.9992 113.51 94.8725 113.884 94.8725C114.257 94.8725 114.564 94.9992 114.804 95.2525C115.044 95.4925 115.164 95.7925 115.164 96.1525C115.164 96.5125 115.037 96.8192 114.784 97.0725C114.544 97.3125 114.244 97.4325 113.884 97.4325Z" fill="#11A529"/>
<ellipse cx="58.5877" cy="34.9471" rx="24.0135" ry="24.0135" fill="white"/>
<path fill-rule="evenodd" clip-rule="evenodd" d="M28.0039 34.6482C28.0039 26.4815 31.2481 18.6492 37.0229 12.8745C42.7976 7.09969 50.6299 3.85547 58.7966 3.85547C66.9634 3.85547 74.7956 7.09969 80.5704 12.8745C86.3452 18.6492 89.5894 26.4815 89.5894 34.6482C89.5894 42.8149 86.3452 50.6472 80.5704 56.422C74.7956 62.1967 66.9634 65.4409 58.7966 65.4409C50.6299 65.4409 42.7976 62.1967 37.0229 56.422C31.2481 50.6472 28.0039 42.8149 28.0039 34.6482ZM57.0394 47.8275L74.7678 25.6649L71.5654 23.103L56.4482 41.9933L45.7405 33.0716L43.1129 36.2248L57.0394 47.8316V47.8275Z" fill="#11A529"/>
</svg>
