<svg width="20" height="23" viewBox="0 0 20 23" fill="none" xmlns="http://www.w3.org/2000/svg">
<path d="M2.6475 0.882812C2.11939 0.882812 1.61291 1.0926 1.23947 1.46604C0.866042 1.83947 0.65625 2.34595 0.65625 2.87406V20.1316C0.65625 20.6597 0.866042 21.1662 1.23947 21.5396C1.61291 21.913 2.11939 22.1228 2.6475 22.1228H11.94C12.4681 22.1228 12.9746 21.913 13.348 21.5396C13.7215 21.1662 13.9312 20.6597 13.9312 20.1316V18.1403C13.9312 17.9643 13.8613 17.7954 13.7368 17.671C13.6124 17.5465 13.4435 17.4766 13.2675 17.4766C12.7192 17.4766 12.3688 17.3412 12.1312 17.1633C11.8882 16.9814 11.7037 16.7093 11.5683 16.3362C11.2842 15.5557 11.2762 14.5215 11.2762 13.4941C11.2762 13.4067 11.259 13.3203 11.2255 13.2397C11.192 13.159 11.1429 13.0858 11.0811 13.0241L10.7014 12.6431L9.09119 11.0329C8.47124 10.4129 8.28937 9.99743 8.25486 9.76511C8.22831 9.57926 8.28406 9.45448 8.41681 9.32704C8.7009 9.0549 8.90401 8.87038 9.13366 8.81462C9.2704 8.78011 9.58236 8.75621 10.1426 9.31642L14.1251 13.2989C14.2495 13.4236 14.4184 13.4936 14.5945 13.4938C14.6817 13.4938 14.7681 13.4767 14.8487 13.4434C14.9293 13.4101 15.0026 13.3612 15.0643 13.2996C15.126 13.238 15.175 13.1648 15.2084 13.0842C15.2418 13.0037 15.2591 12.9173 15.2591 12.8301C15.2592 12.7429 15.2421 12.6565 15.2087 12.5759C15.1754 12.4953 15.1266 12.4221 15.0649 12.3604L13.9312 11.228V7.13135L17.3297 10.5298C17.5148 10.7146 17.6616 10.9342 17.7619 11.1759C17.8621 11.4175 17.9137 11.6766 17.9137 11.9382V21.4591C17.9137 21.6351 17.9837 21.8039 18.1082 21.9284C18.2326 22.0529 18.4015 22.1228 18.5775 22.1228C18.7535 22.1228 18.9224 22.0529 19.0468 21.9284C19.1713 21.8039 19.2412 21.6351 19.2412 21.4591V11.9382C19.2411 11.0584 18.8915 10.2147 18.2695 9.59254L13.9312 5.25427V2.87406C13.9312 2.34595 13.7215 1.83947 13.348 1.46604C12.9746 1.0926 12.4681 0.882813 11.94 0.882812H2.6475ZM12.6037 5.52906V9.90052L11.0824 8.37788C10.3138 7.61058 9.5505 7.34641 8.81905 7.52429C8.67536 7.55976 8.53601 7.61096 8.40354 7.67696C7.81014 7.50506 7.18489 7.47353 6.5772 7.58485C5.96952 7.69618 5.39605 7.94731 4.90212 8.3184C4.4082 8.68949 4.00734 9.17037 3.73124 9.72304C3.45514 10.2757 3.31135 10.885 3.31125 11.5028C3.3112 12.2727 3.53429 13.0261 3.95353 13.6718C4.37278 14.3175 4.97019 14.8279 5.67347 15.1411C6.37675 15.4543 7.15575 15.557 7.91616 15.4367C8.67658 15.3163 9.38582 14.9782 9.95804 14.4631C9.98061 15.2304 10.0576 16.0694 10.3204 16.7902C10.5169 17.3305 10.8302 17.8469 11.3347 18.2239L11.3426 18.2319C10.9384 18.359 10.5853 18.6118 10.3346 18.9535C10.0839 19.2951 9.94872 19.7078 9.94875 20.1316V20.7953H4.63875V20.1316C4.63875 19.6034 4.42896 19.097 4.05553 18.7235C3.68209 18.3501 3.17561 18.1403 2.6475 18.1403H1.98375V4.86531H2.6475C3.17561 4.86531 3.68209 4.65552 4.05553 4.28209C4.42896 3.90866 4.63875 3.40217 4.63875 2.87406V2.21031H9.94875V2.87406C9.94875 3.40217 10.1585 3.90866 10.532 4.28209C10.9054 4.65552 11.4119 4.86531 11.94 4.86531H12.6037V5.52906ZM12.6037 20.1316V20.1435C12.6006 20.3175 12.5293 20.4832 12.4052 20.6051C12.281 20.7271 12.114 20.7953 11.94 20.7953H11.2762V20.1316C11.2762 19.9555 11.3462 19.7867 11.4707 19.6622C11.5951 19.5377 11.764 19.4678 11.94 19.4678H12.6037V20.1316ZM4.63875 11.5028C4.63876 10.8276 4.89601 10.1778 5.35816 9.68557C5.82031 9.19333 6.45264 8.89566 7.12649 8.85312C6.96188 9.15845 6.87824 9.53015 6.94196 9.95893C7.03622 10.5988 7.44376 11.2639 8.15131 11.9714L9.35536 13.1755C9.00971 13.6014 8.5406 13.9098 8.01253 14.0584C7.48447 14.2069 6.92336 14.1882 6.40636 14.0048C5.88935 13.8215 5.44183 13.4825 5.12531 13.0345C4.80879 12.5864 4.63881 12.0514 4.63875 11.5028ZM3.31125 2.21031V2.87406C3.31125 3.0501 3.24132 3.21893 3.11684 3.3434C2.99236 3.46788 2.82354 3.53781 2.6475 3.53781H1.98375V2.87406C1.98375 2.69803 2.05368 2.5292 2.17816 2.40472C2.30264 2.28024 2.47146 2.21031 2.6475 2.21031H3.31125ZM1.98375 19.4678H2.6475C2.82354 19.4678 2.99236 19.5377 3.11684 19.6622C3.24132 19.7867 3.31125 19.9555 3.31125 20.1316V20.7953H2.6475C2.47146 20.7953 2.30264 20.7254 2.17816 20.6009C2.05368 20.4764 1.98375 20.3076 1.98375 20.1316V19.4678ZM12.6037 3.53781H11.94C11.764 3.53781 11.5951 3.46788 11.4707 3.3434C11.3462 3.21893 11.2762 3.0501 11.2762 2.87406V2.21031H11.94C12.116 2.21031 12.2849 2.28024 12.4093 2.40472C12.5338 2.5292 12.6037 2.69803 12.6037 2.87406V3.53781Z" fill="white"/>
</svg>
