<svg width="16" height="16" viewBox="0 0 16 16" fill="none" xmlns="http://www.w3.org/2000/svg">
<path d="M3.16797 8.58545H6.91797C7.08373 8.58545 7.2427 8.5196 7.35991 8.40239C7.47712 8.28518 7.54297 8.12621 7.54297 7.96045V2.96045C7.54297 2.79469 7.47712 2.63572 7.35991 2.51851C7.2427 2.4013 7.08373 2.33545 6.91797 2.33545H3.16797C3.00221 2.33545 2.84324 2.4013 2.72603 2.51851C2.60882 2.63572 2.54297 2.79469 2.54297 2.96045V7.96045C2.54297 8.12621 2.60882 8.28518 2.72603 8.40239C2.84324 8.5196 3.00221 8.58545 3.16797 8.58545ZM2.54297 12.9604C2.54297 13.1262 2.60882 13.2852 2.72603 13.4024C2.84324 13.5196 3.00221 13.5854 3.16797 13.5854H6.91797C7.08373 13.5854 7.2427 13.5196 7.35991 13.4024C7.47712 13.2852 7.54297 13.1262 7.54297 12.9604V10.4604C7.54297 10.2947 7.47712 10.1357 7.35991 10.0185C7.2427 9.9013 7.08373 9.83545 6.91797 9.83545H3.16797C3.00221 9.83545 2.84324 9.9013 2.72603 10.0185C2.60882 10.1357 2.54297 10.2947 2.54297 10.4604V12.9604ZM8.79297 12.9604C8.79297 13.1262 8.85882 13.2852 8.97603 13.4024C9.09324 13.5196 9.25221 13.5854 9.41797 13.5854H13.168C13.3337 13.5854 13.4927 13.5196 13.6099 13.4024C13.7271 13.2852 13.793 13.1262 13.793 12.9604V8.58545C13.793 8.41969 13.7271 8.26072 13.6099 8.14351C13.4927 8.0263 13.3337 7.96045 13.168 7.96045H9.41797C9.25221 7.96045 9.09324 8.0263 8.97603 8.14351C8.85882 8.26072 8.79297 8.41969 8.79297 8.58545V12.9604ZM9.41797 6.71045H13.168C13.3337 6.71045 13.4927 6.6446 13.6099 6.52739C13.7271 6.41018 13.793 6.25121 13.793 6.08545V2.96045C13.793 2.79469 13.7271 2.63572 13.6099 2.51851C13.4927 2.4013 13.3337 2.33545 13.168 2.33545H9.41797C9.25221 2.33545 9.09324 2.4013 8.97603 2.51851C8.85882 2.63572 8.79297 2.79469 8.79297 2.96045V6.08545C8.79297 6.25121 8.85882 6.41018 8.97603 6.52739C9.09324 6.6446 9.25221 6.71045 9.41797 6.71045Z" fill="#8973FD"/>
</svg>
