<svg width="15" height="16" viewBox="0 0 15 16" fill="none" xmlns="http://www.w3.org/2000/svg">
<path d="M5.62531 8.12757V14.0544C5.62532 14.1344 5.64576 14.213 5.6847 14.2828C5.72365 14.3526 5.77979 14.4113 5.84781 14.4533C5.91582 14.4953 5.99345 14.5192 6.07331 14.5227C6.15316 14.5263 6.2326 14.5093 6.30406 14.4735L9.11656 13.0673C9.19433 13.0283 9.25971 12.9685 9.30541 12.8944C9.35111 12.8204 9.37531 12.7352 9.37531 12.6482V8.12757L13.4881 3.10163C13.5272 3.05398 13.5564 2.99912 13.5742 2.94016C13.5921 2.88121 13.5981 2.81932 13.592 2.75804C13.5859 2.69675 13.5678 2.63726 13.5387 2.58297C13.5096 2.52869 13.4701 2.48066 13.4225 2.44163C13.3749 2.4026 13.32 2.37334 13.261 2.35552C13.2021 2.33769 13.1402 2.33166 13.0789 2.33775C13.0176 2.34384 12.9581 2.36195 12.9038 2.39103C12.8496 2.42012 12.8015 2.45961 12.7625 2.50725L8.54375 7.6635C8.47516 7.74735 8.43772 7.85236 8.43781 7.96069V12.3585L6.56281 13.296V7.96069C6.5629 7.85236 6.52547 7.74735 6.45688 7.6635L2.86438 3.27319H10.3128C10.4371 3.27319 10.5564 3.2238 10.6443 3.1359C10.7322 3.04799 10.7816 2.92876 10.7816 2.80444C10.7816 2.68012 10.7322 2.56089 10.6443 2.47298C10.5564 2.38508 10.4371 2.33569 10.3128 2.33569H1.87531C1.78651 2.33563 1.69952 2.3608 1.62447 2.40826C1.54942 2.45572 1.48939 2.52352 1.45137 2.60378C1.41336 2.68403 1.39892 2.77343 1.40974 2.86157C1.42057 2.9497 1.4562 3.03296 1.5125 3.10163L5.62531 8.12757Z" fill="white"/>
</svg>
