<svg width="16" height="16" viewBox="0 0 16 16" fill="none" xmlns="http://www.w3.org/2000/svg">
<path d="M13.4572 13.5856L10.7428 10.8712M10.7428 10.8712C11.2071 10.4069 11.5754 9.85569 11.8267 9.24904C12.078 8.6424 12.2073 7.9922 12.2073 7.33558C12.2073 6.67895 12.078 6.02876 11.8267 5.42211C11.5754 4.81547 11.2071 4.26426 10.7428 3.79995C10.2785 3.33565 9.72727 2.96734 9.12063 2.71606C8.51398 2.46478 7.86379 2.33545 7.20716 2.33545C6.55053 2.33545 5.90034 2.46478 5.29369 2.71606C4.68705 2.96734 4.13584 3.33565 3.67153 3.79995C2.73383 4.73766 2.20703 6.00946 2.20703 7.33558C2.20703 8.66169 2.73383 9.9335 3.67153 10.8712C4.60924 11.8089 5.88104 12.3357 7.20716 12.3357C8.53328 12.3357 9.80508 11.8089 10.7428 10.8712Z" stroke="#D8D8D8" stroke-width="1.25" stroke-linecap="round" stroke-linejoin="round"/>
</svg>
