<svg width="15" height="16" viewBox="0 0 15 16" fill="none" xmlns="http://www.w3.org/2000/svg">
<path d="M6.80786 4.85759C6.90845 4.757 6.96496 4.62057 6.96496 4.47831C6.96496 4.33605 6.90845 4.19961 6.80786 4.09902C6.70726 3.99843 6.57083 3.94192 6.42857 3.94192C6.28631 3.94192 6.14988 3.99843 6.04929 4.09902L4.53643 5.61188L4.11107 5.22402C4.00538 5.13369 3.86872 5.08798 3.72995 5.09656C3.59118 5.10513 3.46119 5.16732 3.36743 5.26998C3.27367 5.37264 3.2235 5.50773 3.22751 5.64671C3.23152 5.78568 3.2894 5.91765 3.38893 6.01473L4.1925 6.74866C4.29432 6.84136 4.42792 6.8913 4.56557 6.88811C4.70323 6.88491 4.83438 6.82884 4.93179 6.73152L6.80679 4.85652L6.80786 4.85759ZM6.80786 9.45616C6.85775 9.50593 6.89733 9.56504 6.92433 9.63013C6.95134 9.69521 6.96524 9.76498 6.96524 9.83545C6.96524 9.90591 6.95134 9.97569 6.92433 10.0408C6.89733 10.1059 6.85775 10.165 6.80786 10.2147L4.93286 12.0897C4.83526 12.1872 4.70381 12.2433 4.5659 12.2463C4.42799 12.2493 4.29424 12.199 4.1925 12.1058L3.38893 11.3719C3.2894 11.2748 3.23152 11.1428 3.22751 11.0039C3.2235 10.8649 3.27367 10.7298 3.36743 10.6271C3.46119 10.5245 3.59118 10.4623 3.72995 10.4537C3.86872 10.4451 4.00538 10.4908 4.11107 10.5812L4.53643 10.9701L6.04929 9.45616C6.09905 9.40627 6.15817 9.36669 6.22325 9.33969C6.28833 9.31268 6.35811 9.29878 6.42857 9.29878C6.49904 9.29878 6.56881 9.31268 6.63389 9.33969C6.69898 9.36669 6.75809 9.40627 6.80786 9.45616ZM8.57143 10.1033C8.42935 10.1033 8.29309 10.1597 8.19262 10.2602C8.09215 10.3607 8.03571 10.4969 8.03571 10.639C8.03571 10.7811 8.09215 10.9174 8.19262 11.0178C8.29309 11.1183 8.42935 11.1747 8.57143 11.1747H11.25C11.3921 11.1747 11.5283 11.1183 11.6288 11.0178C11.7293 10.9174 11.7857 10.7811 11.7857 10.639C11.7857 10.4969 11.7293 10.3607 11.6288 10.2602C11.5283 10.1597 11.3921 10.1033 11.25 10.1033H8.57143ZM8.03571 5.28188C8.03571 5.1398 8.09215 5.00354 8.19262 4.90307C8.29309 4.8026 8.42935 4.74616 8.57143 4.74616H11.25C11.3921 4.74616 11.5283 4.8026 11.6288 4.90307C11.7293 5.00354 11.7857 5.1398 11.7857 5.28188C11.7857 5.42396 11.7293 5.56022 11.6288 5.66068C11.5283 5.76115 11.3921 5.81759 11.25 5.81759H8.57143C8.42935 5.81759 8.29309 5.76115 8.19262 5.66068C8.09215 5.56022 8.03571 5.42396 8.03571 5.28188ZM3.21429 0.460449C2.3618 0.460449 1.54424 0.799096 0.941443 1.40189C0.338647 2.00469 0 2.82225 0 3.67473V12.2462C0 13.0986 0.338647 13.9162 0.941443 14.519C1.54424 15.1218 2.3618 15.4604 3.21429 15.4604H11.7857C12.6382 15.4604 13.4558 15.1218 14.0586 14.519C14.6614 13.9162 15 13.0986 15 12.2462V3.67473C15 2.82225 14.6614 2.00469 14.0586 1.40189C13.4558 0.799096 12.6382 0.460449 11.7857 0.460449H3.21429ZM1.07143 3.67473C1.07143 3.10641 1.29719 2.56137 1.69906 2.15951C2.10092 1.75764 2.64596 1.53188 3.21429 1.53188H11.7857C12.354 1.53188 12.8991 1.75764 13.3009 2.15951C13.7028 2.56137 13.9286 3.10641 13.9286 3.67473V12.2462C13.9286 12.8145 13.7028 13.3595 13.3009 13.7614C12.8991 14.1633 12.354 14.389 11.7857 14.389H3.21429C2.64596 14.389 2.10092 14.1633 1.69906 13.7614C1.29719 13.3595 1.07143 12.8145 1.07143 12.2462V3.67473Z" fill="#6F6F6F"/>
</svg>
