<svg width="16" height="16" viewBox="0 0 16 16" fill="none" xmlns="http://www.w3.org/2000/svg">
<g clip-path="url(#clip0_3087_29812)">
<path d="M14.1561 3.21875L10.3105 7.01855V3.21875H9.29907L5.62305 6.94728V0.875H1.16992V14.9375H15.2324V3.21875H14.1561ZM14.2949 14H2.10742V1.8125H4.68555V8.14062H5.76303L9.37305 4.47904V8.14062H10.5087L14.2949 4.39941V14Z" fill="#6F6F6F"/>
<path d="M4.68555 10.0156V10.25H5.62305V9.3125H4.68555V10.0156ZM4.68555 11.4219H5.62305V12.3594H4.68555V11.4219ZM7.0293 10.0156V10.25H7.9668V9.3125H7.0293V10.0156ZM7.0293 11.4219H7.9668V12.3594H7.0293V11.4219ZM9.37305 10.0156V10.25H10.3105V9.3125H9.37305V10.0156ZM9.37305 11.4219H10.3105V12.3594H9.37305V11.4219ZM11.7168 9.3125H12.6543V10.25H11.7168V9.3125ZM11.7168 11.4219H12.6543V12.3594H11.7168V11.4219Z" fill="#6F6F6F"/>
</g>
<defs>
<clipPath id="clip0_3087_29812">
<rect width="15" height="15" fill="white" transform="translate(0.701172 0.40625)"/>
</clipPath>
</defs>
</svg>
